<svg width="201" height="151" viewBox="0 0 201 151" fill="none" xmlns="http://www.w3.org/2000/svg">
<path fill-rule="evenodd" clip-rule="evenodd" d="M93.1296 30.2739C92.2436 30.8865 90.112 31.7364 89.5469 30.2739C89.9628 27.8372 92.0379 29.6229 93.1296 30.2739Z" fill="#0C2221"/>
<path fill-rule="evenodd" clip-rule="evenodd" d="M96.0376 30.9569C95.3255 31.3389 94.7672 30.8168 93.8178 30.9569C93.9015 30.4144 93.5104 30.3534 93.646 29.7611C94.6361 29.3317 96.1958 29.6775 96.0376 30.9569Z" fill="#0C2221"/>
<path fill-rule="evenodd" clip-rule="evenodd" d="M123.841 31.2923C123.365 32.0179 122.196 32.3547 122.646 33.5143C123.407 33.4804 123.647 32.9198 124.013 32.4904C124.687 32.2688 124.359 33.0509 125.033 32.8294C124.757 33.39 125.073 33.4849 125.033 34.197C124.664 34.6219 123.783 34.536 123.841 35.3927C123.161 35.3362 122.892 35.6979 122.135 35.5623C121.796 34.7169 122.365 34.6468 122.474 33.8557C121.703 33.7585 121.136 34.102 120.256 33.5143C119.978 31.4212 122.395 30.569 123.841 31.2923Z" fill="#0C2221"/>
<path fill-rule="evenodd" clip-rule="evenodd" d="M98.0775 33.3465C97.0988 33.6223 95.5572 33.6517 95.1797 32.8334C95.5527 30.5029 98.7489 31.0612 98.0775 33.3465Z" fill="#0C2221"/>
<path fill-rule="evenodd" clip-rule="evenodd" d="M90.0641 33.0078C90.1613 34.6059 89.0288 35.813 87.5053 35.2275C87.3878 34.5426 87.6681 34.2533 87.6771 33.6905C88.4004 33.3921 89.2391 33.209 90.0641 33.0078Z" fill="#0C2221"/>
<path fill-rule="evenodd" clip-rule="evenodd" d="M118.727 34.3735C118.309 35.2031 117.911 36.0598 116.853 36.2496C116.968 37.5177 117.694 37.5742 117.703 38.6412C117.093 38.4174 115.054 37.3301 113.951 38.4739C113.951 38.3609 113.951 38.2433 113.951 38.1303C111.241 39.36 107.323 38.3021 104.394 37.7867C103.661 36.2903 105.497 35.7003 106.783 36.2496C107.497 39.7691 110.18 36.0258 111.561 35.567C111.986 35.6551 112.129 36.0236 112.585 36.0824C112.674 36.8509 112.572 37.4341 112.072 37.6194C112.255 38.006 113.146 37.6827 113.607 37.7867C114.346 36.878 115.375 36.2564 116.681 35.9106C115.128 35.2731 115.768 33.6547 117.02 33.1777C118.085 33.0805 117.906 34.2266 118.727 34.3735Z" fill="#0C2221"/>
<path fill-rule="evenodd" clip-rule="evenodd" d="M103.536 33.5154C103.194 33.9177 102.93 34.3901 101.999 34.198C102.001 35.6085 100.407 36.8269 99.4375 35.7374C99.5166 35.0728 99.9619 34.7812 100.12 34.198C101.354 34.0466 102.008 32.8621 103.536 33.5154Z" fill="#0C2221"/>
<path fill-rule="evenodd" clip-rule="evenodd" d="M121.793 35.0616C121.217 35.9748 120.125 37.0666 118.891 36.7682C118.972 35.1272 120.172 34.2388 121.793 35.0616Z" fill="#0C2221"/>
<path fill-rule="evenodd" clip-rule="evenodd" d="M84.4247 36.6016C84.8406 37.0423 85.8171 36.918 85.7922 37.7951C86.4591 37.9556 86.2217 37.2051 86.9835 37.456C86.5404 38.8326 85.4487 39.5627 83.7398 39.6757C83.4685 38.6133 84.0743 37.5442 84.4247 36.6016Z" fill="#0C2221"/>
<path fill-rule="evenodd" clip-rule="evenodd" d="M82.2101 41.3846C81.9908 42.0266 81.437 42.3227 81.1839 42.924C80.5577 42.8675 79.6739 43.0686 79.3077 42.7522C79.1359 40.3064 81.0482 40.0351 82.2101 41.3846Z" fill="#0C2221"/>
<path fill-rule="evenodd" clip-rule="evenodd" d="M77.5988 44.1182C78.2227 44.4324 78.616 44.0798 79.1336 44.29C78.3108 45.0586 76.9885 45.3321 75.5508 45.4858C75.4604 44.9546 74.8388 44.9478 74.8682 44.29C75.2683 43.2322 77.3592 42.0952 77.5988 44.1182Z" fill="#0C2221"/>
<path fill-rule="evenodd" clip-rule="evenodd" d="M72.9995 47.3531C71.6907 48.0154 69.749 48.0832 69.9253 45.9878C70.9719 44.236 73.004 45.0068 72.9995 47.3531Z" fill="#0C2221"/>
<path fill-rule="evenodd" clip-rule="evenodd" d="M65.3236 47.3549C65.3507 46.93 64.9393 46.9413 64.8105 46.6745C64.8828 47.0023 64.8715 47.4114 65.3236 47.3549ZM67.1975 45.4788C67.2924 46.1614 67.2924 45.9941 67.1975 46.6745C66.6776 46.5525 66.698 46.9706 66.1758 46.8441C66.3272 47.6329 66.9014 48.4218 66.6867 49.066C65.787 49.0819 65.9724 48.519 65.3236 49.066C64.3901 48.3518 63.4362 46.9232 63.7843 45.4788C64.806 45.1352 66.2255 44.9702 67.1975 45.4788Z" fill="#0C2221"/>
<path fill-rule="evenodd" clip-rule="evenodd" d="M127.08 49.4119C125.988 49.4774 125.15 49.2943 124.521 48.8988C124.128 45.4087 127.871 46.9503 127.08 49.4119Z" fill="#0C2221"/>
<path fill-rule="evenodd" clip-rule="evenodd" d="M90.228 89.7048C90.4224 90.3807 90.4224 89.0312 90.228 89.7048ZM93.1281 87.996C93.2412 87.996 93.3564 87.996 93.4672 87.996C93.4672 87.8829 93.4672 87.7699 93.4672 87.6569C93.3564 87.6569 93.2412 87.6569 93.1281 87.6569C93.1281 87.7699 93.1281 87.8829 93.1281 87.996ZM94.1521 82.0172C94.2629 82.1324 94.082 81.9471 94.1521 82.0172ZM96.3696 78.2626C96.5301 77.9122 97.2489 78.1157 97.2218 77.5799C96.9935 77.5799 96.7674 77.5799 96.5414 77.5799C96.885 78.1247 95.8632 78.1134 96.3696 78.2626ZM100.976 75.3579C100.845 75.3964 100.642 75.3647 100.637 75.5275C100.768 75.4913 100.974 75.5252 100.976 75.3579ZM97.5631 75.7015C98.092 75.5998 98.7724 75.6586 98.7588 75.0189C97.9609 74.8471 98.0061 75.5162 97.5631 75.7015ZM102.511 73.4818C103.011 73.7304 103.011 72.7178 102.511 72.9687C102.511 73.1382 102.511 73.3077 102.511 73.4818ZM102.511 72.4556C103.011 72.7065 103.011 71.6915 102.511 71.9424C102.511 72.112 102.511 72.2838 102.511 72.4556ZM103.022 69.8945C103.596 69.4808 102.611 70.4664 103.022 69.8945ZM104.216 69.8945C104.313 69.3633 104.726 69.1508 104.898 68.6987C104.188 68.5043 103.813 69.5328 104.216 69.8945ZM106.607 66.479C106.616 66.6576 106.826 66.6124 106.777 66.305C106.196 65.993 105.97 66.2145 106.607 66.479ZM108.653 61.1828C108.766 61.2936 108.58 61.1105 108.653 61.1828ZM108.14 59.1326C108.314 59.1326 108.483 59.1326 108.653 59.1326C108.626 58.9315 108.684 58.6489 108.483 58.6218C108.467 58.8908 108.049 58.7574 108.14 59.1326ZM111.214 56.7434C111.325 56.8541 111.141 56.671 111.214 56.7434ZM114.966 51.9603C115.079 52.0711 114.896 51.888 114.966 51.9603ZM116.847 51.1059C117.541 51.2618 117.604 52.053 117.527 52.9843C116.991 53.0182 116.951 53.5471 116.329 53.4974C114.012 57.0937 111.587 60.5906 109.851 64.7701C109.161 64.6503 109.43 65.4889 108.827 65.4528C108.965 66.045 108.569 66.1106 108.653 66.6463C106.494 69.6662 104.202 72.5505 102.852 76.3842C101.101 79.0017 99.0414 81.5809 97.7349 84.7523C94.4957 89.5918 91.1118 94.2912 88.5214 99.7818C86.2203 99.5806 84.6696 98.629 83.5756 97.2208C83.5191 96.7709 83.9282 96.78 84.256 96.7076C84.256 96.1945 84.256 95.6837 84.256 95.1683C85.8337 92.7089 87.9292 90.7627 88.6909 87.4851C89.3713 86.5154 90.3116 85.8034 90.5716 84.4109C91.3605 84.5782 90.7999 83.3892 91.5933 83.5565C91.469 83.0343 91.8872 83.0547 91.7628 82.5303C93.8876 79.5895 96.2995 76.9402 97.5631 73.1382C98.205 73.2671 97.6829 72.2318 98.4175 72.4556C99.5703 68.9406 102.604 67.3086 103.707 63.7462C105.181 61.6937 106.469 59.4514 107.972 57.426C107.972 56.9717 107.972 56.5173 107.972 56.0585C108.888 54.4716 110.511 53.5901 110.529 51.1059C111.311 50.977 111.216 49.9689 111.383 49.2275C112.771 48.3979 113.608 47.01 115.649 46.8359C115.863 48.5019 117.125 49.1167 118.21 49.9124C118.165 50.864 117.71 51.4201 116.847 51.1059Z" fill="#0C2221"/>
<path fill-rule="evenodd" clip-rule="evenodd" d="M68.0485 51.6239C67.9309 52.076 67.723 52.4354 67.5376 52.8197C67.0155 52.3811 66.3396 52.1596 65.4897 52.4783C65.2795 52.1754 65.3654 51.5787 64.9766 51.4521C65.3834 49.958 67.2641 51.0678 68.0485 51.6239Z" fill="#0C2221"/>
<path fill-rule="evenodd" clip-rule="evenodd" d="M128.792 50.6094C129.961 50.6365 130.11 51.6808 131.694 51.2943C131.69 51.6944 131.986 51.7938 131.864 52.3183C130.969 52.958 128.819 52.7319 128.281 51.9747C128.806 51.8752 128.476 50.9191 128.792 50.6094Z" fill="#0C2221"/>
<path fill-rule="evenodd" clip-rule="evenodd" d="M90.0559 69.3886C90.4809 69.4135 90.7657 69.3005 90.9081 69.0473C90.5871 69.1219 89.8819 68.8145 90.0559 69.3886ZM85.2797 68.1929C85.6481 67.3316 84.9315 69.0089 85.2797 68.1929ZM83.7403 67.8515C83.6499 67.1282 84.4139 67.2706 84.4252 66.6535C83.7629 66.7032 83.1096 67.4854 83.7403 67.8515ZM82.21 66.4862C82.4044 67.1599 82.4044 65.8104 82.21 66.4862ZM88.6906 65.9731C88.8059 65.9731 88.9189 65.9731 89.032 65.9731C89.032 65.8601 89.032 65.7471 89.032 65.6318C88.9189 65.6318 88.8059 65.6318 88.6906 65.6318C88.6906 65.7471 88.6906 65.8601 88.6906 65.9731ZM85.6187 66.3122C86.2516 65.9777 87.7254 66.4885 87.8385 65.6318C87.0993 65.6318 86.3579 65.6318 85.6187 65.6318C85.6187 65.8601 85.6187 66.0862 85.6187 66.3122ZM90.9081 65.46C90.777 65.4984 90.5713 65.4645 90.5713 65.6318C90.7001 65.5934 90.9058 65.6273 90.9081 65.46ZM83.0599 65.9731C83.4397 66.0975 83.7629 65.3447 83.4012 65.2882C83.3289 65.5595 82.8633 65.4352 83.0599 65.9731ZM81.1838 65.6318C81.6178 65.6115 81.8483 65.3832 81.8664 64.9492C81.4867 65.0215 81.2584 65.2475 81.1838 65.6318ZM84.4252 65.2882C84.9225 65.5391 84.9225 64.5265 84.4252 64.7774C84.4252 64.9492 84.4252 65.1187 84.4252 65.2882ZM84.0839 63.4098C83.885 63.4369 83.6002 63.3804 83.5753 63.5816C83.7742 63.5545 84.0568 63.611 84.0839 63.4098ZM80.5011 63.7511C81.3917 63.9003 81.125 62.9012 81.5228 62.5554C80.8831 62.6526 80.431 62.9419 80.5011 63.7511ZM82.7209 62.3881C83.3063 62.3971 83.9279 61.5585 83.4012 61.0228C83.0124 61.2082 82.6643 62.3203 82.7209 62.3881ZM92.7865 62.3881C93.0306 62.3497 92.626 61.5382 92.7865 61.0228C92.2621 61.1471 92.5763 60.4306 91.9343 60.677C91.905 61.5585 92.3163 62.0016 92.7865 62.3881ZM79.8185 62.3881C79.8659 61.5789 80.4491 61.3076 80.5011 60.5074C80.2728 60.5074 80.0468 60.5074 79.8185 60.5074C79.9179 61.1268 79.3121 61.9225 79.8185 62.3881ZM93.8105 60.3356C93.7585 60.0011 94.0411 59.9966 94.1518 59.8248C93.7992 59.6733 93.3833 60.2678 93.8105 60.3356ZM84.9383 62.7272C85.7702 65.182 89.6536 64.3818 91.0776 62.8967C91.9841 59.1625 83.9415 58.238 84.9383 62.7272ZM92.4452 59.8248C92.6147 59.2552 92.2078 59.2642 91.7625 59.3117C91.7128 59.7615 91.9976 59.8723 92.4452 59.8248ZM83.0599 59.1421C83.5595 59.393 83.5595 58.3781 83.0599 58.629C83.0599 58.8008 83.0599 58.9703 83.0599 59.1421ZM83.5753 58.1159C83.6838 58.2289 83.5007 58.0436 83.5753 58.1159ZM93.4669 56.7506C93.5799 56.8614 93.3968 56.6783 93.4669 56.7506ZM88.5211 55.5526C88.6522 56.355 90.8267 56.2691 91.0776 55.8962C90.3746 55.3559 89.5925 55.3876 88.5211 55.5526ZM87.3253 55.3853C87.1942 55.4215 86.9908 55.3876 86.984 55.5526C87.1174 55.5164 87.3231 55.5503 87.3253 55.3853ZM96.1975 66.6535C93.6907 68.0301 90.881 71.4027 87.3253 70.0713C84.1178 70.1527 82.4315 68.7082 80.5011 67.5102C80.2027 66.0003 78.6702 64.7367 78.4554 62.8967C78.261 61.2556 78.9595 59.7818 79.3076 58.1159C80.6978 57.2886 81.4008 55.7718 82.5491 54.7004C82.8339 54.7004 83.1187 54.7004 83.4012 54.7004C84.1811 53.1385 86.3398 54.0065 87.3253 53.1656C87.8701 53.0164 87.9741 53.3125 88.1798 53.5046C89.1879 53.6357 90.8109 53.1475 91.0776 54.0155C95.1057 54.3772 98.2432 58.1453 96.8824 62.214C97.0112 63.2538 96.6089 63.7647 96.7106 64.7774C96.0822 65.2114 96.0054 65.7494 96.1975 66.6535Z" fill="#0C2221"/>
<path fill-rule="evenodd" clip-rule="evenodd" d="M138.855 56.9226C139.072 56.249 138.389 56.4795 138.172 56.2377C137.953 56.9113 138.64 56.683 138.855 56.9226ZM135.442 53.5048C135.496 54.0722 135.466 54.5537 135.102 54.7006C136.072 54.9244 136.958 55.234 137.831 55.5528C138.502 54.5763 139.716 54.3163 141.075 54.8724C141.278 55.5912 140.796 55.6206 140.729 56.0659C140.989 56.3213 141.479 56.3416 141.924 56.4095C142.162 57.1803 142.157 58.0686 141.757 58.6292C140.896 58.8643 140.853 58.2766 140.222 58.2879C139.974 57.2978 140.616 57.2051 140.561 56.4095C139.809 56.2851 139.876 56.9791 139.876 57.6052C139.187 57.3701 139.341 57.9759 138.855 57.9465C139.458 58.3105 139.623 59.1107 139.876 59.825C140.561 58.9547 141.497 60.216 141.757 60.8489C141.208 61.3824 140.125 61.3824 140.051 62.3883C139.619 62.0198 139.221 61.6197 138.855 61.1903C138.138 61.1699 137.901 61.5022 137.32 61.1903C137.361 59.9267 137.754 59.7684 137.487 58.4574C137.32 58.1771 136.766 58.272 136.465 58.1161C136.447 57.282 136.556 56.3168 136.294 55.7268C134.546 55.9958 133.794 55.2679 132.711 54.8724C132.711 54.531 132.711 54.1897 132.711 53.8461C133.803 53.7128 134.544 52.8945 135.442 53.5048Z" fill="#0C2221"/>
<path fill-rule="evenodd" clip-rule="evenodd" d="M68.0415 55.7254C67.716 56.6499 66.778 56.9641 65.6523 57.0907C64.6238 54.9907 67.4606 53.8786 68.0415 55.7254Z" fill="#0C2221"/>
<path fill-rule="evenodd" clip-rule="evenodd" d="M66.683 60.1709C66.7124 62.2708 64.1807 61.4661 63.7806 60.3382C63.6111 58.6338 66.4931 59.2577 66.683 60.1709Z" fill="#0C2221"/>
<path fill-rule="evenodd" clip-rule="evenodd" d="M146.709 60.6797C146.937 60.6797 147.165 60.6797 147.391 60.6797C147.296 61.3804 146.847 61.7263 146.709 62.3908C144.193 63.399 142.077 64.8117 140.056 66.3149C139.466 65.8267 140.468 65.4921 140.908 65.4627C142.432 63.4577 145.425 62.9243 146.709 60.6797Z" fill="#0C2221"/>
<path fill-rule="evenodd" clip-rule="evenodd" d="M137.32 62.5551C137.46 62.9259 137.761 63.1406 137.659 63.7532C138.346 63.8707 138.633 63.5904 139.196 63.5836C139.92 64.6732 139.038 65.9164 139.196 66.9991C138.251 67.1438 138.19 66.4092 137.49 66.312C137.49 65.8599 137.49 65.4033 137.49 64.9489C136.902 65.1569 136.843 65.8938 135.783 65.6316C134.942 64.3748 135.801 62.5212 137.32 62.5551Z" fill="#0C2221"/>
<path fill-rule="evenodd" clip-rule="evenodd" d="M64.8091 64.7743C64.461 64.824 64.3548 65.1156 64.1265 65.2852C63.4031 65.0976 62.9171 64.6749 62.0785 64.6048C62.0265 63.9809 62.1056 63.4927 62.2503 63.0654C63.6744 62.5591 64.8521 63.296 64.8091 64.7743Z" fill="#0C2221"/>
<path fill-rule="evenodd" clip-rule="evenodd" d="M60.8872 66.1498C62.1236 68.1458 59.384 68.3764 58.4957 67.1738C58.2334 65.7859 59.9514 65.804 60.8872 66.1498Z" fill="#0C2221"/>
<path fill-rule="evenodd" clip-rule="evenodd" d="M55.5991 68.3626C56.6072 68.1999 57.1181 68.548 57.8165 68.704C57.9635 69.1244 58.1466 70.0286 57.8165 70.4106C56.6072 70.709 56.675 69.7279 55.5991 69.8997C55.5132 69.2872 55.3188 68.9119 55.5991 68.3626Z" fill="#0C2221"/>
<path fill-rule="evenodd" clip-rule="evenodd" d="M54.5591 72.114C54.3127 72.2089 53.6776 71.9151 53.7092 72.2858C53.3747 71.7546 52.7417 71.741 52.683 71.2618C52.466 69.3789 55.5153 70.222 54.5591 72.114Z" fill="#0C2221"/>
<path fill-rule="evenodd" clip-rule="evenodd" d="M58.4932 76.0523C57.3472 76.1608 56.6216 76.2648 55.5976 76.0523C54.4991 73.3375 58.9272 73.5251 58.4932 76.0523Z" fill="#0C2221"/>
<path fill-rule="evenodd" clip-rule="evenodd" d="M116.844 74.5055C116.846 74.3405 117.052 74.3744 117.183 74.3359C117.183 74.5009 116.977 74.4693 116.844 74.5055Z" fill="#0C2221"/>
<path fill-rule="evenodd" clip-rule="evenodd" d="M112.923 92.281C113.12 92.9546 113.12 91.6051 112.923 92.281ZM113.093 90.059C112.962 90.0952 112.756 90.0658 112.751 90.2308C112.885 90.1901 113.088 90.224 113.093 90.059ZM110.875 89.7177C111.072 90.3935 111.072 89.0441 110.875 89.7177ZM105.586 87.6697C105.586 88.0653 105.586 88.4631 105.586 88.8655C106.192 88.5626 106.169 87.6268 106.779 87.3261C106.099 87.1611 106.266 87.8393 105.586 87.6697ZM106.268 85.6173C106.614 85.1064 107.774 84.5119 107.29 83.7389C107.125 84.4283 105.665 84.7267 106.268 85.6173ZM114.799 84.9369C114.266 84.8442 114.184 84.2972 114.117 83.7389C113.02 83.6688 112.887 84.5571 112.41 85.1064C112.222 84.2135 111.002 84.356 110.362 83.9129C109.937 84.7334 109.533 85.5856 109.682 86.9848C110.466 86.8967 110.111 87.6336 110.532 88.0088C111.793 89.139 113.995 88.6847 115.652 88.1806C116.162 86.9328 116.438 85.511 116.165 83.9129C115.796 83.7682 115.584 83.4699 114.969 83.5693C114.46 83.8858 115.188 84.7945 114.799 84.9369ZM112.41 83.9129C112.681 83.436 111.673 83.4382 111.727 83.7389C111.958 83.7954 112.055 83.983 112.41 83.9129ZM117.53 83.7389C118.14 83.8406 118.048 83.2348 118.041 82.7149C117.871 82.7149 117.699 82.7149 117.53 82.7149C117.53 83.0585 117.53 83.3975 117.53 83.7389ZM119.747 82.5431C119.546 82.5702 119.264 82.516 119.237 82.7149C119.438 82.69 119.718 82.7465 119.747 82.5431ZM110.362 82.0322C110.19 82.5476 110.744 82.3329 111.047 82.3736C111.047 82.204 111.047 82.0322 111.047 81.8604C110.751 81.8491 110.514 81.8989 110.362 82.0322ZM114.117 81.3473C114.702 81.4197 115.089 81.2976 114.969 80.6669C114.799 80.6669 114.628 80.6669 114.458 80.6669C114.368 80.9179 114.205 81.0987 114.117 81.3473ZM110.362 78.7863C110.475 78.8993 110.292 78.7139 110.362 78.7863ZM111.217 78.6167C111.33 78.6167 111.445 78.6167 111.558 78.6167C111.558 78.5015 111.558 78.3907 111.558 78.2754C111.445 78.2754 111.33 78.2754 111.217 78.2754C111.217 78.3907 111.217 78.5015 111.217 78.6167ZM113.434 76.397C113.988 76.1845 113.565 76.9508 114.117 76.7361C114.327 77.2921 113.565 76.8694 113.775 77.421C116.572 77.2017 120.179 78.9242 120.941 81.8604C121.273 82.039 121.624 82.204 121.967 82.3736C122.123 83.1579 121.538 83.1986 121.624 83.9129C122.381 85.4658 121.594 87.5092 121.798 89.5481C120.866 90.6671 119.93 91.7814 119.237 93.1354C117.177 94.5324 112.889 96.0898 110.362 94.5007C106.854 94.4261 104.655 93.0428 104.051 90.059C102.579 88.8022 102.952 87.29 103.025 84.7651C103.906 82.5408 105.452 80.5697 107.634 79.2994C108.714 78.6687 109.774 77.4345 110.875 77.0797C111.678 76.822 112.797 77.2876 113.434 76.397Z" fill="#0C2221"/>
<path fill-rule="evenodd" clip-rule="evenodd" d="M130.656 77.75C130.826 77.75 131 77.75 131.167 77.75C131.167 77.863 131.167 77.9783 131.167 78.0913C131 78.0913 130.826 78.0913 130.656 78.0913C130.656 77.9783 130.656 77.863 130.656 77.75Z" fill="#0C2221"/>
<path fill-rule="evenodd" clip-rule="evenodd" d="M60.3702 77.9244C61.254 78.5505 61.2201 80.3476 60.3702 80.9963C59.3259 80.3408 57.3457 79.8819 57.9832 78.0939C58.9687 78.2295 59.4389 77.8475 60.3702 77.9244Z" fill="#0C2221"/>
<path fill-rule="evenodd" clip-rule="evenodd" d="M61.3966 82.3652C61.6543 82.8467 61.808 83.4344 61.7379 84.2459C60.9716 84.3295 60.558 84.7703 59.69 84.7567C59.0977 83.4367 59.8211 81.5176 61.3966 82.3652Z" fill="#0C2221"/>
<path fill-rule="evenodd" clip-rule="evenodd" d="M62.0768 87.3205C62.1084 88.1839 62.2666 88.6586 62.2486 89.8838C61.792 89.8815 61.8778 90.4218 61.3941 90.3946C61.0935 89.2712 60.5306 88.4145 59.6875 87.8336C59.8073 86.3214 61.1681 87.0063 62.0768 87.3205Z" fill="#0C2221"/>
<path fill-rule="evenodd" clip-rule="evenodd" d="M123.666 86.9785C123.781 87.0934 123.592 86.905 123.666 86.9785Z" fill="#0C2221"/>
<path fill-rule="evenodd" clip-rule="evenodd" d="M60.2065 93.1263C59.5442 93.0494 58.8571 92.9952 58.3281 92.7849C58.6152 92.0707 58.2354 91.6954 58.6717 91.0761C59.9647 90.3934 61.1333 92.1407 60.2065 93.1263Z" fill="#0C2221"/>
<path fill-rule="evenodd" clip-rule="evenodd" d="M119.914 93.9844C120.027 93.9844 120.14 93.9844 120.253 93.9844C120.253 94.0974 120.253 94.2127 120.253 94.3257C120.14 94.3257 120.027 94.3257 119.914 94.3257C119.914 94.2127 119.914 94.0974 119.914 93.9844Z" fill="#0C2221"/>
<path fill-rule="evenodd" clip-rule="evenodd" d="M58.6648 95.0089C58.7801 95.6938 58.502 95.9808 58.4907 96.5414C58.7394 97.05 59.1576 96.3199 59.6865 96.5414C59.7114 95.7797 58.9858 95.7661 59.1756 94.8348C60.5093 95.6644 62.0396 96.2973 63.2693 97.2286C63.4298 97.8095 63.4976 98.4786 63.6106 99.107C63.7711 99.4054 64.1463 99.4822 64.6346 99.4461C65.1612 100.569 64.2526 101.356 62.9302 101.155C62.7449 100.601 62.5256 100.081 62.0758 99.7896C62.2272 98.9307 62.3493 98.3272 61.5649 98.0808C61.1422 98.2277 60.8258 98.4786 60.8823 99.107C59.9984 99.0188 59.8334 99.6495 58.8343 99.4461C58.2828 98.9171 57.8917 98.2277 57.1277 97.9112C57.0056 97.3891 57.3018 97.2896 57.2995 96.8873C56.8632 96.2973 55.846 96.2928 56.1037 95.0089C57.1096 94.8664 57.9415 94.5771 58.6648 95.0089Z" fill="#0C2221"/>
<path fill-rule="evenodd" clip-rule="evenodd" d="M67.7089 98.5937C68.8798 99.4368 67.9644 101.498 69.2483 102.011C69.3816 102.714 68.9838 102.884 69.0742 103.549C68.1339 103.7 67.6637 103.973 66.6872 103.718C66.7731 102.778 67.2546 102.235 67.883 101.837C67.3834 101.482 66.9856 101.028 66.1764 100.985C66.2962 100.009 65.383 100.07 65.4937 99.1068C65.9006 97.9178 66.5335 98.5168 67.7089 98.5937Z" fill="#0C2221"/>
<path fill-rule="evenodd" clip-rule="evenodd" d="M127.425 99.9584C127.355 100.401 126.891 100.449 126.57 100.641C126.602 100.157 126.866 99.9132 127.425 99.9584Z" fill="#0C2221"/>
<path fill-rule="evenodd" clip-rule="evenodd" d="M71.6308 102.008C72.0874 103.032 72.6547 104.124 71.4612 104.738C70.6995 104.361 70.5367 103.384 69.9219 102.86C70.2248 102.308 70.7854 102.015 71.6308 102.008Z" fill="#0C2221"/>
<path fill-rule="evenodd" clip-rule="evenodd" d="M141.078 102.867C141.103 102.666 141.388 102.722 141.587 102.695C141.56 102.894 141.277 102.84 141.078 102.867Z" fill="#0C2221"/>
<path fill-rule="evenodd" clip-rule="evenodd" d="M139.712 103.375C139.9 103.418 139.827 103.716 140.056 103.719C139.981 104.191 139.515 103.728 139.712 103.375Z" fill="#0C2221"/>
<path fill-rule="evenodd" clip-rule="evenodd" d="M137.15 104.056C137.265 104.173 137.077 103.984 137.15 104.056Z" fill="#0C2221"/>
<path fill-rule="evenodd" clip-rule="evenodd" d="M70.9508 105.078C72.3929 105.284 73.5254 105.801 75.2162 105.761C75.5688 106.532 76.2063 107.589 75.7271 108.663C74.9856 108.439 74.624 107.834 74.0227 107.467C73.5661 107.467 73.652 108.008 73.1683 107.978C72.3952 107.332 71.9341 106.369 70.7812 106.102C70.9304 105.496 70.8016 105.682 70.9508 105.078Z" fill="#0C2221"/>
<path fill-rule="evenodd" clip-rule="evenodd" d="M108.486 109.526C108.6 109.639 108.414 109.451 108.486 109.526Z" fill="#0C2221"/>
<path fill-rule="evenodd" clip-rule="evenodd" d="M73.4948 113.281C73.3365 114.319 72.2063 114.387 71.6186 114.992C71.2569 114.111 72.733 113.604 73.4948 113.281Z" fill="#0C2221"/>
<path fill-rule="evenodd" clip-rule="evenodd" d="M74.0234 113.453C74.2224 114.127 74.2224 112.777 74.0234 113.453Z" fill="#0C2221"/>
<path fill-rule="evenodd" clip-rule="evenodd" d="M90.2268 114.643C90.0731 115.629 88.6807 115.376 88.3484 116.18C87.555 115.561 89.2187 114.584 90.2268 114.643Z" fill="#0C2221"/>
<path fill-rule="evenodd" clip-rule="evenodd" d="M86.6484 114.99C87.7628 115.489 87.6995 114.35 86.6484 114.99Z" fill="#0C2221"/>
<path fill-rule="evenodd" clip-rule="evenodd" d="M87.3281 116.359C87.4434 116.359 87.5587 116.359 87.6717 116.359C87.6717 116.472 87.6717 116.585 87.6717 116.701C87.5587 116.701 87.4434 116.701 87.3281 116.701C87.3281 116.585 87.3281 116.472 87.3281 116.359Z" fill="#0C2221"/>
<path fill-rule="evenodd" clip-rule="evenodd" d="M85.7969 117.375C84.6283 118.315 83.2991 119.093 81.701 119.595C79.9221 120.888 78.177 122.219 76.0703 123.18C76.6083 121.842 78.5003 121.862 79.14 120.621C81.7304 119.911 82.8335 117.712 85.7969 117.375Z" fill="#0C2221"/>
<path fill-rule="evenodd" clip-rule="evenodd" d="M89.7199 127.799C89.8348 127.912 89.6486 127.725 89.7199 127.799Z" fill="#0C2221"/>
<path fill-rule="evenodd" clip-rule="evenodd" d="M90.2365 127.799C90.3491 127.912 90.1629 127.725 90.2365 127.799Z" fill="#0C2221"/>
<mask id="mask0_772_7013" style="mask-type:luminance" maskUnits="userSpaceOnUse" x="38" y="13" width="125" height="125">
<path d="M38.0234 13.0156H162.023V137.14H38.0234V13.0156Z" fill="white"/>
</mask>
<g mask="url(#mask0_772_7013)">
<path fill-rule="evenodd" clip-rule="evenodd" d="M111.552 134.797C111.647 134.112 111.407 135.807 111.552 134.797ZM72.8194 132.064C73.1901 131.913 73.6806 131.216 72.8194 131.212C73.0409 131.632 72.4396 132.037 72.8194 132.064ZM79.1327 130.525C79.248 130.525 79.361 130.525 79.474 130.525C79.474 130.412 79.474 130.299 79.474 130.186C79.361 130.186 79.248 130.186 79.1327 130.186C79.1327 130.299 79.1327 130.412 79.1327 130.525ZM108.482 130.014C108.281 129.987 108.297 129.745 108.31 129.503C108.136 129.503 107.969 129.503 107.797 129.503C107.573 130.03 108.281 130.47 108.482 130.014ZM109.676 128.99C109.662 128.992 109.685 129.15 109.676 129.159C108.864 130.088 110.494 128.845 109.676 128.99ZM100.118 128.82C99.9874 128.859 99.7839 128.825 99.7772 128.99C99.9105 128.951 100.116 128.985 100.118 128.82ZM79.1327 129.844C80.0957 129.951 80.6947 129.7 80.8393 128.99C80.6201 128.981 80.6042 128.771 80.3262 128.82C80.5251 130.107 79.1802 128.802 79.1327 129.844ZM109.332 128.99C109.728 129.139 109.725 128.122 109.504 128.651C109.52 128.888 109.009 128.843 109.332 128.99ZM98.5836 128.135C98.4503 128.174 98.2491 128.142 98.2446 128.305C98.3757 128.269 98.5791 128.3 98.5836 128.135ZM74.3564 130.525C74.7498 130.066 74.4152 128.879 74.5282 128.135C74.3564 128.135 74.1846 128.135 74.0151 128.135C73.7619 128.696 73.6218 130.407 74.3564 130.525ZM108.649 128.135C108.762 128.135 108.878 128.135 108.991 128.135C108.991 128.022 108.991 127.909 108.991 127.794C108.878 127.794 108.762 127.794 108.649 127.794C108.649 127.909 108.649 128.022 108.649 128.135ZM100.803 127.794C100.914 127.905 100.731 127.722 100.803 127.794ZM97.0488 127.453C96.9155 127.491 96.712 127.457 96.7075 127.625C96.8386 127.586 97.042 127.618 97.0488 127.453ZM95.1727 127.111C95.2857 127.222 95.1026 127.041 95.1727 127.111ZM87.1527 126.257C86.9515 126.284 86.6712 126.228 86.6418 126.429C86.8408 126.402 87.1256 126.458 87.1527 126.257ZM82.2069 127.625C83.8434 127.444 85.3059 127.082 86.4723 126.429C85.1726 126.271 83.3348 127.044 82.2069 127.625ZM87.6658 126.085C87.8625 126.759 87.8625 125.412 87.6658 126.085ZM109.504 127.625C110.195 126.985 112.784 126.499 112.063 125.574C111.414 126.463 109.845 126.427 109.504 127.625ZM106.093 126.94C107.011 126.664 107.553 126.011 108.31 125.574C107.338 125.796 106.488 126.142 106.093 126.94ZM104.727 126.598C105.591 126.553 105.928 125.981 106.432 125.574C105.758 125.812 105.015 125.977 104.727 126.598ZM108.482 125.233C108.593 125.344 108.41 125.161 108.482 125.233ZM77.5979 124.209C76.4586 124.379 76.0178 125.247 74.6978 125.233C74.5169 125.715 74.5169 125.943 74.6978 126.429C75.993 126.017 76.6982 125.016 77.5979 124.209ZM111.721 122.157C112.25 122.383 112.691 121.675 112.232 121.474C112.483 122.125 111.47 121.508 111.721 122.157ZM127.759 121.307C127.56 121.332 127.275 121.275 127.248 121.474C127.449 121.447 127.732 121.506 127.759 121.307ZM115.476 121.307C115.589 121.307 115.702 121.307 115.817 121.307C115.817 121.189 115.817 121.076 115.817 120.963C115.702 120.963 115.589 120.963 115.476 120.963C115.476 121.076 115.476 121.189 115.476 121.307ZM113.428 121.133C113.627 121.806 113.627 120.459 113.428 121.133ZM123.324 120.963C123.643 120.938 123.896 120.848 124.009 120.622C123.706 120.66 123.152 120.448 123.324 120.963ZM136.12 120.622C136.102 119.903 134.811 120.45 134.246 120.28C134.264 120.997 135.553 120.45 136.12 120.622ZM108.649 120.622C108.762 120.622 108.878 120.622 108.991 120.622C108.991 120.507 108.991 120.393 108.991 120.28C108.878 120.28 108.762 120.28 108.649 120.28C108.649 120.393 108.649 120.507 108.649 120.622ZM143.458 120.109C143.324 120.147 143.118 120.113 143.116 120.28C143.25 120.242 143.453 120.276 143.458 120.109ZM144.995 120.45C145.68 120.617 145.68 119.431 144.995 119.596C144.995 119.88 144.995 120.167 144.995 120.45ZM115.645 120.109C116.043 119.993 116.233 119.672 116.5 119.426C116.274 119.426 116.045 119.426 115.817 119.426C116.161 119.971 115.141 119.962 115.645 120.109ZM70.9432 119.426C71.1421 120.102 71.1421 118.75 70.9432 119.426ZM145.677 119.426C145.845 119.426 146.016 119.426 146.186 119.426C146.163 119.223 146.218 118.94 146.016 118.913C146.001 119.184 145.585 119.046 145.677 119.426ZM111.041 118.572C111.138 117.887 110.896 119.582 111.041 118.572ZM97.3901 123.524C98.0818 123.856 98.7193 124.243 99.6099 124.379C101.366 123.404 102.707 122.016 104.727 121.307C104.675 121.653 104.384 121.759 104.212 121.987C106.405 120.877 108.862 120.034 110.525 118.402C108.294 118.612 107.137 120.812 105.241 120.794C105.616 119.973 106.922 120.086 107.114 119.085C106.719 118.967 106.866 118.307 106.432 118.23C103.694 120.271 100.277 121.63 97.3901 123.524ZM93.9769 118.23C93.8458 118.266 93.6401 118.235 93.6356 118.402C93.7667 118.364 93.9701 118.398 93.9769 118.23ZM116.5 119.085C117.677 119.295 117.804 118.454 118.376 118.058C117.664 118.316 117.092 118.709 116.5 119.085ZM124.176 118.23C124.348 118.23 124.52 118.23 124.689 118.23C124.689 118.115 124.689 118.004 124.689 117.889C124.52 117.889 124.348 117.889 124.176 117.889C124.176 118.004 124.176 118.115 124.176 118.23ZM114.621 117.376C114.82 118.052 114.82 116.702 114.621 117.376ZM118.717 117.717C119.138 117.74 119.538 117.744 119.741 117.548C119.714 117.346 119.771 117.064 119.572 117.035C119.296 117.27 118.898 117.385 118.717 117.717ZM141.579 117.889C142.352 117.751 142.859 118.764 143.458 118.23C142.761 118.129 143.089 117.005 142.603 116.693C142.354 117.184 141.764 117.335 141.579 117.889ZM107.969 118.23C108.507 118.497 108.717 118.135 109.332 118.058C109.199 117.299 109.449 116.924 109.676 116.524C108.814 116.797 108.016 117.141 107.969 118.23ZM72.6498 119.426C72.6521 119.88 72.5865 120.4 72.8194 120.622C75.7986 120.301 77.5188 118.719 80.1567 118.058C80.012 117.166 78.0251 117.317 78.9632 116.352C76.2281 116.747 74.7927 118.438 72.6498 119.426ZM94.49 121.648C94.3363 121.949 93.7305 121.926 94.1487 122.328C95.0031 122.672 95.8937 122.973 97.0488 123.013C99.906 121.264 103.041 119.788 105.919 118.058C106.127 117.469 106.034 116.578 106.432 116.18C105.883 116.257 105.51 116.506 104.895 116.524C104.965 116.191 105.557 116.388 105.41 115.836C103.439 116.085 103.487 118.357 101.145 118.23C100.363 119.67 98.283 119.806 97.0488 120.794C96.7595 120.685 96.7685 120.276 96.538 120.109C96.4204 120.791 95.5163 120.681 94.8291 120.794C94.9218 121.639 95.7446 120.859 96.0271 121.307C96.0271 121.474 96.0271 121.648 96.0271 121.815C95.4846 121.732 95.4213 122.125 94.8291 121.987C95.028 121.451 94.5624 121.573 94.49 121.307C93.6062 121.275 92.9552 121.474 92.6116 121.987C93.5768 122.322 93.9679 121.189 94.49 121.648ZM140.047 117.204C140.381 117.154 140.381 117.437 140.557 117.548C140.978 116.775 142.033 116.634 142.264 115.669C141.317 115.972 140.722 116.632 140.047 117.204ZM82.8873 116.352C83.692 116.476 83.8954 115.997 84.2526 115.669C83.371 115.47 83.2489 116.029 82.8873 116.352ZM80.3262 115.669C79.7001 116.266 79.4921 115.02 80.3262 115.669ZM111.21 115.669C111.323 115.669 111.439 115.669 111.552 115.669C111.552 115.554 111.552 115.441 111.552 115.328C111.439 115.328 111.323 115.328 111.21 115.328C111.21 115.441 111.21 115.554 111.21 115.669ZM65.9929 117.889C65.3441 116.833 64.3835 116.085 63.6059 115.156C64.1574 116.2 65.3509 117.509 65.9929 117.889ZM115.989 116.524C117.112 116.341 117.634 115.552 118.376 114.987C117.408 115.323 116.525 115.751 115.989 116.524ZM103.362 115.156C102.112 114.693 101.391 115.956 99.9489 115.836C96.5154 118.438 91.7187 119.67 88.0049 121.987C94.1125 121.463 98.977 118.459 103.534 115.836C103.57 115.518 103.34 115.461 103.362 115.156ZM80.1567 114.987C79.9555 115.011 79.673 114.955 79.6436 115.156C79.847 115.129 80.1296 115.185 80.1567 114.987ZM118.548 114.815C118.744 115.491 118.744 114.139 118.548 114.815ZM125.883 114.643C123.593 116.96 119.199 118.497 116.156 120.622C116.156 120.848 116.156 121.076 116.156 121.307C115.842 121.442 115.469 121.524 115.306 121.815C115.286 121.61 115.257 121.415 114.963 121.474C113.909 122.921 112.178 123.694 110.525 124.548C109.818 126.171 107.304 125.99 106.604 127.625C106.823 127.857 107.345 127.792 107.797 127.794C111.486 125.226 115.257 122.735 118.889 120.109C119.212 120.07 119.264 120.301 119.572 120.28C119.572 120.052 119.572 119.824 119.572 119.596C121.893 117.71 125.53 117.138 127.079 114.471C126.678 114.525 126.439 114.745 125.883 114.643ZM82.2069 115.156C82.8647 115.131 83.7033 115.287 83.9112 114.815C83.2422 114.971 83.7869 113.913 83.3981 113.791C83.1721 113.791 82.946 113.791 82.7177 113.791C82.9054 114.605 82.4985 114.824 82.2069 115.156ZM127.42 114.471C127.361 113.843 128.399 114.313 128.103 113.449C127.815 113.628 127.047 114.2 127.42 114.471ZM119.913 113.958C120.618 114.098 120.55 113.463 120.935 113.275C120.39 113.303 120.37 113.852 119.913 113.958ZM121.448 113.106C121.314 113.144 121.111 113.11 121.106 113.275C121.24 113.239 121.441 113.273 121.448 113.106ZM116.156 111.912C116.617 112.03 116.488 111.558 116.672 111.397C116.5 111.397 116.328 111.397 116.156 111.397C116.156 111.569 116.156 111.741 116.156 111.912ZM120.765 111.397C121.158 111.546 121.156 110.529 120.935 111.058C120.951 111.295 120.437 111.252 120.765 111.397ZM121.448 110.886C121.559 110.999 121.373 110.814 121.448 110.886ZM117.865 110.714C117.664 110.741 117.379 110.685 117.352 110.886C117.553 110.859 117.836 110.916 117.865 110.714ZM115.476 111.227C116.54 111.383 116.868 110.8 117.18 110.204C116.369 110.298 115.785 110.626 115.476 111.227ZM116.672 113.791C116.416 113.533 116.156 113.28 115.817 113.106C115.166 114.392 112.797 113.956 112.063 115.156C113.358 115.938 114.072 114.064 114.963 114.471C115.033 115.283 114.187 115.174 113.597 115.328C113.591 115.888 113.31 116.178 113.428 116.863C115.548 116.029 117.399 114.919 118.889 113.449C121.283 113.115 122.063 111.162 124.176 110.545C124.111 110.251 124.429 110.106 124.176 110.032C121.884 111.492 119.393 112.76 116.672 113.791ZM118.548 111.227C119.628 111.908 120.139 110.549 121.106 110.545C120.331 110.864 120.871 109.867 120.252 110.032C119.85 110.597 118.914 110.626 118.548 111.227ZM57.6338 110.373C57.7491 110.373 57.8621 110.373 57.9774 110.373C57.9774 110.26 57.9774 110.147 57.9774 110.032C57.8621 110.032 57.7491 110.032 57.6338 110.032C57.6338 110.147 57.6338 110.26 57.6338 110.373ZM117.352 110.032C117.467 110.032 117.58 110.032 117.693 110.032C117.693 109.919 117.693 109.806 117.693 109.69C117.58 109.69 117.467 109.69 117.352 109.69C117.352 109.806 117.352 109.919 117.352 110.032ZM119.741 109.69C119.852 109.803 119.669 109.62 119.741 109.69ZM144.821 109.177C145.02 109.853 145.02 108.506 144.821 109.177ZM56.4403 109.86C55.5655 109.372 54.4602 109.109 53.3707 108.836C54.0646 109.394 55.4593 110.156 56.4403 109.86ZM138.17 114.987C138.923 114.295 139.784 112.878 141.071 113.275C141.321 112.848 141.638 112.477 141.753 111.912C141.168 111.849 140.596 112.676 140.047 112.082C140.928 111.542 141.29 110.482 142.264 110.032C142.264 109.521 142.264 109.008 142.264 108.495C139.583 110.893 136.041 113.101 133.733 115.328C134.285 115.115 133.862 115.882 134.414 115.669C135.937 114.634 137.293 113.429 139.023 112.593C139.111 112.846 139.274 113.025 139.362 113.275C138.213 114.064 136.792 114.573 136.12 115.836C137.474 116.015 137.847 115.882 139.023 115.669C138.84 116.591 139.615 116.555 140.047 116.863C140.481 115.986 141.855 115.149 141.579 114.13C141.041 114.955 140.094 115.375 139.192 115.836C139.617 115.24 140.008 114.607 140.899 114.471C140.756 114.069 141.283 113.219 140.899 113.617C139.567 113.54 139.468 115.601 138.17 114.987ZM120.426 117.548C121.131 116.431 123.046 116.528 123.665 115.328C125.795 114.668 126.895 112.979 128.957 112.251C129.362 112.184 128.86 113.029 129.466 112.765C130.921 111.6 132.682 110.746 133.733 109.177C133.478 108.976 133.53 108.468 133.048 108.495C132.083 109.232 131.163 110.023 129.807 110.373C129.807 110.658 129.807 110.943 129.807 111.227C128.36 111.485 127.786 112.618 126.224 112.765C125.211 114.313 123.035 114.697 121.961 116.18C121.134 116.038 121.093 116.68 120.593 116.863C120.659 116.148 120.107 117.349 120.426 117.548ZM145.336 108.153C145.2 108.192 144.999 108.158 144.995 108.325C145.126 108.284 145.329 108.318 145.336 108.153ZM101.145 124.72C102.286 124.944 103.396 126.106 104.556 125.744C104.106 125.796 103.997 125.509 104.045 125.061C104.443 125.061 104.84 125.061 105.241 125.061C105.342 124.254 106.536 124.539 106.773 123.868C109.113 123.359 109.956 121.356 112.232 120.794C112.429 119.867 113.586 119.842 114.282 119.426C119.348 116.39 124.732 113.162 129.64 110.032C129.658 109.143 130.634 109.209 130.831 108.495C131.276 108.282 132.705 108.666 132.196 107.812C131.708 108.481 129.646 108.454 128.957 107.812C127.897 108.343 128.118 110.165 126.055 109.69C124.884 110.965 123.118 111.648 121.791 112.765C122.178 113 122.431 112.324 122.47 112.765C122.225 113.542 121.461 113.802 120.593 113.958C116.898 117.491 111.642 119.462 107.458 122.498C106.561 122.462 105.72 123.375 105.241 123.181C105.849 122.028 108.055 121.567 108.31 120.622C105.833 121.899 103.45 123.273 101.145 124.72ZM117.693 107.982C117.89 108.657 117.89 107.308 117.693 107.982ZM121.276 108.153C121.224 107.819 121.507 107.817 121.617 107.64C121.147 107.373 120.853 108.085 121.276 108.153ZM132.537 108.153C133.012 108.217 133.661 107.588 133.39 107.471C133.268 107.859 132.418 107.52 132.537 108.153ZM122.3 107.471C122.101 107.498 121.816 107.441 121.791 107.64C121.99 107.615 122.273 107.67 122.3 107.471ZM55.0773 106.958C55.1881 107.068 55.005 106.885 55.0773 106.958ZM119.4 106.958C119.682 106.958 119.967 106.958 120.252 106.958C120.252 106.845 120.252 106.732 120.252 106.614C120.216 106.485 120.11 106.417 119.913 106.447C120.177 107.052 119.332 106.548 119.4 106.958ZM141.24 106.273C138.702 108.689 135.514 110.45 133.222 113.106C131.749 113.798 130.469 114.677 129.296 115.669C130.523 115.757 130.971 115.068 132.368 115.328C134.99 113.056 138.024 111.198 140.218 108.495C140.447 108.44 140.539 108.253 140.899 108.325C141.014 107.303 142.368 107.52 142.264 106.273C141.923 106.273 141.579 106.273 141.24 106.273ZM124.176 109.351C124.886 109.376 125.198 109.003 125.539 108.666C125.055 107.943 125.589 106.781 125.539 105.934C125.315 105.934 125.087 105.934 124.859 105.934C124.377 106.903 124.305 108.506 124.176 109.351ZM121.276 105.764C121.145 105.8 120.941 105.766 120.935 105.934C121.068 105.895 121.272 105.929 121.276 105.764ZM129.979 106.447C130.406 106.191 130.711 105.812 131.172 105.592C131.03 105.226 130.544 105.197 129.979 105.249C130.202 105.782 129.475 106.196 129.979 106.447ZM121.791 105.764C121.809 105.387 122.512 105.689 122.811 105.592C122.775 105.267 123.005 105.215 122.983 104.91C122.424 104.928 121.459 105.418 121.791 105.764ZM50.8096 105.418C50.9498 104.647 49.4805 104.602 49.103 104.91C49.7992 104.953 50.1948 105.294 50.8096 105.418ZM130.49 100.64C128.697 102.091 126.568 103.203 125.028 104.91C125.627 105.445 126.321 104.946 127.248 105.249C127.653 104.971 127.779 104.417 128.103 104.053C130.2 104.855 131.796 104.175 133.39 103.714C132.831 103.361 132.119 103.165 132.368 102.007C131.97 102.007 131.572 102.007 131.172 102.007C131.082 101.415 131.086 100.728 130.49 100.64ZM135.266 100.127C135.594 100.054 136.003 100.066 135.951 99.6134C135.404 99.4642 135.415 99.8779 135.266 100.127ZM150.967 97.0524C151.075 97.1631 150.892 96.98 150.967 97.0524ZM128.103 101.494C128.216 101.494 128.329 101.494 128.442 101.494C128.442 101.377 128.442 101.266 128.442 101.151C128.329 101.151 128.216 101.151 128.103 101.151C128.103 101.266 128.103 101.377 128.103 101.494ZM124.009 104.394C125.501 103.786 127.323 102.595 127.759 101.494C126.884 102.837 124.734 102.905 124.009 104.394ZM129.124 100.296C129.395 100.314 129.26 100.732 129.64 100.64C130.666 99.6767 131.963 98.9828 132.879 97.9068C132.806 97.5225 132.51 97.3643 132.368 97.0524C131.032 97.9362 129.384 99.4168 127.759 99.4416C129.389 98.3973 131.242 97.5791 132.537 96.1979C130.553 97.0546 128.72 98.0696 127.079 99.2721C122.234 101.481 117.971 104.277 113.087 106.447C112.734 107.245 111.997 107.927 111.041 107.64C111.138 108.481 110.245 108.327 110.015 108.836C108.896 108.223 108.394 109.566 107.284 109.521C107.27 109.984 107.571 109.867 107.284 110.204C104.368 111.668 102.117 113.798 98.925 114.987C99.0335 115.719 98.2921 115.604 97.7337 115.669C97.7066 115.87 97.7609 116.153 97.5597 116.18C96.2125 116.481 95.3422 117.263 94.49 118.058C97.3969 117.044 99.4765 115.195 102.68 114.471C102.709 113.309 104.497 113.899 105.067 113.275C105.243 113.447 105.412 113.614 105.58 113.791C105.69 114.415 105.211 114.446 105.241 114.987C108.288 113.994 110.562 111.318 113.597 110.886C113.353 111.264 112.797 111.336 112.232 111.397C111.375 112.871 109.28 113.11 108.136 114.302C107.001 114.076 107.133 115.115 106.093 114.987C106.104 115.283 106.054 115.518 105.919 115.669C106.545 115.54 106.868 116.087 107.284 115.669C107.284 115.836 107.284 116.011 107.284 116.18C109.775 116.295 111.622 114.865 112.917 113.275C111.258 112.979 110.727 113.818 110.015 114.471C109.827 114.435 109.752 114.284 109.676 114.13C111.247 112.708 114.083 111.759 114.963 110.204C114.791 110.717 115.345 110.506 115.645 110.545C116.762 109.688 116.525 109.383 117.18 108.325C116.586 108.194 116.233 109.182 115.817 108.666C120.026 105.644 124.78 103.174 129.124 100.296ZM151.306 96.537C151.726 96.2273 152.689 94.8055 152.33 94.8304C152.169 95.4701 150.962 95.9606 151.306 96.537ZM152.841 94.4913C152.954 94.6021 152.77 94.419 152.841 94.4913ZM153.182 93.9782C154.023 93.49 152.628 94.2992 153.182 93.9782ZM45.3484 93.8064C45.466 93.8064 45.5767 93.8064 45.692 93.8064C45.692 93.6934 45.692 93.5781 45.692 93.4651C45.5767 93.4651 45.466 93.4651 45.3484 93.4651C45.3484 93.5781 45.3484 93.6934 45.3484 93.8064ZM144.482 95.3458C143.618 96.6998 142.156 97.4547 140.727 98.2481C139.873 99.2156 138.564 100.633 137.316 100.64C138.057 100.016 138.609 99.2043 139.705 98.9308C139.705 98.7613 139.705 98.5895 139.705 98.4177C140.34 98.2007 142.119 96.7834 141.579 97.0524C141.17 96.9823 141.211 97.3643 140.727 97.2242C140.101 98.0786 139.084 98.5352 137.996 98.9308C137.906 99.523 137.151 99.4484 136.975 99.957C136.188 99.853 136.378 100.726 135.607 100.64C135.763 101.777 135.969 101.648 135.607 102.688C137.587 101.878 139.201 100.705 140.899 99.6134C141.38 99.5863 141.297 100.127 141.753 100.127C142.036 99.6089 142.77 98.6482 143.458 99.1026C142.486 99.5004 142.354 100.728 141.071 100.809C140.155 101.946 138.729 103.476 137.316 103.544C138.222 102.685 139.574 102.276 140.047 100.981C138.245 102.31 135.51 102.703 134.414 104.738C134.841 104.824 134.983 105.192 135.438 105.249C135.537 104.824 136.371 104.263 136.631 104.568C135.937 104.788 135.189 105.848 135.438 106.447C136.543 105.9 137.382 104.177 139.023 104.738C137.391 104.925 137.056 106.413 135.438 106.614C135.406 107.274 135.709 107.6 136.29 107.64C137.526 106.657 138.69 104.69 140.386 104.738C135.844 108.845 130.645 112.294 126.055 116.352C132.696 113.836 136.387 108.364 142.264 105.081C142.135 104.482 142.782 103.791 142.264 103.37C141.884 103.736 141.159 104.647 140.557 104.227C141.014 103.146 142.612 103.21 142.947 102.007C142.192 101.763 142.497 102.584 141.923 102.518C141.764 101.695 142.84 101.198 143.116 101.833C143.433 100.678 144.764 99.193 145.336 97.735C144.938 97.7508 144.463 98.5533 144.14 98.0763C145.741 96.6048 147.472 95.2644 148.575 93.2956C147.081 93.8448 146.118 94.9344 144.482 95.3458ZM45.8616 92.7847C45.8819 92.5564 45.8909 91.546 45.692 92.0998C45.6694 92.3236 45.6672 93.334 45.8616 92.7847ZM138.681 89.0256C138.794 89.1386 138.609 88.9533 138.681 89.0256ZM47.0573 87.6603C47.254 88.3339 47.254 86.9845 47.0573 87.6603ZM139.192 87.4885C139.784 87.3506 139.85 87.7417 140.386 87.6603C140.286 87.2015 140.892 86.5934 140.386 86.295C140.169 86.8692 139.262 86.7584 139.192 87.4885ZM151.647 86.4623C151.685 86.7313 151.593 86.8624 151.478 86.9754C150.049 88.3701 147.524 89.3172 145.677 90.2214C143.494 92.3643 139.997 93.1893 137.486 95.0044C137.363 95.4656 138.292 94.8801 138.17 95.3458C137.651 95.8521 136.755 95.9809 136.29 96.537C137.056 96.6274 136.525 98.0153 137.316 98.0763C142.793 94.1116 148.944 90.8181 153.523 85.9492C152.813 86.0373 152.553 86.5731 151.647 86.4623ZM154.549 85.9492C152.187 88.8832 148.74 90.7255 145.845 93.126C145.648 93.2684 145.39 93.3498 144.995 93.2956C144.545 94.5252 142.929 94.6043 141.923 95.3458C140.284 96.546 138.419 97.8119 136.803 98.9308C138.392 98.3566 139.719 97.5203 140.899 96.537C147.187 93.8968 151.67 89.4483 156.936 85.7797C156.087 85.4813 155.268 85.6779 154.549 85.9492ZM46.716 87.3167C47.3873 87.2534 47.254 85.8294 46.716 85.6079C46.716 86.182 46.716 86.7471 46.716 87.3167ZM153.695 85.4383C153.792 84.7534 153.55 86.4487 153.695 85.4383ZM135.438 85.2688C135.551 85.3796 135.368 85.1965 135.438 85.2688ZM160.008 84.7557C160.119 84.8664 159.936 84.6833 160.008 84.7557ZM136.975 84.2448C137.088 84.2448 137.203 84.2448 137.316 84.2448C137.316 84.1295 137.316 84.0143 137.316 83.9035C137.203 83.9035 137.088 83.9035 136.975 83.9035C136.975 84.0143 136.975 84.1295 136.975 84.2448ZM149.43 85.9492C149.454 86.3764 149.341 86.6612 149.086 86.8059C145.338 88.1395 142.544 91.0916 138.681 92.7847C138.695 93.707 137.447 93.3679 137.486 94.3195C143.625 91.4104 149.287 88.0265 154.378 84.0708C152.662 83.309 151.175 85.6192 149.43 85.9492ZM143.629 83.2186C143.826 83.8922 143.826 82.545 143.629 83.2186ZM156.084 83.2186C155.818 83.0897 155.827 82.6761 155.399 82.7055C155.232 83.196 156.606 83.4537 156.084 83.2186ZM137.996 83.3881C138.394 83.4424 138.654 83.361 138.851 83.2186C138.824 83.0174 138.88 82.7326 138.681 82.7055C138.86 83.3429 138.105 83.0423 137.996 83.3881ZM46.716 83.5599C46.603 83.1033 46.6437 82.493 46.3747 82.1946C46.5148 82.6218 46.0424 83.6616 46.716 83.5599ZM139.362 82.5337C139.477 82.5337 139.592 82.5337 139.705 82.5337C139.714 82.3167 139.925 82.2963 139.875 82.0206C139.705 82.0206 139.533 82.0206 139.362 82.0206C139.362 82.1946 139.362 82.3642 139.362 82.5337ZM154.378 82.1946C154.549 82.1946 154.719 82.1946 154.889 82.1946C154.889 82.0793 154.889 81.9663 154.889 81.851C154.719 81.851 154.549 81.851 154.378 81.851C154.378 81.9663 154.378 82.0793 154.378 82.1946ZM144.14 83.0468C145.092 82.8049 145.628 82.1449 146.186 81.5097C145.2 81.7177 144.427 82.1381 144.14 83.0468ZM140.047 82.0206C140.157 82.0206 140.273 82.0206 140.386 82.0206C140.395 81.8036 140.605 81.7877 140.557 81.5097C140.386 81.5097 140.218 81.5097 140.047 81.5097C140.047 81.6838 140.047 81.851 140.047 82.0206ZM46.0356 81.6838C46.5306 81.9324 46.5306 80.9175 46.0356 81.1684C46.0356 81.3379 46.0356 81.5097 46.0356 81.6838ZM146.358 81.3379C146.803 81.3899 147.09 81.2769 147.043 80.8293C146.613 80.7999 146.627 81.2091 146.358 81.3379ZM154.206 80.6575C153.978 80.6575 153.754 80.6575 153.523 80.6575C153.302 81.5323 154.36 81.4509 154.206 80.6575ZM148.234 80.8293C147.969 82.0409 146.713 82.2624 145.677 82.7055C145.463 83.2073 145.79 83.7272 145.677 84.5839C148.2 83.5237 151.089 81.9211 151.817 79.6313C150.808 80.2168 149.335 80.3343 148.234 80.8293ZM46.0356 78.6073C46.7861 78.5938 46.6595 79.4618 47.2268 79.6313C46.777 78.318 46.3362 76.9956 45.5202 76.0463C45.3597 77.2285 46.221 77.3935 46.0356 78.6073ZM144.14 79.6313C144.791 80.7027 144.206 81.1752 143.286 81.5097C144.063 81.1887 143.519 82.1878 144.14 82.0206C145.863 81.0147 147.058 79.4799 149.769 79.4618C150.178 78.8424 150.854 78.4943 151.136 77.7529C150.831 76.8849 149.818 76.1299 149.769 75.5332C147.556 76.5616 146.208 78.4536 144.14 79.6313ZM141.412 75.5332C141.523 75.5332 141.638 75.5332 141.753 75.5332C141.753 75.4179 141.753 75.3049 141.753 75.1896C141.638 75.1896 141.523 75.1896 141.412 75.1896C141.412 75.3049 141.412 75.4179 141.412 75.5332ZM149.94 73.8265C150.053 73.9373 149.868 73.7542 149.94 73.8265ZM44.4985 75.1896C44.2069 73.9463 44.0645 72.5494 42.7919 72.2872C43.366 73.5078 43.1581 74.6154 44.4985 75.1896ZM149.94 73.3112C149.97 72.4296 149.769 71.7763 149.26 71.4328C149.228 72.3166 149.577 72.8252 149.94 73.3112ZM42.281 71.6045C42.0414 70.0765 41.3249 69.0299 39.8895 68.7022C40.6581 69.699 41.1147 71.0033 42.281 71.6045ZM153.354 50.7702C153.625 50.2933 152.617 50.2955 152.669 50.5984C152.992 50.56 153.049 50.7928 153.354 50.7702ZM153.354 48.7178C153.892 48.6341 153.957 49.0274 154.549 48.8873C154.549 48.6047 154.549 48.3222 154.549 48.0351C153.826 47.9357 153.867 48.607 153.354 48.7178ZM54.2229 36.4211C53.8454 36.9432 53.1288 36.2267 54.2229 36.4211ZM63.6059 34.884C64.2523 34.6376 63.9336 35.3541 64.4603 35.2276C64.4083 34.893 64.6909 34.8885 64.8016 34.7167C64.4807 34.7506 63.1154 34.6014 63.6059 34.884ZM64.9712 34.884C65.5521 34.8975 66.1624 34.9382 66.3365 34.5427C65.7397 34.5155 65.2447 34.5879 64.9712 34.884ZM51.1509 34.5427C51.3205 34.5427 51.4945 34.5427 51.6641 34.5427C51.6641 34.3731 51.6641 34.2013 51.6641 34.0295C51.4945 34.0295 51.3205 34.0295 51.1509 34.0295C51.1509 34.2013 51.1509 34.3731 51.1509 34.5427ZM70.9432 33.0078C71.054 33.1186 70.8709 32.9355 70.9432 33.0078ZM71.2845 32.836C72.3718 32.6484 74.2163 31.4775 74.1846 31.299C73.1878 31.7804 72.1593 32.2325 71.2845 32.836ZM78.2805 29.9314C79.0355 29.7189 79.413 29.1335 79.8154 28.5638C79.2661 28.9843 78.6987 29.3821 78.2805 29.9314ZM106.262 24.1244C107.022 24.3346 108.01 24.3097 108.991 24.2984C108.52 23.3197 107.013 23.6203 106.262 24.1244ZM111.721 23.4417C111.52 23.4688 111.237 23.4123 111.21 23.6135C111.412 23.5864 111.694 23.6429 111.721 23.4417ZM100.118 23.4417C100.234 23.4417 100.347 23.4417 100.462 23.4417C100.462 23.3287 100.462 23.2157 100.462 23.1004C100.347 23.1004 100.234 23.1004 100.118 23.1004C100.118 23.2157 100.118 23.3287 100.118 23.4417ZM98.5836 22.7591C96.6397 22.3138 95.2947 21.274 93.1247 21.0525C94.16 22.2256 96.8612 23.3875 98.5836 22.7591ZM92.1008 18.6609C92.5325 18.8395 92.858 18.0845 92.4421 17.9783C92.6523 18.5276 91.8905 18.1071 92.1008 18.6609ZM136.29 73.9938C134.5 73.5327 134.958 70.9287 136.975 71.0914C135.935 70.1217 135.076 67.6375 136.975 66.8237C137.406 67.4725 138.103 67.8568 138.17 68.8717C138.623 68.8717 139.079 68.8717 139.533 68.8717C139.533 69.2153 139.533 69.5543 139.533 69.8979C141.828 68.6683 143.259 66.5683 145.677 65.4562C145.98 64.5068 146.963 64.2401 147.553 63.58C147.314 61.5796 148.259 60.0086 148.575 58.4534C148.772 57.504 148.573 56.4077 148.919 55.5488C149.12 55.0469 150.27 54.1179 150.454 53.8421C151.136 52.8091 151.279 50.9172 151.817 50.0853C150.777 49.8751 149.5 49.9 148.234 49.9158C146.902 49.3349 145.937 48.5053 144.651 48.2047C143.824 48.017 142.883 48.2702 142.092 48.0351C141.722 47.9266 141.281 47.2801 140.727 47.0111C140.232 46.7715 139.685 46.8981 139.362 46.6698C138.661 46.168 137.203 44.6196 136.29 43.5979C135.035 42.1851 133.435 39.8569 132.707 38.4735C131.654 36.4618 130.955 33.9052 130.148 31.8121C130.216 29.4092 129.124 28.1683 129.296 25.6637C128.543 24.2713 129.022 21.3418 129.296 19.8567C124.185 22.0267 119.563 24.6895 112.576 24.9788C110.566 26.0548 107.194 25.1936 104.556 25.3201C101.604 24.4521 97.3042 23.8599 94.8291 23.2722C92.5551 22.732 91.4317 20.5484 89.7115 19.8567C89.3521 20.0081 89.6527 20.8196 89.2006 20.8807C89.2526 20.5439 88.9701 20.5439 88.857 20.3675C89.2865 20.2274 89.2165 19.59 89.2006 19.0023C88.249 18.1343 87.2273 17.3341 86.4723 16.2694C86.4746 15.9869 86.9425 16.1722 86.9809 15.9258C86.7616 15.5212 86.4181 15.2364 86.1287 14.9018C85.7309 15.8196 84.8154 18.0551 86.1287 18.6609C85.6631 20.302 85.0505 21.7939 84.7634 23.6135C82.0102 25.1845 81.1965 28.6972 78.9632 30.7836C77.7606 31.69 76.3863 32.4224 75.2086 33.3492C72.4464 34.0567 71.0517 36.1317 67.5322 36.082C66.2822 36.7624 64.3382 36.7556 62.4101 36.7624C59.8965 37.8157 55.4797 37.7412 52.5162 37.7864C53.269 38.5187 53.7436 39.5201 53.712 41.0323C55.2807 42.1377 55.2898 44.805 55.5904 47.1829C55.8571 47.0518 55.8436 46.6404 56.2685 46.6698C56.2211 47.0066 56.4991 47.0066 56.6121 47.1829C55.3915 49.5473 56.3341 54.0772 54.0533 55.3815C54.0533 55.7793 54.0533 56.1772 54.0533 56.575C52.2947 59.4299 50.9249 62.6668 47.9095 64.2604C46.4041 66.1117 44.7223 67.7844 42.281 68.7022C42.3217 69.4549 42.7987 69.7759 43.3005 70.0675C43.6599 71.2474 44.5912 71.8509 45.3484 72.6285C46.6301 76.0146 48.4226 78.8899 49.6161 82.3642C49.424 82.5721 49.1301 82.6738 49.2725 83.2186C49.9077 83.4966 49.5234 84.7918 50.1292 85.097C49.8987 86.8375 50.4344 88.413 50.1292 90.0496C50.1224 90.0722 49.7947 90.027 49.7856 90.0496C48.3073 95.6803 46.0379 100.438 43.3005 104.91C43.7096 104.803 44.5415 105.122 44.668 104.738C44.3923 104.86 44.3923 103.933 44.668 104.053C47.1952 103.949 48.8204 103.178 50.6378 103.201C52.4688 104.274 54.8083 104.835 56.9534 105.592C57.5931 107.057 60.0864 106.67 60.3644 108.495C62.0756 108.721 62.4418 106.903 63.9472 107.471C64.0263 106.517 65.5182 106.085 66.3365 106.447C66.3365 106.614 66.3365 106.788 66.3365 106.958C64.3111 107.206 62.9707 108.147 61.7297 109.177C62.8622 109.638 63.2826 110.814 64.9712 110.714C66.3274 109.681 68.1109 108.165 70.091 108.325C70.091 108.495 70.091 108.666 70.091 108.836C68.0928 109.227 66.7366 110.262 65.143 111.058C65.6131 111.84 66.3116 112.392 67.0214 112.936C69.1959 111.413 72.1661 109.779 74.8673 109.351C72.4464 110.8 69.4649 111.684 67.3604 113.449C68.2284 114.288 68.685 115.538 70.2606 115.669C70.0865 115.834 69.9147 116.006 69.7497 116.18C71.0969 116.652 71.1489 118.422 72.4803 118.913C74.0694 117.887 75.6517 116.851 77.5979 116.18C76.9559 116.081 76.5604 115.742 76.4044 115.156C76.809 114.629 78.4975 114.033 79.1327 114.815C79.3723 114.026 80.333 113.965 80.6698 113.275C82.9641 114.901 83.4592 109.738 85.6156 111.741C85.6563 111.476 86.4587 111.13 86.6418 111.569C86.6079 112.05 85.8303 111.781 85.9569 112.426C87.2024 111.854 87.3674 109.844 89.0288 110.032C89.5578 110.093 89.664 110.719 90.3941 110.886C90.3082 111.481 89.6075 111.465 89.8833 112.426C89.325 112.493 89.1034 112.898 88.518 112.936C88.3236 114.505 85.4416 114.295 85.4461 115.497C85.1816 115.077 86.027 114.998 85.9569 115.328C82.399 118.14 77.3515 119.464 72.9911 121.474C73.6647 121.824 73.5291 122.986 73.8456 123.694C74.3203 123.859 75.4392 124.173 74.6978 124.548C77.79 124.003 79.2412 121.811 82.2069 121.133C85.5501 119.132 88.7802 117.014 92.6116 115.497C92.745 114.546 94.264 114.987 93.9769 113.617C92.415 113.42 92.7359 115.111 90.9073 114.643C90.8801 113.872 90.2495 113.707 90.2246 112.936C90.3489 112.206 91.4588 112.464 92.2703 112.426C91.8363 111.151 93.405 110.667 94.3182 110.204C95.1523 110.45 95.6021 111.078 96.0271 111.741C95.5954 112.22 94.6776 112.215 94.6618 113.106C94.8268 113.336 95.236 113.325 95.3422 113.617C95.8078 113.226 96.9516 112.618 97.3901 112.765C97.6614 113.893 96.4385 113.52 96.1944 114.13C96.5244 114.313 96.8929 114.46 96.7075 115.156C95.9909 114.948 95.9593 115.432 95.514 115.497C95.3286 114.941 94.316 115.217 93.6356 115.156C91.4226 116.528 89.3724 118.063 86.6418 118.913C86.4022 119.53 85.8846 119.862 85.1025 119.937C83.1201 121.182 81.0541 122.267 79.474 123.694C78.4365 124.639 77.087 125.398 76.0631 126.429C77.0983 126.573 76.9152 125.394 77.5979 126.085C78.1313 124.517 79.5871 123.868 81.5197 123.694C87.4601 121.671 92.1143 118.357 97.3901 115.669C97.4715 115.129 97.0827 115.066 97.2184 114.471C97.7902 114.36 98.0298 113.922 98.4141 113.617C97.7654 113.757 98.1971 112.812 98.0705 112.426C98.7351 112.12 99.2821 111.7 99.9489 111.397C100.333 111.472 100.494 111.765 100.803 111.912C101.054 112.676 100.302 112.435 100.462 113.106C110.86 106.835 121.961 101.266 132.879 95.5153C132.867 94.4845 133.394 93.1418 134.246 93.9782C134.242 94.4325 134.307 94.9524 134.072 95.1717C134.888 95.1016 135.11 95.73 134.927 96.1979C135.815 96.3471 136.199 95.99 136.29 95.3458C135.578 95.4904 135.363 95.1355 135.099 94.8304C135.343 94.5659 135.786 94.4936 135.607 93.8064C135.277 93.3973 135.121 93.6527 134.755 93.126C134.97 91.3267 136.353 91.5686 137.996 91.4171C137.915 91.9551 138.306 92.0207 138.17 92.6106C143.864 89.4325 148.772 85.4609 153.523 81.3379C151.059 81.512 149.531 84.0436 146.871 84.5839C146.518 85.4858 145.912 86.13 145.336 86.8059C144.656 86.7449 143.643 87.0184 143.458 86.4623C142.956 87.3258 142.217 87.9542 141.753 88.8538C141.059 89.0392 139.741 87.8796 140.386 88.343C140.551 89.1341 139.931 89.1386 139.705 89.5387C140.105 90.0315 140.153 91.121 139.533 91.4171C137.678 91.8511 137.565 90.1038 138.17 89.0256C137.736 89.2268 136.887 89.8981 136.29 89.3669C137.002 88.7679 139.147 88.6979 138.681 87.4885C135.86 89.5613 132.641 91.2363 130.148 93.6369C121.606 98.9172 112.359 103.497 103.704 108.666C103.857 107.853 104.44 107.468 105.41 107.471C110.397 103.691 116.667 101.203 121.961 97.735C123.83 97.3304 124.558 95.782 126.565 95.5153C126.62 94.4845 127.937 94.7264 128.103 93.8064C128.213 94.3173 128.466 93.6437 128.783 93.8064C128.9 93.0695 129.353 92.6672 130.32 92.7847C130.293 92.3575 130.587 92.2535 130.661 91.928C133.738 90.4542 136.048 88.2141 138.681 86.295C139.023 86.295 139.362 86.295 139.705 86.295C139.533 85.7797 140.085 85.9921 140.386 85.9492C140.539 85.4813 140.7 85.0111 141.24 84.9275C142.26 86.3176 144.445 85.9853 144.14 84.4144C143.932 84.3963 143.738 84.3624 143.799 84.0708C143.15 83.8221 143.767 84.8348 143.116 84.5839C142.915 84.5025 142.73 84.4031 142.603 84.2448C142.682 83.5215 143.193 83.5509 142.434 83.2186C142.883 83.1553 143.046 82.8072 142.947 82.1946C142.278 82.493 142.395 83.5757 141.579 83.7294C141.423 83.205 140.874 83.0739 141.071 82.1946C138.46 83.5667 136.441 85.531 133.903 86.9754C133.496 87.0432 133.998 86.1978 133.39 86.4623C131.792 87.9203 130.209 88.8018 128.274 90.0496C127.691 90.4248 126.993 90.9131 126.396 91.2454C125.291 91.8647 124.226 92.0953 123.154 92.6106C122.711 92.8254 122.375 93.4606 121.961 93.6369C121.502 93.8313 120.957 93.9059 120.426 93.8064C123.36 92.2467 126.532 90.9266 128.957 88.8538C132.689 87.2557 135.408 83.9284 138.851 82.0206C139.581 81.6182 140.123 81.5753 140.386 80.8293C139.972 80.7728 139.863 79.5431 140.218 79.29C143.704 80.3298 145.517 77.5133 147.382 75.8745C145.666 76.322 144.353 78.0784 142.947 78.266C144.793 76.4712 147.122 75.1602 149.26 73.6547C148.541 72.9495 147.969 72.0996 147.895 70.7501C146.71 70.9897 145.309 71.9165 145.164 72.6285C145.302 72.355 145.994 71.7696 146.358 72.2872C144.689 74.2628 141.837 75.0517 140.899 77.7529C137.169 77.719 136.077 81.2407 133.048 81.3379C134.757 80.4292 136.398 79.455 137.655 78.0942C133.873 79.0368 132.244 82.1291 128.783 83.3881C128.763 83.8244 128.471 83.9871 128.274 84.2448C126.721 84.5726 125.749 86.3854 124.348 86.295C128.613 83.5011 132.519 80.3546 136.803 77.5834C136.396 76.1163 137.684 75.2687 138.507 74.5069C139.14 75.2031 140.458 75.3523 141.412 74.8505C141.923 73.883 142.906 73.388 144.14 73.1416C144.965 71.7469 146.111 70.6755 147.553 69.8979C147.553 68.1325 147.553 66.3671 147.553 64.604C146.654 65.0109 145.851 65.5217 145.336 66.3084C144.852 66.166 144.893 66.5502 144.482 66.4824C143.186 68.8853 139.701 69.0955 138.851 71.9459C141.269 70.5534 143.008 68.4784 145.336 66.9955C145.628 66.9707 146.733 66.4395 146.699 67.1651C143.67 69.0277 140.657 70.9083 138.507 73.6547C135.564 74.2899 133.959 77.181 131.344 77.5834C133.046 76.4418 134.753 75.3049 136.29 73.9938ZM101.997 130.014C101.886 129.363 100.408 129.019 100.462 130.014C100.231 129.903 100.141 129.65 100.118 129.331C99.5375 129.641 99.3002 129.306 98.5836 129.331C98.5045 128.967 98.8278 129.008 99.0968 128.99C96.6555 127.595 92.5619 126.696 90.0528 126.429C86.8588 126.996 84.9104 128.809 81.6938 129.331C79.1011 131.121 76.2936 132.695 72.9911 133.773C72.6769 134.026 72.3944 134.313 72.139 134.627C71.4111 134.727 71.0088 134.503 70.4301 134.456C70.186 133.809 70.9003 134.128 70.7737 133.601C70.2334 132.656 70.4075 130.093 70.091 128.651C69.4174 125.57 67.704 123.703 66.6778 120.963C64.1484 117.066 60.6085 114.171 56.9534 111.397C53.7143 110.371 51.1464 108.671 48.0813 107.471C47.584 107.826 46.4538 107.55 46.5442 108.495C46.1215 108.162 45.2874 107.575 45.8616 106.788C43.8023 106.148 41.5894 106.571 40.4026 105.249C40.4433 104.779 40.9429 104.767 41.0853 104.394C41.7363 104.41 42.3715 105.409 42.6201 104.394C42.4641 103.931 42.0889 104.636 41.5961 104.394C41.9171 99.245 44.6093 95.0067 45.1789 89.5387C45.1789 86.9754 45.1789 84.4144 45.1789 81.851C44.4284 78.2796 43.1332 75.2461 41.0853 72.9721C41.1305 72.7867 41.4243 72.8568 41.4266 72.6285C40.4094 71.1999 39.1888 69.9725 38.0156 68.7022C38.1784 68.3541 38.6689 68.3337 39.2069 68.3608C39.0645 67.9336 38.9853 67.4454 39.0396 66.8237C44.2182 64.9499 46.4786 60.151 49.9574 56.575C49.9574 56.1772 49.9574 55.7793 49.9574 55.3815C50.8119 55.2685 50.1699 53.6591 50.9814 53.5031C50.9769 53.3335 50.7712 53.3697 50.6378 53.329C51.6573 50.282 52.1252 46.0505 51.4945 42.0586C51.1238 39.7348 48.9629 38.4939 49.103 36.2493C48.3797 35.9509 48.5854 34.7235 47.9095 34.3731C48.1355 33.8578 48.3955 33.3808 49.103 33.3492C49.0849 32.6484 49.0759 31.9545 49.4443 31.6403C50.8209 32.5535 53.0633 33.0756 54.5619 33.3492C54.7631 33.3198 54.7088 33.035 54.736 32.836C55.7893 33.0576 57.4688 33.8103 58.486 33.0078C61.2234 34.2172 64.6095 32.5331 67.8735 32.6642C70.4482 31.0865 74.4446 30.9305 75.7195 28.053C76.3072 28.1276 76.6779 27.9852 77.087 27.8835C79.7114 25.8446 81.427 22.8924 82.8873 19.6826C82.9551 18.8779 82.833 18.2586 82.7177 17.637C83.4885 16.5859 84.0265 15.3065 84.5939 14.0497C85.046 14.0497 85.5681 13.9841 85.7897 14.2192C85.584 13.5004 86.0632 13.471 86.1287 13.0234C86.9312 14.443 88.518 15.0691 89.3702 16.4412C90.0393 16.5994 89.7996 15.8467 90.5682 16.0976C90.5682 16.4412 90.5682 16.7803 90.5682 17.1216C93.0094 17.9218 95.2676 18.9051 97.0488 20.3675C99.09 20.3156 100.654 20.745 101.827 21.5611C103.387 21.8233 106.032 20.9982 106.773 22.0764C106.947 21.9657 106.952 21.6831 107.284 21.7328C108.667 22.4471 110.95 22.1216 113.258 22.2482C117.822 20.7247 123.891 20.7066 127.759 18.4869C128.168 18.5931 128.541 18.7355 129.124 18.6609C129.626 18.3671 129.549 17.49 130.661 17.8065C132.14 20.5891 130.609 24.0543 131.513 27.029C131.934 28.4056 133.53 29.7641 134.246 31.299C134.481 31.8121 134.414 32.506 134.585 33.0078C135.641 36.0526 137.119 38.2339 138.681 40.3519C140.252 40.9962 141.453 42.0179 142.603 43.0825C145.248 43.5075 146.545 45.2864 149.769 45.1305C150.395 45.5916 151.342 45.7227 152.502 45.6436C152.696 45.8493 152.694 46.2494 152.669 46.6698C153.853 46.4528 154.05 47.2281 155.23 47.0111C155.081 47.5582 155.492 47.5469 155.743 47.6961C155.786 48.8647 155.302 50.0763 155.743 51.1093C154.156 51.74 153.596 53.4014 152.669 54.6966C152.739 55.1961 153.672 54.8322 153.865 55.2074C153.865 55.4357 153.865 55.664 153.865 55.8923C153.374 55.8697 152.75 55.985 152.502 55.7228C150.347 59.8797 150.408 65.7003 151.306 70.5806C151.48 71.5299 151.982 72.8252 152.502 73.6547C154.974 77.6105 158.367 82.0635 161.885 83.9035C162.138 85.4067 161.118 85.6395 161.202 86.9754C157.653 90.7684 153.451 93.9036 150.967 98.7613C149.527 99.4281 149.002 101.008 148.575 102.688C148.27 102.665 148.213 102.898 147.895 102.859C147.992 103.16 147.687 103.863 148.064 103.883C147.992 104.137 147.843 103.818 147.553 103.883C147.194 109.623 146.615 114.279 148.406 118.913C147.434 119.935 148.399 122.184 148.406 123.013C146.602 124.982 142.87 123.205 140.899 122.328C140.056 122.369 139.237 122.202 138.338 121.987C136.147 121.463 133.837 121.406 131.172 121.648C128.79 122.389 125.806 122.536 123.665 123.524C123.399 123.465 123.814 123.226 123.496 123.181C122.225 123.393 121.493 124.137 120.935 125.061C120.413 124.939 120.313 125.235 119.913 125.233C116.902 127.629 113.604 129.734 113.428 134.966C113.012 135.351 112.743 135.877 112.063 135.993C112.063 136.334 112.063 136.675 112.063 137.017C111.005 137.057 110.035 137.13 109.165 137.017C109.165 136.675 109.165 136.334 109.165 135.993C106.97 134.541 104.924 132.948 102.849 131.381C102.797 130.848 103.342 131.815 103.362 131.212C103.066 130.769 102.587 130.504 102.338 130.014C102.062 129.942 101.766 130.651 102.166 130.697C101.857 131.054 101.459 130.05 100.803 130.186C100.783 130.009 101.538 129.84 100.973 129.673C101.183 129.257 101.631 130.023 101.997 130.014Z" fill="#0C2221"/>
</g>
<path fill-rule="evenodd" clip-rule="evenodd" d="M121.793 38.9869C121.989 39.6628 121.989 38.311 121.793 38.9869ZM122.304 41.0371C121.691 40.4291 120.97 40.8337 120.43 40.3545C120.728 39.5181 120.468 38.8852 120.43 37.9629C120.626 37.8205 120.886 37.7369 121.28 37.7911C121.363 37.0768 121.612 36.5298 121.962 36.0845C122.769 35.9579 123.135 36.2767 123.838 36.2518C124.639 37.6781 124.374 39.4345 124.349 40.6958C123.712 40.5941 123.863 39.7057 123.158 39.6718C123.018 39.7622 122.88 39.8481 122.645 39.8413C122.5 41.3536 124.2 41.019 124.349 42.2329C123.994 42.3323 123.863 42.6556 123.328 42.5742C124.006 43.0896 123.922 44.3667 125.032 44.4526C125.021 45.5218 123.149 44.7261 123.328 45.9874C122.064 45.7772 122.973 43.3857 121.449 43.4264C121.449 42.8567 121.449 42.2871 121.449 41.722C122.096 41.6813 122.426 41.3264 122.645 40.8653C122.534 40.576 122.252 40.7591 122.304 41.0371Z" fill="#0C2221"/>
<path fill-rule="evenodd" clip-rule="evenodd" d="M132.888 87.4928C132.78 87.6645 132.495 87.6691 132.547 88.0036C132.122 87.9358 132.538 87.3436 132.888 87.4928Z" fill="#0C2221"/>
<path fill-rule="evenodd" clip-rule="evenodd" d="M137.148 100.984C136.691 101.952 135.97 101.235 137.148 100.984Z" fill="#0C2221"/>
<path fill-rule="evenodd" clip-rule="evenodd" d="M75.7242 109.861C76.278 110.074 75.8553 109.31 76.4091 109.522C77.4263 110.071 78.6379 112.28 77.0895 112.938C76.1379 112.77 76.2441 112.535 75.5547 113.107C76.0588 112.788 75.9932 111.141 75.7242 109.861Z" fill="#0C2221"/>
<path fill-rule="evenodd" clip-rule="evenodd" d="M108.303 115.16C108.559 115.233 108.235 115.38 108.303 115.673C107.853 115.671 107.234 115.832 107.451 115.16C107.752 115.059 108.158 115.66 108.303 115.16Z" fill="#0C2221"/>
</svg>
