<svg width="1200" height="579" viewBox="0 0 1200 579" fill="none" xmlns="http://www.w3.org/2000/svg">
<g clip-path="url(#clip0_247_2550)">
<mask id="mask0_247_2550" style="mask-type:luminance" maskUnits="userSpaceOnUse" x="225" y="278" width="306" height="301">
<path d="M225.532 278H530.332V578.744H225.532V278Z" fill="white"/>
</mask>
<g mask="url(#mask0_247_2550)">
<path d="M402.363 452.981C413.944 450.169 431.094 447.863 441.176 439.2C447.026 435.938 452.369 432.069 456.851 427.5C456.882 427.625 456.913 427.756 456.944 427.881C457.038 428.331 457.294 428.65 457.619 428.875C457.551 430.6 457.426 432.294 457.201 433.988C456.882 436.675 460.976 437.538 462.163 435.331C466.669 426.956 468.176 418.513 468.082 409.913C469.201 406.75 470.032 403.394 470.513 399.813C471.919 389.169 468.401 379.319 461.551 371.263C458.863 358.7 455.951 346.131 451.444 334.206C445.907 319.531 438.101 308.438 424.507 300.381C417.626 296.319 411.482 292.9 403.901 290.5C403.869 290.5 403.838 290.469 403.807 290.469C396.063 286.631 387.744 283.788 379.169 282.063C376.769 281.581 374.851 284.681 376.513 286.281C376.388 286.7 376.451 287.213 376.832 287.719C379.744 291.619 384.513 292.294 389.182 293.219C391.101 293.606 393.088 294.081 395.101 294.694C402.238 297.981 409.113 301.725 415.226 307.194C425.401 316.269 433.238 327.875 438.551 340.313C441.238 346.581 443.026 352.944 444.469 359.4C443.894 358.919 443.282 358.475 442.644 358.056C434.963 353.006 423.126 351.344 414.169 350.319C406.588 349.425 399.007 348.881 391.426 348.656C388.288 348.369 385.151 348.244 382.019 348.244C380.801 341.244 379.301 334.306 377.313 327.463C374.438 317.55 373.157 306.906 369.026 297.375C365.832 290.119 360.263 283.694 352.394 281.456C344.363 279.15 338.957 282.475 332.969 285.931C332.463 285.581 331.563 285.738 331.307 286.444C331.244 286.631 331.182 286.794 331.119 286.988C330.988 287.05 330.826 287.144 330.701 287.213C331.819 284.556 332.651 281.488 334.926 279.763C335.726 279.15 335.244 278 334.251 278.163C328.976 279.056 325.838 284.238 322.988 288.331C317.426 296.356 313.682 304.919 310.001 313.906C303.569 329.569 300.113 345.4 298.869 361.894C294.132 363.4 289.432 364.994 284.826 366.756C270.682 372.125 258.107 378.169 247.838 388.175C250.588 367.875 257.082 348.531 267.101 330.4C272.601 320.463 280.182 310.419 290.132 304.7C294.263 302.331 297.907 299.1 302.163 296.963C306.132 294.944 309.807 293.825 313.038 290.569C313.326 290.281 313.326 289.925 313.138 289.638C313.713 289.125 313.363 287.975 312.463 287.944C302.613 287.431 295.826 291.463 287.094 295.363C277.813 299.488 269.657 305.175 262.138 311.956C247.069 325.606 235.294 342.006 230.019 361.831C224.419 382.9 224.707 405.694 228.288 427.113C230.176 438.463 233.507 449.4 237.951 460.013C242.526 470.919 249.376 480.094 255.838 489.906C256.413 490.769 257.501 490.963 258.332 490.613C264.413 499.113 271.513 507.013 280.501 512.481C285.719 515.644 291.669 518.588 297.751 519.419C303.857 520.25 308.463 518.044 313.838 515.45C316.526 514.144 314.832 510.688 312.463 510.4C289.494 507.713 272.476 487 261.563 468.325C257.563 461.488 254.432 454.544 252.094 447.481C257.376 449.019 263.038 449.719 268.119 450.713C278.713 452.819 289.432 454.1 300.113 455.919C302.963 456.4 305.876 456.819 308.788 457.138C309.551 459.856 310.388 462.538 311.344 465.225C314.669 474.625 316.813 485.05 321.007 494.063C327.119 507.169 340.363 521.331 356.232 518.838C363.076 517.756 367.619 512.769 370.851 506.913C374.982 499.469 378.501 490.931 380.257 482.588C382.176 473.663 383.488 464.813 384.576 455.956C390.557 455.375 396.476 454.419 402.363 452.981ZM432.501 360.938C437.013 364.869 442.226 366.788 446.644 370.656C446.869 371.931 447.094 373.213 447.313 374.494C442.357 368.8 435.638 363.906 428.694 360.075C429.976 360.363 431.226 360.65 432.501 360.938ZM309.907 376.506C309.776 383.888 309.713 391.275 309.776 398.631C309.426 394.056 309.201 389.456 309.169 384.85C309.138 382.163 309.107 379.481 309.107 376.825C309.363 376.731 309.651 376.631 309.907 376.506ZM343.626 442.781C335.694 442.588 327.788 442.269 319.888 441.856C319.376 433.413 319.376 424.913 319.313 416.756C319.213 405.119 318.126 393.963 318.894 382.294C319.119 379.094 319.213 375.931 319.244 372.763C332.494 367.456 345.676 362.469 359.913 359.85C362.982 359.275 366.019 358.825 369.026 358.475C373.313 380.469 376.576 402.788 374.532 425.2C374.401 426.506 375.619 427.05 376.644 426.794C376.388 431.944 376.032 437.125 375.488 442.269C374.788 442.331 374.082 442.369 373.382 442.431C370.726 442.619 368.038 442.813 365.351 442.944C358.119 443.1 350.857 442.944 343.626 442.781ZM431.576 431.238C429.176 431.719 426.776 432.169 424.469 432.806C415.901 435.175 407.194 437.156 398.526 439.231C394.463 440.225 390.369 440.956 386.238 441.5C386.819 436.1 387.363 430.631 387.969 425.163C390.301 404.031 386.594 382.45 383.907 361.513C383.744 360.231 383.551 358.919 383.394 357.644C391.838 357.644 400.251 358.569 408.894 360.519C416.344 362.213 423.382 364.931 430.069 368.706C435.988 372.031 442.132 375.256 448.019 378.713C448.213 379.731 448.369 380.725 448.563 381.75C450.513 392.169 452.051 402.594 453.907 413.019C448.851 421.006 440.663 426.863 431.576 431.238ZM346.538 291.175C346.763 291.206 346.988 291.206 347.207 291.238C346.794 292.2 346.857 293.444 347.563 294.244C353.382 301.15 355.882 310.006 358.694 318.413C362.088 328.55 364.869 338.619 367.107 348.975C360.488 349.394 353.894 350.063 347.307 351.025C338.057 352.369 328.782 354.063 319.632 356.206C319.757 353.613 319.951 351.025 320.269 348.438C321.644 336.956 323.757 325.575 326.251 314.288C327.757 307.575 330.507 300.831 332.107 294.019C336.876 292.775 341.451 290.756 346.538 291.175ZM314.382 326.788C317.069 317.869 319.982 308.5 323.819 300C324.588 298.269 325.488 296.644 326.413 295.013C326.544 295.013 326.638 295.013 326.763 295.013C326.894 295.013 327.019 294.981 327.151 294.981C325.776 297.438 324.363 299.9 323.276 302.463C320.401 309.331 318.482 316.238 316.688 323.463C313.838 334.844 311.282 346.738 310.482 358.538C310.094 358.631 309.744 358.731 309.363 358.825C309.907 348.019 311.251 337.306 314.382 326.788ZM246.526 416.406C247.744 412.056 250.269 407.806 252.507 404.606C259.101 395.144 267.869 388.431 277.563 382.838C274.169 385.263 271.101 387.981 268.569 391.15C267.613 392.363 268.826 394.506 270.394 393.513C279.094 387.825 288.694 384.244 298.357 380.788C298.326 398.631 298.932 416.663 303.157 434.056C303.732 436.356 304.244 438.656 304.788 440.956C303.507 440.863 302.194 440.769 300.913 440.706C297.238 440.031 293.526 439.363 289.751 438.913C286.932 438.563 284.151 438.244 281.369 437.888C271.288 434.631 261.982 428.269 254.269 421.106C252.288 419.094 248.701 420.975 249.344 423.981C250.044 427.306 252.701 430.375 255.582 432.931C252.319 431.85 249.344 430.188 247.519 427.338C247.007 423.725 246.688 420.081 246.526 416.406ZM373.344 458.738C371.969 467.113 370.369 475.581 367.876 483.738C367.907 483.256 367.938 482.775 367.938 482.331C367.938 480.538 365.444 480.313 364.901 481.913C362.438 489.044 351.657 505.988 342.601 502.6C337.707 498.188 333.419 491.444 331.182 486.325C330.826 485.431 330.507 484.538 330.157 483.675C330.126 483.606 330.126 483.544 330.094 483.45C327.438 474.944 324.688 466.569 322.094 458.125C334.094 458.606 346.251 458.031 358.119 457.038C363.301 457.106 368.482 457.075 373.669 456.85C373.569 457.456 373.476 458.094 373.344 458.738ZM526.532 529.713C526.501 529.744 526.463 529.744 526.432 529.775C524.032 526.256 521.057 523.125 517.894 520.25C515.907 516.794 513.894 513.406 511.269 510.275C507.176 505.381 502.469 501 498.026 496.4C493.607 491.825 489.163 487.35 484.557 482.969C482.444 480.956 480.207 479.163 477.994 477.281C477.482 476.831 476.976 476.413 476.494 476.063C478.094 474.975 479.626 473.794 481.132 472.513C485.994 468.425 489.932 463.563 493.319 458.194C493.707 457.581 493.419 456.913 492.907 456.563C494.601 455.025 496.363 453.556 497.738 451.763C500.232 448.631 498.088 442.463 493.319 444.188C489.738 445.5 486.088 445.625 482.382 446.269C477.994 447 473.707 448.119 469.326 448.888C461.744 450.2 454.132 451.35 446.613 453.175C438.869 455.056 431.351 458.544 423.482 459.825C416.988 460.875 409.469 460.363 403.551 463.625C397.982 466.694 396.351 472.163 395.869 478.144C395.326 485.206 394.401 492.306 394.588 499.431C394.813 507.425 396.319 515.325 397.151 523.25C397.563 527.281 398.076 531.244 398.976 535.213C399.388 537.063 399.776 538.95 400.251 540.775C400.607 542.081 402.107 544.9 401.213 546.238C399.744 548.413 403.069 550.969 404.863 549.056C405.563 548.288 405.982 547.613 406.269 546.913C406.682 548.544 407.163 550.106 408.351 551.356C409.469 552.538 411.226 551.838 411.769 550.588C411.801 550.588 411.838 550.619 411.869 550.619C414.557 551.706 417.657 549.469 419.576 547.838C422.169 545.631 423.894 542.656 425.563 539.75C426.488 538.181 427.513 536.65 428.376 535.05C429.144 533.581 429.751 532.013 430.426 530.481C430.969 529.263 431.576 528.113 432.213 526.963C434.132 528.75 435.476 530.988 437.269 532.906C437.844 533.55 438.451 534.188 439.032 534.825C439.957 536.2 440.951 537.575 441.907 538.981C445.494 544.1 449.301 549.019 453.426 553.719C460.176 561.425 467.501 569.294 475.919 575.363C475.982 575.75 476.138 576.1 476.463 576.45C476.557 576.581 476.751 576.55 476.876 576.45C476.976 576.388 477.069 576.294 477.163 576.231C478.319 577.025 479.469 577.794 480.682 578.5C481.838 579.2 483.213 577.794 482.538 576.644C481.932 575.619 481.257 574.631 480.557 573.7C480.619 573.638 480.713 573.606 480.782 573.544C481.257 573.831 481.707 574.119 482.188 574.406C482.188 574.856 482.282 575.331 482.476 575.844C482.926 576.931 483.882 577.35 484.969 576.869C486.794 576.038 488.426 574.375 490.088 573.194C492.301 571.594 494.251 569.706 496.232 567.85C500.326 563.95 504.038 559.669 508.038 555.706C512.069 551.706 516.263 547.869 520.194 543.775C522.563 541.319 524.994 538.95 526.913 536.2C528.194 537.094 529.857 535.788 529.119 534.281C528.963 533.963 528.801 533.675 528.644 533.356C528.963 532.719 529.282 532.075 529.538 531.375C530.244 529.55 527.744 528.75 526.532 529.713ZM479.851 456.85C478.188 456.944 476.557 457.006 474.894 457.075C476.876 456.656 478.863 456.206 480.844 455.763C480.526 456.144 480.207 456.5 479.851 456.85ZM463.213 476.063C463.182 476.031 463.182 476 463.151 476C463.213 475.969 463.282 475.906 463.344 475.869C463.313 475.938 463.282 476 463.213 476.063ZM477.451 484.025C476.432 483.031 475.407 482.075 474.382 481.113C473.901 480.669 473.488 480.219 473.069 479.738C474.607 480.669 475.982 482.556 477.101 483.675C477.232 483.8 477.326 483.894 477.451 484.025ZM451.601 461.356C452.788 461.1 453.969 460.844 455.151 460.619C451.732 461.45 448.276 462.319 444.851 463.15C447.057 462.475 449.301 461.869 451.601 461.356ZM518.469 535.719C518.307 534.7 517.026 533.994 516.038 534.888C512.007 538.538 507.688 541.7 503.913 545.663C500.038 549.756 495.819 553.563 491.851 557.556C489.101 560.338 486.344 563.056 483.594 565.806C482.157 563.506 480.332 561.525 478.576 559.413C476.238 556.6 473.869 554.006 471.057 551.644C468.588 549.563 465.938 547.681 463.663 545.406C460.944 542.725 458.382 539.813 455.763 537.031C450.544 531.5 445.713 525.588 440.338 520.181C438.994 518.838 437.526 516.988 435.763 515.994C435.669 515.806 435.507 515.613 435.319 515.45C432.213 512.925 429.401 515.738 427.226 518.013C424.726 520.631 421.882 522.963 419.576 525.781C416.857 529.069 414.907 532.969 412.507 536.519C411.901 537.419 411.288 538.313 410.682 539.238C410.138 535.431 409.469 531.631 409.082 527.794C408.351 520.375 408.157 512.894 407.007 505.506C405.919 498.444 404.507 490.769 405.726 483.606C406.782 477.438 410.494 475.681 416.188 475.394C421.113 475.169 425.813 475.075 430.713 474.369C437.588 473.375 444.182 472.131 450.994 470.694C457.263 469.35 463.407 467.625 469.582 466.025C468.944 466.475 468.369 466.919 467.788 467.369C466.482 468.425 465.294 469.575 464.144 470.819C463.026 472.038 461.582 472.9 460.401 474.05C460.207 474.244 460.082 474.463 460.019 474.719C459.407 475.075 458.963 475.713 458.863 476.513C458.382 481.019 464.463 485.688 467.119 488.694C471.982 494.225 477.994 498.669 483.469 503.556C489.132 508.613 494.857 513.6 500.519 518.681C506.376 523.925 512.451 528.525 518.851 533.069C519.651 533.644 520.676 533.038 520.994 532.206C521.251 532.394 521.507 532.619 521.794 532.813C521.888 532.875 522.019 532.969 522.113 533.038C520.838 533.9 519.651 534.794 518.469 535.719ZM421.338 496.075C422.876 501.863 424.251 508.1 422.744 514.044C422.394 515.419 420.407 515.356 420.057 514.044C418.394 508.356 416.988 502.538 415.832 496.719C415.288 493.969 414.269 491.188 414.044 488.375C413.944 487.156 414.394 486.006 414.269 484.794C414.269 484.825 414.107 484.119 414.107 484.119C414.107 483.706 414.269 483.35 414.457 483C414.876 482.269 415.932 482.231 416.444 482.806C416.601 482.844 416.763 482.906 416.919 483C417.369 483.225 417.719 483.575 417.944 484.025C418.551 485.113 418.651 486.519 418.907 487.731C419.513 490.513 420.601 493.263 421.338 496.075ZM504.069 534.888C504.138 535.275 504.038 535.719 503.751 536.075C501.994 538.313 500.069 540.294 497.769 541.988C495.626 543.556 493.319 544.9 491.113 546.369C488.907 547.838 486.632 549.213 484.494 550.75C483.532 551.45 482.569 552.125 481.613 552.825C480.813 553.4 479.919 553.719 479.151 554.331C478.638 554.713 477.707 554.55 477.738 553.75C477.807 552.794 477.932 551.675 478.413 550.813C478.894 550.013 479.563 549.244 480.238 548.544V548.513C480.207 546.563 482.569 545.15 484.076 544.388C486.444 543.138 488.457 541.319 490.601 539.719C491.688 538.919 492.807 538.181 493.932 537.481C495.051 536.775 496.076 535.913 497.194 535.213C498.251 534.569 499.369 534.025 500.488 533.513C501.482 533.038 502.501 532.65 503.626 532.875C504.488 533.069 504.776 534.381 504.069 534.888Z" fill="#192C2B"/>
</g>
<mask id="mask1_247_2550" style="mask-type:luminance" maskUnits="userSpaceOnUse" x="671" y="278" width="305" height="302">
<path d="M671.933 278H975.145V579.2H671.933V278Z" fill="white"/>
</mask>
<g mask="url(#mask1_247_2550)">
<path d="M958.233 501.869L974.351 346.494C974.539 344.675 973.914 342.919 972.595 341.6L965.57 334.388C965.508 334.488 965.445 334.588 965.383 334.688C962.47 332.788 964.258 334.069 923.289 332.731L925.295 309.963C925.576 306.25 922.401 303.244 919.026 303.513L876.576 305.563L878.426 284.55C878.739 281.05 875.926 277.869 872.195 278.063L769.383 283.094C766.301 283.244 763.864 285.681 763.714 288.763L756.814 429.306C756.664 432.538 759.158 435.338 762.383 435.556L772.351 436.225C767.889 481.569 767.045 479.531 768.264 482.475C668.158 546.619 674.164 542.375 673.433 543.944C672.97 544.931 673.026 545.775 673.295 546.544C673.733 547.575 676.639 554.388 676.37 553.763C677.245 555.831 679.126 557.338 681.326 557.588L861.208 579.113C862.776 579.3 864.408 578.8 865.658 577.794L955.976 506.006C957.233 505.006 958.045 503.5 958.233 501.869ZM770.226 484.963C773.189 487.188 762.689 484.869 943.42 501.038C934.764 507.769 974.595 476.806 859.501 566.256L676.383 545.625C675.551 545.225 673.87 546.694 770.226 484.963ZM804.489 438.381L803.689 454.788C803.526 458.019 805.951 460.756 809.233 461.013L905.533 467.475C908.689 467.663 911.533 465.3 911.876 462.031L921.989 347.469C949.695 348.338 949.358 347.45 950.57 348.819C951.87 350.288 951.689 342.363 937.42 484.213C937.308 485.431 936.251 486.244 935.039 486.188C777.789 472.269 786.545 473.9 785.401 472.5C784.32 471.194 785.051 471.713 788.47 437.306L804.489 438.381ZM919.17 306.644C921.064 306.619 922.283 308.131 922.176 309.713L918.989 345.794C918.989 345.813 918.97 345.819 918.97 345.838C918.97 345.844 918.983 345.856 918.983 345.863L908.751 461.731C908.601 463.281 907.208 464.463 905.714 464.344L809.458 457.881C807.908 457.763 806.745 456.469 806.826 454.944L807.626 438.588L858.67 442.013C858.808 442.025 858.945 442.025 859.076 442.025C862.164 442.025 864.733 439.706 865.014 436.588V436.581L866.526 419.438L895.989 419.913C895.995 419.913 896.008 419.913 896.014 419.913C896.87 419.913 897.57 419.231 897.583 418.369C897.595 417.506 896.908 416.794 896.039 416.775L866.801 416.3L869.495 385.781H896.014C896.876 385.781 897.583 385.075 897.583 384.213C897.583 383.344 896.876 382.644 896.014 382.644H869.776L872.376 353.113L897.945 352.456C898.808 352.438 899.495 351.719 899.47 350.85C899.445 350 898.745 349.319 897.901 349.319C897.889 349.319 897.876 349.319 897.858 349.319L872.658 349.963L876.295 308.719L919.17 306.644ZM759.951 429.456L766.851 288.913C766.914 287.456 768.076 286.3 769.539 286.225C804.664 284.506 873.226 281.194 872.489 281.194C874.145 281.194 875.451 282.613 875.308 284.275L869.364 351.6C869.364 351.606 869.358 351.613 869.358 351.619C869.358 351.625 869.364 351.625 869.364 351.631L861.889 436.306C861.751 437.856 860.501 439.044 858.876 438.881C854.458 438.588 825.945 436.675 762.589 432.425C761.058 432.319 759.876 430.994 759.951 429.456ZM775.489 436.431L785.333 437.094L781.814 470.494C781.458 473.494 783.651 476.181 786.689 476.444C939.958 489.756 934.558 489.331 935.245 489.331C937.964 489.331 940.289 487.256 940.545 484.519L954.276 350.838C954.539 347.806 952.214 345.019 949.051 344.925L922.264 344.338L923.014 335.863L962.251 336.769C963.951 336.769 965.17 338.288 965.014 339.875C947.764 504.85 949.708 496.031 948.02 497.463L947.908 497.55C946.283 498.788 956.239 498.731 773.495 483.113C771.92 482.95 770.72 481.531 770.883 479.944L775.489 436.431Z" fill="#192C2B"/>
</g>
<path d="M740.613 523.656C889.556 537.725 881.119 537.444 882.781 536.225L916.975 510.894C919.456 509.062 918.35 505.119 915.275 504.856L776.763 492.731C774.563 492.531 775.656 492.894 739.038 517.544C736.45 519.312 737.488 523.362 740.613 523.656ZM740.806 520.137L776.488 495.856L915.006 507.981C915.006 507.981 915.119 508.369 915.119 508.375L880.769 533.75L740.719 520.375C740.681 520.225 740.769 520.162 740.806 520.137Z" fill="#192C2B"/>
<path d="M824.426 510.462C826.407 510.462 826.539 507.519 824.57 507.331L779.982 503.069C777.832 502.944 777.682 506.006 779.689 506.194L824.276 510.456C824.326 510.462 824.376 510.462 824.426 510.462Z" fill="#192C2B"/>
<path d="M871.157 522.888L825.22 518.406C823.07 518.294 822.895 521.331 824.913 521.531C825.801 521.619 870.288 525.95 871.007 526.019C871.801 526.019 872.488 525.413 872.563 524.606C872.651 523.738 872.02 522.975 871.157 522.888Z" fill="#192C2B"/>
<path d="M691.739 543.381C692.876 543.487 718.426 545.869 722.151 546.212L721.645 545.325C716.026 544.725 710.576 542.669 705.958 539.419C707.414 538.875 709.008 538.694 710.551 538.906C709.126 537.325 707.695 535.744 706.264 534.162C707.264 534.381 708.27 534.6 709.27 534.819C709.514 531.769 710.626 528.85 712.32 526.306C707.426 529.344 704.376 531.231 692.945 538.312C691.683 539.094 689.801 539.837 689.664 541.544C689.62 542.15 689.82 543.05 690.426 543.262C690.808 543.394 691.345 543.344 691.739 543.381Z" fill="#192C2B"/>
<path d="M814.732 537.731C766.126 532.431 768.319 532.125 767.338 532.837L749.682 546.237C748.457 547.125 748.969 549.056 750.476 549.212C799.544 554.237 797.407 554.593 798.394 553.831L815.569 540.687C816.757 539.775 816.219 537.881 814.732 537.731ZM753.182 547.287C752.944 547 752.876 546.593 752.988 546.243C753.194 545.643 752.676 546.237 765.063 536.65C764.807 537.881 764.938 539.193 765.513 540.306C764.957 540.343 764.401 540.375 763.844 540.412C765.051 541.325 766.257 542.231 767.463 543.143C766.638 543.206 765.813 543.262 764.988 543.325C766.057 544.468 767.526 545.131 768.963 545.743C772.938 547.431 776.863 548.981 780.951 550.393C753.063 547.612 753.688 547.918 753.182 547.287ZM805.682 542.468C805.638 542.056 806.832 541.925 806.876 542.337C806.894 542.506 805.732 542.881 805.682 542.468ZM806.444 539.818C806.382 539.25 807.926 539.075 807.994 539.643C808.019 539.887 806.507 540.393 806.444 539.818ZM809.176 541.081C809.138 540.706 810.294 540.575 810.338 540.95C810.357 541.106 809.219 541.456 809.176 541.081Z" fill="#192C2B"/>
<path d="M759.088 514.956C758.788 513.075 759.27 511.137 760.276 509.519L748.595 518.5L765.357 519.969C762.276 518.762 759.588 517.287 757.032 515.187C757.72 515.112 758.401 515.031 759.088 514.956Z" fill="#192C2B"/>
<path d="M846.752 395.838L783.389 393.031C782.62 393 781.789 393.663 781.752 394.525C781.714 395.394 782.383 396.125 783.252 396.163C796.37 396.744 847.314 398.975 846.683 398.975C847.514 398.975 848.214 398.313 848.252 397.475C848.289 396.606 847.62 395.875 846.752 395.838Z" fill="#192C2B"/>
<path d="M781.251 413.813C825.864 416.306 811.639 415.506 814.508 415.669C816.526 415.669 816.608 412.65 814.595 412.531L781.42 410.681C779.351 410.494 779.164 413.694 781.251 413.813Z" fill="#192C2B"/>
<path d="M793.62 430.563C785.42 429.456 776.689 425.306 769.876 420.613C771.876 420.888 773.876 421.163 775.876 421.444C773.12 418.681 770.357 415.919 767.595 413.156C769.17 413.544 770.745 413.931 772.326 414.319C769.057 409.738 766.67 404.263 765.226 398.819C763.901 427.55 764.051 424.325 764.02 424.969C763.945 426.656 765.176 428.763 766.982 428.981C767.376 429.031 764.251 428.744 793.62 430.563Z" fill="#192C2B"/>
<path d="M781.702 370.013L850.783 370.338C851.852 370.406 852.777 369.613 852.87 368.55L857.602 303.456C857.708 302.269 856.739 301.263 855.552 301.325L784.814 303.356C783.802 303.406 782.995 304.213 782.945 305.225L779.87 367.956C779.82 369.025 780.633 369.938 781.702 370.013ZM855.289 310.206C855.289 311.65 853.858 311.65 853.858 310.206C853.858 309.606 855.289 308.763 855.289 310.206ZM820.914 361.006C819.633 363.513 816.539 364.706 814.002 363.663C811.464 362.625 810.445 359.75 811.72 357.238C813.002 354.725 816.095 353.538 818.633 354.575C821.17 355.619 822.189 358.494 820.914 361.006ZM851.739 306.313C851.739 308.538 849.752 308.538 849.752 306.313C849.752 304.088 851.739 304.088 851.739 306.313ZM851.058 312.544C851.058 314.85 848.939 314.85 848.939 312.544C848.939 310.238 851.058 310.231 851.058 312.544ZM819.333 310.525C825.627 310.331 830.095 315.706 828.57 321.644L822.508 345.275C821.858 347.788 819.402 349.588 816.752 349.494C814.302 349.406 812.364 347.706 812.064 345.4L809.045 321.875C808.308 316.119 813.202 310.719 819.333 310.525ZM783.564 362.825C783.808 358.275 784.058 353.719 784.302 349.163C786.252 351.731 787.92 354.331 789.87 356.9C788.708 356.675 787.539 356.444 786.377 356.219C788.389 357.9 790.402 359.588 792.414 361.269C790.77 361.106 789.12 360.938 787.477 360.775C791.608 363.663 797.083 365.575 801.958 366.825C801.402 366.681 800.614 366.825 800.039 366.825C797.139 366.825 789.795 366.825 787.045 366.825C785.639 366.825 783.652 366.794 783.452 364.913C783.377 364.25 783.527 363.494 783.564 362.825Z" fill="#192C2B"/>
<path d="M906.382 326.213C908.394 326.213 910.032 323.544 910.032 320.25C910.032 316.956 908.394 314.281 906.382 314.281C904.363 314.281 902.726 316.956 902.726 320.25C902.726 323.544 904.363 326.213 906.382 326.213Z" fill="#192C2B"/>
<path d="M913.764 335.831C914.364 335.831 914.852 334.525 914.852 332.919C914.852 331.313 914.364 330.013 913.764 330.013C913.164 330.013 912.677 331.313 912.677 332.919C912.677 334.525 913.164 335.831 913.764 335.831Z" fill="#192C2B"/>
<path d="M897.345 335.831C898.088 335.831 898.688 334.525 898.688 332.919C898.688 331.313 898.088 330.013 897.345 330.013C896.601 330.013 896.001 331.313 896.001 332.919C896.001 334.525 896.601 335.831 897.345 335.831Z" fill="#192C2B"/>
<path d="M677.083 321.031C687.371 325.862 697.352 328.75 707.414 331.925C717.552 334.806 727.789 337.881 739.196 338.375C723.339 324.987 697.608 316.519 677.083 321.031Z" fill="#192C2B"/>
<path d="M715.025 352.606C708.444 355.088 702.1 358.087 695.807 361.581C707.4 362.05 715.725 359.306 722.175 359.081C728.138 358.162 733.263 355.2 735.863 349.7C726.125 346.463 719.632 351.056 715.025 352.606Z" fill="#192C2B"/>
<path d="M733.583 321.594C737.764 325.487 742.814 327.1 748.114 325.512C745.22 316.256 738.333 314.662 734.558 312.281C729.07 309.131 723.345 306.481 717.245 304.212C723.251 312.812 730.051 317.337 733.583 321.594Z" fill="#192C2B"/>
</g>
<defs>
<clipPath id="clip0_247_2550">
<rect width="1200" height="579" fill="white"/>
</clipPath>
</defs>
</svg>
