<svg width="1200" height="357" viewBox="0 0 1200 357" fill="none" xmlns="http://www.w3.org/2000/svg">
<g clip-path="url(#clip0_87_1349)">
<g clip-path="url(#clip1_87_1349)">
<mask id="mask0_87_1349" style="mask-type:luminance" maskUnits="userSpaceOnUse" x="0" y="-222" width="1200" height="579">
<path d="M1200 -222H0V357H1200V-222Z" fill="white"/>
</mask>
<g mask="url(#mask0_87_1349)">
<path d="M159.867 240.607C174.63 240.607 207.011 230.344 222.261 230.344C226.311 230.344 227.742 232.019 227.742 233.688C227.742 237.988 210.836 262.094 204.88 268.775C203.448 270.213 202.498 271.157 201.067 271.157C194.873 271.157 190.592 260.894 155.342 260.894C140.58 260.894 123.673 263.044 120.092 263.044C116.517 263.044 115.098 261.369 115.098 258.513C115.098 245.863 146.061 161.388 161.773 132.269C164.873 126.3 172.486 120.569 173.198 120.1C145.098 122.957 119.861 139.425 119.861 161.625C119.861 176.657 125.811 180 125.811 182.625C125.811 184.063 124.617 185.007 121.998 185.007C110.573 185.007 86.9922 173.794 86.9922 151.125C86.9922 112.707 133.898 103.394 185.58 103.394C212.73 103.394 227.255 106.013 237.011 106.013C255.117 106.013 266.78 99.332 269.642 99.332C271.311 99.332 272.261 100.532 272.261 101.957C272.261 116.275 252.736 143.719 243.917 143.719C235.092 143.719 221.761 125.107 203.911 125.107C202.961 125.107 202.005 125.582 200.817 127.488C193.442 141.088 186.292 158.038 179.861 174.494C179.861 174.494 210.098 165.194 225.823 165.194C230.111 165.194 231.78 167.107 231.78 169.013C231.78 172.363 219.63 186.919 213.68 196.694C212.005 199.319 211.298 200.282 209.392 200.282C207.011 200.282 192.248 192.638 173.198 192.4C173.198 192.4 157.236 234.163 157.236 237.988C157.236 239.894 158.186 240.607 159.855 240.607H159.867Z" fill="black"/>
<path d="M315.129 176.895C332.51 176.895 339.898 183.101 339.898 190.257C339.898 201.463 324.66 210.545 304.179 220.807C311.316 235.601 314.423 244.901 321.56 244.901C323.941 244.901 325.373 245.613 325.373 247.763C325.373 251.107 313.223 263.032 296.079 263.032C283.698 263.032 279.173 250.145 274.416 237.026C266.079 242.995 262.504 246.813 262.504 249.907C262.504 254.682 266.791 255.401 266.791 258.501C266.791 261.845 262.504 264.232 254.404 264.232C238.929 264.232 231.066 257.551 231.066 250.632C231.066 237.751 246.791 228.195 265.841 218.182C261.791 205.776 258.941 197.657 252.51 197.657C250.129 197.657 248.223 197.182 248.223 194.551C248.223 190.02 262.279 176.895 275.61 176.895C288.229 176.895 293.229 188.595 297.76 202.188C305.86 198.132 308.716 195.507 308.716 191.213C308.716 186.92 305.623 184.77 305.623 181.188C305.623 179.045 309.435 176.895 315.141 176.895H315.129Z" fill="black"/>
<path d="M344.662 196.943C344.662 194.087 348.712 184.768 351.799 181.912C354.18 179.762 357.03 179.524 360.374 179.524C366.562 164.255 372.049 150.887 372.049 144.93C372.049 142.78 374.187 141.105 378.712 141.105C388.718 141.105 401.812 151.612 401.812 158.524C401.812 161.874 398.237 169.262 394.187 179.524C404.193 179.524 405.849 178.58 408.48 178.58C410.149 178.58 410.855 179.524 410.855 181.199C410.855 190.024 405.137 200.293 385.849 200.293C379.662 213.174 364.893 248.262 364.893 257.324C364.893 260.905 363.949 263.055 360.137 263.055C349.187 263.055 333.699 260.193 333.699 251.605C333.699 241.105 351.799 207.455 351.799 200.062C349.418 200.062 344.662 200.062 344.662 196.955V196.943Z" fill="black"/>
<path d="M475.631 176.895C483.019 176.895 487.781 181.188 487.781 189.07C487.781 201.476 472.306 218.42 465.394 218.42C463.012 218.42 462.056 217.47 461.581 215.563C460.381 211.738 460.631 203.151 454.912 203.151C452.3 203.151 448.012 205.776 443.962 212.451C436.1 225.101 427.294 249.682 427.294 257.313C427.294 260.895 426.581 263.045 422.769 263.045C411.581 263.045 396.094 260.182 396.094 251.595C396.094 234.413 418 200.057 418 180.951C418 178.57 420.137 176.895 424.662 176.895C445.856 176.895 445.619 192.163 446.569 192.163C447.512 192.163 459.425 176.895 475.619 176.895H475.631Z" fill="black"/>
<path d="M563.268 263.045C543.987 263.045 536.362 249.682 534.687 249.682C531.837 249.682 519.687 263.045 498.024 263.045C485.874 263.045 478.262 254.926 478.262 241.57C478.262 210.545 509.693 176.895 548.505 176.895C568.987 176.895 583.755 188.832 583.755 194.313C583.755 198.845 565.174 220.082 565.174 249.438C565.174 256.588 566.849 257.313 566.849 260.176C566.849 261.845 565.649 263.032 563.268 263.032V263.045ZM512.787 235.838C512.787 238.226 514.218 240.132 517.074 240.132C529.693 240.132 549.455 201.238 549.455 195.982C549.455 193.838 548.505 192.876 546.599 192.876C532.074 192.876 512.787 220.32 512.787 235.826V235.838Z" fill="black"/>
<mask id="mask1_87_1349" style="mask-type:luminance" maskUnits="userSpaceOnUse" x="78" y="91" width="577" height="232">
<path d="M78.7188 91.1562H654.719V322.756H78.7188V91.1562Z" fill="white"/>
</mask>
<g mask="url(#mask1_87_1349)">
<path d="M654.144 238.213C654.144 231.176 647.551 225.47 642.919 222.326C642.563 222.063 642.207 221.826 641.876 221.588C641.507 221.326 641.157 221.076 640.813 220.838C640.469 220.595 640.126 220.357 639.794 220.132C639.438 219.87 639.082 219.632 638.751 219.395C638.394 219.132 638.038 218.895 637.707 218.657C637.351 218.395 637.001 218.157 636.669 217.92C636.301 217.663 635.944 217.413 635.601 217.176C635.257 216.926 634.913 216.688 634.582 216.463C634.226 216.201 633.876 215.963 633.538 215.726C633.188 215.47 632.832 215.232 632.501 214.995C632.144 214.732 631.788 214.495 631.457 214.257C631.088 213.995 630.738 213.745 630.394 213.507C630.051 213.257 629.707 213.02 629.376 212.795C629.019 212.538 628.663 212.301 628.332 212.063C627.976 211.801 627.619 211.563 627.288 211.326C626.932 211.063 626.582 210.826 626.251 210.588C625.882 210.332 625.526 210.082 625.182 209.845C624.838 209.595 624.494 209.357 624.163 209.132C623.807 208.87 623.451 208.632 623.119 208.395C622.769 208.132 622.413 207.895 622.082 207.657C621.726 207.401 621.369 207.163 621.038 206.926C620.669 206.663 620.313 206.413 619.976 206.176C619.632 205.926 619.288 205.688 618.957 205.463C618.601 205.201 618.244 204.963 617.913 204.732C617.557 204.47 617.201 204.232 616.869 203.995C616.513 203.732 616.163 203.495 615.832 203.257C615.463 202.995 615.107 202.745 614.763 202.513C614.419 202.263 614.076 202.026 613.744 201.801C613.388 201.538 613.032 201.301 612.701 201.063C612.351 200.801 611.994 200.563 611.663 200.326C611.294 200.063 610.938 199.82 610.594 199.582C610.251 199.332 609.907 199.095 609.576 198.87C609.219 198.607 608.869 198.37 608.538 198.132C608.182 197.87 607.826 197.632 607.494 197.395C607.138 197.138 606.782 196.901 606.451 196.663C606.082 196.401 605.732 196.151 605.388 195.913C605.044 195.663 604.701 195.426 604.369 195.201C604.013 194.938 603.657 194.701 603.326 194.463C602.969 194.207 602.613 193.97 602.282 193.732C601.932 193.47 601.576 193.232 601.244 192.995C600.876 192.732 600.519 192.482 600.176 192.245C599.832 192.001 599.488 191.763 599.157 191.538C598.801 191.276 598.451 191.038 598.119 190.801C597.763 190.538 597.407 190.301 597.076 190.063C596.719 189.801 596.363 189.563 596.032 189.326C595.663 189.07 595.313 188.82 594.969 188.582C594.626 188.332 594.282 188.095 593.951 187.87C593.594 187.607 593.238 187.37 592.907 187.132C592.551 186.87 592.194 186.638 591.863 186.401C591.513 186.138 591.157 185.901 590.826 185.663C590.457 185.401 590.101 185.151 589.757 184.913C589.413 184.663 589.069 184.426 588.738 184.201C588.382 183.945 588.032 183.707 587.701 183.47C587.344 183.207 586.988 182.97 586.657 182.732C586.301 182.47 585.944 182.232 585.613 181.995C585.244 181.732 584.894 181.488 584.551 181.251C584.207 181.001 583.863 180.763 583.532 180.538C583.176 180.276 582.819 180.038 582.488 179.801C582.132 179.538 581.776 179.301 581.444 179.063C580.063 178.07 578.794 177.263 577.826 176.695C569.332 171.707 558.938 168.97 548.569 168.97C532.513 168.97 516.894 174.095 503.507 183.551C503.257 183.37 503.007 183.195 502.744 183.026C502.407 182.782 502.063 182.52 501.694 182.295C501.351 182.045 501.019 181.795 500.651 181.57C500.307 181.32 499.963 181.07 499.607 180.832C499.269 180.582 498.926 180.332 498.569 180.101C498.226 179.851 497.882 179.601 497.526 179.363C497.182 179.113 496.838 178.851 496.469 178.626C496.126 178.376 495.794 178.126 495.432 177.901C495.088 177.651 494.744 177.407 494.388 177.17C494.044 176.92 493.701 176.67 493.344 176.432C493.001 176.182 492.657 175.932 492.307 175.695C491.963 175.445 491.619 175.188 491.251 174.963C490.907 174.713 490.576 174.463 490.207 174.238C489.863 173.988 489.519 173.738 489.169 173.501C488.826 173.251 488.482 173.001 488.126 172.763C484.819 170.332 480.594 168.945 475.669 168.945C465.738 168.945 457.376 173.313 451.351 177.688C451.232 177.607 451.126 177.532 451.007 177.451C450.663 177.201 450.307 176.951 449.963 176.713C449.619 176.47 449.269 176.22 448.926 175.982C448.582 175.732 448.226 175.482 447.882 175.245C447.526 174.982 447.169 174.745 446.813 174.501C446.476 174.251 446.138 174.013 445.801 173.788C445.457 173.538 445.101 173.288 444.757 173.051C444.413 172.801 444.057 172.551 443.713 172.313C443.369 172.063 443.013 171.813 442.669 171.582C442.319 171.32 441.963 171.082 441.607 170.832C441.263 170.582 440.932 170.345 440.588 170.12C440.244 169.87 439.888 169.62 439.544 169.382C439.201 169.132 438.851 168.888 438.507 168.651C438.163 168.401 437.807 168.151 437.463 167.913C437.107 167.651 436.751 167.413 436.394 167.163C436.051 166.913 435.719 166.676 435.382 166.451C435.038 166.207 434.682 165.957 434.338 165.72C433.994 165.47 433.638 165.22 433.294 164.982C432.938 164.72 432.582 164.482 432.232 164.232C431.888 163.988 431.557 163.751 431.213 163.526C430.869 163.276 430.513 163.026 430.169 162.788C429.826 162.538 429.469 162.288 429.126 162.051C428.782 161.801 428.432 161.551 428.088 161.313C427.732 161.057 427.376 160.82 427.019 160.57C426.676 160.32 426.344 160.082 426.001 159.857C425.657 159.607 425.301 159.357 424.957 159.12C424.619 158.87 424.263 158.62 423.919 158.388C423.576 158.138 423.219 157.888 422.876 157.651C422.519 157.388 422.163 157.151 421.813 156.901C421.469 156.651 421.138 156.413 420.794 156.188C420.451 155.938 420.094 155.695 419.751 155.457C419.407 155.207 419.051 154.957 418.707 154.72C418.363 154.47 418.007 154.22 417.669 153.982C417.313 153.72 416.957 153.488 416.601 153.238C416.257 152.988 415.926 152.751 415.582 152.526C415.238 152.276 414.882 152.026 414.538 151.788C414.194 151.538 413.844 151.288 413.501 151.051C413.157 150.801 412.801 150.557 412.457 150.32C412.101 150.057 411.744 149.82 411.394 149.57C411.051 149.32 410.719 149.082 410.376 148.857C410.032 148.607 409.676 148.357 409.332 148.12C408.988 147.876 408.632 147.626 408.288 147.388C407.944 147.138 407.588 146.888 407.244 146.651C406.894 146.388 406.538 146.151 406.182 145.901C405.838 145.657 405.507 145.42 405.163 145.195C404.819 144.945 404.463 144.695 404.119 144.457C403.776 144.207 403.426 143.957 403.082 143.72C402.738 143.47 402.382 143.22 402.038 142.982C401.682 142.726 401.326 142.488 400.969 142.238C400.632 141.988 400.301 141.751 399.957 141.526C399.613 141.276 399.257 141.026 398.913 140.788C398.569 140.538 398.213 140.295 397.869 140.057C391.738 135.595 384.844 133.057 378.807 133.057C368.801 133.057 364.319 138.901 364.319 144.707C364.319 148.582 359.488 160.876 355.044 171.863C352.369 172.351 349.351 173.451 346.594 175.945C345.907 176.588 345.182 177.42 344.482 178.351C344.413 178.307 344.344 178.257 344.269 178.213C343.926 177.963 343.588 177.713 343.219 177.476C342.888 177.226 342.544 176.988 342.188 176.751C341.857 176.501 341.501 176.251 341.144 176.02C340.813 175.77 340.457 175.52 340.107 175.282C338.282 173.913 336.088 172.72 333.507 171.732C337.369 165.363 342.769 154.801 342.769 145.657C342.769 141.857 340.838 138.595 337.888 136.77C337.557 136.507 337.213 136.257 336.851 136.032C336.519 135.757 336.163 135.52 335.794 135.295C335.463 135.038 335.119 134.801 334.763 134.576C334.432 134.313 334.088 134.063 333.719 133.838C333.388 133.576 333.051 133.326 332.682 133.101C332.351 132.838 332.007 132.595 331.638 132.363C331.307 132.095 330.951 131.857 330.582 131.632C330.251 131.37 329.913 131.132 329.557 130.907C329.226 130.645 328.882 130.395 328.513 130.17C328.182 129.907 327.838 129.663 327.469 129.438C327.138 129.176 326.794 128.926 326.432 128.701C326.101 128.426 325.744 128.188 325.376 127.963C325.044 127.701 324.701 127.463 324.344 127.238C324.013 126.982 323.669 126.732 323.301 126.507C322.969 126.245 322.626 125.995 322.263 125.77C321.932 125.507 321.588 125.257 321.219 125.032C320.888 124.763 320.532 124.526 320.163 124.301C319.832 124.038 319.488 123.801 319.138 123.576C318.807 123.313 318.463 123.063 318.094 122.838C317.763 122.576 317.419 122.326 317.051 122.101C316.719 121.845 316.376 121.595 316.013 121.37C315.676 121.095 315.326 120.857 314.957 120.632C314.626 120.37 314.282 120.132 313.926 119.907C313.594 119.645 313.251 119.401 312.882 119.17C312.551 118.913 312.207 118.663 311.844 118.438C311.513 118.176 311.169 117.926 310.801 117.701C310.469 117.426 310.113 117.188 309.744 116.963C309.413 116.707 309.069 116.47 308.719 116.245C308.388 115.982 308.044 115.732 307.676 115.507C307.344 115.245 307.001 114.995 306.632 114.77C306.301 114.501 305.944 114.263 305.582 114.032C305.251 113.776 304.907 113.538 304.551 113.313C304.219 113.051 303.876 112.801 303.507 112.576C303.176 112.313 302.832 112.063 302.463 111.838C302.132 111.582 301.788 111.332 301.426 111.107C301.094 110.832 300.738 110.595 300.369 110.37C300.038 110.107 299.694 109.87 299.338 109.645C299.007 109.382 298.663 109.132 298.301 108.907C297.969 108.651 297.626 108.401 297.257 108.176C296.926 107.913 296.582 107.663 296.213 107.438C295.882 107.163 295.526 106.926 295.163 106.701C294.826 106.445 294.488 106.207 294.132 105.982C293.801 105.72 293.457 105.47 293.088 105.245C292.757 104.982 292.413 104.732 292.044 104.507C291.713 104.245 291.369 103.995 291.007 103.77C290.676 103.501 290.319 103.263 289.951 103.038C289.619 102.776 289.276 102.538 288.919 102.313C288.588 102.051 288.244 101.801 287.882 101.576C287.544 101.313 287.207 101.07 286.838 100.845C286.507 100.582 286.163 100.332 285.794 100.107C285.463 99.832 285.107 99.595 284.738 99.37C284.407 99.107 284.069 98.8701 283.713 98.6451C283.382 98.3881 283.038 98.138 282.669 97.913C282.338 97.651 281.994 97.401 281.626 97.176C281.294 96.913 280.951 96.663 280.588 96.438C280.257 96.17 279.901 95.932 279.532 95.707C279.201 95.445 278.857 95.207 278.501 94.982C278.169 94.72 277.826 94.47 277.457 94.245C277.126 93.982 276.782 93.732 276.419 93.507C274.632 92.063 272.344 91.207 269.813 91.207C267.657 91.207 265.682 91.907 262.682 92.963C257.488 94.801 248.794 97.888 237.182 97.888C233.857 97.888 229.701 97.532 224.438 97.082C215.407 96.307 203.044 95.251 185.751 95.251C154.776 95.251 131.382 98.526 114.226 105.245C85.382 116.551 79.332 136.27 79.332 150.813C79.332 163.157 85.1132 174.388 95.6007 182.482C96.3132 183.026 97.032 183.551 97.782 184.063C98.1257 184.313 98.4632 184.545 98.8195 184.795C99.1632 185.045 99.507 185.282 99.8632 185.532C100.219 185.782 100.563 186.032 100.926 186.282C101.263 186.526 101.601 186.763 101.957 187.001C102.301 187.251 102.644 187.488 103.001 187.738C103.344 187.988 103.688 188.226 104.044 188.476C104.388 188.726 104.732 188.963 105.082 189.213C105.438 189.457 105.782 189.707 106.151 189.957C106.482 190.207 106.826 190.445 107.182 190.682C107.526 190.932 107.869 191.17 108.219 191.42C108.563 191.663 108.907 191.901 109.263 192.151C109.607 192.401 109.951 192.638 110.307 192.888C110.663 193.138 111.007 193.388 111.369 193.638C111.701 193.882 112.044 194.12 112.401 194.357C112.744 194.607 113.088 194.845 113.444 195.095C113.788 195.345 114.132 195.582 114.488 195.832C114.826 196.082 115.169 196.32 115.526 196.57C115.882 196.813 116.226 197.063 116.594 197.313C116.926 197.563 117.269 197.801 117.626 198.038C117.963 198.288 118.307 198.526 118.663 198.776C119.007 199.02 119.351 199.257 119.707 199.507C120.051 199.757 120.394 199.995 120.751 200.245C121.101 200.495 121.444 200.745 121.813 200.995C122.144 201.238 122.488 201.476 122.844 201.713C123.188 201.963 123.532 202.201 123.888 202.451C123.907 202.476 123.944 202.501 123.969 202.513C118.076 218.707 107.451 249.176 107.451 258.313C107.451 262.951 109.476 266.626 112.876 268.726C113.207 268.988 113.551 269.238 113.919 269.463C114.251 269.726 114.594 269.976 114.957 270.201C115.288 270.457 115.632 270.707 116.001 270.932C116.332 271.195 116.676 271.432 117.044 271.657C117.376 271.92 117.719 272.17 118.082 272.395C118.413 272.657 118.757 272.907 119.126 273.132C119.457 273.388 119.801 273.638 120.169 273.863C120.501 274.126 120.844 274.376 121.213 274.601C121.544 274.863 121.888 275.101 122.251 275.326C122.582 275.588 122.926 275.832 123.294 276.063C123.626 276.32 123.969 276.57 124.338 276.795C124.669 277.057 125.013 277.307 125.376 277.532C125.707 277.795 126.051 278.045 126.419 278.27C126.751 278.526 127.094 278.763 127.463 278.988C127.794 279.251 128.138 279.501 128.501 279.726C128.832 279.988 129.176 280.238 129.544 280.463C129.876 280.726 130.219 280.97 130.588 281.195C130.919 281.457 131.263 281.707 131.632 281.932C131.963 282.195 132.307 282.432 132.669 282.657C133.001 282.92 133.344 283.17 133.713 283.395C134.044 283.651 134.388 283.901 134.757 284.126C135.088 284.388 135.432 284.638 135.794 284.863C136.126 285.126 136.469 285.376 136.838 285.601C137.169 285.863 137.513 286.101 137.882 286.326C138.213 286.582 138.557 286.832 138.926 287.057C139.257 287.32 139.594 287.57 139.963 287.795C140.294 288.057 140.638 288.307 141.007 288.532C141.338 288.788 141.682 289.038 142.051 289.263C142.382 289.526 142.726 289.763 143.088 289.988C143.419 290.251 143.763 290.501 144.132 290.726C144.463 290.988 144.807 291.232 145.176 291.463C145.507 291.72 145.851 291.97 146.213 292.195C146.544 292.457 146.888 292.707 147.257 292.932C147.588 293.195 147.932 293.432 148.301 293.657C148.632 293.92 148.976 294.163 149.344 294.388C149.676 294.651 150.019 294.901 150.382 295.126C150.713 295.388 151.057 295.638 151.426 295.863C151.757 296.126 152.101 296.363 152.469 296.588C152.801 296.845 153.144 297.095 153.507 297.32C153.838 297.582 154.182 297.832 154.551 298.057C154.882 298.32 155.226 298.57 155.594 298.795C155.926 299.051 156.269 299.301 156.632 299.526C156.969 299.788 157.307 300.026 157.676 300.251C158.007 300.513 158.351 300.763 158.719 300.988C159.051 301.251 159.394 301.501 159.763 301.726C160.094 301.982 160.438 302.232 160.801 302.457C161.132 302.72 161.476 302.97 161.844 303.195C162.176 303.457 162.519 303.695 162.888 303.92C163.219 304.182 163.563 304.426 163.926 304.651C164.257 304.913 164.601 305.163 164.969 305.388C165.301 305.651 165.644 305.901 166.013 306.126C166.344 306.388 166.688 306.638 167.057 306.863C167.388 307.12 167.726 307.357 168.094 307.582C168.426 307.845 168.769 308.095 169.138 308.32C169.469 308.582 169.813 308.832 170.182 309.057C170.513 309.32 170.857 309.563 171.219 309.788C171.551 310.051 171.894 310.301 172.263 310.526C172.594 310.788 172.938 311.026 173.307 311.251C173.638 311.513 173.982 311.763 174.344 311.988C176.526 313.695 179.413 314.67 182.788 314.67C184.244 314.67 186.544 314.463 190.807 314.088C197.851 313.457 208.482 312.52 218.038 312.52C240.901 312.52 249.244 317.007 254.219 319.688C257.038 321.207 259.963 322.77 263.751 322.77C268.413 322.77 271.232 319.945 273.088 318.082C273.194 317.976 273.294 317.87 273.401 317.763C276.038 314.801 280.394 309.057 284.694 302.901C284.694 302.901 284.707 302.901 284.719 302.907C285.051 303.157 285.407 303.407 285.757 303.645C286.101 303.895 286.457 304.145 286.813 304.382C287.144 304.632 287.488 304.87 287.844 305.107C288.176 305.351 288.532 305.601 288.888 305.838C289.219 306.088 289.569 306.338 289.926 306.576C290.257 306.826 290.613 307.076 290.969 307.313C291.313 307.563 291.669 307.807 292.026 308.045C292.357 308.295 292.694 308.532 293.051 308.77C293.382 309.02 293.738 309.27 294.094 309.507C294.494 309.813 294.926 310.113 295.363 310.382C300.869 313.97 308.376 315.857 317.088 315.857C332.501 315.857 336.188 308.607 337.038 304.545C337.344 304.77 337.663 305.001 337.982 305.213C338.313 305.463 338.669 305.701 339.013 305.932C339.357 306.182 339.701 306.432 340.057 306.67C340.401 306.92 340.744 307.17 341.101 307.407C341.444 307.657 341.788 307.907 342.138 308.145C342.482 308.401 342.838 308.638 343.194 308.876C343.526 309.126 343.882 309.363 344.226 309.601C344.569 309.851 344.913 310.101 345.263 310.338C348.851 313.02 353.232 314.67 358.751 314.67C367.569 314.67 376.582 311.951 384.113 307.001C385.319 306.207 387.082 304.951 388.882 303.37C388.957 303.42 389.026 303.47 389.094 303.513C389.426 303.763 389.782 304.013 390.138 304.251C390.469 304.501 390.826 304.751 391.182 304.988C391.513 305.232 391.869 305.482 392.226 305.72C392.557 305.97 392.907 306.22 393.276 306.457C393.607 306.707 393.951 306.945 394.307 307.182C394.638 307.432 394.994 307.682 395.351 307.92C400.688 311.901 409.488 314.682 422.807 314.682C432.088 314.682 435.388 307.67 435.388 301.12C435.388 299.945 436.032 297.251 437.169 293.513C437.307 293.607 437.451 293.713 437.594 293.807C437.926 294.057 438.282 294.307 438.632 294.545C438.976 294.795 439.319 295.045 439.688 295.282C440.019 295.532 440.363 295.77 440.719 296.007C441.051 296.251 441.407 296.501 441.763 296.738C442.094 296.988 442.444 297.238 442.801 297.476C443.132 297.726 443.488 297.976 443.844 298.213C444.188 298.463 444.532 298.707 444.901 298.945C445.232 299.195 445.576 299.432 445.926 299.67C446.257 299.92 446.613 300.17 446.969 300.407C447.301 300.657 447.657 300.907 448.013 301.145C448.344 301.388 448.701 301.638 449.051 301.876C449.394 302.126 449.738 302.376 450.107 302.613C450.438 302.863 450.782 303.101 451.138 303.338C451.469 303.588 451.826 303.832 452.182 304.07C452.513 304.32 452.863 304.57 453.219 304.807C453.551 305.057 453.907 305.307 454.263 305.545C454.607 305.795 454.951 306.045 455.319 306.282C455.651 306.526 455.994 306.763 456.344 307.001C456.676 307.251 457.032 307.501 457.388 307.738C464.069 312.72 474.957 314.713 485.413 314.713C491.382 314.713 494.363 311.57 495.607 309.707C497.513 306.851 497.751 303.632 497.751 301.151C497.751 298.151 500.107 289.951 503.469 281.151C503.751 281.351 504.038 281.551 504.319 281.745C504.663 281.995 505.007 282.238 505.363 282.476C505.707 282.738 506.063 282.976 506.419 283.213C506.751 283.463 507.094 283.701 507.451 283.938C507.788 284.188 508.132 284.438 508.488 284.676C508.832 284.92 509.176 285.17 509.532 285.407C509.876 285.657 510.219 285.907 510.576 286.145C510.919 286.407 511.269 286.645 511.626 286.882C511.957 287.132 512.301 287.37 512.657 287.601C513.001 287.851 513.344 288.101 513.701 288.338C514.044 288.588 514.388 288.838 514.738 289.076C515.082 289.326 515.426 289.576 515.782 289.813C516.126 290.07 516.482 290.307 516.838 290.545C517.169 290.795 517.513 291.032 517.869 291.27C518.207 291.52 518.551 291.77 518.907 292.007C519.251 292.257 519.594 292.507 519.951 292.738C520.294 293.001 520.651 293.238 521.007 293.476C521.338 293.726 521.682 293.963 522.032 294.201C522.376 294.451 522.719 294.701 523.076 294.938C523.419 295.188 523.763 295.432 524.119 295.67C524.463 295.92 524.807 296.17 525.157 296.407C525.501 296.67 525.857 296.907 526.213 297.145C526.544 297.395 526.888 297.632 527.244 297.87C527.588 298.113 527.932 298.363 528.288 298.601C528.632 298.851 528.969 299.101 529.326 299.338C529.669 299.588 530.013 299.838 530.369 300.076C530.713 300.332 531.069 300.57 531.426 300.807C531.757 301.057 532.101 301.295 532.451 301.532C532.794 301.782 533.138 302.032 533.494 302.27C533.838 302.52 534.182 302.77 534.538 303.007C534.882 303.251 535.226 303.501 535.582 303.738C535.919 304.001 536.276 304.238 536.632 304.476C536.963 304.726 537.307 304.963 537.663 305.201C538.007 305.451 538.351 305.695 538.707 305.932C539.051 306.182 539.394 306.432 539.744 306.67C540.088 306.92 540.432 307.17 540.788 307.407C541.132 307.67 541.488 307.907 541.844 308.145C542.176 308.388 542.519 308.626 542.869 308.863C543.213 309.113 543.557 309.363 543.913 309.601C548.401 312.926 554.076 314.776 560.607 314.776C577.494 314.776 589.413 307.67 595.869 303.42C596.019 303.526 596.176 303.632 596.338 303.738C596.669 303.988 597.026 304.226 597.382 304.476C597.726 304.726 598.082 304.976 598.451 305.226C598.782 305.457 599.126 305.695 599.476 305.945C599.807 306.195 600.163 306.432 600.519 306.682C605.976 310.657 614.263 314.788 625.869 314.788C632.476 314.788 637.257 310.288 637.257 304.082C637.257 301.757 636.726 300.076 636.338 298.838C635.957 297.638 635.588 296.513 635.588 293.345C635.588 274.351 644.326 258.938 649.551 249.732C652.532 244.476 654.169 241.582 654.169 238.22L654.144 238.213Z" fill="#888888"/>
</g>
<path d="M159.867 240.607C174.63 240.607 207.011 230.344 222.261 230.344C226.311 230.344 227.742 232.019 227.742 233.688C227.742 237.988 210.836 262.094 204.88 268.775C203.448 270.213 202.498 271.157 201.067 271.157C194.873 271.157 190.592 260.894 155.342 260.894C140.58 260.894 123.673 263.044 120.092 263.044C116.517 263.044 115.098 261.369 115.098 258.513C115.098 245.863 146.061 161.388 161.773 132.269C164.873 126.3 172.486 120.569 173.198 120.1C145.098 122.957 119.861 139.425 119.861 161.625C119.861 176.657 125.811 180 125.811 182.625C125.811 184.063 124.617 185.007 121.998 185.007C110.573 185.007 86.9922 173.794 86.9922 151.125C86.9922 112.707 133.898 103.394 185.58 103.394C212.73 103.394 227.255 106.013 237.011 106.013C255.117 106.013 266.78 99.332 269.642 99.332C271.311 99.332 272.261 100.532 272.261 101.957C272.261 116.275 252.736 143.719 243.917 143.719C235.092 143.719 221.761 125.107 203.911 125.107C202.961 125.107 202.005 125.582 200.817 127.488C193.442 141.088 186.292 158.038 179.861 174.494C179.861 174.494 210.098 165.194 225.823 165.194C230.111 165.194 231.78 167.107 231.78 169.013C231.78 172.363 219.63 186.919 213.68 196.694C212.005 199.319 211.298 200.282 209.392 200.282C207.011 200.282 192.248 192.638 173.198 192.4C173.198 192.4 157.236 234.163 157.236 237.988C157.236 239.894 158.186 240.607 159.855 240.607H159.867Z" fill="#192C2B"/>
<path d="M315.129 176.895C332.51 176.895 339.898 183.101 339.898 190.257C339.898 201.463 324.66 210.545 304.179 220.807C311.316 235.601 314.423 244.901 321.56 244.901C323.941 244.901 325.373 245.613 325.373 247.763C325.373 251.107 313.223 263.032 296.079 263.032C283.698 263.032 279.173 250.145 274.416 237.026C266.079 242.995 262.504 246.813 262.504 249.907C262.504 254.682 266.791 255.401 266.791 258.501C266.791 261.845 262.504 264.232 254.404 264.232C238.929 264.232 231.066 257.551 231.066 250.632C231.066 237.751 246.791 228.195 265.841 218.182C261.791 205.776 258.941 197.657 252.51 197.657C250.129 197.657 248.223 197.182 248.223 194.551C248.223 190.02 262.279 176.895 275.61 176.895C288.229 176.895 293.229 188.595 297.76 202.188C305.86 198.132 308.716 195.507 308.716 191.213C308.716 186.92 305.623 184.77 305.623 181.188C305.623 179.045 309.435 176.895 315.141 176.895H315.129Z" fill="#192C2B"/>
<path d="M344.662 196.943C344.662 194.087 348.712 184.768 351.799 181.912C354.18 179.762 357.03 179.524 360.374 179.524C366.562 164.255 372.049 150.887 372.049 144.93C372.049 142.78 374.187 141.105 378.712 141.105C388.718 141.105 401.812 151.612 401.812 158.524C401.812 161.874 398.237 169.262 394.187 179.524C404.193 179.524 405.849 178.58 408.48 178.58C410.149 178.58 410.855 179.524 410.855 181.199C410.855 190.024 405.137 200.293 385.849 200.293C379.662 213.174 364.893 248.262 364.893 257.324C364.893 260.905 363.949 263.055 360.137 263.055C349.187 263.055 333.699 260.193 333.699 251.605C333.699 241.105 351.799 207.455 351.799 200.062C349.418 200.062 344.662 200.062 344.662 196.955V196.943Z" fill="#192C2B"/>
<path d="M475.631 176.895C483.019 176.895 487.781 181.188 487.781 189.07C487.781 201.476 472.306 218.42 465.394 218.42C463.012 218.42 462.056 217.47 461.581 215.563C460.381 211.738 460.631 203.151 454.912 203.151C452.3 203.151 448.012 205.776 443.962 212.451C436.1 225.101 427.294 249.682 427.294 257.313C427.294 260.895 426.581 263.045 422.769 263.045C411.581 263.045 396.094 260.182 396.094 251.595C396.094 234.413 418 200.057 418 180.951C418 178.57 420.137 176.895 424.662 176.895C445.856 176.895 445.619 192.163 446.569 192.163C447.512 192.163 459.425 176.895 475.619 176.895H475.631Z" fill="#192C2B"/>
<path d="M563.268 263.045C543.987 263.045 536.362 249.682 534.687 249.682C531.837 249.682 519.687 263.045 498.024 263.045C485.874 263.045 478.262 254.926 478.262 241.57C478.262 210.545 509.693 176.895 548.505 176.895C568.987 176.895 583.755 188.832 583.755 194.313C583.755 198.845 565.174 220.082 565.174 249.438C565.174 256.588 566.849 257.313 566.849 260.176C566.849 261.845 565.649 263.032 563.268 263.032V263.045ZM512.787 235.838C512.787 238.226 514.218 240.132 517.074 240.132C529.693 240.132 549.455 201.238 549.455 195.982C549.455 193.838 548.505 192.876 546.599 192.876C532.074 192.876 512.787 220.32 512.787 235.826V235.838Z" fill="#192C2B"/>
<mask id="mask2_87_1349" style="mask-type:luminance" maskUnits="userSpaceOnUse" x="829" y="56" width="313" height="302">
<path d="M829.574 56H1141.58V357.2H829.574V56Z" fill="white"/>
</mask>
<g mask="url(#mask2_87_1349)">
<path d="M1141.11 220.849C1141.11 220.849 1140.96 220.53 1140.9 220.368C1140.69 219.936 1140.42 219.561 1140.1 219.236C1139.99 219.074 1139.88 218.968 1139.77 218.805C1139.34 218.43 1138.8 218.055 1138.21 217.786L1066.22 186.911V93.6489C1066.22 93.0049 1066.06 92.3549 1065.85 91.7679C1065.85 91.6049 1065.68 91.4429 1065.63 91.2799C1065.41 90.8489 1065.15 90.4739 1064.83 90.1489C1064.71 89.9929 1064.61 89.8799 1064.5 89.7239C1064.07 89.3429 1063.53 88.9679 1062.95 88.6989L987.669 56.4299C986.325 55.8359 984.819 55.8359 983.475 56.4299L908.206 88.6989C907.612 88.9679 907.075 89.3429 906.65 89.7239C906.537 89.8799 906.431 89.9929 906.325 90.1489C906 90.4739 905.731 90.8489 905.519 91.2799C905.519 91.4429 905.356 91.6049 905.306 91.7679C905.087 92.3549 904.925 93.0049 904.925 93.6489V186.911L832.937 217.786C832.344 218.055 831.806 218.43 831.375 218.805C831.269 218.968 831.162 219.074 831.056 219.236C830.731 219.561 830.462 219.936 830.25 220.368C830.25 220.53 830.087 220.686 830.031 220.849C829.819 221.443 829.656 222.086 829.656 222.736V319.549C829.656 321.699 830.95 323.636 832.937 324.499L908.206 356.768C908.85 357.036 909.55 357.199 910.306 357.199C911.056 357.199 911.756 357.036 912.4 356.768L985.575 325.411L1058.75 356.768C1059.4 357.036 1060.1 357.199 1060.85 357.199C1061.6 357.199 1062.3 357.036 1062.95 356.768L1138.21 324.499C1140.2 323.636 1141.5 321.699 1141.5 319.549V222.736C1141.5 222.086 1141.33 221.443 1141.11 220.849ZM904.925 343.643L840.412 315.999V230.911L904.925 258.555V343.643ZM910.306 249.143L848.687 222.736L910.306 196.324L971.919 222.736L910.306 249.143ZM980.2 214.555L950.625 201.918L915.681 186.911V101.824L980.2 129.468V214.555ZM923.962 93.6489L985.575 67.2359L1047.19 93.6489L985.575 120.055L923.962 93.6489ZM1055.47 343.643L990.95 315.999V230.911L1055.47 258.555V343.643ZM1060.85 249.143L999.231 222.736L1060.85 196.324L1122.46 222.736L1060.85 249.143Z" fill="black"/>
</g>
</g>
</g>
</g>
<defs>
<clipPath id="clip0_87_1349">
<rect width="1200" height="357" fill="white"/>
</clipPath>
<clipPath id="clip1_87_1349">
<rect width="1200" height="579" fill="white" transform="translate(0 -222)"/>
</clipPath>
</defs>
</svg>
