<svg width="119" height="159" viewBox="0 0 119 159" fill="none" xmlns="http://www.w3.org/2000/svg">
<path d="M49.4342 59.6367L50.6977 59.6733L51.9121 59.7815L53.0758 59.9614L54.1904 60.2144L55.2544 60.5391C55.9473 60.7794 56.6065 61.0689 57.2333 61.4048C57.6536 61.5777 58.4519 62.1273 59.6297 63.0563C58.31 62.3494 56.6585 61.7815 54.6767 61.3543C52.6373 60.9242 50.5558 60.7386 48.4306 60.8005C47.3582 60.8328 46.276 60.9284 45.1853 61.0872C44.64 61.1659 44.0918 61.2615 43.5423 61.3725C42.9913 61.4836 42.4404 61.6101 41.8852 61.7534C41.4537 61.8181 41.0264 61.8996 40.6048 61.9966C39.7601 62.1933 38.9252 62.4562 38.103 62.7851C37.8935 62.8469 37.2821 63.1308 36.2702 63.6396C37.2976 62.9931 38.3686 62.4084 39.4832 61.8855C40.0412 61.6241 40.6104 61.3781 41.1895 61.1476C41.4663 61.0141 42.3588 60.7035 43.8669 60.2172C44.751 60.0443 45.6098 59.9108 46.4404 59.8152C46.6569 59.7801 47.2655 59.7295 48.2662 59.6648C48.6625 59.6466 49.0519 59.6367 49.4342 59.6367ZM49.2374 62.1146L49.9865 62.1245C56.4322 62.4576 60.9214 64.341 63.4541 67.7718C64.095 68.5715 64.4661 69.0677 64.5701 69.2588C65.2166 70.5856 65.7156 72.0052 66.0627 73.5175C66.7529 77.1747 66.8414 79.9421 66.3298 81.8213C64.251 92.0801 56.5615 97.6585 43.2598 98.5581C47.8445 97.459 51.4834 95.6079 54.175 93.0063C53.7814 92.7322 53.4567 92.4286 53.2009 92.0969C50.0596 94.8869 46.4967 96.6297 42.5148 97.3268C39.708 97.6867 37.2259 97.3859 35.0671 96.4245C32.183 95.286 29.5041 93.0372 27.0275 89.6767C26.3599 88.645 25.8188 87.5487 25.4042 86.3878C25.0388 85.8874 24.7028 84.0012 24.395 80.7278C24.6087 79.6526 24.9263 78.5914 25.3494 77.5415C26.5876 74.9413 27.4562 73.3967 27.9552 72.9075C29.1639 71.0888 31.3158 68.9145 34.4107 66.3846C34.8787 65.6453 37.2287 64.5968 41.4607 63.2404C41.5436 63.1266 42.2661 63.0198 43.6266 62.9172C44.7131 62.8553 45.8965 62.9256 47.1769 63.128C48.6794 62.9242 49.8572 62.8104 50.7076 62.7865C50.47 62.5602 49.8474 62.3381 48.841 62.1174L49.2374 62.1146ZM45.6632 56.7104H45.6351L43.1178 57.0436C41.4762 57.3429 39.8683 57.7969 38.2969 58.4083C35.1514 59.6297 32.1436 61.4737 29.275 63.9418C27.8413 65.1758 26.4415 66.5645 25.0753 68.1105L23.7822 69.8112C22.2263 72.1275 21.3156 74.6827 21.0485 77.4797C20.7744 80.2555 21.1581 83.3125 22.2024 86.652C23.57 89.8495 25.3789 92.5003 27.6305 94.6072C29.8821 96.714 32.5765 98.2756 35.7136 99.2932C37.2934 99.9411 39.753 100.291 43.0939 100.344C43.8079 100.463 45.8319 100.25 49.1671 99.7106C50.4869 99.4281 51.787 99.0514 53.0688 98.582C55.6142 97.6543 58.1146 96.3247 60.57 94.5959C65.9503 90.0168 68.7009 84.5761 68.8189 78.271L68.722 75.7621C68.2638 73.9054 67.6664 72.2231 66.9285 70.7135C65.322 67.2419 63.2306 64.4 60.6558 62.1891C57.3359 59.0928 52.5488 57.863 46.2915 58.5011C40.2815 59.2263 34.5695 62.362 29.1555 67.9081C26.0788 71.2462 24.3782 73.5906 24.0535 74.9385C23.8609 75.2407 23.57 76.2203 23.1807 77.8802L22.752 83.5388C22.4793 82.8473 22.3402 81.0356 22.3346 78.1009C22.4105 76.9582 22.6002 75.8577 22.9024 74.8022C23.5053 72.6897 24.5609 70.7515 26.0662 68.9876C28.6931 66.0135 31.4465 63.641 34.3264 61.8673C35.0066 61.2362 37.2372 60.2439 41.0194 58.8904C42.4699 58.4786 44.1199 58.1666 45.971 57.9571C46.5234 57.4048 46.4208 56.9887 45.6632 56.7104Z" fill="#EFD6AC"/>
<path d="M73.262 151.329C73.6022 152.247 73.9592 153.06 74.333 153.769L74.3288 153.771L74.3232 153.764C73.9451 153.449 73.5909 152.638 73.2578 151.329H73.262Z" fill="#EFD6AC"/>
<mask id="mask0_56_1934" style="mask-type:luminance" maskUnits="userSpaceOnUse" x="0" y="94" width="88" height="65">
<path d="M0 94.6887H87.7937V158.197H0V94.6887Z" fill="white"/>
</mask>
<g mask="url(#mask0_56_1934)">
<path d="M46.3407 96.2769L48.7174 96.3514L51.0351 96.5257L53.2938 96.797L55.4906 97.168L57.6284 97.6361C60.438 98.3276 63.0874 99.2819 65.5765 100.499C64.365 100.054 63.0958 99.6459 61.7662 99.2777L59.7282 98.7534C58.3396 98.4231 56.8919 98.1322 55.3866 97.8778C52.3957 97.3704 49.1264 97.0162 45.5789 96.8152C43.9261 96.9024 42.7539 96.9965 42.0638 97.0992C41.1361 97.213 40.2155 97.3564 39.3047 97.5306L37.3848 97.7429C36.1227 97.8975 34.8943 98.0816 33.6968 98.2938C30.1085 98.9291 26.8112 99.8188 23.8062 100.963C25.1611 100.343 26.5877 99.7837 28.0818 99.2861C29.5772 98.7872 31.1416 98.3501 32.7762 97.972L35.2794 97.4519L37.8866 97.0218L40.5992 96.6831L43.4159 96.4343L46.3407 96.2769ZM30.2631 100.361L27.8723 101.51C23.1316 103.966 18.6452 107.379 14.4104 111.749C10.3035 115.873 7.35331 120.015 5.55567 124.175C6.85576 120.013 7.88319 117.216 8.63795 115.784C9.55294 113.783 10.6057 111.885 11.7961 110.089L13.3731 108.603C14.4638 107.647 15.6332 106.758 16.8813 105.936C18.1308 105.115 19.459 104.36 20.8659 103.674C23.6797 102.3 26.8112 101.196 30.2631 100.361ZM85.4743 141.442L85.4574 142.657L85.4167 143.853L85.352 145.033L85.2621 146.194L85.1482 147.336L85.0091 148.461L84.846 149.567C84.7294 150.298 84.5973 151.017 84.4483 151.724L83.8917 152.123C84.2051 150.448 84.4834 148.813 84.7266 147.22C84.8474 146.424 84.9599 145.638 85.0639 144.863L85.2129 143.706C85.3071 142.941 85.3928 142.186 85.4701 141.442H85.4743ZM19.9692 153.612L19.8525 153.726C19.5096 154.025 18.8954 154.289 18.0099 154.518C18.3697 154.392 18.6986 154.261 18.9965 154.128C19.1455 154.062 19.2861 153.994 19.4196 153.925L19.6136 153.823C19.7373 153.752 19.8553 153.684 19.9692 153.612ZM23.4914 146.596L23.712 147.751C24.3094 150.75 24.9545 153.083 25.6488 154.748C25.2553 154.712 24.9742 154.641 24.8055 154.534L24.4808 154.301L24.1716 153.966L23.8765 153.533L23.5968 152.999L23.3297 152.367L23.0767 151.633L22.8392 150.801L22.6115 149.869C22.783 149.435 22.9362 148.979 23.0697 148.5C23.1807 148.153 23.3199 147.518 23.4914 146.596ZM2.08547 151.52V151.522L2.18666 151.893C2.25553 152.135 2.33003 152.364 2.40873 152.582C2.56615 153.017 2.74325 153.405 2.94002 153.744C3.0384 153.914 3.141 154.071 3.24923 154.218H3.24501L3.32372 154.372L3.41086 154.523C3.4713 154.62 3.53736 154.715 3.60904 154.807C3.87749 155.12 4.09253 155.328 4.25417 155.435C3.43054 155.366 2.92174 155.152 2.72919 154.794C2.69827 154.711 2.65189 154.606 2.59286 154.478C2.46495 154.291 2.32019 154.008 2.15574 153.633C2.1192 152.766 2.09671 152.062 2.08547 151.52ZM81.6865 155.137L81.3758 155.359C81.1706 155.501 80.9668 155.627 80.7659 155.741C80.5649 155.856 80.3667 155.956 80.1699 156.043L79.8762 156.163L79.5866 156.263L79.2999 156.341L79.0174 156.4C79.3575 156.285 79.723 156.139 80.1109 155.959C80.3048 155.869 80.5058 155.772 80.7124 155.667C80.8066 155.623 81.1313 155.447 81.6865 155.137ZM44.8186 98.4906L48.2424 98.7689C64.0206 100.134 74.1122 104.266 78.517 111.168C80.4595 115.004 82.035 118.866 83.2438 122.754L83.6795 124.214L84.6352 130.38C84.6338 138.552 83.8692 146.158 82.34 153.201C80.3259 154.537 78.8515 155.279 77.9127 155.428C77.5824 155.485 77.3027 155.457 77.0722 155.341C76.6505 154.954 76.2443 154.441 75.855 153.802C75.0749 152.525 74.3595 150.743 73.706 148.458L72.0222 142.012C71.8423 139.623 71.623 137.408 71.3658 135.367C71.2323 135.023 71.0116 134.855 70.7038 134.867C70.2723 134.941 70.0601 135.176 70.0643 135.572C70.9554 142.715 71.2042 148.24 70.8092 152.146C70.5829 153.506 69.8521 154.44 68.6166 154.943C67.3615 155.632 65.027 156.132 61.6144 156.443L53.6086 155.79C42.4404 155.795 33.5618 155.504 26.9756 154.918C25.5223 151.131 24.3867 145.563 23.5673 138.213C23.2201 137.623 22.8223 137.555 22.374 138.014C21.972 135.451 21.5237 133.287 21.0303 131.517C20.9319 131.207 20.7141 131.042 20.3768 131.025C19.9382 131.111 19.7232 131.337 19.7302 131.703C19.8047 137.815 20.2896 143.527 21.1835 148.839L20.8898 150.459C20.3121 151.845 19.213 152.79 17.5939 153.291C16.0225 153.915 12.6141 154.569 7.36877 155.251C3.48957 154.915 2.00395 149.887 2.9105 140.171C2.55069 135.051 4.66036 128.375 9.2367 120.142C13.948 113.389 19.5939 108 26.1759 103.973C33.1374 100.056 39.3525 98.2292 44.8186 98.4906ZM28.0101 156.351L28.1844 156.367C28.6496 156.409 29.1443 156.448 29.6686 156.486C29.0656 156.5 28.6397 156.513 28.3938 156.524C28.3657 156.518 28.3362 156.511 28.308 156.503C28.235 156.478 28.1928 156.459 28.1787 156.451C28.1492 156.438 28.1211 156.423 28.093 156.406C28.0635 156.389 28.0354 156.371 28.0073 156.351H28.0101ZM69.5822 155.932L69.4951 156.024C69.318 156.201 69.124 156.327 68.9146 156.406L68.8092 156.441C68.7445 156.454 68.6644 156.476 68.5717 156.509C68.462 156.555 68.3397 156.597 68.2034 156.634C68.1739 156.645 68.0643 156.669 67.8759 156.707C67.7986 156.722 67.7171 156.735 67.6328 156.746C67.9701 156.642 68.3355 156.509 68.7305 156.344C68.8514 156.292 68.9708 156.24 69.0847 156.185L69.2547 156.102L69.5822 155.932ZM46.3351 94.9543H46.3028C42.64 95.0921 39.2078 95.4336 36.0046 95.979L31.3721 96.9502C28.398 97.6993 25.6544 98.6522 23.14 99.8104C18.5721 101.625 14.0042 105.255 9.43487 110.703C6.29918 115.383 4.0082 121.126 2.56334 127.932C1.79031 131.693 1.01025 137.478 0.224573 145.288C-0.0818275 148.736 0.145865 151.928 0.909056 154.866C1.65116 155.927 2.66454 156.527 3.94917 156.669C8.19943 156.932 12.1096 156.795 15.6781 156.26C18.9164 155.653 20.6269 155.103 20.8097 154.613C21.043 154.766 21.414 153.842 21.9242 151.844C22.4457 153.49 23.0528 154.648 23.7458 155.318C24.3515 155.886 25.2215 156.171 26.3544 156.177C26.8126 157.065 27.4493 157.62 28.2617 157.844L61.6045 157.771L66.3411 158.143C68.0193 158.176 69.3039 157.827 70.1936 157.095C71.0692 156.131 71.727 154.457 72.1655 152.074C73.2928 155.345 75.1691 157.263 77.796 157.83C79.1102 157.97 80.4847 157.559 81.9212 156.593C83.0442 156.139 83.5797 155.268 83.5291 153.98L85.3099 152.731C85.345 153.83 85.7498 154.046 86.5256 153.38C87.2677 150.248 87.5685 145.295 87.4294 138.521C87.3858 135.935 86.6634 130.767 85.2621 123.018C85.2143 122.325 84.7954 120.574 84.0055 117.764C83.1763 114.78 81.4967 111.739 78.964 108.644C79.0146 108.222 75.8705 105.73 69.5344 101.168C68.722 100.388 65.7016 99.0149 60.4703 97.05C56.1498 95.7049 51.4371 95.0063 46.3351 94.9543Z" fill="#EFD6AC"/>
</g>
<path d="M82.8198 13.5052C77.7121 12.7027 72.7886 13.6444 68.0479 16.3303L68.0633 16.3219C62.5706 19.7822 59.2845 23.9102 58.2051 28.7058L58.2093 28.6819C57.3154 34.3194 59.8214 39.6941 65.726 44.8059L65.7063 44.7891C70.544 48.4153 76.4008 49.5622 83.2751 48.2283L83.2555 48.2326C89.8782 46.5839 94.3267 42.9549 96.6022 37.3455L96.5951 37.3666C98.8622 30.6834 98.2059 25.1316 94.6302 20.7099L94.6345 20.7155C90.8326 16.2123 85.8486 13.5221 79.6813 12.6423L79.7319 12.6465C72.7535 12.5931 67.5601 14.8222 64.1532 19.3339L64.1701 19.31C60.4694 25.0993 59.6148 31.4171 61.6064 38.2633L61.5938 38.2281C64.3528 45.0969 68.7675 48.9452 74.8407 49.7702L74.8463 49.7716C78.9054 50.3858 83.4115 48.2677 88.3631 43.4173L88.3476 43.4342C93.7321 37.4945 96.3379 32.3686 96.1679 28.0565V28.0312C96.3028 22.6481 94.6837 18.8082 91.3104 16.5144L91.2922 16.5004C86.2309 12.5945 81.2372 11.4167 76.3122 12.9655C76.1113 13.0288 75.8976 12.9163 75.8358 12.7154C75.7725 12.5158 75.8836 12.3007 76.0846 12.2389C81.2625 10.6099 86.4867 11.8299 91.7574 15.8974L91.7377 15.8834C95.3414 18.3346 97.0702 22.3895 96.9283 28.0509V28.0256C97.1068 32.5457 94.4349 37.8529 88.9112 43.9458L88.8958 43.9626C83.7643 48.9901 79.0417 51.1771 74.7325 50.5249H74.7381C68.3725 49.6592 63.7554 45.6549 60.8882 38.5121L60.8755 38.4755C58.8193 31.4086 59.7034 24.8828 63.5291 18.8996L63.546 18.8743C67.1062 14.1588 72.5033 11.8299 79.7375 11.8833C79.7543 11.8847 79.7712 11.8847 79.7881 11.8875C86.1466 12.7941 91.2894 15.5728 95.2163 20.225L95.222 20.2306C98.9747 24.8702 99.6718 30.6637 97.3162 37.6111L97.3077 37.6322C94.9352 43.4819 90.3125 47.2614 83.4396 48.9719L83.4199 48.9761C76.3249 50.3535 70.2672 49.1602 65.2495 45.3976L65.2284 45.3822C59.1102 40.0848 56.5199 34.4783 57.4573 28.5625L57.463 28.5372C58.5888 23.5364 61.9859 19.2496 67.6571 15.6768L67.6726 15.6683C72.5666 12.8953 77.6559 11.9226 82.9378 12.7519C83.1458 12.7856 83.2878 12.9796 83.2541 13.1876C83.2217 13.3956 83.0278 13.5376 82.8198 13.5052Z" fill="#EFD6AC"/>
<path d="M72.6614 47.2583C72.5349 46.7734 72.4183 46.1128 72.3115 45.2752L72.3087 45.2597C71.9784 41.3889 71.6129 38.1141 71.211 35.4338V35.4296C70.9805 33.7711 70.7963 32.5272 70.6586 31.6951V31.6965C70.6164 31.4464 70.5813 31.2918 70.556 31.2341C70.6178 31.3719 70.7373 31.4267 70.9144 31.3958C71.0353 31.3747 71.1196 31.3156 71.1646 31.2159L71.1983 31.0584C71.1983 31.5518 71.4738 32.3585 72.0262 33.4787L72.0318 33.4886C72.3241 34.1337 72.5476 34.4879 72.7008 34.5483C72.6769 34.5399 72.6502 34.5413 72.6193 34.5553C72.6446 34.5441 72.6713 34.5343 72.6994 34.5286C73.1492 34.4345 73.8154 33.0262 74.698 30.3037C74.7177 30.2446 74.7514 30.1898 74.7964 30.1477C75.0171 29.934 75.2462 29.9453 75.4851 30.1786C75.4907 30.1842 75.4964 30.1898 75.5034 30.1955H75.502C75.5723 30.2671 75.6439 30.3711 75.717 30.5033C75.7269 30.5229 75.7367 30.544 75.7437 30.5651C76.0796 31.563 76.275 32.1182 76.3326 32.2292H76.334C76.2441 32.0549 76.0979 32.0029 75.8955 32.0718H75.8927C75.7353 32.1266 75.6496 32.2363 75.6397 32.3993C75.651 32.2306 75.7718 32.0887 75.9377 32.0521C76.1035 32.0156 76.2736 32.0929 76.3551 32.2433V32.2419C76.3551 32.2433 76.3565 32.2447 76.3565 32.2461C76.3256 32.1983 76.2806 32.1814 76.2216 32.1927L76.2413 32.1899C76.3256 32.1758 76.4366 32.0479 76.5744 31.8034L76.5674 31.8174L77.7269 29.5574C77.8 29.4154 77.9518 29.3339 78.1092 29.3521C78.2666 29.3704 78.3959 29.4843 78.4353 29.6389L79.1802 32.6228L79.1774 32.6087C79.2378 32.8195 79.2983 32.939 79.3559 32.9685C79.3559 32.9685 79.3545 32.9685 79.3531 32.9671L79.2041 32.9545C79.6735 32.9011 80.3735 32.0395 81.3025 30.3683C81.3391 30.3023 81.3953 30.2489 81.4627 30.2137C81.7256 30.0802 81.9294 30.1547 82.0755 30.44C82.0798 30.4484 82.084 30.4569 82.0868 30.4653L82.0882 30.4667C82.0938 30.4794 82.0994 30.492 82.1051 30.5061C82.1191 30.5426 82.1275 30.5806 82.1304 30.6199C82.1894 31.4337 82.3187 32.0311 82.5155 32.4119L82.5267 32.4344C82.5984 32.6003 82.7277 32.6818 82.9118 32.6818H82.8879C83.8886 32.6157 84.8205 31.8793 85.6835 30.4737L86.2401 30.9755C84.9315 31.9805 83.6736 37.0642 82.4649 46.2267C82.4382 46.4361 82.2456 46.5823 82.0376 46.5542C81.8296 46.5275 81.6834 46.3363 81.7101 46.1269C82.9456 36.755 84.3019 31.504 85.7762 30.3711C85.9224 30.2587 86.1262 30.2671 86.2626 30.3908C86.3989 30.5131 86.4284 30.7169 86.3314 30.8729C85.3307 32.5019 84.2007 33.3593 82.9385 33.4422L82.9146 33.4436C82.3974 33.445 82.0348 33.2103 81.8296 32.7394L81.8408 32.7619C81.5949 32.2897 81.4388 31.5925 81.3714 30.6747L81.3981 30.7886C81.3967 30.7858 81.3967 30.7844 81.3967 30.7844V30.7858C81.4824 30.953 81.6188 30.9896 81.8085 30.8926L81.9673 30.738C80.9118 32.6368 80.0193 33.6291 79.2898 33.712C79.2406 33.7177 79.19 33.7134 79.1408 33.6994C79.0973 33.6867 79.0537 33.6699 79.0129 33.6488C78.7585 33.5195 78.5688 33.244 78.4465 32.8209L78.4423 32.8069L77.696 29.823L78.4044 29.9045L77.2448 32.1646L77.2378 32.1786C76.9792 32.6368 76.6868 32.8912 76.3593 32.9418L76.379 32.939C76.1007 32.998 75.8815 32.9067 75.7226 32.6677C75.71 32.6481 75.6973 32.627 75.6847 32.6045L76.4001 32.4471C76.3889 32.6214 76.3017 32.7366 76.1401 32.7928H76.1387C75.9293 32.8645 75.769 32.7928 75.658 32.5806C75.5821 32.4344 75.3699 31.8441 75.0227 30.8083L75.0494 30.8701C75.0086 30.797 74.9763 30.7478 74.9538 30.7239L74.9524 30.7225C75.0663 30.8336 75.19 30.8251 75.3249 30.6958L75.4219 30.5384C74.4493 33.542 73.5933 35.1204 72.8554 35.275L72.9341 35.2483C72.7669 35.3256 72.594 35.327 72.4169 35.2553C72.0753 35.119 71.7155 34.6355 71.3389 33.8048L71.3431 33.816C70.7387 32.589 70.4365 31.6712 70.4365 31.0584C70.4365 31.0036 70.4478 30.9502 70.4703 30.901C70.5363 30.7548 70.6417 30.6691 70.7865 30.6452C70.9973 30.6087 71.1519 30.7014 71.2503 30.9221C71.3023 31.0388 71.3557 31.2552 71.4091 31.5686V31.5714C71.5483 32.4091 71.7324 33.66 71.9643 35.3256V35.3213C72.3677 38.0171 72.7359 41.3088 73.0676 45.195L73.0662 45.1782C73.1688 45.9835 73.2785 46.6132 73.3979 47.0658C73.4513 47.2696 73.3291 47.4776 73.1253 47.531C72.9229 47.583 72.7149 47.4621 72.6614 47.2583Z" fill="#EFD6AC"/>
<path d="M71.1762 49.1516C70.4495 48.1102 69.9787 46.6948 69.7608 44.907L69.7594 44.8972C69.6175 43.4158 69.8002 42.2084 70.3104 41.2738L70.2766 41.3567C70.6463 39.9947 72.926 39.1275 77.1158 38.7579H77.1215C82.1138 38.3812 84.9024 38.4374 85.4857 38.9252C85.5039 38.9406 85.5194 38.9547 85.5348 38.9701L85.5363 38.9715C85.8258 39.2667 85.9551 39.8331 85.9242 40.675V40.6652C85.9115 41.6645 85.7569 44.0286 85.4618 47.7574C85.4449 47.9668 85.2608 48.1242 85.0513 48.1073C84.8419 48.0905 84.6859 47.9064 84.7028 47.6969C84.9979 43.9836 85.1511 41.6364 85.1624 40.6553V40.6455C85.1863 40.0243 85.1301 39.6448 84.9951 39.507L84.9965 39.5084C84.9965 39.5098 84.9979 39.5098 84.9993 39.5112C84.5721 39.1543 81.9649 39.1571 77.1777 39.5169H77.1833C73.3449 39.8556 71.2872 40.5359 71.0117 41.5563C71.0033 41.5858 70.992 41.6125 70.978 41.6392C70.5423 42.4361 70.3891 43.4973 70.517 44.8241V44.8142C70.718 46.477 71.1466 47.777 71.8002 48.7159C71.9197 48.8888 71.8775 49.1263 71.706 49.2472C71.5332 49.3667 71.2956 49.3245 71.1762 49.1516Z" fill="#EFD6AC"/>
<path d="M64.755 43.3636C67.2821 45.1247 69.7923 48.4937 72.2857 53.4706L72.2154 53.3736C72.8395 54.0019 73.9259 58.0624 75.472 65.558L75.465 65.5257C75.8571 66.8384 76.304 67.901 76.8058 68.7119L76.7918 68.6909C78.0581 70.4618 80.1889 71.2784 83.1826 71.1364H83.1967C85.5987 71.1125 86.9395 70.9973 87.2178 70.7893C87.2108 70.7949 87.201 70.8061 87.1911 70.8202C87.2291 70.7654 87.2797 70.7218 87.3401 70.6937C88.0147 70.369 88.5741 69.6185 89.0169 68.4421L89.0127 68.4533C89.3148 67.5707 89.5215 66.3605 89.6339 64.8243V64.8426C89.87 56.172 90.0893 51.5451 90.2931 50.9618C90.3226 50.8788 90.3648 50.8114 90.4182 50.7608L90.3029 50.9828C90.837 47.4129 91.5566 44.8998 92.4618 43.4451C92.5728 43.2666 92.8075 43.2118 92.986 43.3228C93.1645 43.4339 93.2179 43.6686 93.1069 43.8471C92.258 45.2132 91.5735 47.6293 91.0549 51.0953C91.0422 51.1796 91.0015 51.2583 90.9382 51.316C90.9762 51.2822 91 51.2471 91.0127 51.2134H91.0113C90.8342 51.7221 90.629 56.2718 90.3943 64.8637L90.3929 64.8805C90.2762 66.4814 90.057 67.7548 89.7337 68.6993L89.7295 68.7105C89.2136 70.0781 88.5278 70.9692 87.6676 71.3796L87.8166 71.2531C87.7786 71.3079 87.7308 71.3571 87.6718 71.4007C87.26 71.7071 85.7716 71.8729 83.2051 71.8982H83.2192C79.9499 72.0514 77.5999 71.1308 76.1719 69.1336L76.1579 69.1125C75.621 68.2453 75.1473 67.1223 74.7355 65.7449L74.7271 65.7126C73.2105 58.366 72.1943 54.432 71.6757 53.9105C71.6476 53.8824 71.6237 53.8487 71.6054 53.8121C69.1697 48.9505 66.7424 45.6771 64.3207 43.989C64.1478 43.8696 64.1056 43.632 64.2251 43.4592C64.3446 43.2863 64.5821 43.2441 64.755 43.3636Z" fill="#EFD6AC"/>
<path d="M75.2724 57.4526L75.4214 57.551L75.2387 57.4892C75.4453 57.5032 75.6505 57.5257 75.8529 57.5552L75.8656 57.5567H75.867H75.8627C76.5599 57.6733 77.1193 57.7604 77.5381 57.8167C78.4222 57.9361 79.4566 58.0444 80.6415 58.1427H80.6401C81.8123 58.2341 82.9212 58.2959 83.9683 58.3269L83.9782 58.3283H83.9796L83.9725 58.3269C84.2958 58.3395 84.7695 58.3494 85.3949 58.355H85.3893C86.6036 58.3465 87.2797 58.3494 87.4146 58.362H87.4174L87.4188 58.3634L87.3809 58.3606H87.3949C87.8883 58.3775 88.3338 58.4239 88.7344 58.4969C88.941 58.5363 89.0773 58.7345 89.0394 58.9411C89 59.1477 88.8019 59.2854 88.5953 59.2461C88.2326 59.18 87.8236 59.1378 87.3682 59.1224H87.3809L87.3429 59.121H87.3415H87.3444C87.2333 59.1111 86.584 59.1097 85.3935 59.1168H85.3879C84.7554 59.1111 84.2747 59.1013 83.943 59.0887H83.936H83.9458C82.8861 59.0577 81.7645 58.9945 80.581 58.9017H80.5796C79.3821 58.8033 78.335 58.6937 77.4369 58.5728H77.4397H77.4355C77.0082 58.5138 76.4432 58.4253 75.7377 58.3072H75.732L75.7447 58.3086C75.5606 58.2819 75.375 58.2622 75.1853 58.2496C75.1192 58.2454 75.0574 58.2229 75.0026 58.1877L74.8536 58.0893C74.6779 57.9741 74.6301 57.7366 74.7454 57.5609C74.8606 57.3852 75.0967 57.3374 75.2724 57.4526Z" fill="#EFD6AC"/>
<path d="M89.6144 59.8067C89.315 59.8966 88.1386 59.9683 86.0894 60.0245H86.0824H86.0838C85.6691 60.033 85.2939 60.0372 84.9566 60.0372C84.8525 60.0372 84.7443 60.0372 84.6305 60.0372H84.6291C84.0233 60.0316 83.648 60.0302 83.5047 60.0302L81.0942 60.0316H81.0928C80.882 60.0316 80.5812 60.0302 80.1863 60.026C79.9768 60.0245 79.8082 59.8517 79.8096 59.6422C79.811 59.4314 79.9839 59.2628 80.1933 59.2642C80.584 59.267 80.8848 59.2698 81.0942 59.2698H81.0928L83.5033 59.2684C83.6466 59.2684 84.0247 59.2698 84.6347 59.2754H84.6333C84.7471 59.2754 84.854 59.2754 84.9566 59.2754C85.2883 59.2754 85.6579 59.2712 86.0669 59.2628H86.0711H86.0683C88.0515 59.2093 89.1618 59.1475 89.398 59.0772C89.5989 59.0168 89.8112 59.1306 89.8716 59.333C89.9306 59.534 89.8168 59.7463 89.6144 59.8067Z" fill="#EFD6AC"/>
<path d="M75.4517 62.4785C75.8733 62.4265 76.5944 62.3815 77.6148 62.3436H77.6176C79.6542 62.2775 80.8123 62.2536 81.0906 62.2733L81.0667 62.2719C81.8271 62.2775 82.423 62.2944 82.8545 62.3239H82.8615C84.3795 62.4532 85.629 62.546 86.61 62.6008H86.6072C87.3058 62.6359 88.0914 62.6457 88.9643 62.6303H88.9895C89.0458 62.6331 89.0992 62.6415 89.1484 62.6528C89.1751 62.6598 89.2004 62.6668 89.2243 62.6753L89.2538 62.6879C89.2875 62.7034 89.317 62.7188 89.3437 62.7343C89.5911 62.8819 89.6614 63.073 89.5546 63.3063V63.3077C89.5068 63.4117 89.421 63.4919 89.2974 63.5453C89.2777 63.5537 89.258 63.5607 89.2369 63.5664C88.7858 63.6802 88.4105 63.7617 88.1125 63.8095L88.1069 63.8109C87.0837 63.9627 85.9368 64.0751 84.6662 64.151H84.6634C83.9578 64.189 83.2354 64.1988 82.4947 64.1848C80.7912 64.1468 79.2972 64.0948 78.0083 64.0302C77.7989 64.0203 77.6373 63.8404 77.6471 63.631C77.6583 63.4202 77.8368 63.2585 78.0463 63.2698C79.3281 63.333 80.8165 63.385 82.5116 63.423H82.5102C83.2312 63.437 83.9367 63.4258 84.624 63.3907H84.6212C85.8693 63.3162 86.9951 63.2051 87.9959 63.0576H87.9902C88.2671 63.0126 88.6199 62.9353 89.0514 62.8271L88.9924 62.8481C88.939 62.8706 88.8954 62.9184 88.8631 62.9887C88.7801 63.17 88.8111 63.3035 88.9544 63.3893C88.9502 63.3864 88.9446 63.3836 88.9375 63.3808L88.9671 63.3921C88.9685 63.3935 88.9699 63.3935 88.9699 63.3935C88.9671 63.3935 88.9614 63.3921 88.953 63.3921H88.9783C88.0886 63.4075 87.2847 63.3977 86.5693 63.3626H86.5665C85.5784 63.3063 84.3219 63.2136 82.7969 63.0843H82.8039C82.3865 63.0562 81.806 63.0393 81.0611 63.0337H81.0372C80.7856 63.0154 79.6542 63.0393 77.6415 63.1053H77.6443C76.6436 63.1419 75.9436 63.1855 75.5445 63.2347C75.335 63.26 75.1453 63.111 75.12 62.903C75.0947 62.6935 75.2437 62.5038 75.4517 62.4785Z" fill="#EFD6AC"/>
<path d="M76.3044 67.1253C76.5321 67.1295 76.8146 67.1548 77.152 67.1984H77.1562C78.6474 67.4092 79.5484 67.5273 79.8576 67.5526L79.866 67.554C80.5392 67.6271 81.1844 67.6805 81.8028 67.7184L81.7986 67.717C82.6911 67.7592 83.4149 67.7803 83.9701 67.7831H83.9785C84.1008 67.7859 84.6194 67.7775 85.5344 67.7592H85.5316C86.0474 67.7452 86.337 67.7339 86.4016 67.7269C86.1824 67.7522 86.0755 67.8801 86.0826 68.112V68.1218C86.0938 68.3411 86.2034 68.4592 86.4115 68.4774H86.4129C86.4101 68.4774 86.4086 68.4774 86.4072 68.4774H86.4508C85.6286 68.521 84.351 68.5603 82.6194 68.5941L82.663 68.5913C82.6517 68.5927 82.6391 68.5941 82.625 68.5955C82.4873 68.6039 81.6131 68.5955 80.0051 68.5702L80.0754 68.566C80.0572 68.5688 80.0431 68.5716 80.0361 68.5744C80.1724 68.5266 80.2258 68.4156 80.1963 68.2427V68.2413C80.1865 68.1879 80.1682 68.1457 80.1387 68.1134C80.1766 68.1556 80.2047 68.2062 80.2202 68.2596C80.1794 68.1218 80.0979 68.0375 79.9728 68.008C80.0319 68.022 80.23 68.0459 80.5659 68.0811L80.5589 68.0797L80.5631 68.0811C81.2518 68.1457 81.8295 68.1696 82.2975 68.1527H82.2989C83.0776 68.126 83.9195 68.0558 84.8246 67.9447C85.0341 67.918 85.2238 68.067 85.2491 68.275C85.2758 68.4844 85.1268 68.6742 84.9188 68.7009C83.9912 68.8147 83.1268 68.8864 82.3256 68.9145C81.8239 68.9328 81.2125 68.9075 80.4915 68.8386L80.4957 68.84L80.4886 68.8386C80.119 68.8007 79.8885 68.7712 79.7971 68.7487C79.6341 68.7107 79.5315 68.618 79.4893 68.4732L79.5708 68.6208C79.5034 68.5449 79.4612 68.462 79.4458 68.372C79.4036 68.1204 79.516 67.949 79.7845 67.8548C79.8323 67.8379 79.8857 67.8253 79.9461 67.814C79.97 67.8098 79.9939 67.8084 80.0178 67.8084C81.6046 67.8337 82.4578 67.8421 82.5758 67.8351H82.5744C82.5702 67.8351 82.566 67.8351 82.5604 67.8365L82.6039 67.8337C84.3271 67.7986 85.5963 67.7606 86.4101 67.717H86.4536C86.4621 67.717 86.4691 67.717 86.4761 67.7184C86.708 67.7381 86.8303 67.859 86.843 68.0811V68.0909C86.8486 68.3256 86.7305 68.4563 86.4874 68.483H86.486C86.4016 68.4929 86.0896 68.5055 85.5527 68.521H85.5499C84.6237 68.5393 84.0938 68.5477 83.9588 68.5449H83.9673C83.4023 68.5421 82.6672 68.521 81.7634 68.4788H81.7578C81.1267 68.4409 80.469 68.3847 79.7845 68.3116L79.7929 68.313C79.4696 68.2849 78.5561 68.1654 77.0508 67.9532H77.055C76.7444 67.9138 76.4886 67.8913 76.2876 67.8871C76.0768 67.8815 75.9109 67.7072 75.9151 67.4978C75.9193 67.287 76.0936 67.1211 76.3044 67.1253Z" fill="#EFD6AC"/>
<path d="M67.93 46.7553C70.9729 48.6021 74.9449 49.1938 79.8431 48.5276L79.8389 48.529C84.6485 47.8234 88.3352 46.1734 90.8974 43.576C91.045 43.427 91.2867 43.4256 91.4357 43.5732C91.5861 43.7208 91.5875 43.9625 91.4385 44.1115C88.7568 46.8298 84.9268 48.5529 79.9499 49.2824H79.9457C74.869 49.9725 70.7326 49.347 67.5351 47.4074C67.3552 47.2978 67.2975 47.0631 67.4072 46.8832C67.5154 46.7033 67.7501 46.6456 67.93 46.7553Z" fill="#EFD6AC"/>
<path d="M95.6254 41.0347C94.1693 42.9828 92.9536 44.3377 91.9767 45.1037L92.0091 45.0742C91.4693 45.6069 89.9697 46.5514 87.5086 47.9077C87.3245 48.0089 87.0926 47.9428 86.9914 47.7573C86.8902 47.5732 86.9577 47.3427 87.1418 47.2401C89.541 45.9175 90.9858 45.0151 91.475 44.5316L91.5073 44.5035C92.4321 43.7797 93.6015 42.4712 95.0154 40.5794C95.1419 40.4107 95.3795 40.3756 95.5481 40.502C95.7168 40.6285 95.7505 40.8661 95.6254 41.0347Z" fill="#EFD6AC"/>
<path d="M82.5322 72.2917C82.9904 73.5103 83.4795 74.0641 83.9996 73.9545L84.008 73.9531C84.2807 73.9025 84.5027 73.7493 84.6728 73.4934L84.6897 73.471C84.8682 73.2419 85.0776 72.6909 85.3179 71.8153C85.3235 71.7942 85.3306 71.7745 85.339 71.7562C85.3418 71.7492 85.346 71.7422 85.3488 71.7352C85.4683 71.4962 85.6538 71.3866 85.9026 71.4077C86.0235 71.4175 86.1317 71.4836 86.195 71.5876C86.4662 72.0289 86.5309 72.6754 86.3861 73.523L86.3847 73.5328C86.2428 74.2496 85.9321 74.7134 85.45 74.9214L85.436 74.9271C84.8443 75.1576 84.2511 75.114 83.6552 74.795L83.6145 74.7711C82.6517 74.0908 82.1204 72.9411 82.022 71.3191C82.0094 71.1083 82.1682 70.9284 82.379 70.9157C82.5884 70.9031 82.7683 71.0619 82.781 71.2727C82.8653 72.6501 83.2898 73.6087 84.053 74.1484L84.0136 74.1231C84.4029 74.3325 84.7852 74.3635 85.1605 74.2173L85.1465 74.2229C85.384 74.1203 85.5484 73.8406 85.6384 73.3852L85.6356 73.3951C85.748 72.7359 85.7185 72.2664 85.547 71.9867L85.838 72.1666C85.9321 72.1737 85.9968 72.1442 86.0305 72.0753V72.0767C86.0305 72.0753 86.0305 72.0753 86.0305 72.0753L85.9546 72.1849H85.9532L86.0516 72.0163C85.7846 72.9903 85.5302 73.6312 85.2898 73.9404L85.3053 73.9179C85.0157 74.3508 84.6306 74.6122 84.1471 74.7022L84.157 74.7008C83.2111 74.9004 82.4324 74.1864 81.8196 72.5616C81.7451 72.3648 81.8449 72.1442 82.0417 72.0697C82.2385 71.9952 82.4577 72.095 82.5322 72.2917Z" fill="#EFD6AC"/>
<path d="M83.6101 71.8395C83.6846 71.8732 83.776 71.8999 83.8842 71.921L83.9067 71.9252L83.8814 71.921C84.0304 71.9463 84.1498 71.959 84.2412 71.9562H84.2454C84.5124 71.9533 84.8245 71.9013 85.1815 71.803C85.3839 71.7481 85.5933 71.8662 85.6495 72.07C85.7057 72.2724 85.5863 72.4818 85.3839 72.538C84.9636 72.6533 84.5883 72.7137 84.2566 72.7179H84.2595C84.1175 72.7222 83.946 72.7053 83.7478 72.6702L83.7225 72.6645L83.745 72.6702C83.5736 72.6378 83.4232 72.5914 83.2925 72.531C83.1013 72.4439 83.017 72.2176 83.1055 72.0264C83.1927 71.8353 83.419 71.751 83.6101 71.8395Z" fill="#EFD6AC"/>
<path d="M82.8871 71.9797C83.4029 71.915 83.7234 71.8743 83.8471 71.8574L83.8372 71.8588L83.8541 71.856C83.9272 71.8476 84.1689 71.8124 84.5821 71.7492C84.7902 71.7169 84.9841 71.8602 85.0164 72.0668C85.0488 72.2748 84.9054 72.4702 84.6974 72.5011C84.2772 72.5658 84.0256 72.6037 83.9455 72.6136L83.9623 72.6108L83.9525 72.6122C83.826 72.629 83.5027 72.6712 82.9813 72.7358C82.7719 72.7611 82.5821 72.6136 82.5568 72.4041C82.5301 72.1961 82.6791 72.005 82.8871 71.9797Z" fill="#EFD6AC"/>
<path d="M69.7881 48.307C71.2766 49.9795 73.9569 50.8537 77.8291 50.931H77.8206C82.3281 50.9156 85.662 50.0765 87.8222 48.4138C87.9895 48.2859 88.2284 48.3168 88.3563 48.4827C88.4842 48.6499 88.4533 48.8888 88.286 49.0181C85.9894 50.7863 82.5024 51.6774 77.8234 51.6928H77.815C73.7208 51.6113 70.8549 50.6528 69.2189 48.8144C69.0798 48.6569 69.0938 48.4166 69.2498 48.276C69.4073 48.1369 69.6476 48.151 69.7881 48.307Z" fill="#EFD6AC"/>
<path d="M95.2742 42.9899C94.161 45.3948 92.4983 47.2191 90.286 48.463L90.3029 48.4546C88.4252 49.631 85.489 50.6598 81.4932 51.5396C81.2866 51.5846 81.0842 51.4539 81.0392 51.2487C80.9942 51.0435 81.1235 50.8397 81.3287 50.7947C85.2403 49.9346 88.0963 48.9395 89.8981 47.8094L89.9136 47.7996C91.9825 46.6358 93.5398 44.9253 94.5841 42.6695C94.6726 42.4783 94.8989 42.3954 95.0887 42.484C95.2798 42.5725 95.3627 42.7988 95.2742 42.9899Z" fill="#EFD6AC"/>
<path d="M80.9096 50.8328C86.1802 50.1961 90.519 47.0829 93.9232 41.4974L93.9161 41.51C96.8832 36.1677 97.496 30.741 95.7531 25.2328L95.7475 25.2132C94.3926 19.9973 90.7903 16.0759 84.9392 13.4533L85.0137 13.4772C78.5736 12.059 73.5869 12.6381 70.0534 15.2116L70.0422 15.22C59.082 22.5834 55.0623 29.7038 57.9843 36.5809L57.9885 36.5922C59.8171 41.2922 63.1524 44.9085 67.9958 47.4399L67.9803 47.4328C73.3311 49.9403 78.3164 50.6599 82.9363 49.5889C83.1415 49.5411 83.3453 49.669 83.3931 49.8742C83.4409 50.078 83.313 50.2832 83.1078 50.331C78.3178 51.4414 73.168 50.7049 67.6584 48.1229L67.643 48.1145C62.6309 45.4946 59.1762 41.7462 57.2787 36.869L57.283 36.8789C54.1979 29.6152 58.309 22.1843 69.6177 14.5875L69.6065 14.5945C73.324 11.8875 78.5146 11.2663 85.1767 12.7322C85.202 12.7379 85.2273 12.7463 85.2512 12.7575C91.323 15.4814 95.0687 19.5686 96.484 25.022L96.4798 25.0023C98.2873 30.7199 97.6548 36.3462 94.5809 41.8811L94.5725 41.8937C91.0405 47.69 86.5161 50.9227 81.0009 51.5889C80.7929 51.6142 80.6032 51.4652 80.5779 51.2558C80.5526 51.0478 80.7015 50.8581 80.9096 50.8328Z" fill="#EFD6AC"/>
<path d="M49.3656 38.2715C48.5982 37.8583 47.4723 37.535 45.9881 37.3003H45.9923C43.6241 36.9503 40.8327 36.679 37.6155 36.4879C37.4061 36.4752 37.2459 36.2953 37.2585 36.0845C37.2712 35.8751 37.4511 35.7149 37.6605 35.7275C40.8988 35.9201 43.714 36.1927 46.1034 36.5469H46.1062C47.6761 36.7957 48.8835 37.1457 49.7268 37.5996C49.9123 37.6994 49.9812 37.9313 49.8814 38.1169C49.7816 38.301 49.5511 38.3713 49.3656 38.2715Z" fill="#EFD6AC"/>
<path d="M39.8879 37.1657C39.7473 37.1586 39.6011 37.1516 39.4465 37.1474H39.4479C39.1345 37.1404 38.6173 37.1333 37.8948 37.1235H37.8934C37.7585 37.1207 37.587 37.1165 37.3804 37.108H37.3945H37.3818C36.7662 37.0883 36.1759 37.056 35.6123 37.0096H35.6165C35.5448 37.004 35.4816 36.9956 35.4268 36.9815C35.1963 36.9225 35.0698 36.789 35.0459 36.5824L35.0543 36.6302C34.9911 36.3673 35.1021 36.2015 35.3902 36.1312L35.3916 36.1298C35.3958 36.1298 35.3973 36.1284 35.3987 36.1284C35.4703 36.1115 35.5701 36.1003 35.6994 36.0947H35.698C36.2139 36.0708 36.956 36.0947 37.9258 36.1663H37.9244C38.5681 36.2127 39.1598 36.2647 39.6995 36.3238H39.7037C41.8387 36.581 43.0755 36.7243 43.4157 36.7538H43.4101H43.4241C43.9891 36.8143 44.7017 36.8775 45.5591 36.9464C45.7685 36.9633 45.9245 37.1474 45.9076 37.3568C45.8908 37.5676 45.7067 37.7236 45.4972 37.7068C44.6343 37.6365 43.916 37.5718 43.344 37.5128H43.3566H43.351C43.0025 37.4833 41.7558 37.3385 39.6138 37.0799L39.618 37.0813C39.0867 37.0237 38.5048 36.9717 37.8709 36.9267H37.8695C36.9307 36.8564 36.2195 36.8325 35.7346 36.8564H35.7332C35.6502 36.8607 35.5968 36.8649 35.5715 36.8705C35.5701 36.8705 35.5701 36.8719 35.5701 36.8705H35.5715C35.7767 36.8199 35.8512 36.6793 35.7936 36.4488L35.802 36.4966C35.7866 36.3547 35.7247 36.2703 35.6151 36.2436V36.2422C35.6249 36.245 35.6432 36.2479 35.6685 36.2493H35.6741C36.2251 36.2956 36.8028 36.328 37.4057 36.3462H37.3945H37.4099C37.6109 36.3547 37.7768 36.3603 37.9075 36.3617H37.9047C38.6285 36.3715 39.1486 36.3786 39.4648 36.3856L39.4662 36.387C39.6292 36.3912 39.7838 36.3968 39.93 36.4053C40.1394 36.4165 40.3011 36.5964 40.2884 36.8072C40.2772 37.0167 40.0973 37.1783 39.8879 37.1657Z" fill="#EFD6AC"/>
<path d="M48.8397 17.9184L44.6176 15.7244L44.6274 15.7286C44.1313 15.4883 43.4341 15.1636 42.5346 14.756L42.5374 14.7574C42.2507 14.6295 42.009 14.5269 41.8108 14.4482C41.6955 14.4032 41.6238 14.3765 41.5971 14.3681C41.8038 14.4285 41.9499 14.3526 42.0343 14.1376V14.139C42.1116 13.945 42.0652 13.7946 41.8979 13.6892C42.0469 13.7834 42.1116 13.9675 42.0553 14.1334C41.9991 14.3006 41.8347 14.406 41.6604 14.3906C41.9092 14.4131 42.0455 14.2992 42.0694 14.0462C42.0834 13.8776 42.0216 13.7581 41.8839 13.6864C42.0286 13.7609 43.1235 14.191 45.1699 14.9767L45.1559 14.971C45.2585 15.0062 45.3288 15.0245 45.3639 15.0259C45.3569 15.0259 45.3484 15.0273 45.3358 15.0287C45.3555 15.0259 45.3737 15.0245 45.3934 15.0245C45.3948 15.0245 45.3948 15.0245 45.3962 15.0245C45.2543 15.0343 45.184 15.1228 45.1854 15.2887C45.1854 15.3056 45.1868 15.3196 45.1896 15.3295C45.1376 15.1622 44.7947 14.7813 44.1622 14.1868C44.009 14.042 44.002 13.8017 44.1453 13.6485C44.2901 13.4939 44.5304 13.4868 44.6836 13.6316C45.4117 14.3175 45.8235 14.8066 45.9149 15.0975C45.9359 15.1608 45.9458 15.2226 45.9458 15.2817C45.95 15.5923 45.7842 15.7595 45.4525 15.7834C45.4356 15.7848 45.4173 15.7862 45.4004 15.7862L45.4567 15.7806C45.4159 15.7876 45.3723 15.7891 45.3274 15.7876C45.2205 15.782 45.0814 15.7511 44.9113 15.6935L44.8973 15.6879C42.8242 14.8923 41.704 14.451 41.5339 14.3625C41.3695 14.2781 41.295 14.1502 41.3104 13.9774C41.3329 13.723 41.4735 13.6077 41.7293 13.6316L41.4917 14.3329C41.3034 14.2135 41.2486 14.0547 41.3259 13.8579V13.8593C41.4116 13.6414 41.5732 13.5669 41.8122 13.6372C41.8614 13.6513 41.9541 13.6864 42.0905 13.7398C42.2985 13.8227 42.5501 13.9296 42.8466 14.0603L42.8495 14.0617C43.7546 14.4721 44.4574 14.7996 44.9591 15.0441L44.969 15.0484L49.1911 17.2424C49.378 17.3393 49.4497 17.5698 49.3527 17.7568C49.2572 17.9437 49.0267 18.0154 48.8397 17.9184Z" fill="#EFD6AC"/>
<mask id="mask1_56_1934" style="mask-type:luminance" maskUnits="userSpaceOnUse" x="52" y="0" width="8" height="7">
<path d="M52.1719 0.0600586H59.0083V6.89505H52.1719V0.0600586Z" fill="white"/>
</mask>
<g mask="url(#mask1_56_1934)">
<path d="M53.2007 0.348315V0.34972C54.2689 1.65825 55.1234 2.64632 55.7643 3.31113L55.7686 3.31394C56.6217 4.22049 57.4481 5.0652 58.2465 5.84807L58.2479 5.84948C58.2718 5.87337 58.29 5.88883 58.3013 5.89586C58.276 5.8804 58.2394 5.87618 58.1945 5.87899L58.0581 5.91835C58.0244 5.93662 58.0075 5.96613 58.0075 6.00549C58.0075 5.99846 58.0047 5.98581 58.0005 5.97035L57.9977 5.9563C57.9288 5.66254 57.7447 5.23808 57.4425 4.68009L57.4453 4.68572C56.706 3.36594 55.8304 2.04898 54.8184 0.732019C54.6905 0.566169 54.7214 0.325827 54.8873 0.197925C55.0546 0.070024 55.2935 0.100946 55.4214 0.268201C56.4558 1.61327 57.3526 2.96116 58.1087 4.31185L58.1115 4.31747C58.446 4.93449 58.6555 5.42501 58.7384 5.78482L58.7356 5.77077C58.7567 5.85229 58.7679 5.92959 58.7679 6.00408C58.7693 6.26691 58.6541 6.46087 58.4236 6.58596H58.425C58.4165 6.59159 58.4081 6.5958 58.3983 6.60002C58.3561 6.6211 58.3097 6.63375 58.2633 6.63797C58.1467 6.64921 58.0328 6.6211 57.919 6.55504C57.8501 6.51428 57.7812 6.45947 57.711 6.3906L57.7138 6.392C56.9084 5.60211 56.075 4.75037 55.2148 3.83679L55.2176 3.8396C54.5612 3.15933 53.6926 2.1572 52.6118 0.830404L52.6132 0.83181H52.6118C52.4783 0.667365 52.5022 0.427023 52.6652 0.2935C52.8282 0.161382 53.0672 0.185275 53.2007 0.348315Z" fill="#EFD6AC"/>
</g>
<path d="M94.1918 1.00733C94.0934 1.23081 93.8601 1.63138 93.4918 2.20764L93.4848 2.21888C92.3492 3.86754 91.4918 5.15077 90.9085 6.06857L90.9043 6.0756L90.9085 6.06716C90.8158 6.21755 90.7609 6.31594 90.7483 6.36654C90.7708 6.2808 90.7441 6.19647 90.6668 6.11214L90.6738 6.11917C90.6035 6.03765 90.5248 6.02219 90.4405 6.07138C90.4447 6.06857 90.4517 6.06435 90.4602 6.05733L90.4573 6.05873L90.4588 6.05733C90.6541 5.88726 90.8846 5.62162 91.1489 5.26321L91.1446 5.26884C91.3302 5.00741 91.5621 4.65182 91.8376 4.19924L91.8347 4.20486C92.9409 2.33132 93.5621 1.30952 93.697 1.14226V1.14086C93.8067 1.00452 93.9402 0.952518 94.0962 0.987655C94.3014 1.03123 94.4321 1.23502 94.3872 1.44023C94.3422 1.64543 94.1398 1.77615 93.9346 1.73117C94.085 1.7649 94.203 1.72695 94.2902 1.61873C94.1777 1.75787 93.5776 2.75016 92.4897 4.59279L92.4869 4.597C92.2016 5.06363 91.9612 5.43469 91.7645 5.71016L91.7617 5.71579C91.4637 6.11917 91.1966 6.42416 90.9591 6.63218L90.9563 6.63358C90.9141 6.67153 90.8706 6.70245 90.827 6.72775C90.5459 6.8936 90.3027 6.85706 90.0975 6.61672L90.1046 6.62515C89.9935 6.50428 89.964 6.35108 90.0132 6.16696C90.0469 6.04327 90.1299 5.87461 90.2648 5.66097L90.2704 5.65254L90.2662 5.65957C90.8537 4.73334 91.7181 3.44308 92.858 1.78598L92.8509 1.79723C93.1981 1.2547 93.4117 0.88927 93.4932 0.702337C93.5776 0.509782 93.8025 0.421235 93.995 0.505566C94.1876 0.589896 94.2747 0.813372 94.1918 1.00733Z" fill="#EFD6AC"/>
<path d="M115.609 14.7617C114.622 15.0442 113.522 15.4574 112.307 16.0027C111.373 16.4202 109.806 17.1637 107.605 18.229C107.061 18.4947 106.747 18.6648 106.662 18.7435C106.666 18.7392 106.67 18.735 106.674 18.728L106.761 18.4567C106.751 18.3401 106.704 18.2698 106.617 18.2417C106.657 18.2543 106.743 18.2558 106.874 18.2459C106.882 18.2459 106.888 18.2459 106.895 18.2445L106.868 18.2473C107.624 18.1307 108.507 17.9128 109.519 17.5938L109.523 17.5924C110.877 17.1819 112.544 16.4975 114.524 15.5375C114.712 15.4447 114.94 15.5248 115.031 15.7132C115.124 15.9029 115.044 16.1306 114.856 16.222C112.84 17.2002 111.137 17.9002 109.744 18.3218L109.748 18.3204C108.7 18.6507 107.779 18.877 106.985 19.0007L106.958 19.0035C106.948 19.0049 106.94 19.0049 106.931 19.0063C106.705 19.0232 106.527 19.0119 106.393 18.9712C106.15 18.8967 106.019 18.7435 106.002 18.5144C105.994 18.416 106.025 18.319 106.088 18.2431C106.106 18.222 106.126 18.2009 106.149 18.1799C106.288 18.0534 106.663 17.8411 107.272 17.5446H107.273C109.481 16.4736 111.057 15.7286 111.995 15.307C113.244 14.7476 114.378 14.3217 115.4 14.0294C115.602 13.9704 115.811 14.0884 115.87 14.2894C115.928 14.4918 115.811 14.7026 115.609 14.7617Z" fill="#EFD6AC"/>
<mask id="mask2_56_1934" style="mask-type:luminance" maskUnits="userSpaceOnUse" x="103" y="38" width="16" height="4">
<path d="M103.984 38.5581H118.999V41.4366H103.984V38.5581Z" fill="white"/>
</mask>
<g mask="url(#mask2_56_1934)">
<path d="M118.247 39.6445C116.459 39.6628 114.798 39.7499 113.265 39.9031L113.26 39.9046C111.768 40.0353 108.933 40.3698 104.754 40.9081L104.83 40.8912H104.829L104.826 40.8926C105.021 40.8266 105.082 40.6818 105.007 40.4583C104.975 40.3599 104.922 40.2953 104.846 40.2644C104.909 40.2897 105.082 40.322 105.367 40.3628L105.335 40.3585C106.345 40.4133 107.561 40.4527 108.982 40.4794C110.206 40.5019 111.491 40.4654 112.839 40.3698H112.835C116.014 40.1154 117.729 39.9509 117.983 39.875C117.98 39.875 117.977 39.8764 117.974 39.8779L118.012 39.8652C118.109 39.8399 118.173 39.8174 118.201 39.7977C118.122 39.8511 118.1 39.9369 118.129 40.0521C118.139 40.0859 118.15 40.1112 118.166 40.128C118.125 40.0845 118.017 40.0254 117.84 39.9481L117.893 39.9664C116.843 39.6881 115.869 39.5644 114.972 39.5996C114.761 39.6066 114.584 39.4435 114.577 39.2327C114.569 39.0233 114.733 38.8462 114.943 38.8378C115.917 38.8012 116.965 38.9319 118.088 39.2313C118.107 39.2355 118.123 39.2412 118.142 39.2496C118.414 39.3677 118.608 39.4871 118.721 39.6066C118.794 39.6839 118.842 39.7682 118.866 39.8596C118.926 40.0873 118.849 40.2756 118.632 40.4246C118.531 40.4949 118.389 40.5539 118.206 40.6017L118.244 40.5904C118.23 40.5947 118.216 40.6003 118.201 40.6045C117.896 40.6959 116.128 40.8701 112.895 41.1288H112.892C111.523 41.2271 110.215 41.2637 108.968 41.2398C107.537 41.2145 106.313 41.1751 105.294 41.1203L105.262 41.1175C104.914 41.0683 104.68 41.0191 104.559 40.9699C104.417 40.9123 104.326 40.8209 104.285 40.6973C104.2 40.4415 104.3 40.2658 104.584 40.1702L104.58 40.1716L104.581 40.1702C104.61 40.1618 104.633 40.1561 104.657 40.1533C108.846 39.6122 111.69 39.2763 113.193 39.1456H113.189C114.745 38.9896 116.428 38.901 118.24 38.8827C118.45 38.8799 118.622 39.0486 118.624 39.2594C118.627 39.4688 118.458 39.6417 118.247 39.6445Z" fill="#EFD6AC"/>
</g>
<path d="M54.4393 59.7562C51.7281 59.3922 47.5411 60.3704 41.8797 62.6923C36.9899 64.6994 33.1543 67.2026 30.3728 70.202L30.4136 70.1556C26.4767 75.1957 26.4486 80.8937 30.3278 87.248L30.2997 87.2044C33.9344 92.3092 38.7272 95.3395 44.6753 96.2938L44.6457 96.2896C50.2341 96.9516 55.5637 95.1469 60.6348 90.8742L60.6151 90.8925C64.4845 87.3745 65.9673 82.8431 65.065 77.2998V77.304C64.0924 71.5484 61.1675 66.7528 56.2904 62.9144C55.9699 62.6628 55.9151 62.2004 56.1667 61.8799C56.4183 61.5595 56.8807 61.5047 57.2012 61.7563C62.3762 65.828 65.4824 70.9286 66.5169 77.058L66.5183 77.0623C67.5064 83.1326 65.8689 88.1067 61.6046 91.9831L61.5835 92.0014C56.1878 96.5496 50.4828 98.4667 44.4715 97.7542L44.4419 97.7499C38.0876 96.7295 32.973 93.4997 29.0994 88.0604C29.0896 88.0463 29.0797 88.0308 29.0713 88.0168C24.8379 81.0806 24.8969 74.8247 29.2526 69.2476C29.2653 69.2308 29.2779 69.2153 29.2934 69.1998C32.221 66.0403 36.231 63.4162 41.3217 61.329C47.2263 58.9073 51.6635 57.8953 54.6361 58.2959C55.0395 58.3493 55.322 58.7204 55.2672 59.1237C55.2138 59.5271 54.8427 59.811 54.4393 59.7562Z" fill="#EFD6AC"/>
<path d="M3.58487 154.68C5.6833 153.921 7.86043 153.294 10.1191 152.798C10.5168 152.711 10.909 152.962 10.9961 153.36C11.0833 153.758 10.8317 154.152 10.4353 154.239C8.23992 154.721 6.12182 155.331 4.08383 156.067C3.70153 156.205 3.27988 156.007 3.14214 155.623C3.00299 155.241 3.20117 154.818 3.58487 154.68Z" fill="#EFD6AC"/>
<path d="M3.66485 152.181C3.67188 152.176 3.6775 152.171 3.68453 152.166H3.68594C4.13008 151.85 5.94599 151.131 9.13509 150.013C9.5188 149.878 9.93905 150.08 10.074 150.464C10.2089 150.849 10.0065 151.269 9.62281 151.404C6.56442 152.478 4.87078 153.131 4.54049 153.366C4.21441 153.608 3.7534 153.539 3.51165 153.211C3.2685 152.885 3.33737 152.423 3.66485 152.181Z" fill="#EFD6AC"/>
<path d="M2.13246 150.566C2.82678 149.824 4.10299 148.921 5.95966 147.86C6.31385 147.659 6.76361 147.782 6.9646 148.136C7.167 148.489 7.04331 148.94 6.69053 149.141C4.96175 150.129 3.8008 150.938 3.20908 151.574C2.93079 151.87 2.46416 151.886 2.1676 151.607C1.87104 151.331 1.85558 150.864 2.13246 150.566Z" fill="#EFD6AC"/>
<path d="M2.74363 145.415C3.2721 145.1 5.18641 144.251 8.48233 142.868C8.8576 142.711 9.28909 142.888 9.4465 143.263C9.60392 143.638 9.42823 144.071 9.05296 144.229C5.81748 145.585 3.96502 146.403 3.49417 146.683C3.1442 146.891 2.69163 146.775 2.48502 146.424C2.277 146.074 2.39366 145.621 2.74363 145.415Z" fill="#EFD6AC"/>
<path d="M1.32155 143.135C1.75304 142.799 3.18104 141.95 5.60273 140.586C5.95833 140.386 6.40668 140.513 6.60627 140.867C6.80585 141.222 6.67935 141.672 6.32516 141.872C3.96672 143.198 2.59916 144.008 2.22529 144.299C1.90484 144.549 1.44243 144.492 1.19225 144.171C0.942065 143.849 1.0011 143.385 1.32155 143.135Z" fill="#EFD6AC"/>
<path d="M2.0491 139.273C2.76169 138.737 4.55231 137.641 7.41814 135.983C7.77093 135.779 8.22069 135.9 8.42449 136.252C8.62829 136.605 8.50741 137.055 8.15463 137.259C5.3394 138.888 3.59938 139.952 2.93317 140.452C2.60849 140.697 2.14608 140.631 1.90152 140.305C1.65837 139.978 1.72443 139.517 2.0491 139.273Z" fill="#EFD6AC"/>
<path d="M2.73464 134.172L7.56257 132.859L7.5457 132.864L11.2422 131.767C11.6329 131.652 12.0419 131.876 12.1586 132.265C12.2738 132.656 12.0518 133.066 11.661 133.181L7.96454 134.278L7.94908 134.282L3.12116 135.595C2.72902 135.701 2.32424 135.469 2.21742 135.077C2.1106 134.684 2.34251 134.279 2.73464 134.172Z" fill="#EFD6AC"/>
<path d="M3.86383 128.653L3.86664 128.652C6.55678 128.184 8.48795 127.821 9.66015 127.564C10.7874 127.316 12.37 126.902 14.4066 126.321C14.7987 126.209 15.2063 126.436 15.3173 126.827C15.4284 127.219 15.2021 127.627 14.8113 127.739C12.7452 128.328 11.1331 128.75 9.97498 129.004H9.97779H9.97358C8.78171 129.266 6.82945 129.633 4.11823 130.105H4.11542C3.71625 130.175 3.33395 129.907 3.26508 129.505C3.19481 129.104 3.46326 128.722 3.86383 128.653Z" fill="#EFD6AC"/>
<path d="M3.50841 124.708C9.60832 123.059 14.1987 121.714 17.2824 120.671C17.6675 120.54 18.0863 120.748 18.2157 121.133C18.3464 121.518 18.1398 121.937 17.7546 122.068C14.6414 123.121 10.0215 124.474 3.89211 126.13C3.49998 126.237 3.09519 126.003 2.98978 125.611C2.88296 125.218 3.11627 124.813 3.50841 124.708Z" fill="#EFD6AC"/>
<path d="M6.62948 120.284C6.94432 120.168 7.46014 120.016 8.17554 119.826L8.18257 119.825L8.19241 119.822C12.8545 118.643 15.5193 117.957 16.1883 117.763L16.2024 117.759C17.8131 117.326 19.2931 116.908 20.6396 116.509C21.0303 116.394 21.4393 116.616 21.556 117.007C21.6712 117.396 21.4492 117.806 21.0584 117.923C19.6993 118.327 18.2081 118.747 16.5833 119.182L16.5974 119.178C15.9129 119.378 13.2312 120.068 8.55363 121.251H8.55503L8.54519 121.254L8.55222 121.253C7.88039 121.43 7.40954 121.568 7.13828 121.667C6.75739 121.808 6.33433 121.613 6.19378 121.232C6.05182 120.849 6.24719 120.425 6.62948 120.284Z" fill="#EFD6AC"/>
<path d="M9.58323 111.401C10.9663 111.425 12.4547 111.326 14.0513 111.103L14.0584 111.102H14.0612C14.7625 111.012 15.5075 110.907 16.2973 110.783L16.2875 110.784L16.3002 110.783H16.2988C20.1147 110.138 22.3312 109.77 22.9496 109.681C23.3516 109.623 23.7255 109.903 23.7831 110.307C23.8407 110.71 23.561 111.082 23.159 111.14C22.5505 111.227 20.3466 111.593 16.5447 112.236L16.5321 112.239L16.5236 112.241C15.7197 112.366 14.9607 112.474 14.2467 112.564H14.2537C12.5826 112.797 11.0169 112.901 9.55793 112.876C9.15034 112.869 8.82707 112.533 8.8341 112.127C8.84112 111.719 9.17564 111.394 9.58323 111.401Z" fill="#EFD6AC"/>
<path d="M16.1069 106.163C19.8301 105.758 22.1731 105.487 23.1387 105.349L23.1443 105.348C24.994 105.098 27.1317 104.767 29.5576 104.358C29.9596 104.291 30.3391 104.561 30.4066 104.963C30.474 105.365 30.2042 105.744 29.8036 105.812C27.3608 106.225 25.2076 106.557 23.3411 106.81L23.3467 106.808C22.3656 106.949 20.0044 107.223 16.2657 107.629C15.8624 107.673 15.4983 107.38 15.4548 106.976C15.4098 106.571 15.7021 106.208 16.1069 106.163Z" fill="#EFD6AC"/>
<path d="M26.6694 101.054C27.0362 101.058 27.6968 101.03 28.6525 100.968H28.668C32.5022 100.727 34.8818 100.571 35.8066 100.5C36.2128 100.47 36.5656 100.773 36.5965 101.179C36.6288 101.586 36.3252 101.94 35.919 101.971C34.9886 102.042 32.602 102.198 28.7608 102.44H28.7467C27.7544 102.503 27.0559 102.533 26.6539 102.529C26.2463 102.524 25.9202 102.191 25.9259 101.784C25.9301 101.376 26.2632 101.05 26.6694 101.054Z" fill="#EFD6AC"/>
<path d="M25.7106 152.964C26.5876 152.985 27.5293 152.958 28.5357 152.884H28.5399C29.3888 152.826 31.7149 152.629 35.5154 152.294C35.9216 152.257 36.2786 152.556 36.3138 152.963C36.3503 153.369 36.0509 153.726 35.6461 153.762C31.8344 154.1 29.4985 154.296 28.6397 154.355H28.6439C27.5898 154.433 26.6003 154.459 25.6755 154.438C25.2693 154.429 24.9474 154.091 24.9573 153.684C24.9657 153.277 25.3044 152.954 25.7106 152.964Z" fill="#EFD6AC"/>
<path d="M22.4538 151.433C22.8333 151.29 23.5136 151.175 24.496 151.087H24.5073L29.5643 150.716L29.5573 150.718L34.6382 150.305H34.6396C35.2187 150.26 35.8034 150.222 36.3923 150.192C36.7985 150.171 37.1456 150.483 37.1667 150.889C37.1864 151.297 36.8744 151.643 36.4682 151.664C35.8905 151.693 35.3199 151.731 34.7548 151.775H34.7577L29.6767 152.187H29.6711L24.6141 152.558L24.6253 152.556C23.7778 152.631 23.2283 152.716 22.9753 152.812L22.9472 152.822C22.5944 152.957 22.1685 152.764 22.0252 152.383C21.8818 152.002 22.0729 151.578 22.4538 151.433Z" fill="#EFD6AC"/>
<path d="M22.4824 147.938H22.4964H22.4838C22.7185 147.92 22.994 147.906 23.3116 147.894C24.2308 147.863 25.3763 147.827 26.7495 147.786H26.7537C26.9406 147.78 28.0426 147.74 30.0609 147.661L30.0637 147.66C30.7313 147.637 31.3146 147.617 31.8149 147.603C32.4291 147.585 33.0096 147.575 33.5578 147.572H33.5536C33.8234 147.57 34.2394 147.575 34.8045 147.591C35.2106 147.601 35.5311 147.939 35.5199 148.347C35.51 148.755 35.1713 149.075 34.7637 149.064C34.2184 149.05 33.8206 149.044 33.5704 149.047H33.5662C33.0279 149.05 32.4587 149.06 31.8585 149.076H31.8571C31.3596 149.092 30.7791 149.11 30.1157 149.134H30.1185C28.0917 149.213 26.9828 149.255 26.7902 149.259H26.7945C25.4185 149.301 24.2744 149.336 23.3622 149.369C23.0656 149.379 22.8098 149.391 22.5962 149.408L22.5836 149.409H22.5821C22.19 149.439 21.8358 149.135 21.8049 148.731C21.774 148.324 22.0776 147.97 22.4824 147.938Z" fill="#EFD6AC"/>
<path d="M21.6523 145.621C22.5855 145.377 24.0712 145.122 26.1091 144.857H26.1105C28.1415 144.597 30.0867 144.404 31.9476 144.281C32.3538 144.252 32.7052 144.56 32.7319 144.966C32.76 145.373 32.4522 145.724 32.046 145.751C30.2146 145.874 28.2989 146.063 26.2975 146.32L26.2989 146.319C24.3227 146.576 22.8976 146.819 22.0247 147.048C21.6312 147.151 21.2292 146.915 21.1266 146.521C21.024 146.127 21.2587 145.724 21.6523 145.621Z" fill="#EFD6AC"/>
<path d="M20.9537 141.529H20.9551C20.9875 141.52 21.024 141.513 21.0648 141.508C21.3051 141.475 22.7907 141.378 25.523 141.218H25.516C26.6053 141.144 27.3038 141.09 27.613 141.061L27.5919 141.063H27.5933L27.6271 141.059C28.6039 140.985 30.9722 140.737 34.7291 140.319C35.1339 140.274 35.4979 140.565 35.5429 140.969C35.5879 141.374 35.2969 141.74 34.8922 141.784C31.1184 142.205 28.7346 142.454 27.7409 142.529L27.7761 142.527H27.7747L27.7536 142.529C27.4303 142.56 26.7177 142.612 25.6172 142.688L25.6088 142.69C22.9144 142.847 21.4653 142.941 21.2615 142.968C21.2784 142.967 21.2981 142.962 21.3206 142.957C20.927 143.058 20.5265 142.82 20.4253 142.425C20.3227 142.032 20.5602 141.63 20.9537 141.529Z" fill="#EFD6AC"/>
<path d="M21.2132 137.839C21.6152 137.751 23.3791 137.618 26.505 137.441H26.5036C28.1846 137.344 30.3434 137.25 32.9816 137.159C33.3878 137.145 33.7293 137.462 33.7434 137.87C33.7574 138.276 33.4398 138.618 33.0322 138.632C30.4067 138.723 28.2591 138.817 26.5893 138.913L26.5879 138.914C23.5408 139.086 21.8542 139.207 21.5295 139.278C21.1317 139.366 20.7396 139.114 20.651 138.718C20.5639 138.32 20.8155 137.926 21.2132 137.839Z" fill="#EFD6AC"/>
<path d="M20.6749 135.152C21.2455 135.017 22.5681 134.904 24.6426 134.819L24.644 134.817C25.3299 134.791 26.1268 134.771 27.0348 134.757C27.7305 134.747 28.5584 134.737 29.5211 134.726H29.5141C29.6322 134.725 30.0988 134.723 30.9112 134.723C31.3188 134.725 31.6477 135.055 31.6477 135.461C31.6477 135.869 31.3174 136.199 30.9112 136.198C30.1072 136.198 29.6519 136.199 29.5436 136.2H29.5366C28.578 136.212 27.7502 136.221 27.0559 136.231C26.1606 136.245 25.3763 136.265 24.7031 136.292H24.7045C22.7241 136.375 21.4943 136.473 21.015 136.587C20.62 136.681 20.2223 136.436 20.1281 136.04C20.0354 135.644 20.2785 135.246 20.6749 135.152Z" fill="#EFD6AC"/>
<path d="M20.9613 132.276C21.6823 132.159 22.3288 132.078 22.9009 132.03C24.9824 131.856 26.8475 131.72 28.4962 131.621C28.9024 131.597 29.251 131.908 29.2749 132.314C29.3002 132.72 28.9895 133.069 28.5833 133.093C26.9473 133.19 25.0935 133.326 23.0246 133.499H23.0232C22.4891 133.544 21.8791 133.621 21.196 133.732C20.794 133.797 20.4159 133.524 20.3513 133.122C20.2866 132.72 20.5593 132.342 20.9613 132.276Z" fill="#EFD6AC"/>
<path d="M20.4953 130.338H23.0125C23.4201 130.338 23.749 130.668 23.749 131.076C23.749 131.484 23.4201 131.813 23.0125 131.813H20.4953C20.0877 131.813 19.7588 131.482 19.7588 131.075C19.7588 130.668 20.0891 130.338 20.4953 130.338Z" fill="#EFD6AC"/>
<path d="M17.8412 103.275C18.4906 103.146 19.6037 103.047 21.1807 102.978H21.1793C21.653 102.956 22.0999 102.94 22.5202 102.933H22.5328H22.5103C22.7169 102.928 23.8371 102.916 25.8695 102.901H25.8667C26.2068 102.897 26.5469 102.89 26.8871 102.879H26.9124H26.8899C27.6432 102.855 28.8168 102.782 30.4093 102.656C30.8155 102.626 31.1697 102.928 31.2006 103.334C31.2329 103.74 30.9293 104.094 30.5245 104.127C28.9082 104.253 27.7121 104.328 26.9349 104.352L26.9124 104.353H26.911L26.9363 104.352C26.5849 104.364 26.2349 104.371 25.8835 104.375H25.8807C23.861 104.391 22.7521 104.401 22.5553 104.408H22.5328H22.5455C22.1393 104.415 21.7078 104.429 21.2482 104.45L21.2454 104.451C19.7429 104.516 18.7028 104.606 18.1265 104.721C17.7288 104.8 17.3409 104.54 17.2622 104.141C17.1834 103.742 17.4421 103.354 17.8412 103.275Z" fill="#EFD6AC"/>
<path d="M7.3632 114.781C7.93806 114.782 8.6633 114.741 9.54034 114.658H9.52909C13.9593 114.155 16.4836 113.864 17.1048 113.784L17.1132 113.783C18.0591 113.673 19.0556 113.565 20.0985 113.458C20.4232 113.424 20.7127 113.66 20.7465 113.985C20.7788 114.31 20.5441 114.599 20.2194 114.633C19.1793 114.74 18.1884 114.848 17.2481 114.956L17.2566 114.955C16.6297 115.036 14.0984 115.329 9.66262 115.832L9.65137 115.833C8.73779 115.92 7.97319 115.963 7.36039 115.963C7.03572 115.961 6.77148 115.696 6.77148 115.37C6.77289 115.043 7.03713 114.781 7.3632 114.781Z" fill="#EFD6AC"/>
<path d="M30.4737 67.6832C36.8955 66.4955 40.734 65.8251 41.9919 65.6733C42.3152 65.634 42.6103 65.8645 42.6497 66.1877C42.6876 66.511 42.4585 66.8062 42.1338 66.8455C40.9012 66.9945 37.0853 67.6621 30.6874 68.8456C30.3683 68.9046 30.0605 68.6924 30.0001 68.3719C29.9411 68.0514 30.1533 67.7422 30.4737 67.6832Z" fill="#EFD6AC"/>
<path d="M29.0685 70.1584C29.6461 70.0502 30.2885 69.9659 30.9954 69.9055C31.2807 69.8816 31.5871 69.8563 31.916 69.8324L37.1979 69.4444H37.1965C37.6168 69.4121 37.9583 69.384 38.2197 69.3601C38.5444 69.3292 38.8311 69.5681 38.8607 69.8942C38.8916 70.2189 38.6526 70.5056 38.328 70.5365C38.0609 70.5604 37.7138 70.5899 37.2865 70.6223H37.2851L32.0032 71.0102C31.6771 71.0341 31.3749 71.058 31.0966 71.0819C30.429 71.1395 29.8246 71.2182 29.2849 71.3194C28.9645 71.3798 28.6567 71.169 28.5962 70.8471C28.5358 70.5267 28.748 70.2189 29.0685 70.1584Z" fill="#EFD6AC"/>
<path d="M24.9429 72.2904C26.7645 72.0543 29.4293 71.7929 32.9375 71.5062C33.2635 71.4795 33.5475 71.7212 33.5742 72.0459C33.6009 72.372 33.3591 72.6573 33.0345 72.6826C29.5446 72.9693 26.898 73.2279 25.0933 73.4612C24.7701 73.5034 24.4749 73.2757 24.4327 72.9524C24.3906 72.6278 24.6197 72.3326 24.9429 72.2904Z" fill="#EFD6AC"/>
<path d="M25.411 76.1767C26.5832 75.9505 28.3064 75.7424 30.5819 75.5527H30.5847C33.0261 75.3573 35.1737 75.2393 37.0304 75.1943C37.3565 75.1859 37.6263 75.4445 37.6348 75.7706C37.6418 76.0966 37.3846 76.3679 37.0585 76.3749C35.2243 76.4185 33.0964 76.5366 30.6775 76.7291H30.6803C28.4469 76.916 26.766 77.1184 25.6359 77.3363C25.3155 77.3981 25.0063 77.1901 24.9444 76.8697C24.8826 76.5492 25.092 76.2386 25.411 76.1767Z" fill="#EFD6AC"/>
<path d="M23.9988 79.4882C24.897 79.3884 25.5547 79.3111 25.9708 79.2535H25.968C28.228 78.9345 30.3967 78.6393 32.4727 78.3695H32.4741L32.4783 78.368C34.0693 78.1671 35.1403 78.0406 35.6899 77.9886C36.0145 77.959 36.3027 78.1966 36.3322 78.5227C36.3631 78.8473 36.1242 79.1341 35.7995 79.165C35.2626 79.2156 34.2042 79.3407 32.6273 79.5402H32.6216H32.6245C30.5527 79.8101 28.3897 80.1053 26.1338 80.4243H26.131C25.7037 80.4819 25.0361 80.562 24.1282 80.6618C23.8035 80.6984 23.5125 80.4651 23.4774 80.1404C23.4409 79.8157 23.6742 79.5248 23.9988 79.4882Z" fill="#EFD6AC"/>
<path d="M23.588 83.5403C27.5332 82.9907 31.1313 82.5213 34.3809 82.1306C34.7055 82.0926 34.9993 82.3231 35.0372 82.6478C35.0766 82.971 34.8461 83.2648 34.5214 83.3042C31.2789 83.6935 27.6878 84.1615 23.751 84.7097C23.4277 84.7546 23.1298 84.5298 23.0848 84.2065C23.0398 83.8832 23.2661 83.5853 23.588 83.5403Z" fill="#EFD6AC"/>
<path d="M25.1637 85.8453L30.5384 85.1116L30.5257 85.113C30.7197 85.0835 31.7991 84.9556 33.7626 84.7335C34.0873 84.6956 34.3796 84.9289 34.4162 85.2536C34.4527 85.5768 34.2194 85.8706 33.8961 85.9071C31.9495 86.1278 30.8869 86.2529 30.7098 86.281L30.6972 86.2824L25.3225 87.0161C24.9993 87.0597 24.7027 86.8334 24.6577 86.5101C24.6141 86.1868 24.8404 85.8903 25.1637 85.8453Z" fill="#EFD6AC"/>
<path d="M27.0159 88.1784C28.0686 87.8129 29.2675 87.5009 30.6126 87.2437L30.6042 87.2451C31.574 87.0455 33.4321 86.7419 36.177 86.3343C36.4989 86.2866 36.7997 86.5086 36.8475 86.8319C36.8952 87.1552 36.6718 87.4545 36.3499 87.5023C33.6274 87.9071 31.7918 88.2065 30.8431 88.4019L30.8347 88.4047C29.5458 88.6506 28.4018 88.9472 27.4024 89.2944C27.0946 89.4012 26.7587 89.2381 26.6519 88.9303C26.5451 88.6225 26.7081 88.2852 27.0159 88.1784Z" fill="#EFD6AC"/>
<path d="M28.4006 91.3732C30.7253 90.7322 33.3817 90.1377 36.3713 89.5924C36.6917 89.5333 36.9995 89.7456 37.0571 90.066C37.1162 90.3879 36.9039 90.6957 36.5835 90.7533C33.6277 91.2944 31.005 91.8791 28.7155 92.5116C28.4006 92.5988 28.0759 92.4146 27.9888 92.0998C27.9031 91.785 28.0872 91.4603 28.4006 91.3732Z" fill="#EFD6AC"/>
<path d="M31.5342 93.0654C32.0149 92.9179 32.5054 92.7871 33.0029 92.6705L33.0058 92.6691C36.6671 91.8314 39.0002 91.2804 40.0038 91.0176C40.32 90.9347 40.6419 91.123 40.7248 91.4393C40.8063 91.7541 40.618 92.0774 40.3032 92.1603C39.287 92.4259 36.9426 92.9797 33.2686 93.8202H33.2714C32.7991 93.9312 32.3339 94.0563 31.8771 94.1955C31.5651 94.2896 31.2362 94.1139 31.1406 93.8019C31.0465 93.4899 31.2222 93.1596 31.5342 93.0654Z" fill="#EFD6AC"/>
<path d="M36.0866 95.5854C36.1076 95.5741 36.1329 95.5615 36.1596 95.5502C36.4211 95.4364 37.6706 95.078 39.9067 94.475L39.8955 94.4778C40.2174 94.3851 41.3685 94.104 43.3474 93.6373C43.6651 93.5628 43.9827 93.7596 44.0572 94.0773C44.1317 94.3949 43.9349 94.7126 43.6173 94.7884C41.6594 95.2495 40.528 95.5235 40.2258 95.6121L40.2145 95.6163C38.0332 96.2038 36.8385 96.5425 36.6291 96.6339C36.6361 96.6311 36.6431 96.6283 36.6516 96.6226C36.3649 96.7787 36.0064 96.6732 35.8504 96.3879C35.6944 96.1012 35.7998 95.7428 36.0866 95.5854Z" fill="#EFD6AC"/>
<path d="M33.6695 64.591C34.9864 64.3295 36.4285 64.1328 37.997 64.0006H37.9928C38.6562 63.9388 39.4616 63.8784 40.4089 63.8165H40.4131C42.6802 63.6872 44.4118 63.5818 45.6079 63.5003C45.934 63.4792 46.2151 63.7252 46.2375 64.0498C46.2586 64.3759 46.0141 64.657 45.688 64.6795C44.4877 64.761 42.7519 64.8664 40.4806 64.9957H40.4848C39.5473 65.0562 38.7532 65.1166 38.1011 65.1771H38.0968C36.5719 65.3064 35.1734 65.4975 33.9 65.7505C33.5795 65.8138 33.2689 65.6057 33.2057 65.2853C33.1424 64.9662 33.3504 64.6556 33.6695 64.591Z" fill="#EFD6AC"/>
<path d="M52.1919 58.6458C44.2606 58.7315 38.3055 60.3197 34.3293 63.4118L34.3265 63.4133C28.6749 67.7689 25.1766 72.6742 23.8329 78.1289C23.7542 78.4452 23.4352 78.6391 23.1189 78.5604C22.8027 78.4831 22.6087 78.1627 22.6874 77.8464C24.0972 72.1232 27.7374 67.0001 33.6068 62.4772L33.6054 62.4786C37.791 59.2234 43.9823 57.5523 52.1792 57.4651C52.5053 57.4609 52.7724 57.7238 52.7766 58.0498C52.7794 58.3759 52.518 58.643 52.1919 58.6458Z" fill="#EFD6AC"/>
</svg>
