<svg width="190" height="124" viewBox="0 0 190 124" fill="none" xmlns="http://www.w3.org/2000/svg">
<path d="M16.6532 31.9476C16.9949 32.2186 17.4126 32.4509 17.9451 32.5671C19.1982 32.8769 20.3762 32.4897 21.2876 31.7539C21.9711 31.1731 22.4656 30.4365 22.7694 29.6234C23.1491 28.6166 23.1491 27.4937 23.0731 26.4482C22.9592 25.4406 22.6934 24.4338 22.0859 23.582C21.4394 22.7301 20.4522 22.0322 19.2742 22.1096C18.7046 22.1484 18.135 22.3429 17.7164 22.6526C17.6405 22.6139 17.5645 22.5752 17.4886 22.6139C16.5013 22.8075 15.8937 23.6981 15.5511 24.5113C15.1334 25.4406 14.9815 26.4482 14.9436 27.455C14.8676 29.0426 15.3233 30.9408 16.6532 31.9476Z" fill="#EFD6AC"/>
<path d="M28.2768 43.7215C28.2008 43.6828 28.0869 43.644 28.011 43.644C28.2388 41.5909 27.3275 39.2289 26.3402 37.5243C25.352 35.8205 23.8323 34.3482 21.9328 33.6125C21.7429 33.5351 21.591 33.4963 21.4012 33.4189C20.7177 33.1866 20.0721 33.1091 19.3878 33.1091C19.122 33.1091 18.8182 33.1091 18.5524 33.1479C17.8689 33.2253 17.2225 33.3802 16.5769 33.6125C14.4117 34.4257 12.5881 36.1303 11.7907 38.26C11.1063 40.042 10.7646 42.133 11.0304 44.07C10.6886 44.1474 10.3848 44.2636 10.2329 44.5733C10.195 44.6508 10.195 44.7282 10.2709 44.7669C10.7266 45.1542 11.1823 44.9606 11.7527 44.8831C12.5501 44.8057 13.3475 44.7282 14.1458 44.6121C15.6647 44.4572 17.2225 44.341 18.7802 44.3023C20.338 44.2636 21.8948 44.2636 23.4146 44.341C24.2129 44.3797 25.0103 44.4185 25.8077 44.4572C26.606 44.4959 27.4034 44.6895 28.2008 44.5733C28.6954 44.5346 28.8093 43.9151 28.2768 43.7215Z" fill="#EFD6AC"/>
<path d="M17.9072 53.1713C26.1498 53.7908 33.9756 47.3235 36.9392 39.8097C39.4463 33.5351 38.4201 26.1762 33.7858 21.219C28.316 15.3712 18.7046 13.318 11.4105 16.4941C4.23109 19.6314 -0.289362 27.5324 0.0144147 35.4333C0.204275 39.9259 2.02782 44.6121 5.37113 47.5945C8.82748 50.6922 13.234 53.0164 17.9072 53.1713C18.4768 53.1713 18.4388 52.3581 17.9072 52.3194C13.8045 52.0484 10.4232 50.1114 7.95412 46.7417C5.97869 44.0313 4.23109 40.6616 3.47164 37.3307C1.95188 30.7471 4.68675 23.1947 10.4232 19.6314C16.5394 15.7584 25.2005 16.9587 30.7471 21.4513C35.3435 25.1695 37.0152 31.2118 35.6093 36.9434C33.6718 44.767 26.1119 52.3194 17.9072 52.3194C17.3368 52.2807 17.3368 53.1326 17.9072 53.1713Z" fill="#EFD6AC"/>
<path d="M28.5822 18.6247C27.2903 17.4621 25.0111 17.346 23.3774 17.2685C21.326 17.1911 19.2746 17.4621 17.2992 18.0826C13.4243 19.3217 10.0059 21.8773 7.91654 25.4018C5.6753 29.1587 4.15553 32.9155 4.04162 37.3694C4.00365 39.5387 4.26945 41.7071 4.95295 43.7215C5.48544 45.3478 6.32083 47.6332 7.87857 48.4851C7.99249 48.5625 8.14437 48.4464 8.1064 48.2915C7.8406 47.4784 7.30899 46.8192 6.89041 46.0835C6.3588 45.1542 5.94111 44.1474 5.63733 43.1019C5.06687 41.2424 4.83903 39.3064 4.83903 37.3694C4.87701 33.4964 5.94111 28.8489 8.33424 25.7503C10.7274 22.6526 13.8428 20.1735 17.527 18.9732C19.2746 18.3923 21.0982 18.1213 22.9597 18.1213C23.9849 18.1213 25.0111 18.2375 26.0363 18.4698C26.8346 18.6634 27.632 18.9732 28.4303 18.9732C28.6202 18.9344 28.7341 18.7021 28.5822 18.6247Z" fill="#EFD6AC"/>
<path d="M33.1021 27.6872C33.6337 29.3522 34.0134 31.0956 34.0134 32.8768C34.0134 33.7286 33.9755 34.6201 33.8236 35.472C33.7097 36.1302 33.216 37.2919 33.6337 37.8727C33.7097 37.9889 33.8616 38.105 34.0134 38.0276C34.8117 37.7565 34.8497 36.5175 34.9257 35.7818C35.0396 34.8137 35.0775 33.8448 35.0016 32.8768C34.8877 30.9794 34.4311 29.1586 33.5578 27.4936C33.4439 27.1838 32.9882 27.3774 33.1021 27.6872Z" fill="#EFD6AC"/>
<path d="M14.4504 50.4986C16.0841 50.9632 17.7937 51.4288 19.5025 51.3901C20.2248 51.3901 20.9463 51.2739 21.6298 51.0794C22.3142 50.8858 23.1496 50.5373 23.6052 49.9565C23.985 49.4918 23.5293 48.8335 22.9597 49.1046C22.6559 49.2595 22.3901 49.4918 22.1243 49.6467C21.8197 49.8016 21.5159 49.9565 21.2121 50.0726C20.6046 50.305 19.959 50.4211 19.2746 50.4598C17.7169 50.576 16.1221 50.2662 14.6023 49.9565C14.2226 49.8403 14.0707 50.3824 14.4504 50.4986Z" fill="#EFD6AC"/>
<path d="M10.4235 18.8184C11.5255 18.7409 12.6267 18.7022 13.7668 18.7022C14.3364 18.7022 14.868 18.7022 15.4376 18.7409C15.9321 18.7409 16.5396 18.8958 16.9953 18.7022C17.0712 18.6635 17.1092 18.5473 17.0333 18.5086C16.5776 18.2375 15.9321 18.315 15.4376 18.2763C14.868 18.2375 14.3364 18.2375 13.7668 18.2375C12.6267 18.2763 11.5255 18.3537 10.4235 18.586C10.2336 18.586 10.2716 18.8184 10.4235 18.8184Z" fill="#EFD6AC"/>
<path d="M7.42203 20.367C7.57392 20.4058 7.72581 20.4832 7.8777 20.5219C7.99162 20.5219 8.06756 20.5606 8.18148 20.5606C8.48525 20.5994 8.75106 20.5994 9.05484 20.5994C9.58733 20.6381 10.1189 20.6381 10.6885 20.6381C11.2201 20.6381 11.7526 20.6768 12.3222 20.6768C12.8158 20.6768 13.4614 20.793 13.8799 20.5606C13.9939 20.5219 13.9939 20.3283 13.8799 20.2896C13.4234 20.0573 12.7779 20.1347 12.3222 20.1347C11.7906 20.1347 11.2581 20.1347 10.6885 20.1347C10.1569 20.1347 9.6253 20.1347 9.05484 20.1347C8.75106 20.1347 8.48525 20.1347 8.18148 20.1734C8.06756 20.1734 7.99162 20.1734 7.8777 20.2121C7.72581 20.2509 7.57392 20.2896 7.42203 20.3283C7.38406 20.2896 7.38406 20.3283 7.42203 20.367Z" fill="#EFD6AC"/>
<path d="M5.06668 22.7299C5.21945 22.8461 5.44729 22.8461 5.63715 22.8848C5.90295 22.9235 6.16876 22.9235 6.43456 22.9235C6.96617 22.9235 7.49866 22.9623 8.03027 22.9623C8.56188 22.9623 9.09349 22.9623 9.62599 22.9623C9.89179 22.9623 10.1576 22.9623 10.4234 22.9235C10.6133 22.9235 10.8031 22.8848 10.955 22.7299C10.993 22.6912 10.993 22.6138 10.955 22.5751C10.6892 22.2653 10.0057 22.3814 9.62599 22.3814C9.09349 22.3814 8.52391 22.3814 7.9923 22.3814C7.46069 22.3814 6.9282 22.4202 6.39659 22.4202C6.13078 22.4202 5.86498 22.4589 5.59917 22.4976C5.40931 22.5363 5.21945 22.5363 5.06668 22.6525C5.02871 22.6912 5.06668 22.7299 5.06668 22.7299Z" fill="#EFD6AC"/>
<path d="M3.31975 25.0146C4.1931 25.1308 5.06646 25.1308 5.94071 25.1308C6.81406 25.1308 7.68831 25.1695 8.56167 25.1308C8.86544 25.0921 8.86544 24.6662 8.56167 24.6274C7.68831 24.55 6.77609 24.6274 5.90273 24.6274C5.02849 24.6274 4.1931 24.6274 3.31975 24.7823C3.12989 24.7823 3.20583 24.9759 3.31975 25.0146Z" fill="#EFD6AC"/>
<path d="M2.55973 27.1064C2.90148 27.2613 3.24411 27.3 3.62383 27.3387C4.00355 27.3775 4.38327 27.4162 4.763 27.4549C5.14272 27.4549 5.52332 27.4936 5.90304 27.4936C6.28276 27.4936 6.73843 27.5711 7.11815 27.4936C7.53673 27.4162 7.30889 26.7192 6.89032 26.9128C6.7764 26.9515 6.70046 26.9902 6.58654 27.029C6.5106 27.0677 6.5106 27.1451 6.54857 27.2226C6.62451 27.3 6.73843 27.3387 6.81437 27.4162C6.92829 27.2226 7.00423 27.0677 7.11815 26.8741C6.73843 26.7966 6.28276 26.7966 5.90304 26.7966C5.52332 26.7966 5.14272 26.7966 4.763 26.7966C4.38327 26.7966 4.00355 26.8354 3.62383 26.8354C3.24411 26.8354 2.90148 26.8741 2.55973 27.029C2.52176 27.029 2.52176 27.0677 2.55973 27.1064Z" fill="#EFD6AC"/>
<path d="M2.48367 29.817C3.05413 29.8944 3.66168 29.9332 4.23127 29.9719C4.53504 29.9719 4.80085 29.9719 5.10462 29.9719C5.2574 29.9719 5.40928 29.9719 5.5232 29.9719C5.67509 29.9719 5.78901 29.9719 5.94089 29.8557C6.01684 29.7783 6.01684 29.6234 5.94089 29.5847C5.82698 29.4685 5.71306 29.4685 5.5232 29.4685C5.37131 29.4685 5.21942 29.4685 5.06665 29.4685C4.76288 29.4685 4.49707 29.4685 4.19329 29.5072C3.62371 29.5459 3.05413 29.6234 2.44569 29.7008C2.36975 29.7008 2.40772 29.817 2.48367 29.817Z" fill="#EFD6AC"/>
<path d="M1.26886 32.6446C1.87642 32.6446 2.52194 32.6446 3.13038 32.6446C3.43416 32.6446 3.73793 32.6058 4.04171 32.6058C4.34549 32.5671 4.68724 32.6058 4.99102 32.5284C5.18176 32.4897 5.21973 32.1412 4.99102 32.1025C4.68724 32.0637 4.34549 32.1025 4.04171 32.1412C3.73793 32.1799 3.39619 32.1799 3.09241 32.2186C2.48397 32.2961 1.83845 32.3735 1.23089 32.4897C1.11698 32.451 1.15495 32.6446 1.26886 32.6446Z" fill="#EFD6AC"/>
<path d="M1.99012 35.3947C2.10404 35.4334 2.21795 35.4722 2.33187 35.5109C2.44579 35.5496 2.5597 35.5496 2.67362 35.5496C2.90145 35.5496 3.16814 35.5109 3.39597 35.5109C3.88961 35.4722 4.38325 35.5109 4.87689 35.356C5.02877 35.3173 5.06675 35.0075 4.87689 35.0075C4.38325 34.9301 3.88961 35.0075 3.39597 35.0462C3.16814 35.0849 2.90145 35.0849 2.63565 35.1237C2.52173 35.1237 2.40781 35.1624 2.2939 35.2011C2.17998 35.2398 2.06606 35.3173 1.95215 35.356C1.95215 35.3173 1.95215 35.356 1.99012 35.3947Z" fill="#EFD6AC"/>
<path d="M47.9559 91.1649C48.2977 91.436 48.7154 91.6683 49.247 91.7845C50.5009 92.0942 51.679 91.707 52.5903 90.9713C53.2738 90.3905 53.7683 89.6548 54.0721 88.8416C54.4518 87.834 54.4518 86.7111 54.3759 85.6656C54.2619 84.6588 53.9961 83.6512 53.3877 82.7993C52.7422 81.9475 51.7549 81.2505 50.5769 81.3279C50.0073 81.3666 49.4377 81.5602 49.0191 81.87C48.9432 81.8313 48.8673 81.7926 48.7913 81.8313C47.804 82.0249 47.1956 82.9155 46.8539 83.7286C46.4362 84.6588 46.2843 85.6656 46.2463 86.6724C46.1704 88.2986 46.626 90.1582 47.9559 91.1649Z" fill="#EFD6AC"/>
<path d="M59.6176 102.978C59.5416 102.939 59.4277 102.9 59.3518 102.9C59.5796 100.848 58.6683 98.485 57.6801 96.7813C56.6929 95.0766 55.1731 93.6052 53.2736 92.8695C53.0837 92.7921 52.9319 92.7533 52.742 92.6759C52.0585 92.4427 51.4121 92.3652 50.7286 92.3652C50.4628 92.3652 50.159 92.3652 49.8932 92.404C49.2088 92.4823 48.5633 92.6372 47.9178 92.8695C45.7525 93.6827 43.9289 95.3864 43.1315 97.517C42.4471 99.2982 42.1054 101.39 42.3712 103.326C42.0294 103.404 41.7257 103.52 41.5738 103.829C41.5358 103.907 41.5358 103.984 41.6117 104.023C42.0674 104.41 42.5231 104.217 43.0935 104.139C43.891 104.062 44.6884 103.984 45.4867 103.868C47.0056 103.713 48.5633 103.597 50.121 103.558C51.6788 103.52 53.2356 103.52 54.7554 103.597C55.5528 103.636 56.3511 103.675 57.1485 103.713C57.9468 103.752 58.7442 103.946 59.5416 103.829C59.9982 103.791 60.1121 103.171 59.6176 102.978Z" fill="#EFD6AC"/>
<path d="M49.2081 112.389C57.4516 113.008 65.2774 106.541 68.2401 99.0273C70.748 92.7536 69.7219 85.3947 65.0875 80.4375C59.6169 74.5888 50.0064 72.5365 42.7122 75.7117C35.5328 78.849 31.0124 86.75 31.3162 94.6509C31.506 99.1435 33.3296 103.83 36.672 106.812C40.1292 109.949 44.5358 112.273 49.2081 112.389C49.7786 112.389 49.7406 111.576 49.2081 111.537C45.1054 111.266 41.725 109.33 39.2559 105.96C37.2804 103.249 35.5328 99.8792 34.7734 96.5483C33.2536 89.9647 35.9885 82.4123 41.725 78.849C47.8411 74.976 56.5023 76.1772 62.0489 80.6698C66.6453 84.388 68.3169 90.4294 66.9111 96.161C64.9736 103.985 57.4136 111.537 49.2081 111.537C48.6385 111.537 48.6765 112.35 49.2081 112.389Z" fill="#EFD6AC"/>
<path d="M59.884 77.842C58.592 76.6804 56.3128 76.5642 54.6791 76.4868C52.6278 76.4093 50.5764 76.6804 48.6009 77.2999C44.726 78.539 41.3076 81.0955 39.2183 84.6201C36.9771 88.3769 35.4573 92.1329 35.3434 96.5867C35.3054 98.756 35.5712 100.925 36.2547 102.939C36.7872 104.565 37.6226 106.851 39.1803 107.702C39.2942 107.78 39.4461 107.664 39.4082 107.509C39.1424 106.696 38.6099 106.037 38.1922 105.302C37.6606 104.372 37.2429 103.365 36.9391 102.319C36.3686 100.46 36.1408 98.5237 36.1408 96.5867C36.1788 92.7146 37.2429 88.0663 39.636 84.9686C42.0291 81.8699 45.1446 79.3909 48.8288 78.1905C50.5764 77.6097 52.3999 77.3387 54.2614 77.3387C55.2867 77.3387 56.3128 77.4548 57.3381 77.6871C58.1364 77.8808 58.9338 78.1905 59.7312 78.1905C59.9219 78.1905 60.0359 77.9582 59.884 77.842Z" fill="#EFD6AC"/>
<path d="M64.4048 86.9433C64.9365 88.6092 65.3162 90.3517 65.3162 92.1329C65.3162 92.9856 65.2782 93.8762 65.1263 94.7281C65.0124 95.3863 64.5188 96.548 64.9365 97.1297C65.0124 97.2459 65.1643 97.362 65.3162 97.2846C66.1136 97.0135 66.1516 95.7736 66.2284 95.0379C66.3423 94.0698 66.3803 93.1018 66.3043 92.1329C66.1904 90.2355 65.7339 88.4156 64.8605 86.7497C64.7466 86.4399 64.2909 86.6335 64.4048 86.9433Z" fill="#EFD6AC"/>
<path d="M45.7522 109.756C47.3859 110.22 49.0946 110.685 50.8043 110.646C51.5266 110.646 52.2481 110.53 52.9316 110.337C53.616 110.143 54.4514 109.795 54.907 109.214C55.2867 108.748 54.8311 108.09 54.2615 108.361C53.9577 108.516 53.6919 108.748 53.4252 108.903C53.1214 109.058 52.8177 109.214 52.5139 109.33C51.9063 109.562 51.2599 109.678 50.5764 109.717C49.0187 109.833 47.4239 109.523 45.9041 109.214C45.5623 109.098 45.4105 109.64 45.7522 109.756Z" fill="#EFD6AC"/>
<path d="M41.7252 78.0357C42.8264 77.9582 43.9285 77.9195 45.0677 77.9195C45.6381 77.9195 46.1697 77.9195 46.7393 77.9582C47.2339 77.9582 47.8414 78.1131 48.2971 77.9195C48.373 77.8808 48.411 77.7646 48.335 77.7259C47.8794 77.4548 47.2339 77.5323 46.7393 77.4936C46.1697 77.4548 45.6381 77.4548 45.0677 77.4548C43.9285 77.4936 42.8264 77.571 41.7252 77.8033C41.5734 77.842 41.5734 78.0744 41.7252 78.0357Z" fill="#EFD6AC"/>
<path d="M38.7238 79.5848C38.8766 79.6235 39.0285 79.701 39.1803 79.7397C39.2943 79.7397 39.3702 79.7784 39.4841 79.7784C39.7879 79.8171 40.0537 79.8171 40.3575 79.8171C40.8891 79.8559 41.4216 79.8559 41.9912 79.8559C42.5228 79.8559 43.0553 79.8946 43.6248 79.8946C44.1185 79.8946 44.764 80.0107 45.1826 79.7784C45.2965 79.7397 45.2965 79.5461 45.1826 79.5074C44.726 79.275 44.0805 79.3525 43.6248 79.3525C43.0932 79.3525 42.5607 79.3525 41.9912 79.3525C41.4596 79.3525 40.9279 79.3525 40.3575 79.3525C40.0537 79.3525 39.7879 79.3525 39.4841 79.3912C39.3702 79.3912 39.2943 79.3912 39.1803 79.4299C39.0285 79.4686 38.8766 79.5074 38.7238 79.5461C38.6858 79.5461 38.6858 79.5848 38.7238 79.5848Z" fill="#EFD6AC"/>
<path d="M36.3691 81.9863C36.521 82.1024 36.7497 82.1024 36.9396 82.1412C37.2054 82.1799 37.4712 82.1799 37.737 82.1799C38.2686 82.1799 38.8002 82.2186 39.3327 82.2186C39.8643 82.2186 40.396 82.2186 40.9276 82.2186C41.1942 82.2186 41.4601 82.2186 41.7259 82.1799C41.9157 82.1799 42.1056 82.1412 42.2575 81.9863C42.2954 81.9476 42.2954 81.8701 42.2575 81.8314C41.9917 81.5216 41.3082 81.6378 40.9276 81.6378C40.396 81.6378 39.8264 81.6378 39.2948 81.6378C38.7623 81.6378 38.2307 81.6765 37.699 81.6765C37.4332 81.6765 37.1674 81.7152 36.9016 81.754C36.7109 81.7927 36.521 81.7927 36.3691 81.9088C36.3691 81.9476 36.3691 81.9476 36.3691 81.9863Z" fill="#EFD6AC"/>
<path d="M34.6223 84.2717C35.4957 84.3878 36.369 84.3878 37.2433 84.3878C38.1166 84.3878 38.9909 84.4265 39.8642 84.3878C40.168 84.3491 40.168 83.9223 39.8642 83.8835C38.9909 83.8061 38.0787 83.8835 37.2053 83.8835C36.3311 83.8835 35.4957 83.8835 34.6223 84.0384C34.4696 84.0384 34.5075 84.232 34.6223 84.2717Z" fill="#EFD6AC"/>
<path d="M33.8615 86.3239C34.2032 86.4788 34.545 86.5175 34.9256 86.5563C35.3053 86.595 35.685 86.6337 36.0648 86.6724C36.4445 86.6724 36.8251 86.7111 37.2048 86.7111C37.5845 86.7111 38.0402 86.7886 38.4199 86.7111C38.8385 86.6337 38.6098 85.9367 38.1921 86.1303C38.0782 86.169 38.0022 86.2078 37.8883 86.2465C37.8124 86.2852 37.8124 86.3627 37.8503 86.4401C37.9263 86.5175 38.0402 86.5563 38.1161 86.6337C38.23 86.4401 38.306 86.2852 38.4199 86.0916C38.0402 86.0142 37.5845 86.0142 37.2048 86.0142C36.8251 86.0142 36.4445 86.0142 36.0648 86.0142C35.685 86.0142 35.3053 86.0529 34.9256 86.0529C34.545 86.0529 34.2032 86.0916 33.8615 86.2465C33.8235 86.2852 33.8235 86.3239 33.8615 86.3239Z" fill="#EFD6AC"/>
<path d="M33.7861 89.0353C34.3557 89.1127 34.9641 89.1514 35.5337 89.1901C35.8375 89.1901 36.1033 89.1901 36.4071 89.1901C36.559 89.1901 36.7117 89.1901 36.8257 89.1901C36.9775 89.1901 37.0915 89.1901 37.2434 89.074C37.3193 88.9965 37.3193 88.8417 37.2434 88.8029C37.1294 88.6868 37.0155 88.6868 36.8257 88.6868C36.6729 88.6868 36.521 88.6868 36.3691 88.6868C36.0653 88.6868 35.7995 88.6868 35.4958 88.7255C34.9262 88.7642 34.3557 88.8417 33.7482 88.9191C33.7102 88.9578 33.7482 89.0353 33.7861 89.0353Z" fill="#EFD6AC"/>
<path d="M32.5703 91.9007C33.1778 91.9007 33.8234 91.9007 34.4309 91.9007C34.7356 91.9007 35.0394 91.8619 35.3431 91.8619C35.6469 91.8232 35.9887 91.8619 36.2924 91.7845C36.4823 91.7458 36.5203 91.3973 36.2924 91.3586C35.9887 91.3198 35.6469 91.3586 35.3431 91.3973C35.0394 91.436 34.6976 91.436 34.393 91.4747C33.7854 91.5522 33.1399 91.6296 32.5323 91.7458C32.4175 91.7071 32.4555 91.9007 32.5703 91.9007Z" fill="#EFD6AC"/>
<path d="M33.2919 94.612C33.4058 94.6507 33.5197 94.6894 33.6336 94.7282C33.7475 94.7669 33.8615 94.7669 33.9754 94.7669C34.2032 94.7669 34.469 94.7282 34.6977 94.7282C35.1914 94.6894 35.685 94.7282 36.1786 94.5733C36.3305 94.5346 36.3685 94.2248 36.1786 94.2248C35.685 94.1473 35.1914 94.2248 34.6977 94.2635C34.469 94.3022 34.2032 94.3022 33.9374 94.341C33.8235 94.341 33.7096 94.3797 33.5957 94.4184C33.4817 94.4571 33.3678 94.5346 33.2539 94.5733C33.2539 94.5733 33.2539 94.612 33.2919 94.612Z" fill="#EFD6AC"/>
<path d="M168.34 17.9269C168.681 18.1988 169.099 18.4312 169.632 18.5473C170.885 18.8571 172.063 18.4699 172.974 17.7333C173.658 17.1525 174.152 16.4168 174.456 15.6036C174.836 14.5969 174.836 13.473 174.76 12.4276C174.646 11.4208 174.38 10.4141 173.772 9.56128C173.126 8.70941 172.139 8.01243 170.961 8.08987C170.391 8.12859 169.822 8.3222 169.404 8.63197C169.328 8.59325 169.251 8.55453 169.175 8.59325C168.188 8.78686 167.58 9.67745 167.239 10.4915C166.82 11.4208 166.668 12.4276 166.63 13.4343C166.554 15.0228 167.01 16.9201 168.34 17.9269Z" fill="#EFD6AC"/>
<path d="M179.964 29.7008C179.888 29.6621 179.774 29.6234 179.697 29.6234C179.926 27.5711 179.014 25.2082 178.027 23.5045C177.039 21.7998 175.519 20.3284 173.62 19.5927C173.429 19.5153 173.278 19.4766 173.088 19.3991C172.404 19.1668 171.759 19.0894 171.074 19.0894C170.808 19.0894 170.505 19.0894 170.239 19.1281C169.555 19.2055 168.909 19.3604 168.263 19.5927C166.098 20.4059 164.275 22.1096 163.477 24.2402C162.793 26.0214 162.451 28.1132 162.717 30.0493C162.375 30.1267 162.071 30.2429 161.919 30.5536C161.882 30.631 161.882 30.7085 161.957 30.7472C162.413 31.1344 162.869 30.9408 163.439 30.8633C164.237 30.7859 165.034 30.7085 165.832 30.5923C167.352 30.4365 168.909 30.3203 170.467 30.2816C172.024 30.2429 173.582 30.2429 175.101 30.3203C175.899 30.3591 176.697 30.3978 177.494 30.4365C178.293 30.4761 179.09 30.6697 179.888 30.5536C180.382 30.5148 180.496 29.8944 179.964 29.7008Z" fill="#EFD6AC"/>
<path d="M169.594 39.1514C177.837 39.771 185.662 33.3027 188.626 25.789C191.133 19.5152 190.107 12.1564 185.472 7.19916C180.003 1.35044 170.391 -0.701791 163.098 2.47426C155.918 5.61068 151.397 13.5116 151.701 21.4126C151.891 25.9052 153.714 30.5922 157.058 33.5738C160.514 36.6724 164.921 38.9966 169.594 39.1514C170.163 39.1514 170.125 38.3374 169.594 38.2987C165.491 38.0276 162.11 36.0916 159.641 32.7219C157.665 30.0105 155.918 26.6418 155.158 23.3108C153.638 16.7264 156.373 9.17394 162.11 5.61068C168.226 1.73855 176.887 2.93891 182.434 7.43149C187.03 11.1496 188.702 17.1911 187.296 22.9236C185.358 30.7471 177.799 38.2987 169.594 38.2987C169.023 38.26 169.023 39.1127 169.594 39.1514Z" fill="#EFD6AC"/>
<path d="M180.268 4.60399C178.976 3.44235 176.697 3.32619 175.063 3.24875C173.012 3.1713 170.96 3.44235 168.985 4.06189C165.111 5.30098 161.691 7.85748 159.602 11.382C157.361 15.1389 155.841 18.8958 155.727 23.3496C155.689 25.518 155.955 27.6873 156.638 29.7008C157.171 31.328 158.006 33.6126 159.564 34.4644C159.678 34.5419 159.83 34.4257 159.792 34.2708C159.526 33.4577 158.995 32.7994 158.576 32.0637C158.044 31.1344 157.627 30.1267 157.323 29.0813C156.753 27.2226 156.525 25.2857 156.525 23.3496C156.563 19.4766 157.627 14.8291 160.02 11.7305C162.413 8.63191 165.528 6.15375 169.213 4.95248C170.96 4.37166 172.784 4.10062 174.645 4.10062C175.671 4.10062 176.697 4.21678 177.723 4.44911C178.52 4.64271 179.318 4.95248 180.116 4.95248C180.306 4.91376 180.382 4.68144 180.268 4.60399Z" fill="#EFD6AC"/>
<path d="M184.789 13.6664C185.32 15.3324 185.7 17.0748 185.7 18.8569C185.7 19.7088 185.662 20.5994 185.51 21.4512C185.396 22.1095 184.903 23.272 185.32 23.8528C185.396 23.969 185.548 24.0852 185.7 24.0077C186.498 23.7367 186.536 22.4976 186.612 21.761C186.726 20.793 186.764 19.8249 186.688 18.8569C186.574 16.9587 186.119 15.1388 185.244 13.4728C185.13 13.1631 184.675 13.3567 184.789 13.6664Z" fill="#EFD6AC"/>
<path d="M166.136 36.4788C167.77 36.9434 169.479 37.4081 171.188 37.3694C171.91 37.3694 172.632 37.2532 173.315 37.0596C174 36.866 174.835 36.5175 175.291 35.9367C175.671 35.472 175.215 34.8138 174.645 35.0848C174.341 35.2397 174.076 35.472 173.81 35.6269C173.506 35.7818 173.201 35.9367 172.898 36.0529C172.29 36.2852 171.645 36.4013 170.96 36.4401C169.403 36.5562 167.808 36.2465 166.288 35.9367C165.908 35.8205 165.756 36.3626 166.136 36.4788Z" fill="#EFD6AC"/>
<path d="M162.109 4.79762C163.211 4.72017 164.312 4.68145 165.452 4.68145C166.022 4.68145 166.554 4.68145 167.123 4.72017C167.618 4.72017 168.225 4.87506 168.681 4.68145C168.757 4.64273 168.795 4.52657 168.719 4.48785C168.263 4.2168 167.618 4.29424 167.123 4.25552C166.554 4.2168 166.022 4.2168 165.452 4.2168C164.312 4.25552 163.211 4.33296 162.109 4.56529C161.919 4.56529 161.957 4.79762 162.109 4.79762Z" fill="#EFD6AC"/>
<path d="M159.109 6.30868C159.26 6.3474 159.412 6.42485 159.564 6.46357C159.678 6.46357 159.754 6.50229 159.868 6.50229C160.172 6.54101 160.438 6.54101 160.741 6.54101C161.274 6.57973 161.805 6.57973 162.375 6.57973C162.907 6.57973 163.439 6.61845 164.009 6.61845C164.502 6.61845 165.149 6.73462 165.566 6.50229C165.68 6.46357 165.68 6.26996 165.566 6.23124C165.111 5.99891 164.464 6.07636 164.009 6.07636C163.477 6.07636 162.945 6.07636 162.375 6.07636C161.843 6.07636 161.312 6.07636 160.741 6.07636C160.438 6.07636 160.172 6.07636 159.868 6.11508C159.754 6.11508 159.678 6.11508 159.564 6.1538C159.412 6.19252 159.26 6.23124 159.109 6.26996C159.071 6.26996 159.071 6.30868 159.109 6.30868Z" fill="#EFD6AC"/>
<path d="M156.753 8.70943C156.905 8.82559 157.133 8.82559 157.323 8.86431C157.589 8.90303 157.854 8.90303 158.12 8.90303C158.652 8.90303 159.184 8.94176 159.716 8.94176C160.248 8.94176 160.779 8.94176 161.312 8.94176C161.577 8.94176 161.843 8.94176 162.109 8.90303C162.299 8.90303 162.489 8.86431 162.641 8.70943C162.679 8.67071 162.679 8.59326 162.641 8.55454C162.375 8.24477 161.691 8.36094 161.312 8.36094C160.779 8.36094 160.21 8.36094 159.678 8.36094C159.146 8.36094 158.614 8.39966 158.082 8.39966C157.816 8.39966 157.551 8.43838 157.285 8.4771C157.095 8.51582 156.905 8.51582 156.753 8.63199C156.715 8.67071 156.753 8.70943 156.753 8.70943Z" fill="#EFD6AC"/>
<path d="M155.006 10.9949C155.88 11.111 156.754 11.111 157.627 11.111C158.501 11.111 159.375 11.1498 160.248 11.111C160.552 11.0723 160.552 10.6464 160.248 10.6077C159.375 10.5302 158.463 10.6077 157.589 10.6077C156.716 10.6077 155.88 10.6077 155.006 10.7625C154.816 10.7625 154.892 10.9562 155.006 10.9949Z" fill="#EFD6AC"/>
<path d="M154.245 13.0856C154.588 13.2405 154.93 13.2793 155.309 13.318C155.689 13.3567 156.069 13.3954 156.449 13.4341C156.829 13.4341 157.209 13.4729 157.589 13.4729C157.968 13.4729 158.424 13.5503 158.805 13.4729C159.222 13.3954 158.994 12.6984 158.576 12.892C158.462 12.9308 158.386 12.9695 158.272 13.0082C158.196 13.0469 158.196 13.1244 158.234 13.2018C158.31 13.2793 158.424 13.318 158.5 13.3954C158.614 13.2018 158.69 13.0469 158.805 12.8533C158.424 12.7759 157.968 12.7759 157.589 12.7759C157.209 12.7759 156.829 12.7759 156.449 12.7759C156.069 12.7759 155.689 12.8146 155.309 12.8146C154.93 12.8146 154.588 12.8533 154.245 13.0082C154.207 13.0082 154.207 13.0469 154.245 13.0856Z" fill="#EFD6AC"/>
<path d="M154.17 15.797C154.741 15.8744 155.348 15.9131 155.918 15.9519C156.222 15.9519 156.487 15.9519 156.792 15.9519C156.944 15.9519 157.096 15.9519 157.21 15.9519C157.362 15.9519 157.476 15.9519 157.627 15.8357C157.703 15.7583 157.703 15.6034 157.627 15.5647C157.514 15.4485 157.4 15.4485 157.21 15.4485C157.058 15.4485 156.906 15.4485 156.754 15.4485C156.449 15.4485 156.184 15.4485 155.88 15.4872C155.31 15.5259 154.741 15.6034 154.132 15.6808C154.056 15.6808 154.094 15.7583 154.17 15.797Z" fill="#EFD6AC"/>
<path d="M152.954 18.6247C153.562 18.6247 154.207 18.6247 154.816 18.6247C155.12 18.6247 155.423 18.586 155.727 18.586C156.031 18.5473 156.373 18.586 156.677 18.5085C156.867 18.4698 156.905 18.1213 156.677 18.0826C156.373 18.043 156.031 18.0826 155.727 18.1213C155.423 18.16 155.082 18.16 154.778 18.1988C154.17 18.2762 153.524 18.3536 152.916 18.4698C152.803 18.4311 152.84 18.6247 152.954 18.6247Z" fill="#EFD6AC"/>
<path d="M153.677 21.374C153.791 21.4127 153.904 21.4514 154.018 21.4901C154.132 21.5288 154.246 21.5288 154.36 21.5288C154.589 21.5288 154.855 21.4901 155.082 21.4901C155.576 21.4514 156.07 21.4901 156.563 21.3352C156.716 21.2965 156.754 20.9867 156.563 20.9867C156.07 20.9093 155.576 20.9867 155.082 21.0255C154.855 21.0642 154.589 21.0642 154.322 21.1029C154.208 21.1029 154.094 21.1416 153.98 21.1804C153.867 21.2191 153.753 21.2965 153.639 21.3352C153.639 21.2965 153.639 21.3352 153.677 21.374Z" fill="#EFD6AC"/>
<path d="M103.152 46.3546C103.494 46.6257 103.912 46.858 104.444 46.9742C105.697 47.2848 106.875 46.8967 107.787 46.161C108.471 45.5802 108.965 44.8445 109.268 44.0313C109.648 43.0246 109.648 41.9008 109.572 40.8553C109.458 39.8485 109.192 38.8418 108.585 37.989C107.938 37.1371 106.951 36.4402 105.773 36.5176C105.204 36.5563 104.634 36.7499 104.216 37.0597C104.14 37.021 104.064 36.9823 103.988 37.021C103 37.2146 102.393 38.1052 102.051 38.9192C101.632 39.8485 101.481 40.8553 101.443 41.862C101.367 43.4892 101.822 45.3479 103.152 46.3546Z" fill="#EFD6AC"/>
<path d="M114.815 58.1671C114.739 58.1284 114.625 58.0897 114.548 58.0897C114.777 56.0374 113.865 53.6745 112.877 51.9708C111.889 50.2662 110.37 48.7947 108.471 48.059C108.281 47.9816 108.128 47.9429 107.938 47.8654C107.255 47.6331 106.609 47.5557 105.925 47.5557C105.659 47.5557 105.355 47.5557 105.089 47.5944C104.406 47.6718 103.76 47.8267 103.114 48.059C100.949 48.8722 99.1252 50.5759 98.3278 52.7065C97.6434 54.4877 97.3017 56.5795 97.5675 58.5156C97.2257 58.593 96.9219 58.7092 96.7701 59.019C96.7321 59.0964 96.7321 59.1739 96.808 59.2126C97.2637 59.6007 97.7194 59.4062 98.2898 59.3287C99.0872 59.2513 99.8855 59.1739 100.683 59.0577C102.203 58.9028 103.76 58.7866 105.317 58.7479C106.875 58.7092 108.433 58.7092 109.952 58.7866C110.75 58.8254 111.547 58.8641 112.345 58.9028C113.143 58.9415 113.941 59.1351 114.739 59.019C115.194 58.9803 115.308 58.3607 114.815 58.1671Z" fill="#EFD6AC"/>
<path d="M104.406 67.5783C112.65 68.1987 120.475 61.7305 123.438 54.2167C125.945 47.943 124.919 40.5841 120.285 35.6269C114.815 29.7782 105.204 27.7259 97.9104 30.902C90.7301 34.0384 86.2097 41.9394 86.5134 49.8403C86.7033 54.3329 88.5268 59.0191 91.8702 62.0015C95.3265 65.1388 99.733 67.4621 104.406 67.5783C104.976 67.5783 104.938 66.7651 104.406 66.7264C100.304 66.4554 96.9222 64.5193 94.4531 61.1496C92.4777 58.4383 90.7301 55.0686 89.9707 51.7386C88.4509 45.1541 91.1858 37.6017 96.9222 34.0384C103.038 30.1654 111.7 31.3666 117.246 35.8592C121.843 39.5774 123.514 45.6188 122.108 51.3513C120.171 59.174 112.612 66.7264 104.406 66.7264C103.836 66.7264 103.874 67.5396 104.406 67.5783Z" fill="#EFD6AC"/>
<path d="M115.08 33.0315C113.788 31.8698 111.509 31.7537 109.875 31.6762C107.824 31.5988 105.773 31.8698 103.797 32.4894C99.9232 33.7285 96.5039 36.285 94.4146 39.8095C92.1733 43.5664 90.6536 47.3232 90.5397 51.7771C90.5017 53.9455 90.7675 56.1148 91.4519 58.1283C91.9835 59.7555 92.8189 62.04 94.3766 62.8919C94.4905 62.9694 94.6424 62.8532 94.6044 62.6983C94.3386 61.8852 93.807 61.2269 93.3885 60.4912C92.8568 59.5619 92.4392 58.5542 92.1354 57.5088C91.5658 55.6501 91.3371 53.7132 91.3371 51.7771C91.3751 47.9041 92.4392 43.2566 94.8323 40.158C97.2254 37.0594 100.341 34.5803 104.025 33.38C105.773 32.7992 107.596 32.5281 109.458 32.5281C110.484 32.5281 111.509 32.6443 112.535 32.8766C113.333 33.0702 114.13 33.38 114.928 33.38C115.118 33.38 115.232 33.1476 115.08 33.0315Z" fill="#EFD6AC"/>
<path d="M119.601 42.133C120.133 43.7989 120.512 45.5414 120.512 47.3235C120.512 48.1753 120.474 49.0659 120.323 49.9178C120.209 50.576 119.715 51.7386 120.133 52.3194C120.209 52.4356 120.361 52.5517 120.512 52.4743C121.311 52.2032 121.349 50.9633 121.425 50.2276C121.539 49.2595 121.577 48.2915 121.501 47.3235C121.387 45.4252 120.931 43.6053 120.057 41.9394C119.943 41.6296 119.487 41.8232 119.601 42.133Z" fill="#EFD6AC"/>
<path d="M100.948 64.9064C102.582 65.371 104.292 65.8357 106 65.797C106.723 65.797 107.444 65.6808 108.128 65.4872C108.812 65.2936 109.648 64.9451 110.103 64.3643C110.484 63.8996 110.027 63.2405 109.458 63.5115C109.154 63.6673 108.888 63.8996 108.622 64.0545C108.319 64.2094 108.014 64.3643 107.71 64.4805C107.103 64.7128 106.457 64.8289 105.773 64.8677C104.216 64.9838 102.62 64.6741 101.1 64.3643C100.759 64.2868 100.569 64.8289 100.948 64.9064Z" fill="#EFD6AC"/>
<path d="M96.9215 33.2254C98.0236 33.1479 99.1248 33.1092 100.265 33.1092C100.834 33.1092 101.366 33.1092 101.936 33.1479C102.43 33.1479 103.038 33.3028 103.493 33.1092C103.569 33.0705 103.607 32.9543 103.531 32.9156C103.076 32.6445 102.43 32.722 101.936 32.6833C101.366 32.6445 100.834 32.6445 100.265 32.6445C99.1248 32.6833 98.0236 32.7607 96.9215 32.993C96.7696 32.993 96.7696 33.2254 96.9215 33.2254Z" fill="#EFD6AC"/>
<path d="M93.9211 34.7751C94.0729 34.8138 94.2248 34.8913 94.3767 34.93C94.4906 34.93 94.5666 34.9687 94.6805 34.9687C94.9843 35.0074 95.2501 35.0074 95.5539 35.0074C96.0864 35.0462 96.618 35.0462 97.1875 35.0462C97.7192 35.0462 98.2516 35.0849 98.8212 35.0849C99.3149 35.0849 99.9613 35.201 100.379 34.9687C100.493 34.93 100.493 34.7364 100.379 34.6977C99.9233 34.4644 99.2769 34.5419 98.8212 34.5419C98.2896 34.5419 97.758 34.5419 97.1875 34.5419C96.6559 34.5419 96.1243 34.5419 95.5539 34.5419C95.2501 34.5419 94.9843 34.5419 94.6805 34.5815C94.5666 34.5815 94.4906 34.5815 94.3767 34.6202C94.2248 34.6589 94.0729 34.6977 93.9211 34.7364C93.8831 34.7364 93.8831 34.7751 93.9211 34.7751Z" fill="#EFD6AC"/>
<path d="M91.5664 37.1757C91.7183 37.2919 91.9461 37.2919 92.136 37.3306C92.4018 37.3693 92.6676 37.3693 92.9334 37.3693C93.465 37.3693 93.9975 37.4081 94.5291 37.4081C95.0607 37.4081 95.5923 37.4081 96.1248 37.4081C96.3906 37.4081 96.6564 37.4081 96.9222 37.3693C97.1121 37.3693 97.302 37.3306 97.4539 37.1757C97.4918 37.137 97.4918 37.0596 97.4539 37.0209C97.188 36.7111 96.5045 36.8272 96.1248 36.8272C95.5923 36.8272 95.0228 36.8272 94.4911 36.8272C93.9595 36.8272 93.427 36.866 92.8954 36.866C92.6296 36.866 92.3638 36.9047 92.098 36.9434C91.9082 36.9821 91.7183 36.9821 91.5664 37.0983C91.5664 37.0983 91.5664 37.137 91.5664 37.1757Z" fill="#EFD6AC"/>
<path d="M89.8189 39.4226C90.6923 39.5388 91.5665 39.5388 92.4399 39.5388C93.3132 39.5388 94.1875 39.5775 95.0608 39.5388C95.3646 39.5001 95.3646 39.0741 95.0608 39.0354C94.1875 38.958 93.2753 39.0354 92.4019 39.0354C91.5286 39.0354 90.6923 39.0354 89.8189 39.1903C89.667 39.229 89.705 39.4226 89.8189 39.4226Z" fill="#EFD6AC"/>
<path d="M89.0578 41.5134C89.4004 41.6683 89.7422 41.707 90.1219 41.7457C90.5016 41.7844 90.8813 41.8232 91.261 41.8619C91.6416 41.8619 92.0214 41.9006 92.4011 41.9006C92.7808 41.9006 93.2365 41.978 93.6171 41.9006C94.0348 41.8232 93.8069 41.1262 93.3884 41.3198C93.2744 41.3585 93.1985 41.3972 93.0846 41.4359C93.0086 41.4747 93.0086 41.5521 93.0466 41.6295C93.1226 41.707 93.2365 41.7457 93.3124 41.8232C93.4263 41.6295 93.5023 41.4747 93.6171 41.2811C93.2365 41.2036 92.7808 41.2036 92.4011 41.2036C92.0214 41.2036 91.6416 41.2036 91.261 41.2036C90.8813 41.2036 90.5016 41.2423 90.1219 41.2423C89.7422 41.2423 89.4004 41.2811 89.0578 41.4359C89.0198 41.4747 89.0198 41.5134 89.0578 41.5134Z" fill="#EFD6AC"/>
<path d="M88.9824 44.2247C89.5529 44.3022 90.1604 44.3409 90.73 44.3796C91.0338 44.3796 91.2996 44.3796 91.6043 44.3796C91.7561 44.3796 91.908 44.3796 92.0219 44.3796C92.1738 44.3796 92.2878 44.3796 92.4396 44.2634C92.5156 44.186 92.5156 44.0311 92.4396 43.9924C92.3257 43.8762 92.2118 43.8762 92.0219 43.8762C91.8701 43.8762 91.7182 43.8762 91.5663 43.8762C91.2616 43.8762 90.9958 43.8762 90.692 43.9149C90.1225 43.9537 89.5529 44.0311 88.9444 44.1085C88.9065 44.1473 88.9444 44.2247 88.9824 44.2247Z" fill="#EFD6AC"/>
<path d="M87.7669 47.0524C88.3745 47.0524 89.02 47.0524 89.6284 47.0524C89.9322 47.0524 90.236 47.0128 90.5398 47.0128C90.8435 46.9741 91.1853 47.0128 91.4899 46.9354C91.6798 46.8967 91.7178 46.5482 91.4899 46.5094C91.1853 46.4707 90.8435 46.5094 90.5398 46.5482C90.236 46.5869 89.8942 46.5869 89.5905 46.6256C88.982 46.7031 88.3365 46.7805 87.7289 46.8967C87.615 46.8967 87.653 47.0524 87.7669 47.0524Z" fill="#EFD6AC"/>
<path d="M88.4891 49.8017C88.6031 49.8404 88.717 49.8791 88.8309 49.9179C88.9448 49.9566 89.0587 49.9566 89.1726 49.9566C89.4014 49.9566 89.6672 49.9179 89.895 49.9179C90.3886 49.8791 90.8823 49.9179 91.3759 49.763C91.5287 49.7243 91.5667 49.4145 91.3759 49.4145C90.8823 49.337 90.3886 49.4145 89.895 49.4532C89.6672 49.4919 89.4014 49.4919 89.1347 49.5306C89.0208 49.5306 88.9068 49.5694 88.7929 49.6081C88.679 49.6468 88.5651 49.7243 88.4512 49.763C88.4512 49.7243 88.4512 49.8017 88.4891 49.8017Z" fill="#EFD6AC"/>
<path d="M151.169 102.087C151.511 102.358 151.929 102.591 152.461 102.707C153.714 103.017 154.892 102.629 155.804 101.894C156.487 101.313 156.982 100.576 157.286 99.763C157.665 98.7563 157.665 97.6334 157.589 96.587C157.475 95.5802 157.21 94.5735 156.601 93.7216C155.956 92.8697 154.968 92.1718 153.79 92.2493C153.221 92.288 152.651 92.4825 152.233 92.7923C152.157 92.7536 152.081 92.7148 152.005 92.7536C151.017 92.9472 150.41 93.8378 150.067 94.6509C149.65 95.5802 149.498 96.587 149.46 97.5946C149.384 99.1822 149.801 101.08 151.169 102.087Z" fill="#EFD6AC"/>
<path d="M162.792 113.861C162.716 113.822 162.603 113.784 162.527 113.784C162.754 111.731 161.843 109.369 160.856 107.664C159.868 105.96 158.348 104.488 156.448 103.752C156.259 103.675 156.107 103.636 155.917 103.559C155.233 103.326 154.588 103.249 153.903 103.249C153.638 103.249 153.334 103.249 153.068 103.288C152.384 103.365 151.738 103.52 151.093 103.752C148.927 104.565 147.104 106.27 146.306 108.4C145.622 110.182 145.28 112.273 145.546 114.21C145.204 114.287 144.9 114.403 144.749 114.713C144.711 114.79 144.711 114.868 144.787 114.907C145.242 115.294 145.698 115.1 146.268 115.023C147.066 114.945 147.863 114.868 148.661 114.752C150.18 114.597 151.738 114.481 153.296 114.442C154.854 114.403 156.41 114.403 157.93 114.481C158.728 114.519 159.526 114.558 160.323 114.597C161.122 114.636 161.919 114.829 162.716 114.713C163.173 114.674 163.287 114.055 162.792 113.861Z" fill="#EFD6AC"/>
<path d="M152.385 123.311C160.628 123.93 168.454 117.463 171.418 109.949C173.925 103.675 172.899 96.3159 168.264 91.3586C162.794 85.5108 153.183 83.4577 145.889 86.6337C138.71 89.7711 134.189 97.672 134.493 105.573C134.683 110.066 136.506 114.752 139.85 117.734C143.344 120.832 147.751 123.156 152.385 123.311C152.955 123.311 152.917 122.498 152.385 122.459C148.283 122.188 144.902 120.251 142.433 116.881C140.457 114.171 138.71 110.801 137.95 107.47C136.43 100.887 139.165 93.3343 144.902 89.7711C151.018 85.898 159.679 87.0984 165.226 91.591C169.822 95.3091 171.494 101.351 170.088 107.083C168.15 114.907 160.59 122.459 152.385 122.459C151.853 122.42 151.853 123.272 152.385 123.311Z" fill="#EFD6AC"/>
<path d="M163.098 88.7641C161.806 87.6015 159.527 87.4854 157.893 87.4079C155.842 87.3305 153.79 87.6015 151.815 88.2211C147.94 89.4611 144.522 92.0167 142.432 95.5412C140.191 99.2981 138.671 103.055 138.557 107.509C138.519 109.678 138.785 111.846 139.469 113.861C140.001 115.487 140.836 117.773 142.394 118.625C142.508 118.702 142.66 118.586 142.622 118.431C142.356 117.618 141.824 116.959 141.406 116.223C140.874 115.294 140.457 114.287 140.153 113.24C139.582 111.382 139.355 109.446 139.355 107.509C139.393 103.636 140.457 98.9883 142.85 95.8897C145.243 92.792 148.358 90.3129 152.043 89.1126C153.79 88.5317 155.614 88.2598 157.475 88.2598C158.501 88.2598 159.527 88.376 160.552 88.6092C161.35 88.8028 162.148 89.1126 162.945 89.1126C163.136 89.0738 163.212 88.8415 163.098 88.7641Z" fill="#EFD6AC"/>
<path d="M167.58 97.8268C168.111 99.4919 168.491 101.235 168.491 103.016C168.491 103.868 168.453 104.759 168.301 105.612C168.187 106.27 167.694 107.432 168.111 108.012C168.187 108.129 168.339 108.245 168.491 108.167C169.289 107.896 169.327 106.657 169.403 105.921C169.517 104.953 169.555 103.984 169.479 103.016C169.365 101.119 168.909 99.2983 168.035 97.6332C167.96 97.3235 167.504 97.5171 167.58 97.8268Z" fill="#EFD6AC"/>
<path d="M148.966 120.638C150.6 121.103 152.308 121.568 154.018 121.53C154.74 121.53 155.462 121.413 156.145 121.219C156.83 121.025 157.665 120.677 158.121 120.096C158.501 119.631 158.045 118.973 157.475 119.244C157.172 119.399 156.906 119.631 156.639 119.786C156.335 119.941 156.032 120.096 155.728 120.212C155.12 120.445 154.474 120.561 153.79 120.599C152.233 120.716 150.638 120.406 149.118 120.096C148.738 119.98 148.586 120.522 148.966 120.638Z" fill="#EFD6AC"/>
<path d="M144.901 88.958C146.002 88.8806 147.104 88.8419 148.244 88.8419C148.814 88.8419 149.345 88.8419 149.915 88.8806C150.41 88.8806 151.017 89.0355 151.473 88.8419C151.549 88.8031 151.587 88.687 151.511 88.6482C151.055 88.3772 150.41 88.4546 149.915 88.4159C149.345 88.3772 148.814 88.3772 148.244 88.3772C147.104 88.4159 146.002 88.4934 144.901 88.7257C144.749 88.7257 144.787 88.958 144.901 88.958Z" fill="#EFD6AC"/>
<path d="M141.938 90.5067C142.09 90.5454 142.242 90.6228 142.394 90.6616C142.508 90.6616 142.584 90.7003 142.698 90.7003C143.002 90.739 143.267 90.739 143.571 90.739C144.104 90.7777 144.635 90.7777 145.205 90.7777C145.736 90.7777 146.269 90.8165 146.838 90.8165C147.332 90.8165 147.978 90.9326 148.396 90.7003C148.51 90.6616 148.51 90.468 148.396 90.4292C147.94 90.1969 147.294 90.2744 146.838 90.2744C146.307 90.2744 145.774 90.2744 145.205 90.2744C144.673 90.2744 144.142 90.2744 143.571 90.2744C143.267 90.2744 143.002 90.2744 142.698 90.3131C142.584 90.3131 142.508 90.3131 142.394 90.3518C142.242 90.3905 142.09 90.4292 141.938 90.468C141.899 90.4292 141.899 90.468 141.938 90.5067Z" fill="#EFD6AC"/>
<path d="M139.582 92.8697C139.734 92.9858 139.963 92.9858 140.153 93.0246C140.418 93.0633 140.684 93.0633 140.95 93.0633C141.482 93.0633 142.014 93.102 142.546 93.102C143.077 93.102 143.609 93.102 144.141 93.102C144.407 93.102 144.673 93.102 144.939 93.0633C145.129 93.0633 145.319 93.0246 145.471 92.8697C145.508 92.831 145.508 92.7535 145.471 92.7148C145.205 92.4041 144.521 92.5203 144.141 92.5203C143.609 92.5203 143.039 92.5203 142.508 92.5203C141.976 92.5203 141.444 92.5599 140.912 92.5599C140.646 92.5599 140.38 92.5986 140.115 92.6374C139.925 92.6761 139.734 92.6761 139.582 92.7922C139.544 92.831 139.544 92.8697 139.582 92.8697Z" fill="#EFD6AC"/>
<path d="M137.836 95.1543C138.709 95.2705 139.582 95.2705 140.457 95.2705C141.33 95.2705 142.204 95.3092 143.078 95.2705C143.381 95.2317 143.381 94.8058 143.078 94.7671C142.204 94.6896 141.292 94.7671 140.419 94.7671C139.544 94.7671 138.709 94.7671 137.836 94.922C137.645 94.922 137.722 95.1156 137.836 95.1543Z" fill="#EFD6AC"/>
<path d="M137.037 97.246C137.379 97.4009 137.721 97.4397 138.101 97.4784C138.481 97.5171 138.861 97.5558 139.24 97.5945C139.62 97.5945 140.001 97.6333 140.38 97.6333C140.76 97.6333 141.216 97.7107 141.596 97.6333C142.014 97.5558 141.785 96.8588 141.368 97.0524C141.254 97.0912 141.178 97.1299 141.064 97.1686C140.988 97.2073 140.988 97.2848 141.026 97.3622C141.102 97.4397 141.216 97.4784 141.292 97.5558C141.406 97.3622 141.482 97.2073 141.596 97.0137C141.216 96.9363 140.76 96.9363 140.38 96.9363C140.001 96.9363 139.62 96.9363 139.24 96.9363C138.861 96.9363 138.481 96.975 138.101 96.975C137.721 96.975 137.379 97.0137 137.037 97.1686C137.037 97.1686 137.037 97.2073 137.037 97.246Z" fill="#EFD6AC"/>
<path d="M136.999 99.9564C137.569 100.034 138.177 100.073 138.747 100.111C139.051 100.111 139.316 100.111 139.62 100.111C139.772 100.111 139.925 100.111 140.039 100.111C140.191 100.111 140.305 100.111 140.457 99.9951C140.532 99.9177 140.532 99.7628 140.457 99.7241C140.343 99.6079 140.229 99.6079 140.039 99.6079C139.887 99.6079 139.734 99.6079 139.582 99.6079C139.279 99.6079 139.013 99.6079 138.709 99.6466C138.139 99.6854 137.569 99.7628 136.961 99.8402C136.885 99.8402 136.923 99.9564 136.999 99.9564Z" fill="#EFD6AC"/>
<path d="M135.784 102.784C136.392 102.784 137.038 102.784 137.645 102.784C137.95 102.784 138.254 102.745 138.557 102.745C138.861 102.707 139.203 102.745 139.507 102.668C139.697 102.629 139.734 102.281 139.507 102.242C139.203 102.203 138.861 102.242 138.557 102.281C138.254 102.319 137.912 102.319 137.607 102.358C137 102.435 136.354 102.513 135.747 102.629C135.633 102.59 135.671 102.784 135.784 102.784Z" fill="#EFD6AC"/>
<path d="M136.506 105.534C136.62 105.573 136.734 105.612 136.847 105.651C136.961 105.689 137.075 105.689 137.189 105.689C137.417 105.689 137.683 105.651 137.912 105.651C138.405 105.612 138.899 105.651 139.393 105.496C139.544 105.457 139.582 105.147 139.393 105.147C138.899 105.07 138.405 105.147 137.912 105.186C137.683 105.225 137.417 105.225 137.151 105.263C137.037 105.263 136.923 105.302 136.81 105.341C136.696 105.379 136.582 105.457 136.468 105.496C136.468 105.457 136.468 105.496 136.506 105.534Z" fill="#EFD6AC"/>
<path d="M122.335 41.3198C121.994 41.5134 122.222 42.0555 122.601 41.9393C128.452 40.0807 134.074 37.3693 139.696 34.9686C142.507 33.7673 145.28 32.567 148.091 31.3666C149.345 30.8245 150.599 30.2815 151.852 29.7394C153.03 29.236 154.626 28.8488 155.271 27.6485C155.347 27.4936 155.271 27.3387 155.12 27.2613C153.866 26.9128 152.65 27.7259 151.51 28.2293C150.256 28.7714 149.003 29.3135 147.749 29.8556C144.863 31.0956 142.014 32.3734 139.126 33.6125C133.543 36.0915 127.73 38.3374 122.335 41.3198Z" fill="#EFD6AC"/>
<path d="M154.664 30.0879C149.269 32.2959 143.837 34.5418 138.443 36.7498C135.784 37.834 133.124 38.9578 130.465 40.042C129.287 40.5454 128.11 41.0487 126.932 41.5521C125.679 42.0942 124.197 42.5202 123.21 43.4891C123.058 43.644 123.172 43.915 123.4 43.915C124.615 43.915 125.831 43.2955 126.932 42.8686C128.3 42.3265 129.706 41.8232 131.073 41.2423C133.732 40.1582 136.391 39.074 139.05 37.9889C144.369 35.8205 149.725 33.6512 155.044 31.4828C155.879 31.173 155.499 29.7394 154.664 30.0879Z" fill="#EFD6AC"/>
<path d="M133.657 86.8272C131.681 84.1158 129.706 81.4053 127.731 78.6939C123.856 73.3882 120.095 67.9275 115.916 62.8533C115.65 62.5435 115.119 62.9694 115.346 63.3179C118.956 68.973 123.058 74.3175 127.008 79.7394C128.946 82.3733 130.845 85.046 132.783 87.679C133.771 89.0352 134.758 90.3904 135.746 91.7457C136.658 92.9856 137.379 94.2247 138.671 95.0379C138.823 95.154 139.013 94.9604 138.975 94.8055C138.557 93.2567 137.569 92.1716 136.658 90.8938C135.632 89.5773 134.644 88.1824 133.657 86.8272Z" fill="#EFD6AC"/>
<path d="M129.364 76.4095C127.502 73.853 125.641 71.2965 123.779 68.7409C122.791 67.3848 121.804 66.0295 120.816 64.713C119.904 63.5117 119.069 62.1565 118.005 61.111C117.777 60.9174 117.473 61.1497 117.587 61.4208C118.233 62.8535 119.297 64.0934 120.208 65.3712C121.12 66.649 122.032 67.9665 122.943 69.2443C124.843 71.8782 126.742 74.5113 128.604 77.1839C132.327 82.4122 136.088 87.6018 139.811 92.831C140.19 93.5279 141.292 92.831 140.836 92.2105C137.037 86.9435 133.2 81.6765 129.364 76.4095Z" fill="#EFD6AC"/>
<path d="M77.3582 69.98C79.7133 68.1988 82.0685 66.378 84.3857 64.5968C85.6396 63.6288 86.8547 62.6986 88.1087 61.7305C88.9821 61.0336 90.312 60.414 90.5778 59.2515C90.6537 58.9804 90.4639 58.7094 90.1601 58.7094C88.9821 58.6319 87.9568 59.8332 87.0826 60.4915C85.8295 61.4595 84.6135 62.3888 83.3604 63.3568C80.9673 65.2164 78.5353 67.075 76.1422 68.9345C73.787 70.7544 71.4698 72.5365 69.1147 74.3564C66.7975 76.1385 64.1386 77.9197 62.2391 80.1664C61.9733 80.4762 62.315 80.8634 62.6188 80.7085C65.2777 79.4298 67.7088 77.3001 70.064 75.518C72.496 73.6594 74.9271 71.8395 77.3582 69.98Z" fill="#EFD6AC"/>
<path d="M92.7048 60.7237C91.3749 61.0722 90.2357 62.2339 89.1336 63.047C87.9565 63.9385 86.7785 64.8291 85.5634 65.7197C83.0563 67.617 80.5484 69.5153 78.0414 71.4126C75.6103 73.2721 73.1792 75.092 70.7481 76.9516C69.684 77.7647 68.5828 78.6166 67.5187 79.4297C66.3795 80.3599 65.0496 81.2118 64.1383 82.3735C64.0235 82.5283 64.2142 82.7607 64.4041 82.7219C65.6951 82.2186 66.8352 81.2505 67.9743 80.4761C69.1903 79.6233 70.3683 78.7328 71.5834 77.8422C74.1285 75.9835 76.6355 74.0853 79.1434 72.2267C81.5745 70.4059 84.0436 68.5472 86.4747 66.7264C87.6527 65.8359 88.8678 64.9453 90.0458 64.0547C91.1091 63.2406 92.4769 62.5049 93.1984 61.3046C93.3503 60.9948 93.0465 60.6076 92.7048 60.7237Z" fill="#EFD6AC"/>
<path d="M37.5474 33.9997C38.0791 34.1546 38.4967 34.4644 39.0672 34.5805C39.7507 34.7363 40.4342 34.8525 41.1186 34.9687C42.6375 35.2784 44.1572 35.5495 45.677 35.8592C49.3232 36.5562 52.9323 37.2919 56.5794 37.9889C64.1394 39.4225 71.6605 40.9326 79.2205 42.404C80.9302 42.7525 82.6389 43.0632 84.3485 43.4117C85.5266 43.644 87.1973 44.341 88.3374 43.6828C88.5652 43.5279 88.5652 43.2568 88.4133 43.0245C87.6919 42.0943 86.2101 42.0943 85.1468 41.9007C83.665 41.5909 82.1453 41.3199 80.6635 41.0101C77.0552 40.3131 73.4461 39.5774 69.837 38.9191C62.2399 37.4855 54.642 36.0529 47.044 34.8138C45.2973 34.5418 43.5497 34.232 41.7641 33.9997C41.0426 33.8836 40.3203 33.8061 39.5988 33.69C38.8774 33.6125 38.2689 33.7287 37.5474 33.7287C37.4335 33.7287 37.3956 33.9223 37.5474 33.9997Z" fill="#EFD6AC"/>
<path d="M87.0455 47.2847C87.8058 47.4396 88.1476 46.2383 87.3881 46.0834C73.712 42.9857 59.8848 40.3905 46.0568 38.1825C44.3851 37.9114 42.6755 37.6404 41.0047 37.4468C39.7887 37.2919 38.193 36.7885 37.0159 37.2144C36.9399 37.2531 36.902 37.3693 36.9779 37.4468C37.9272 38.0663 39.2951 38.0276 40.3963 38.2212C41.8401 38.4922 43.3219 38.7255 44.7649 38.9965C48.336 39.616 51.8692 40.313 55.4394 40.9713C62.8475 42.404 70.2547 43.8376 77.6628 45.3477C80.7774 45.9672 83.8929 46.6255 87.0455 47.2847Z" fill="#EFD6AC"/>
<path d="M127.008 37.4854C127.73 37.4467 128.414 37.0595 129.059 36.7884C129.82 36.4787 130.579 36.1302 131.301 35.7817C132.858 35.0847 134.416 34.3868 135.936 33.6511C137.493 32.9541 139.05 32.2184 140.57 31.5214C141.33 31.1729 142.052 30.8245 142.811 30.476C143.457 30.1653 144.255 29.9717 144.711 29.3521C144.787 29.236 144.673 29.1198 144.559 29.0811C143.875 29.0037 143.229 29.4683 142.622 29.7394C141.823 30.1266 141.026 30.476 140.228 30.8632C138.747 31.5602 137.265 32.2571 135.784 32.9541C134.302 33.6511 132.82 34.3481 131.339 35.046C130.617 35.3945 129.858 35.743 129.135 36.1302C128.414 36.4787 127.578 36.7884 127.008 37.3693C126.97 37.4467 126.97 37.4854 127.008 37.4854Z" fill="#EFD6AC"/>
<path d="M127.122 82.6445C126.4 81.5216 125.641 80.4374 124.918 79.3135C124.197 78.1906 123.438 77.1064 122.715 76.0222C122.335 75.4405 121.956 74.8984 121.538 74.3563C121.272 73.9691 121.006 73.5432 120.55 73.427C120.512 73.427 120.512 73.427 120.512 73.4657C120.436 73.9304 120.74 74.3176 120.968 74.7048C121.31 75.2856 121.69 75.8664 122.032 76.4482C122.753 77.6098 123.513 78.7327 124.273 79.8944C125.717 82.1411 127.084 84.504 128.717 86.595C129.021 86.9822 129.592 86.4788 129.364 86.0916C128.717 84.8912 127.882 83.7674 127.122 82.6445Z" fill="#EFD6AC"/>
<path d="M74.508 69.0119C75.1165 68.5472 75.762 68.1213 76.3696 67.6557C76.7881 67.346 77.3577 67.1524 77.3197 66.5715C77.3197 66.4941 77.2818 66.4166 77.2058 66.4166C76.6733 66.223 76.2556 66.7264 75.8759 67.0362C75.2684 67.5008 74.6228 67.9277 74.0144 68.3923C72.7993 69.2829 71.6213 70.1735 70.4062 71.0254C68.0501 72.7687 65.695 74.4725 63.4537 76.332C63.2259 76.5256 63.5297 76.8354 63.7575 76.7192C63.8714 76.6805 64.0233 76.6418 64.1381 76.5643C64.2141 76.5643 64.2141 76.4482 64.1381 76.4482C66.4933 74.8984 68.7345 73.2334 71.0137 71.5675C72.1529 70.7156 73.3309 69.8637 74.508 69.0119Z" fill="#EFD6AC"/>
<path d="M41.0034 32.9929C43.8902 33.4963 46.8149 33.806 49.7026 34.3094C51.1076 34.5417 52.5514 34.8137 53.9572 35.1235C55.2863 35.3945 56.7681 35.9366 58.1359 35.7817C58.2878 35.7817 58.3258 35.5881 58.2119 35.5107C57.0339 34.7362 55.4002 34.5417 54.0332 34.232C52.6273 33.9222 51.1835 33.6899 49.7785 33.4188C46.9289 32.9542 43.9662 32.4895 41.0794 32.4895C40.8507 32.5669 40.7747 32.9542 41.0034 32.9929Z" fill="#EFD6AC"/>
<path d="M84.1199 29.1586C84.7654 29.5458 85.4498 29.933 86.0953 30.3202C86.7409 30.7084 87.4253 31.0956 88.1087 31.4441C88.7543 31.7538 89.4387 32.141 90.1601 32.141C90.1981 32.141 90.2361 32.1023 90.2361 32.0636C89.9703 31.4053 89.4007 30.9407 88.8682 30.5148C88.2606 29.9718 87.6151 29.5071 86.9687 29.0424C86.3232 28.5778 85.6777 28.1131 85.0312 27.6098C84.7275 27.3774 84.3857 27.1451 84.0819 26.9128C83.6263 26.5643 83.2466 26.4481 82.7141 26.6804C82.4483 26.7966 82.2964 27.1451 82.2964 27.4161C82.2204 28.3067 83.4364 28.7327 84.1199 29.1586Z" fill="#EFD6AC"/>
<path d="M103.418 17.617C102.924 17.6945 102.583 18.1213 102.545 18.6247C102.507 19.283 102.621 19.9799 102.697 20.6382C102.772 21.3352 102.848 22.0322 102.962 22.7301C103.152 24.0466 103.38 25.3631 103.874 26.5644C103.912 26.6805 104.102 26.7193 104.14 26.5644C104.482 25.2469 104.596 23.8917 104.634 22.5752C104.672 21.916 104.672 21.219 104.634 20.5608C104.634 19.8251 104.634 19.0894 104.52 18.3536C104.444 17.8494 103.874 17.5396 103.418 17.617Z" fill="#EFD6AC"/>
<path d="M120.171 31.87C120.551 31.6764 120.969 31.5215 121.311 31.3279C121.653 31.1343 121.994 30.902 122.336 30.7084C123.059 30.2041 123.78 29.7007 124.463 29.1199C125.11 28.5778 125.755 28.0744 126.401 27.5323C126.705 27.2613 127.008 26.9902 127.351 26.7579C127.731 26.4094 128.149 26.0987 128.149 25.5179C128.149 24.9758 127.579 24.3563 126.971 24.6273C126.553 24.7822 126.287 25.092 125.983 25.4017C125.679 25.6728 125.338 25.9826 125.033 26.2536C124.426 26.8353 123.818 27.3774 123.21 27.9582C122.602 28.5003 122.07 29.1199 121.539 29.7394C121.235 30.0492 120.969 30.3977 120.702 30.7471C120.475 31.0569 120.285 31.4441 120.057 31.7538C119.943 31.7926 120.057 31.9087 120.171 31.87Z" fill="#EFD6AC"/>
<path d="M110.978 74.3175C110.522 73.272 110.104 72.1878 109.458 71.2189C109.42 71.1414 109.306 71.064 109.192 71.064C109.306 71.064 109.117 71.064 109.079 71.064C109.079 71.064 109.041 71.064 109.041 71.1027C108.965 71.1414 108.889 71.2576 108.889 71.3737C109.003 72.5363 109.344 73.6205 109.686 74.7047C109.838 75.2468 110.028 75.7889 110.218 76.3319C110.408 76.9127 110.598 77.4935 110.978 77.9969C111.13 78.2292 111.358 78.3454 111.662 78.2679C111.699 78.2679 111.737 78.2292 111.813 78.1905C112.003 78.113 112.117 77.8807 112.117 77.6484C112.079 77.0288 111.889 76.4867 111.662 75.905C111.434 75.4017 111.206 74.8596 110.978 74.3175Z" fill="#EFD6AC"/>
<path d="M97.9856 69.67C97.529 70.1346 97.2252 70.7155 96.8835 71.2963C96.5417 71.9167 96.2 72.575 95.8962 73.2332C95.5915 73.8528 95.2878 74.4723 94.984 75.1306C94.6802 75.8276 94.2625 76.5642 94.1486 77.3386C94.0727 77.9969 94.8701 78.3841 95.3637 78.1517C95.5536 78.0743 95.6684 77.9194 95.7823 77.7645V77.8033C96.2 77.2224 96.3519 76.4093 96.5797 75.7501C96.8075 75.0919 96.9974 74.3949 97.2252 73.7366C97.4151 73.0784 97.605 72.3814 97.7957 71.7222C97.9476 71.0639 98.1374 70.4444 98.1374 69.7474C98.1374 69.67 98.0235 69.6313 97.9856 69.67Z" fill="#EFD6AC"/>
</svg>
