<svg width="201" height="151" viewBox="0 0 201 151" fill="none" xmlns="http://www.w3.org/2000/svg">
<mask id="mask0_579_5782" style="mask-type:luminance" maskUnits="userSpaceOnUse" x="84" y="24" width="81" height="119">
<path d="M85.2148 24.8594H164.002V142.314H85.2148V24.8594Z" fill="white" stroke="white" stroke-width="1.22591"/>
</mask>
<g mask="url(#mask0_579_5782)">
<path d="M163.933 83.9442C162.542 83.5514 161.099 83.1575 159.629 82.7899C158.58 82.5021 157.504 82.2395 156.402 81.9769C156.534 80.9013 156.586 79.9045 156.639 78.8289C156.691 77.622 156.665 76.4414 156.613 75.2608C156.56 72.9268 156.166 70.5918 155.826 68.2831H155.905V68.2043C155.905 65.5553 155.616 62.8789 154.854 60.3086C154.12 57.7373 152.834 55.2721 150.946 53.2774C149.082 51.2575 146.721 49.7366 144.176 48.6873C141.631 47.6379 138.929 47.0865 136.227 46.8249L135.964 46.7987C135.807 46.1422 135.754 45.513 135.754 44.8565C136.751 44.2011 137.539 43.3356 138.168 42.3913C138.536 41.8661 138.824 41.3157 139.06 40.738C139.138 40.5815 139.191 40.4239 139.244 40.2664C140.293 39.2696 141.264 38.1677 142.051 36.9346C142.864 35.7014 143.547 34.337 143.861 32.8161C144.019 32.0818 144.097 31.2941 143.966 30.4811C143.861 29.6943 143.547 28.8813 142.917 28.2774C142.288 27.727 141.526 27.4119 140.766 27.228C140.058 27.0705 139.349 27.018 138.641 27.0705C137.644 26.1262 136.411 25.497 135.072 25.2344C133.708 24.9718 132.291 25.0506 130.953 25.392C129.641 25.7596 128.329 26.3888 127.49 27.5169C127.07 28.0936 126.808 28.7763 126.782 29.4843C126.729 30.166 126.834 30.8487 127.043 31.5041V31.5304L127.096 33.2625L127.122 34.128C127.148 34.442 127.148 34.6784 127.227 35.0723L127.306 35.4651C127.096 36.5932 127.017 37.7476 127.122 38.9282C127.253 40.2664 127.621 41.6046 128.277 42.7841C128.749 43.6507 129.405 44.4374 130.245 45.0141C130.324 45.408 130.324 45.8019 130.297 46.1947C130.271 46.4048 130.245 46.5886 130.192 46.7724H129.956C127.805 46.9814 125.679 47.2966 123.607 47.848C121.534 48.3721 119.488 49.0801 117.52 49.9204C113.558 51.5989 109.912 53.8814 106.605 56.5567L106.212 56.8718L106.265 57.0294C105.058 56.5567 103.903 55.9013 102.879 55.1145C101.541 54.0915 100.361 52.8583 99.3376 51.5201C97.2914 48.8186 95.7957 45.6968 94.6151 42.4963L94.5888 42.4176L94.5363 42.365C93.5658 41.2107 92.6215 40.0826 91.4671 39.0332C91.1782 38.7706 90.8894 38.5343 90.4703 38.3253C90.3653 38.2728 90.234 38.2202 90.0764 38.194C89.9714 38.194 89.8663 38.194 89.7613 38.2202C89.63 38.2465 89.4987 38.3253 89.4199 38.4041C89.1059 38.7969 89.1846 39.0595 89.1846 39.2696C89.1846 39.2958 89.1846 39.2958 89.1846 39.3221C89.1321 39.2433 89.0796 39.1645 89.0008 39.112C88.4494 38.4828 87.9252 37.8264 87.295 37.2234C86.9536 36.9346 86.6658 36.6195 86.0881 36.4882C85.9306 36.4619 85.7467 36.4882 85.6165 36.5932C85.4852 36.6983 85.3802 36.8295 85.3539 36.9608C85.2489 37.1972 85.2226 37.4335 85.2226 37.6425C85.1701 38.5091 85.3014 39.3484 85.4852 40.1876C85.9043 41.8399 86.7709 43.3881 87.9777 44.5687C89.1321 45.7494 90.4966 46.6936 91.965 47.4804C92.4114 49.9204 93.1456 52.3331 94.0647 54.6419C95.0352 56.9768 96.2159 59.233 97.8156 61.2529C99.3901 63.2465 101.332 65.0301 103.667 66.1319C105.871 67.1813 108.285 67.5751 110.672 67.2338C111.066 68.0468 111.538 68.8345 111.958 69.6213L112.089 69.8576L112.351 69.8051C114.634 69.3587 116.864 68.572 118.858 67.3651C118.937 68.4407 119.015 69.49 119.068 70.5656C119.12 71.7725 119.225 73.0056 119.357 74.2114C119.593 76.4151 119.881 78.6451 120.275 80.8488L115.395 81.1114L105.241 81.688L104.822 81.7143V82.1082L104.953 88.7455V89.0333L105.241 89.007C108.574 88.798 111.932 88.6405 115.263 88.5092C116.181 88.4829 117.127 88.4567 118.045 88.4304C118.49 92.8115 118.884 97.1664 119.252 101.546C119.618 105.98 119.828 110.414 120.065 114.847C120.301 119.281 120.511 123.714 120.851 128.147C121.193 132.581 121.587 136.988 122.007 141.421L122.058 142.051H122.662C125.942 142.104 129.222 142.025 132.449 141.999C135.518 141.972 138.536 141.894 141.473 141.841L141.5 142.314L141.999 142.156C144.99 141.238 147.981 140.345 150.998 139.506L151.181 139.454V139.27C151.26 134.968 151.496 130.692 151.733 126.364C151.969 122.035 152.231 117.68 152.284 113.352C152.44 104.826 152.467 96.3523 152.284 88.2203C152.966 88.3254 153.647 88.4304 154.33 88.5617C155.826 88.798 157.347 89.0333 158.843 89.1909C160.365 89.3484 161.887 89.506 163.381 89.611L163.775 89.6373V89.2434C164.011 87.4073 163.985 85.5975 163.933 83.9442ZM155.982 78.8289C156.087 79.852 156.14 80.9275 156.245 81.9244C155.878 81.8456 155.537 81.7405 155.169 81.6618C153.674 81.2952 152.153 80.9538 150.631 80.6387C150.421 80.5862 150.211 80.5599 150 80.5074C149.974 79.4066 149.87 78.331 149.66 77.2554C149.476 76.2324 149.214 75.2356 148.951 74.2377C148.951 73.4247 148.872 72.6117 148.82 71.7987C148.794 71.1685 148.741 70.5393 148.689 69.8839C148.689 69.595 148.689 69.3324 148.715 69.0436H148.663V68.9648C148.689 68.9648 148.715 68.9648 148.715 68.9648V69.0436C149.791 68.9911 150.867 68.9911 151.943 68.9133C152.913 68.8608 153.91 68.8083 154.88 68.7295C154.854 68.5982 154.854 68.4669 154.828 68.3356C154.854 68.3356 154.88 68.3356 154.88 68.3356L155.353 68.7033C155.196 68.7033 155.012 68.7295 154.854 68.7295C154.959 69.7526 155.064 70.7756 155.222 71.7725L155.458 73.5297L155.668 75.287C155.8 76.4939 155.878 77.6745 155.982 78.8289ZM149.056 80.2984C148.951 80.2721 148.872 80.2721 148.767 80.2459C148.82 79.5106 148.872 78.8026 148.899 78.0684L149.056 80.2984ZM127.831 27.727C128.198 27.2018 128.697 26.7564 129.274 26.4151C129.825 26.0737 130.481 25.8647 131.11 25.7071C132.396 25.392 133.761 25.4182 135.02 25.7596C136.279 26.0999 137.407 26.7827 138.247 27.7532L138.352 27.8845H138.536C139.926 27.9108 141.396 28.1198 142.34 28.9601C143.232 29.7994 143.389 31.3203 143.101 32.6585C142.864 33.8654 142.393 35.046 141.815 36.1741C141.867 35.859 141.894 35.5439 141.815 35.1773C141.736 34.8359 141.5 34.4946 141.186 34.2855C140.713 33.9967 140.24 33.8916 139.769 33.8654V33.8391L139.664 33.3927L139.611 32.7373L138.956 33.9967L138.667 34.5208L138.614 34.6259V34.7572L138.641 35.1773C138.562 35.0723 138.483 34.9672 138.404 34.8622C138.037 34.3633 137.723 33.8654 137.434 33.3402L136.646 31.898L136.437 33.524C136.411 33.6553 136.411 33.7866 136.411 33.9179C136.096 33.7603 135.807 33.6028 135.492 33.4452C135.204 33.2877 134.915 33.1312 134.652 32.9999L133.025 32.0818L133.104 32.2131L133.892 33.6816L133.997 33.8654H134.023L134.076 33.9442H134.049L133.997 33.8654C133.839 33.8129 133.682 33.7603 133.524 33.7078C133.13 33.5765 132.764 33.3665 132.396 33.1837L131.294 32.606L130.664 32.2646L130.533 32.9474C130.506 33.1049 130.506 33.2877 130.533 33.4452C130.481 33.419 130.455 33.419 130.402 33.3927C129.877 33.1312 129.431 32.8423 128.959 32.4747L128.618 32.2131L128.355 32.5535C128.145 32.8423 127.962 33.1574 127.805 33.4715L127.779 33.2362L127.647 31.5041V31.4254C127.122 30.2185 127.043 28.7763 127.831 27.727ZM128.986 42.3913C128.303 41.342 127.831 40.1351 127.621 38.8494C127.437 37.6951 127.464 36.5144 127.726 35.3863L127.91 35.2298L127.962 35.1773L127.989 35.046L128.171 34.4158C128.329 34.0492 128.539 33.7341 128.749 33.3927C129.143 33.7078 129.536 33.9704 129.982 34.2068C130.533 34.4946 131.11 34.7309 131.714 34.8885C131.74 34.8885 131.74 34.8885 131.766 34.9147L132.002 34.1542C132.37 34.3633 132.737 34.5471 133.13 34.7046C133.918 35.046 134.757 35.2823 135.623 35.4388C135.57 35.4126 135.492 35.3863 135.439 35.3611C135.492 35.3863 135.57 35.3863 135.623 35.3863V35.4388C135.649 35.4651 135.702 35.4651 135.728 35.4651L137.775 35.8327L137.932 35.9115C137.905 35.8853 137.905 35.8853 137.879 35.859H137.984C138.01 35.8853 138.037 35.9115 138.063 35.964L137.932 35.8853C138.247 36.2529 138.588 36.5932 138.903 36.9608L139.9 38.0364L139.716 36.6195L139.664 36.2266H139.611V36.2004H139.664L139.637 36.0166V35.9115L139.506 34.8359L139.48 34.8885V34.8097L139.506 34.7572V34.8359L139.559 34.7046H139.506L139.532 34.6521H139.585L139.559 34.7046C140.005 34.6784 140.529 34.7046 140.871 34.8885C141.264 35.0723 141.396 35.5964 141.343 36.1216C141.264 36.6457 141.054 37.1709 140.766 37.6425C140.45 38.1152 140.084 38.5343 139.637 38.9282C139.349 39.4534 139.138 40.0826 138.824 40.5815C138.509 41.1056 138.168 41.6046 137.8 42.0762C137.224 42.8104 136.516 43.4669 135.754 43.991L135.125 44.3061C134.416 44.6475 133.682 44.8565 132.973 44.9353C132.606 44.9878 132.239 44.9353 131.871 44.8303C131.845 44.8303 131.792 44.8051 131.766 44.7788C130.612 44.3324 129.693 43.3881 128.986 42.3913ZM135.413 46.7199L134.521 46.6411L134.862 47.1915C133.419 47.5329 131.897 47.4279 130.506 46.8775C130.585 46.6674 130.638 46.4573 130.69 46.2472C130.769 45.9584 130.822 45.6706 130.874 45.3817C131.032 45.4605 131.215 45.5393 131.373 45.6181C131.426 45.6443 131.452 45.6443 131.504 45.6706C131.95 45.8544 132.449 45.9584 132.973 45.9584C133.682 45.9584 134.363 45.7756 134.967 45.4868C134.967 45.4605 134.967 45.408 134.941 45.3817C135.125 45.3029 135.309 45.1979 135.492 45.0929L135.57 45.1454C135.387 45.2767 135.178 45.408 134.967 45.513C135.072 45.9059 135.204 46.326 135.413 46.7199ZM129.72 48.556L130.061 48.6347H130.14C130.061 48.6347 130.009 48.6347 129.93 48.661C131.976 49.4477 134.337 49.4215 136.358 48.6085C136.384 48.6085 136.411 48.6085 136.463 48.6085C136.122 48.766 135.807 48.9236 135.465 49.0538C134.652 49.369 133.813 49.474 132.973 49.579C132.134 49.6841 131.189 49.6578 130.376 49.2902C130.009 49.1326 129.667 48.9499 129.352 48.7135C129.562 48.6873 129.772 48.661 129.956 48.6347C129.877 48.6085 129.799 48.5822 129.72 48.556ZM107.497 66.8147C106.29 66.5258 105.136 66.1582 104.06 65.5553C101.909 64.3746 100.099 62.6688 98.6296 60.7277C97.1601 58.7604 95.9533 56.5829 94.9827 54.3267C93.9859 52.0716 93.1193 49.7103 92.5689 47.2966L92.5427 47.1653L92.4376 47.1127C90.9419 46.4311 89.5775 45.4605 88.3706 44.3324C87.1637 43.2043 86.377 41.6823 86.0093 40.0826C85.8255 39.2958 85.773 38.4566 85.8255 37.6425C85.8518 37.2497 86.0093 36.8558 86.1932 36.9608C86.4557 37.0134 86.7971 37.3285 87.0587 37.59C88.1605 38.7969 89.1584 40.1351 89.9976 41.552L91.9125 44.7788L90.7056 41.2107C90.4703 40.529 90.234 39.82 90.1814 39.1908V39.112C90.1289 39.0858 90.1027 39.0858 90.0501 39.0595H90.0764C90.1289 39.0595 90.1552 39.007 90.1814 39.007C90.234 38.9545 90.2077 38.9807 90.2077 39.007C90.2077 39.0595 90.2077 39.0858 90.2077 39.1383C90.444 39.2696 90.7056 39.5059 90.9682 39.7149C91.9912 40.6592 92.9103 41.7873 93.8021 42.9154C93.7758 42.8892 93.7758 42.8629 93.7758 42.8367L93.8546 42.9942C93.8283 42.968 93.8283 42.9417 93.8021 42.9417C94.9302 46.221 96.4259 49.4477 98.6034 52.2018C99.7052 53.5925 100.965 54.8782 102.434 55.9013C103.746 56.8455 105.188 57.5535 106.736 58.0262C107.052 58.8654 107.393 59.6784 107.733 60.5187C108.153 61.568 108.547 62.6174 109.071 63.6404L110.541 66.6834C110.62 66.8409 110.698 66.9974 110.777 67.155C109.675 67.1025 108.521 67.05 107.497 66.8147ZM120.038 74.16C119.855 72.9531 119.776 71.7462 119.697 70.5393C119.593 69.3324 119.541 68.1255 119.488 66.8924L119.462 66.4208L119.068 66.6571C117.074 67.8377 114.896 68.677 112.613 69.0173C112.666 69.0961 112.692 69.1749 112.718 69.2537L112.325 69.0698C112.429 69.0698 112.508 69.0436 112.613 69.0173C112.168 68.073 111.695 67.1813 111.301 66.2107L109.989 63.1415C109.544 62.1184 109.203 61.0691 108.809 59.9935C108.521 59.1018 108.18 58.21 107.865 57.3182C111.092 54.957 114.555 52.9371 118.202 51.4414C121.56 50.0769 125.102 49.1851 128.697 48.7398C129.196 49.0538 129.693 49.2902 130.219 49.5265C131.058 49.9204 131.976 50.2607 132.947 50.3395C133.918 50.4445 134.915 50.1819 135.78 49.7366C136.201 49.5265 136.62 49.2377 136.961 48.9236C137.066 48.8186 137.171 48.7398 137.276 48.6347C139.454 48.8711 141.605 49.3164 143.652 50.0517C146.066 50.891 148.348 52.1504 150.263 53.8814C152.179 55.6124 153.569 57.8949 154.461 60.3612C154.907 61.5943 155.222 62.8789 155.432 64.1908C155.616 65.3452 155.695 66.4733 155.721 67.6277L155.274 67.6802C154.146 67.8115 152.992 67.9417 151.864 68.073C150.736 68.2043 149.608 68.4144 148.453 68.5457L148.217 68.572L148.243 68.782C148.269 69.1486 148.296 69.49 148.322 69.8314C148.322 69.8314 148.322 69.8314 148.322 69.8576C148.322 70.4868 148.322 71.116 148.296 71.7462C148.296 72.743 148.296 73.7136 148.243 74.6841C148.138 76.4414 147.954 78.1735 147.692 79.9045L148.269 80.062L148.217 80.0883C148.033 80.062 147.849 80.0095 147.665 79.9833C147.665 79.957 147.692 79.9307 147.665 79.9045L146.092 79.5106L146.039 79.4843H145.934C143.861 79.5368 141.762 79.5631 139.664 79.6681C137.591 79.7207 135.492 79.852 133.419 79.957C130.087 80.1408 126.756 80.4034 123.423 80.665L121.298 80.7437C120.774 78.6188 120.354 76.3889 120.038 74.16ZM132.239 141.159C129.274 141.002 126.335 140.818 123.449 140.739C123.449 140.949 123.475 141.133 123.475 141.343L122.82 140.713C123.03 140.713 123.24 140.739 123.449 140.739C123.161 136.516 122.872 132.266 122.531 128.042C122.163 123.609 121.665 119.202 121.219 114.769C120.747 110.335 120.248 105.928 119.907 101.494C119.567 97.2189 119.278 92.9428 119.015 88.6405H118.595L118.805 88.4041C118.884 88.4041 118.937 88.4041 119.015 88.4041C119.015 88.4829 119.015 88.5617 119.015 88.6405L130.219 88.4829C133.813 88.4304 137.407 88.3254 140.976 88.2203C140.949 92.4176 140.923 96.6149 140.949 100.786C140.949 101.888 140.976 102.99 140.976 104.092C140.949 107.581 140.949 111.069 140.976 114.559L141.186 128.147C141.264 132.66 141.447 137.171 141.579 141.657L132.239 141.159ZM130.192 87.1185L118.569 87.8275L118.124 87.8527L118.15 88.0628C117.231 88.1153 116.313 88.1678 115.368 88.1941C112.115 88.3254 108.888 88.4041 105.635 88.4304V88.7192L105.346 88.4304C105.451 88.4304 105.556 88.4304 105.635 88.4304L105.766 82.5021L105.372 82.5283L105.766 82.1082V82.5021L115.526 82.1607L120.616 81.9506L123.344 81.8193C126.729 81.7405 130.114 81.688 133.498 81.5567C135.57 81.479 137.67 81.4002 139.742 81.2689C141.657 81.1639 143.547 81.0326 145.462 80.9013C145.409 81.8193 145.383 82.7636 145.33 83.7079L145.252 86.463C145.225 86.5943 145.225 86.6994 145.199 86.8296L142.654 86.8559V86.5156L141.815 86.5418C137.932 86.6994 134.049 86.9084 130.192 87.1185ZM141.946 141.421L141.894 141.395C141.92 141.395 141.92 141.395 141.946 141.395V141.421ZM150.998 113.903C150.841 118.153 150.867 122.324 150.893 126.548C150.92 130.692 150.92 134.89 150.814 139.087C150.867 139.061 150.946 139.061 150.998 139.034L150.814 139.296C150.814 139.218 150.814 139.166 150.814 139.087C148.033 139.847 145.252 140.555 142.471 141.264C142.471 141.447 142.471 141.631 142.471 141.789L142.104 141.526V141.343C142.235 141.317 142.34 141.291 142.471 141.238C142.576 136.883 142.707 132.528 142.759 128.174L142.864 114.559C142.864 111.279 142.838 108 142.785 104.721C142.812 103.515 142.812 102.334 142.812 101.127C142.812 96.6937 142.733 92.2601 142.68 87.8275L145.488 87.6174C147.063 87.7224 148.637 87.8012 150.289 87.9052C150.972 87.984 151.627 88.089 152.31 88.1941C151.68 97.0351 151.286 105.482 150.998 113.903ZM163.67 88.8768L163.25 89.2171C163.25 89.0858 163.276 88.9545 163.276 88.8243C161.887 88.6142 160.496 88.4304 159.131 88.2728C157.609 88.089 156.114 87.984 154.593 87.9052C153.254 87.8275 151.916 87.7487 150.578 87.6174C149.03 87.3548 147.43 87.1185 145.803 86.8559C145.803 86.7519 145.803 86.6731 145.829 86.5681C146.039 84.6795 146.25 82.8161 146.432 80.9275L148.086 81.2164L148.715 81.3214C149.266 81.4527 149.791 81.5567 150.316 81.6618C151.759 81.9769 153.228 82.2395 154.723 82.5021C156.219 82.7636 157.688 83.0262 159.21 83.2625C160.732 83.5251 162.279 83.7604 163.854 83.9705C163.644 85.6763 163.46 87.2498 163.302 88.798C163.434 88.8243 163.539 88.8505 163.67 88.8768Z" fill="#0C2221"/>
<path d="M148.715 69.0436C148.689 69.3324 148.689 69.595 148.689 69.8839C148.741 70.5393 148.794 71.1685 148.82 71.7987C148.872 72.6117 148.951 73.4247 148.951 74.2377C149.214 75.2356 149.476 76.2324 149.66 77.2554C149.87 78.331 149.974 79.4066 150 80.5074C150.211 80.5599 150.421 80.5862 150.631 80.6387C152.153 80.9538 153.674 81.2952 155.169 81.6618C155.537 81.7405 155.878 81.8456 156.245 81.9244C156.14 80.9275 156.087 79.852 155.982 78.8289C155.878 77.6745 155.8 76.4939 155.668 75.287L155.458 73.5297L155.222 71.7725C155.064 70.7756 154.959 69.7526 154.854 68.7295C155.012 68.7295 155.196 68.7033 155.353 68.7033L154.88 68.3356C154.88 68.3356 154.854 68.3356 154.828 68.3356C154.854 68.4669 154.854 68.5982 154.88 68.7295C153.91 68.8083 152.913 68.8608 151.943 68.9133C150.867 68.9911 149.791 68.9911 148.715 69.0436ZM148.715 69.0436H148.663V68.9648C148.689 68.9648 148.715 68.9648 148.715 68.9648V69.0436ZM136.646 47.7692L136.62 47.8217M133.997 33.8654L133.892 33.6816L133.104 32.2131L133.025 32.0818L134.652 32.9999C134.915 33.1312 135.204 33.2877 135.492 33.4452C135.807 33.6028 136.096 33.7603 136.411 33.9179C136.411 33.7866 136.411 33.6553 136.437 33.524L136.646 31.898L137.434 33.3402C137.723 33.8654 138.037 34.3633 138.404 34.8622C138.483 34.9672 138.562 35.0723 138.641 35.1773L138.614 34.7572V34.6259L138.667 34.5208L138.956 33.9967L139.611 32.7373L139.664 33.3927L139.769 33.8391V33.8654C140.24 33.8916 140.713 33.9967 141.186 34.2855C141.5 34.4946 141.736 34.8359 141.815 35.1773C141.894 35.5439 141.867 35.859 141.815 36.1741C142.393 35.046 142.864 33.8654 143.101 32.6585C143.389 31.3203 143.232 29.7994 142.34 28.9601C141.396 28.1198 139.926 27.9108 138.536 27.8845H138.352L138.247 27.7532C137.407 26.7827 136.279 26.0999 135.02 25.7596C133.761 25.4182 132.396 25.392 131.11 25.7071C130.481 25.8647 129.825 26.0737 129.274 26.4151C128.697 26.7564 128.198 27.2018 127.831 27.727C127.043 28.7763 127.122 30.2185 127.647 31.4254V31.5041L127.779 33.2362L127.805 33.4715C127.962 33.1574 128.145 32.8423 128.355 32.5535L128.618 32.2131L128.959 32.4747C129.431 32.8423 129.877 33.1312 130.402 33.3927C130.455 33.419 130.481 33.419 130.533 33.4452C130.506 33.2877 130.506 33.1049 130.533 32.9474L130.664 32.2646L131.294 32.606L132.396 33.1837C132.764 33.3665 133.13 33.5765 133.524 33.7078C133.682 33.7603 133.839 33.8129 133.997 33.8654ZM133.997 33.8654H134.023L134.076 33.9442H134.049L133.997 33.8654ZM135.623 35.4388C134.757 35.2823 133.918 35.046 133.13 34.7046C132.737 34.5471 132.37 34.3633 132.002 34.1542L131.766 34.9147C131.74 34.8885 131.74 34.8885 131.714 34.8885C131.11 34.7309 130.533 34.4946 129.982 34.2068C129.536 33.9704 129.143 33.7078 128.749 33.3927C128.539 33.7341 128.329 34.0492 128.171 34.4158L127.989 35.046L127.962 35.1773L127.91 35.2298L127.726 35.3863C127.464 36.5144 127.437 37.6951 127.621 38.8494C127.831 40.1351 128.303 41.342 128.986 42.3913C129.693 43.3881 130.612 44.3324 131.766 44.7788C131.792 44.8051 131.845 44.8303 131.871 44.8303C132.239 44.9353 132.606 44.9878 132.973 44.9353C133.682 44.8565 134.416 44.6475 135.125 44.3061L135.754 43.991C136.516 43.4669 137.224 42.8104 137.8 42.0762C138.168 41.6046 138.509 41.1056 138.824 40.5815C139.138 40.0826 139.349 39.4534 139.637 38.9282C140.084 38.5343 140.45 38.1152 140.766 37.6425C141.054 37.1709 141.264 36.6457 141.343 36.1216C141.396 35.5964 141.264 35.0723 140.871 34.8885C140.529 34.7046 140.005 34.6784 139.559 34.7046M135.623 35.4388C135.57 35.4126 135.492 35.3863 135.439 35.3611C135.492 35.3863 135.57 35.3863 135.623 35.3863V35.4388ZM135.623 35.4388C135.649 35.4651 135.702 35.4651 135.728 35.4651L137.775 35.8327L137.932 35.9115C137.905 35.8853 137.905 35.8853 137.879 35.859H137.984C138.01 35.8853 138.037 35.9115 138.063 35.964L137.932 35.8853C138.247 36.2529 138.588 36.5932 138.903 36.9608L139.9 38.0364L139.716 36.6195L139.664 36.2266H139.611V36.2004H139.664L139.637 36.0166V35.9115L139.506 34.8359M139.506 34.8359L139.48 34.8885V34.8097L139.506 34.7572V34.8359ZM139.506 34.8359L139.559 34.7046M139.559 34.7046H139.506L139.532 34.6521H139.585L139.559 34.7046ZM112.613 69.0173C114.896 68.677 117.074 67.8377 119.068 66.6571L119.462 66.4208L119.488 66.8924C119.541 68.1255 119.593 69.3324 119.697 70.5393C119.776 71.7462 119.855 72.9531 120.038 74.16C120.354 76.3889 120.774 78.6188 121.298 80.7437L123.423 80.665C126.756 80.4034 130.087 80.1408 133.419 79.957C135.492 79.852 137.591 79.7207 139.664 79.6681C141.762 79.5631 143.861 79.5368 145.934 79.4843H146.039L146.092 79.5106L147.665 79.9045C147.692 79.9307 147.665 79.957 147.665 79.9833C147.849 80.0095 148.033 80.062 148.217 80.0883L148.269 80.062L147.692 79.9045C147.954 78.1735 148.138 76.4414 148.243 74.6841C148.296 73.7136 148.296 72.743 148.296 71.7462C148.322 71.116 148.322 70.4868 148.322 69.8576C148.322 69.8314 148.322 69.8314 148.322 69.8314C148.296 69.49 148.269 69.1486 148.243 68.782L148.217 68.572L148.453 68.5457C149.608 68.4144 150.736 68.2043 151.864 68.073C152.992 67.9417 154.146 67.8115 155.274 67.6802L155.721 67.6277C155.695 66.4733 155.616 65.3452 155.432 64.1908C155.222 62.8789 154.907 61.5943 154.461 60.3612C153.569 57.8949 152.179 55.6124 150.263 53.8814C148.348 52.1504 146.066 50.891 143.652 50.0517C141.605 49.3164 139.454 48.8711 137.276 48.6347C137.171 48.7398 137.066 48.8186 136.961 48.9236C136.62 49.2377 136.201 49.5265 135.78 49.7366C134.915 50.1819 133.918 50.4445 132.947 50.3395C131.976 50.2607 131.058 49.9204 130.219 49.5265C129.693 49.2902 129.196 49.0538 128.697 48.7398C125.102 49.1851 121.56 50.0769 118.202 51.4414C114.555 52.9371 111.092 54.957 107.865 57.3182C108.18 58.21 108.521 59.1018 108.809 59.9935C109.203 61.0691 109.544 62.1184 109.989 63.1415L111.301 66.2107C111.695 67.1813 112.168 68.073 112.613 69.0173ZM112.613 69.0173C112.666 69.0961 112.692 69.1749 112.718 69.2537L112.325 69.0698C112.429 69.0698 112.508 69.0436 112.613 69.0173ZM123.449 140.739C126.335 140.818 129.274 141.002 132.239 141.159L141.579 141.657C141.447 137.171 141.264 132.66 141.186 128.147L140.976 114.559C140.949 111.069 140.949 107.581 140.976 104.092C140.976 102.99 140.949 101.888 140.949 100.786C140.923 96.6149 140.949 92.4176 140.976 88.2203C137.407 88.3254 133.813 88.4304 130.219 88.4829L119.015 88.6405M123.449 140.739C123.449 140.949 123.475 141.133 123.475 141.343L122.82 140.713C123.03 140.713 123.24 140.739 123.449 140.739ZM123.449 140.739C123.161 136.516 122.872 132.266 122.531 128.042C122.163 123.609 121.665 119.202 121.219 114.769C120.747 110.335 120.248 105.928 119.907 101.494C119.567 97.2189 119.278 92.9428 119.015 88.6405M119.015 88.6405H118.595L118.805 88.4041C118.884 88.4041 118.937 88.4041 119.015 88.4041C119.015 88.4829 119.015 88.5617 119.015 88.6405ZM105.635 88.4304C108.888 88.4041 112.115 88.3254 115.368 88.1941C116.313 88.1678 117.231 88.1153 118.15 88.0628L118.124 87.8527L118.569 87.8275L130.192 87.1185C134.049 86.9084 137.932 86.6994 141.815 86.5418L142.654 86.5156V86.8559L145.199 86.8296C145.225 86.6994 145.225 86.5943 145.252 86.463L145.33 83.7079C145.383 82.7636 145.409 81.8193 145.462 80.9013C143.547 81.0326 141.657 81.1639 139.742 81.2689C137.67 81.4002 135.57 81.479 133.498 81.5567C130.114 81.688 126.729 81.7405 123.344 81.8193L120.616 81.9506L115.526 82.1607L105.766 82.5021M105.635 88.4304V88.7192L105.346 88.4304C105.451 88.4304 105.556 88.4304 105.635 88.4304ZM105.635 88.4304L105.766 82.5021M105.766 82.5021L105.372 82.5283L105.766 82.1082V82.5021ZM150.814 139.087C150.92 134.89 150.92 130.692 150.893 126.548C150.867 122.324 150.841 118.153 150.998 113.903C151.286 105.482 151.68 97.0351 152.31 88.1941C151.627 88.089 150.972 87.984 150.289 87.9052C148.637 87.8012 147.063 87.7224 145.488 87.6174L142.68 87.8275C142.733 92.2601 142.812 96.6937 142.812 101.127C142.812 102.334 142.812 103.515 142.785 104.721C142.838 108 142.864 111.279 142.864 114.559L142.759 128.174C142.707 132.528 142.576 136.883 142.471 141.238C142.34 141.291 142.235 141.317 142.104 141.343V141.526L142.471 141.789C142.471 141.631 142.471 141.447 142.471 141.264C145.252 140.555 148.033 139.847 150.814 139.087ZM150.814 139.087C150.867 139.061 150.946 139.061 150.998 139.034L150.814 139.296C150.814 139.218 150.814 139.166 150.814 139.087ZM163.933 83.9442C162.542 83.5514 161.099 83.1575 159.629 82.7899C158.58 82.5021 157.504 82.2395 156.402 81.9769C156.534 80.9013 156.586 79.9045 156.639 78.8289C156.691 77.622 156.665 76.4414 156.613 75.2608C156.56 72.9268 156.166 70.5918 155.826 68.2831H155.905V68.2043C155.905 65.5553 155.616 62.8789 154.854 60.3086C154.12 57.7373 152.834 55.2721 150.946 53.2774C149.082 51.2575 146.721 49.7366 144.176 48.6873C141.631 47.6379 138.929 47.0865 136.227 46.8249L135.964 46.7987C135.807 46.1422 135.754 45.513 135.754 44.8565C136.751 44.2011 137.539 43.3356 138.168 42.3913C138.536 41.8661 138.824 41.3157 139.06 40.738C139.138 40.5815 139.191 40.4239 139.244 40.2664C140.293 39.2696 141.264 38.1677 142.051 36.9346C142.864 35.7014 143.547 34.337 143.861 32.8161C144.019 32.0818 144.097 31.2941 143.966 30.4811C143.861 29.6943 143.547 28.8813 142.917 28.2774C142.288 27.727 141.526 27.4119 140.766 27.228C140.058 27.0705 139.349 27.018 138.641 27.0705C137.644 26.1262 136.411 25.497 135.072 25.2344C133.708 24.9718 132.291 25.0506 130.953 25.392C129.641 25.7596 128.329 26.3888 127.49 27.5169C127.07 28.0936 126.808 28.7763 126.782 29.4843C126.729 30.166 126.834 30.8487 127.043 31.5041V31.5304L127.096 33.2625L127.122 34.128C127.148 34.442 127.148 34.6784 127.227 35.0723L127.306 35.4651C127.096 36.5932 127.017 37.7476 127.122 38.9282C127.253 40.2664 127.621 41.6046 128.277 42.7841C128.749 43.6507 129.405 44.4374 130.245 45.0141C130.324 45.408 130.324 45.8019 130.297 46.1947C130.271 46.4048 130.245 46.5886 130.192 46.7724H129.956C127.805 46.9814 125.679 47.2966 123.607 47.848C121.534 48.3721 119.488 49.0801 117.52 49.9204C113.558 51.5989 109.912 53.8814 106.605 56.5567L106.212 56.8718L106.265 57.0294C105.058 56.5567 103.903 55.9013 102.879 55.1145C101.541 54.0915 100.361 52.8583 99.3376 51.5201C97.2914 48.8186 95.7957 45.6968 94.6151 42.4963L94.5888 42.4176L94.5363 42.365C93.5658 41.2107 92.6215 40.0826 91.4671 39.0332C91.1782 38.7706 90.8894 38.5343 90.4703 38.3253C90.3653 38.2728 90.234 38.2202 90.0764 38.194C89.9714 38.194 89.8663 38.194 89.7613 38.2202C89.63 38.2465 89.4987 38.3253 89.4199 38.4041C89.1059 38.7969 89.1846 39.0595 89.1846 39.2696C89.1846 39.2958 89.1846 39.2958 89.1846 39.3221C89.1321 39.2433 89.0796 39.1645 89.0008 39.112C88.4494 38.4828 87.9252 37.8264 87.295 37.2234C86.9536 36.9346 86.6658 36.6195 86.0881 36.4882C85.9306 36.4619 85.7467 36.4882 85.6165 36.5932C85.4852 36.6983 85.3802 36.8295 85.3539 36.9608C85.2489 37.1972 85.2226 37.4335 85.2226 37.6425C85.1701 38.5091 85.3014 39.3484 85.4852 40.1876C85.9043 41.8399 86.7709 43.3881 87.9777 44.5687C89.1321 45.7494 90.4966 46.6936 91.965 47.4804C92.4114 49.9204 93.1456 52.3331 94.0647 54.6419C95.0352 56.9768 96.2159 59.233 97.8156 61.2529C99.3901 63.2465 101.332 65.0301 103.667 66.1319C105.871 67.1813 108.285 67.5751 110.672 67.2338C111.066 68.0468 111.538 68.8345 111.958 69.6213L112.089 69.8576L112.351 69.8051C114.634 69.3587 116.864 68.572 118.858 67.3651C118.937 68.4407 119.015 69.49 119.068 70.5656C119.12 71.7725 119.225 73.0056 119.357 74.2114C119.593 76.4151 119.881 78.6451 120.275 80.8488L115.395 81.1114L105.241 81.688L104.822 81.7143V82.1082L104.953 88.7455V89.0333L105.241 89.007C108.574 88.798 111.932 88.6405 115.263 88.5092C116.181 88.4829 117.127 88.4567 118.045 88.4304C118.49 92.8115 118.884 97.1664 119.252 101.546C119.618 105.98 119.828 110.414 120.065 114.847C120.301 119.281 120.511 123.714 120.851 128.147C121.193 132.581 121.587 136.988 122.007 141.421L122.058 142.051H122.662C125.942 142.104 129.222 142.025 132.449 141.999C135.518 141.972 138.536 141.894 141.473 141.841L141.5 142.314L141.999 142.156C144.99 141.238 147.981 140.345 150.998 139.506L151.181 139.454V139.27C151.26 134.968 151.496 130.692 151.733 126.364C151.969 122.035 152.231 117.68 152.284 113.352C152.44 104.826 152.467 96.3523 152.284 88.2203C152.966 88.3254 153.647 88.4304 154.33 88.5617C155.826 88.798 157.347 89.0333 158.843 89.1909C160.365 89.3484 161.887 89.506 163.381 89.611L163.775 89.6373V89.2434C164.011 87.4073 163.985 85.5975 163.933 83.9442ZM149.056 80.2984C148.951 80.2721 148.872 80.2721 148.767 80.2459C148.82 79.5106 148.872 78.8026 148.899 78.0684L149.056 80.2984ZM135.413 46.7199L134.521 46.6411L134.862 47.1915C133.419 47.5329 131.897 47.4279 130.506 46.8775C130.585 46.6674 130.638 46.4573 130.69 46.2472C130.769 45.9584 130.822 45.6706 130.874 45.3817C131.032 45.4605 131.215 45.5393 131.373 45.6181C131.426 45.6443 131.452 45.6443 131.504 45.6706C131.95 45.8544 132.449 45.9584 132.973 45.9584C133.682 45.9584 134.363 45.7756 134.967 45.4868C134.967 45.4605 134.967 45.408 134.941 45.3817C135.125 45.3029 135.309 45.1979 135.492 45.0929L135.57 45.1454C135.387 45.2767 135.178 45.408 134.967 45.513C135.072 45.9059 135.204 46.326 135.413 46.7199ZM129.72 48.556L130.061 48.6347H130.14C130.061 48.6347 130.009 48.6347 129.93 48.661C131.976 49.4477 134.337 49.4215 136.358 48.6085C136.384 48.6085 136.411 48.6085 136.463 48.6085C136.122 48.766 135.807 48.9236 135.465 49.0538C134.652 49.369 133.813 49.474 132.973 49.579C132.134 49.6841 131.189 49.6578 130.376 49.2902C130.009 49.1326 129.667 48.9499 129.352 48.7135C129.562 48.6873 129.772 48.661 129.956 48.6347C129.877 48.6085 129.799 48.5822 129.72 48.556ZM107.497 66.8147C106.29 66.5258 105.136 66.1582 104.06 65.5553C101.909 64.3746 100.099 62.6688 98.6296 60.7277C97.1601 58.7604 95.9533 56.5829 94.9827 54.3267C93.9859 52.0716 93.1193 49.7103 92.5689 47.2966L92.5427 47.1653L92.4376 47.1127C90.9419 46.4311 89.5775 45.4605 88.3706 44.3324C87.1637 43.2043 86.377 41.6823 86.0093 40.0826C85.8255 39.2958 85.773 38.4566 85.8255 37.6425C85.8518 37.2497 86.0093 36.8558 86.1932 36.9608C86.4557 37.0134 86.7971 37.3285 87.0587 37.59C88.1605 38.7969 89.1584 40.1351 89.9976 41.552L91.9125 44.7788L90.7056 41.2107C90.4703 40.529 90.234 39.82 90.1814 39.1908V39.112C90.1289 39.0858 90.1027 39.0858 90.0501 39.0595H90.0764C90.1289 39.0595 90.1552 39.007 90.1814 39.007C90.234 38.9545 90.2077 38.9807 90.2077 39.007C90.2077 39.0595 90.2077 39.0858 90.2077 39.1383C90.444 39.2696 90.7056 39.5059 90.9682 39.7149C91.9912 40.6592 92.9103 41.7873 93.8021 42.9154C93.7758 42.8892 93.7758 42.8629 93.7758 42.8367L93.8546 42.9942C93.8283 42.968 93.8283 42.9417 93.8021 42.9417C94.9302 46.221 96.4259 49.4477 98.6034 52.2018C99.7052 53.5925 100.965 54.8782 102.434 55.9013C103.746 56.8455 105.188 57.5535 106.736 58.0262C107.052 58.8654 107.393 59.6784 107.733 60.5187C108.153 61.568 108.547 62.6174 109.071 63.6404L110.541 66.6834C110.62 66.8409 110.698 66.9974 110.777 67.155C109.675 67.1025 108.521 67.05 107.497 66.8147ZM141.946 141.421L141.894 141.395C141.92 141.395 141.92 141.395 141.946 141.395V141.421ZM163.67 88.8768L163.25 89.2171C163.25 89.0858 163.276 88.9545 163.276 88.8243C161.887 88.6142 160.496 88.4304 159.131 88.2728C157.609 88.089 156.114 87.984 154.593 87.9052C153.254 87.8275 151.916 87.7487 150.578 87.6174C149.03 87.3548 147.43 87.1185 145.803 86.8559C145.803 86.7519 145.803 86.6731 145.829 86.5681C146.039 84.6795 146.25 82.8161 146.432 80.9275L148.086 81.2164L148.715 81.3214C149.266 81.4527 149.791 81.5567 150.316 81.6618C151.759 81.9769 153.228 82.2395 154.723 82.5021C156.219 82.7636 157.688 83.0262 159.21 83.2625C160.732 83.5251 162.279 83.7604 163.854 83.9705C163.644 85.6763 163.46 87.2498 163.302 88.798C163.434 88.8243 163.539 88.8505 163.67 88.8768Z" stroke="#0C2221" stroke-width="1.22591"/>
</g>
<mask id="mask1_579_5782" style="mask-type:luminance" maskUnits="userSpaceOnUse" x="35" y="27" width="60" height="116">
<path d="M36 28.0864H94.3506V142.314H36V28.0864Z" fill="white" stroke="white" stroke-width="1.22591"/>
</mask>
<g mask="url(#mask1_579_5782)">
<path d="M93.9335 83.079L89.0009 82.6589L83.937 82.266L83.3593 82.2398C83.4906 80.5602 83.6482 78.6716 83.6744 76.7831C83.7532 75.7075 83.6219 74.7895 83.5694 73.7926C83.4906 72.8484 83.4118 71.9041 83.3068 70.986H83.3593V70.881C83.3068 68.8611 83.019 66.8412 82.5201 64.8728C82.0484 62.9055 81.3132 60.9906 80.3426 59.1808C79.3721 57.371 78.1914 55.6652 76.722 54.1705C75.2787 52.6748 73.6255 51.3629 71.8419 50.3136L71.5531 50.156L71.2117 50.2348C70.7401 50.3398 70.2149 50.3923 69.6645 50.3923C69.5857 50.1297 69.5594 49.8945 69.5332 49.6319C69.5069 49.1329 69.5857 48.6351 69.6907 48.1624L69.7695 47.9008C70.3462 47.4807 70.8976 46.9555 71.343 46.3788C71.8944 45.6709 72.3671 44.8831 72.7074 44.0439C73.4164 42.3391 73.5215 40.4243 73.2064 38.6134V38.5871L73.1801 38.4569L73.1538 38.4306L73.0225 37.8529V37.8267L72.9963 37.8004C72.97 37.7216 72.9438 37.6691 72.9175 37.5903L72.97 37.0137L73.1013 35.3089C73.5215 34.0495 73.678 32.58 73.1276 31.2681C72.5761 29.9572 71.2642 29.0392 69.9271 28.6453C68.5626 28.2252 67.0932 28.1989 65.7025 28.514C64.3643 28.8029 63.0261 29.4321 62.003 30.3763C60.6386 30.6915 59.3267 31.3469 58.3036 32.3962C57.2543 33.4718 56.7028 35.0201 56.7553 36.4622C56.7816 37.9317 57.2805 39.3224 58.041 40.5293C58.6975 41.6049 59.6155 42.4967 60.6123 43.2309C60.6386 43.2834 60.6386 43.3622 60.6648 43.4147L60.6911 43.5197V43.5722L60.7174 43.5985C61.0587 44.5428 61.5566 45.4346 62.1868 46.195C62.7372 46.904 63.42 47.507 64.2067 47.9786C64.2067 48.5563 64.1279 49.1592 63.9704 49.7632C63.2624 49.5793 62.5545 49.343 61.9505 49.0279L61.5566 48.8189L61.1638 48.9764C56.7553 50.6549 52.8994 53.6191 50.1705 57.4225C48.8323 59.3384 47.7305 61.4108 46.9952 63.6145C46.261 65.8171 45.8409 68.0996 45.7621 70.4083L45.7358 70.8285H46.1297L45.9984 73.5038C45.9722 74.5531 45.8934 75.5762 45.9459 76.5993L46.0772 79.6947C46.1035 80.5602 46.1297 81.4268 46.1297 82.2923C45.7358 82.3711 45.3693 82.4761 44.9754 82.5549C43.5059 82.8952 42.0375 83.2103 40.5942 83.578C39.1248 83.9183 37.6815 84.3122 36.2383 84.6798L36.0293 84.7313L36.0545 84.9414C36.1333 85.8069 36.2121 86.6734 36.2646 87.5389C36.3171 88.4044 36.3696 89.27 36.3959 90.1355V90.3193L36.5797 90.293C38.0754 90.1617 39.5712 90.0829 41.0659 90.0042C42.5616 89.9264 44.0573 89.7951 45.5531 89.6113L47.1003 89.4013C47.0478 93.441 47.074 97.4808 47.1265 101.547C47.1791 105.744 47.2316 109.968 47.3629 114.165L47.8093 126.757C47.9931 130.954 48.1759 135.151 48.4122 139.349L48.4385 139.743L48.7798 139.821C51.7713 140.556 54.7617 141.291 57.7269 142.078L58.0935 142.183V141.868C61.0325 141.92 64.0229 141.999 67.0932 142.025C70.2674 142.051 73.4952 142.104 76.722 142.078H77.3249L77.3774 141.474C77.7976 137.12 78.1914 132.791 78.5055 128.41C78.8469 124.055 79.057 119.7 79.2933 115.319C79.5296 110.938 79.7387 106.584 80.08 102.23C80.4477 98.0322 80.789 93.8086 81.2344 89.6113C82.1524 89.6376 83.0715 89.6901 83.9895 89.6901C87.2951 89.7951 90.5743 89.8739 93.8547 89.9002H94.1687V89.6113C94.1435 87.3814 94.0122 85.1777 93.9335 83.079ZM76.932 73.9765L76.8795 72.0879V72.0616C76.9058 71.8515 76.9058 71.6677 76.932 71.4577H76.8795V71.3526C76.9058 71.3526 76.932 71.3526 76.9583 71.3526C76.9583 71.3789 76.9583 71.4314 76.9583 71.4577C77.9026 71.4577 78.8731 71.4839 79.8174 71.4839C80.684 71.4839 81.5232 71.4577 82.3888 71.4314C82.3888 71.3001 82.3625 71.1425 82.3625 71.0123H82.415L82.8877 71.4051C82.7039 71.4051 82.5463 71.4051 82.3888 71.4051C82.4413 72.2181 82.4938 73.0322 82.5726 73.8452C82.6513 74.7895 82.8089 75.8125 82.8352 76.7043C82.9139 78.4353 83.124 80.2199 83.3068 82.2135L77.6925 81.8459C77.64 80.9279 77.5875 79.9836 77.4562 79.0655C77.3774 78.2788 77.1946 77.5173 77.0371 76.7306C77.0371 75.8388 76.932 74.8945 76.932 73.9765ZM69.0343 48.7664C69.0605 49.0804 69.113 49.3693 69.1656 49.6581C69.2181 49.8945 69.2706 50.1297 69.3231 50.3661C69.1656 50.3661 69.0343 50.3661 68.8767 50.3661C68.0637 50.3661 67.277 50.3136 66.4629 50.2085C65.8075 50.1035 65.151 49.9995 64.4956 49.8682C64.7056 49.5006 64.8895 49.1067 64.9945 48.6876C64.7844 48.5825 64.6006 48.4512 64.4168 48.3199L64.6531 48.2149C64.7844 48.2937 64.942 48.3462 65.0733 48.425C65.047 48.53 65.0208 48.6088 64.9945 48.7138C65.5712 49.0279 66.2276 49.238 66.9356 49.2642C67.6961 49.2905 68.4313 49.1067 69.0343 48.7664C69.008 48.6351 69.008 48.5038 69.008 48.3725C69.0868 48.3199 69.1918 48.2937 69.2706 48.2412L69.5594 48.425C69.3756 48.5563 69.2181 48.6613 69.0343 48.7664ZM69.008 48.2674V48.0836L69.1656 48.1886C69.113 48.2149 69.0605 48.2412 69.008 48.2674ZM58.5925 40.2404C58.2511 39.6627 58.041 39.0336 57.8834 38.4044C57.7007 37.7742 57.6219 37.145 57.6482 36.4885C57.6744 35.2039 58.146 33.9707 59.0389 33.1052C59.9306 32.2387 61.1375 31.6883 62.3969 31.3994L62.5545 31.3732L62.6595 31.2681C63.5775 30.4026 64.7056 29.826 65.9388 29.5371C67.1719 29.222 68.4839 29.1695 69.7433 29.4058C71.0027 29.6159 72.2095 30.2976 72.8387 31.4257C73.4952 32.58 73.4164 34.0233 73.0225 35.3089L72.8387 37.0137L72.7862 37.3025C72.6024 36.9086 72.3923 36.5673 72.157 36.227L72.1045 36.1482L72.0257 36.0957C71.1602 35.4654 70.2149 35.0463 69.1918 34.7575C68.6152 34.5999 68.0112 34.4949 67.4345 34.4686H67.4083C66.9881 34.4161 66.5417 34.4161 66.0963 34.4686C65.047 34.5474 64.0229 34.8625 63.1311 35.3614C62.2656 35.8593 61.4789 36.5148 60.8749 37.25H61.0587L60.9012 37.3813H60.7699L60.7961 37.3288C60.8224 37.3025 60.8487 37.2763 60.8749 37.25C60.3497 37.25 59.7468 37.3025 59.2741 37.6691C58.8288 38.0368 58.6975 38.6134 58.7238 39.1123C58.7238 39.1649 58.7238 39.2174 58.7238 39.2699C58.7238 39.3224 58.7238 39.3749 58.7238 39.4012C58.855 40.5556 59.5105 41.5524 60.3497 42.3391C60.376 42.4179 60.4023 42.5229 60.4285 42.628C59.6943 41.9189 59.0641 41.1322 58.5925 40.2404ZM64.2067 47.1131C63.7351 46.694 63.2887 46.1688 62.9211 45.6446C62.3969 44.9094 61.9243 44.1226 61.5566 43.2834V43.3884L61.5304 43.2046C61.5304 43.2309 61.5566 43.2571 61.5566 43.2834V43.2046L61.5041 43.1521C61.5041 43.1783 61.5304 43.2046 61.5304 43.2309L61.4526 43.1258L61.5041 43.1783C61.3739 42.8107 61.2163 42.4441 61.0587 42.0502L61.0062 41.9189L60.9274 41.8664C60.5073 41.5524 60.1145 41.1847 59.7993 40.7646C59.4842 40.3455 59.2216 39.8728 59.1429 39.3487C59.1429 39.2962 59.1166 39.2699 59.1166 39.2174C59.1166 39.1911 59.1166 39.1386 59.1166 39.0861C59.1166 38.6659 59.2479 38.2468 59.563 38.0368C59.9569 37.7742 60.481 37.7742 61.0062 37.8529L61.3213 37.8792L61.3476 37.6691C62.6858 36.332 64.4168 35.4917 66.2276 35.3352C66.5942 35.2827 66.9356 35.2827 67.3032 35.3089C68.7465 35.4654 70.1624 36.0169 71.343 36.8824C71.343 36.8561 71.3167 36.8299 71.2905 36.8036L71.4218 36.9349C71.3955 36.9086 71.3692 36.8824 71.343 36.8824C71.6056 37.2763 71.8419 37.7216 72.0257 38.168L72.157 38.771L72.1833 38.9548C72.1833 38.9023 72.157 38.8497 72.157 38.7972L72.2883 39.0598L72.1833 38.9548C72.4711 40.5556 72.4711 42.2078 72.1045 43.8075C71.9207 44.6478 71.5793 45.4346 71.134 46.195C70.7926 46.7465 70.3462 47.2706 69.8483 47.6908L69.9008 47.4807L69.1918 47.7958C68.4839 48.1099 67.7749 48.2937 67.0669 48.1886C66.3579 48.0836 65.6762 47.8221 64.9945 47.4807L64.2067 47.1131ZM48.2021 64.0336C49.0162 61.9875 50.0917 60.0464 51.4562 58.3416C52.7944 56.6095 54.3678 55.0623 56.1262 53.7767C57.7795 52.5698 59.6155 51.5992 61.5041 50.865C61.3739 50.8125 61.2426 50.7337 61.1113 50.6549L61.8717 50.7075C61.7404 50.76 61.6354 50.7862 61.5041 50.8388C62.2394 51.1791 62.9473 51.3891 63.6826 51.573C64.5481 51.783 65.4136 51.9669 66.2802 52.0456C67.1457 52.1507 68.0374 52.1759 68.903 52.1759C69.6645 52.1507 70.425 52.1507 71.2379 51.9931C71.1602 51.9406 71.0552 51.8881 70.9764 51.8356L71.6056 51.9143C71.4743 51.9406 71.3692 51.9669 71.2379 51.9931C72.8387 52.8849 74.3082 53.9867 75.6989 55.2199C77.1421 56.5307 78.453 58.0265 79.5296 59.6525C80.6315 61.3058 81.497 63.0893 82.1262 64.9779C82.7039 66.71 83.0452 68.5198 83.1503 70.3296L82.7826 70.3558C81.7596 70.4346 80.7365 70.4871 79.7124 70.5921C78.6893 70.6709 77.6663 70.8022 76.6432 70.9073L76.3806 70.9335L76.4069 71.1688C76.4331 71.4839 76.4331 71.7728 76.4594 72.0879L76.3543 73.9502C76.2756 74.8682 76.3018 75.7863 76.1705 76.7043L75.5151 81.557C75.7252 81.557 75.909 81.5833 76.0917 81.6096L75.909 81.7671L75.4626 81.7409L75.4888 81.5833C72.052 81.2955 68.6152 81.1379 65.1773 81.0066C61.6879 80.9016 58.2248 80.8753 54.7355 80.8491C54.6829 80.8491 54.6567 80.8491 54.6042 80.8491C54.3678 79.2231 54.1588 77.6223 53.9487 75.9963C53.87 75.1308 53.87 74.238 53.8174 73.3725L53.7912 71.694C53.8174 71.3789 53.8437 71.0638 53.8437 70.7234L53.87 70.4083L53.5023 70.3558C52.3742 70.1983 51.2724 70.0932 50.1443 70.0407C49.0162 69.963 47.8881 69.9367 46.76 69.9105H46.6812C46.9438 67.9158 47.4416 65.9222 48.2021 64.0336ZM53.5023 80.8753C53.4761 80.0886 53.4498 79.2756 53.4498 78.4616C53.4235 78.0425 53.4498 77.5961 53.4761 77.177C53.5811 78.3838 53.6861 79.5897 53.7912 80.8228H53.5023V80.8753ZM46.6549 76.6518C46.76 75.6287 46.865 74.6056 46.9952 73.5826L47.2578 71.0123C47.1003 71.0123 46.9175 70.986 46.76 70.986L46.9175 70.8547H47.2841L47.2578 71.0123C48.2284 71.0638 49.1737 71.09 50.118 71.1163C51.1411 71.1425 52.1641 71.1163 53.1872 71.0638C53.1872 71.0386 53.1872 71.0123 53.1872 70.9598H53.2397V71.0638C53.2135 71.0638 53.2135 71.0638 53.1872 71.0638C53.2135 71.2738 53.2397 71.4839 53.266 71.694L53.3185 73.3462C53.3448 74.238 53.3185 75.1308 53.3973 75.9963C53.4235 76.1539 53.4235 76.2852 53.4498 76.4417C53.4235 76.5993 53.3973 76.7831 53.371 76.9406C53.2922 77.4122 53.161 77.9112 53.1084 78.4091C53.0044 79.2756 52.8469 80.1411 52.7419 81.0066C51.6663 81.2167 50.5644 81.4005 49.4878 81.6096C48.5172 81.7934 47.5467 82.0034 46.6024 82.2135C46.5499 81.3743 46.5236 80.534 46.5236 79.6947C46.4974 78.6979 46.5761 77.6748 46.6549 76.6518ZM47.1265 88.4044V88.5095L45.4743 88.667C43.9786 88.8246 42.5091 89.0074 41.0133 89.2437C39.5974 89.4538 38.1805 89.7164 36.7373 89.9002C36.7373 89.9517 36.7373 90.0304 36.7373 90.0829L36.5534 89.9264C36.606 89.9264 36.6847 89.9002 36.7373 89.9002C36.6847 89.1124 36.6322 88.2994 36.6322 87.4864C36.606 86.6997 36.5797 85.9119 36.5797 85.1252C36.5009 85.1252 36.4484 85.1514 36.3696 85.1514L36.5797 84.8888V85.0989C37.9967 84.8626 39.4136 84.6535 40.8306 84.391C42.299 84.1284 43.7685 83.8395 45.2642 83.5517C48.0719 83.0265 50.826 82.4236 53.5811 81.7146C53.5811 81.7409 53.5811 81.7671 53.5811 81.7934C53.7649 83.8132 53.9487 85.8331 54.1588 87.853C51.9803 87.9843 49.7766 88.1681 47.5992 88.3257L47.1265 88.4044ZM57.7795 141.605L57.5694 141.763C57.5694 141.631 57.5694 141.5 57.5694 141.395C54.8668 140.608 52.1641 139.769 49.4615 138.93V139.296L49.0949 138.825C49.2262 138.851 49.3313 138.903 49.4615 138.93C49.4878 134.837 49.4878 130.745 49.4353 126.678L49.2525 114.061C49.1475 109.864 49.0162 105.666 48.8323 101.469C48.6748 97.4282 48.4647 93.3885 48.2284 89.3487C48.0719 89.375 47.8881 89.4013 47.7305 89.4275L47.8355 89.2962C47.9668 89.27 48.0981 89.27 48.2284 89.2437C48.2284 89.27 48.2284 89.3225 48.2284 89.3487C50.3018 89.0336 52.3742 88.7458 54.4466 88.4044C54.4466 88.4044 54.4466 88.4044 54.4729 88.4044C55.392 88.4307 56.31 88.4307 57.228 88.457C57.1755 92.9169 57.0967 97.3495 57.0967 101.836C57.0967 106.348 57.123 110.86 57.2018 115.346C57.228 116.264 57.228 117.209 57.2543 118.127C57.2805 119.727 57.3068 121.354 57.3331 122.953C57.3593 124.895 57.3856 126.809 57.4643 128.725L57.6219 134.496V134.785C57.6482 136.989 57.6219 139.192 57.5956 141.395C57.6744 141.421 57.7269 141.447 57.8057 141.447V141.605H57.7795ZM79.5821 102.177C79.2408 106.532 78.7681 110.86 78.2965 115.214C77.8501 119.569 77.3511 123.898 77.0108 128.253C76.6694 132.397 76.3543 136.568 76.0917 140.74C76.3018 140.74 76.5119 140.713 76.722 140.713L76.0655 141.343C76.0655 141.133 76.0917 140.95 76.118 140.74C73.2589 140.845 70.3724 141.028 67.487 141.16L58.146 141.71C58.1198 139.035 58.146 136.385 58.1723 133.736V133.683L58.3561 128.095C58.4349 126.18 58.4874 124.292 58.5137 122.403C58.5137 122.062 58.5399 121.72 58.5399 121.38C58.5662 120.016 58.5925 118.677 58.645 117.313C58.6712 116.447 58.6712 115.582 58.6975 114.716C58.8025 110.283 58.8813 105.875 58.9076 101.469C58.9601 97.3495 58.9076 93.2309 58.8813 89.1124C58.6187 89.1124 58.3824 89.0861 58.146 89.0861V88.9548L58.645 88.4832C58.7238 88.4832 58.8025 88.4832 58.8813 88.4832C58.8813 88.6933 58.8813 88.9023 58.8813 89.1124C62.3969 89.2174 65.9388 89.2962 69.4544 89.375L79.7387 89.5326C79.975 89.5588 80.2113 89.5588 80.4739 89.5588C80.2113 93.7824 79.9225 97.9797 79.5821 102.177ZM93.6183 89.6113C93.6183 89.5063 93.6183 89.4013 93.6183 89.2962C90.4441 89.0861 87.2425 88.9286 84.042 88.7983C82.6513 88.7196 81.2606 88.667 79.8699 88.6408L69.4807 88.0106C65.6762 87.8015 61.8717 87.6177 58.041 87.4339L57.2018 87.4076V88.0368C56.3625 87.9843 55.5485 87.9318 54.7092 87.8793C54.6304 87.8793 54.5517 87.8793 54.4991 87.853C54.5779 87.853 54.6567 87.853 54.7092 87.8793L54.3941 81.7934V81.6621C54.4466 81.6621 54.4991 81.6621 54.5517 81.6621C58.0673 81.9509 61.5566 82.266 65.0995 82.4761C68.7465 82.7114 72.3671 82.8427 76.013 82.8952H76.6694V82.7377L83.8845 82.974L93.8809 83.1053C93.8022 85.2302 93.6709 87.2763 93.6446 89.27C93.7496 89.27 93.8284 89.27 93.9335 89.2962L93.6183 89.6113Z" fill="#0C2221"/>
<path d="M69.0343 48.7664C69.0605 49.0804 69.113 49.3693 69.1656 49.6581C69.2181 49.8945 69.2706 50.1297 69.3231 50.3661C69.1656 50.3661 69.0343 50.3661 68.8767 50.3661C68.0637 50.3661 67.277 50.3136 66.4629 50.2085C65.8075 50.1035 65.151 49.9995 64.4956 49.8682C64.7056 49.5006 64.8895 49.1067 64.9945 48.6876C64.7844 48.5825 64.6006 48.4512 64.4168 48.3199L64.6531 48.2149C64.7844 48.2937 64.942 48.3462 65.0733 48.425C65.047 48.53 65.0208 48.6088 64.9945 48.7138C65.5712 49.0279 66.2276 49.238 66.9356 49.2642C67.6961 49.2905 68.4313 49.1067 69.0343 48.7664ZM69.0343 48.7664C69.008 48.6351 69.008 48.5038 69.008 48.3725C69.0868 48.3199 69.1918 48.2937 69.2706 48.2412L69.5594 48.425C69.3756 48.5563 69.2181 48.6613 69.0343 48.7664ZM60.8749 37.25C61.4789 36.5148 62.2656 35.8593 63.1311 35.3614C64.0229 34.8625 65.047 34.5474 66.0963 34.4686C66.5417 34.4161 66.9881 34.4161 67.4083 34.4686H67.4345C68.0112 34.4949 68.6152 34.5999 69.1918 34.7575C70.2149 35.0463 71.1602 35.4654 72.0257 36.0957L72.1045 36.1482L72.157 36.227C72.3923 36.5673 72.6024 36.9086 72.7862 37.3025L72.8387 37.0137L73.0225 35.3089C73.4164 34.0233 73.4952 32.58 72.8387 31.4257C72.2095 30.2976 71.0027 29.6159 69.7433 29.4058C68.4839 29.1695 67.1719 29.222 65.9388 29.5371C64.7056 29.826 63.5775 30.4026 62.6595 31.2681L62.5545 31.3732L62.3969 31.3994C61.1375 31.6883 59.9306 32.2387 59.0389 33.1052C58.146 33.9707 57.6744 35.2039 57.6482 36.4885C57.6219 37.145 57.7007 37.7742 57.8834 38.4044C58.041 39.0336 58.2511 39.6627 58.5925 40.2404C59.0641 41.1322 59.6943 41.9189 60.4285 42.628C60.4023 42.5229 60.376 42.4179 60.3497 42.3391C59.5105 41.5524 58.855 40.5556 58.7238 39.4012C58.7238 39.3749 58.7238 39.3224 58.7238 39.2699C58.7238 39.2174 58.7238 39.1649 58.7238 39.1123C58.6975 38.6134 58.8288 38.0368 59.2741 37.6691C59.7468 37.3025 60.3497 37.25 60.8749 37.25ZM60.8749 37.25H61.0587L60.9012 37.3813H60.7699L60.7961 37.3288C60.8224 37.3025 60.8487 37.2763 60.8749 37.25ZM61.5566 43.2834C61.9243 44.1226 62.3969 44.9094 62.9211 45.6446C63.2887 46.1688 63.7351 46.694 64.2067 47.1131L64.9945 47.4807C65.6762 47.8221 66.3579 48.0836 67.0669 48.1886C67.7749 48.2937 68.4839 48.1099 69.1918 47.7958L69.9008 47.4807L69.8483 47.6908C70.3462 47.2706 70.7926 46.7465 71.134 46.195C71.5793 45.4346 71.9207 44.6478 72.1045 43.8075C72.4711 42.2078 72.4711 40.5556 72.1833 38.9548M61.5566 43.2834V43.3884L61.5304 43.2046C61.5304 43.2309 61.5566 43.2571 61.5566 43.2834ZM61.5566 43.2834V43.2046L61.5041 43.1521C61.5041 43.1783 61.5304 43.2046 61.5304 43.2309L61.4526 43.1258L61.5041 43.1783C61.3739 42.8107 61.2163 42.4441 61.0587 42.0502L61.0062 41.9189L60.9274 41.8664C60.5073 41.5524 60.1145 41.1847 59.7993 40.7646C59.4842 40.3455 59.2216 39.8728 59.1429 39.3487C59.1429 39.2962 59.1166 39.2699 59.1166 39.2174C59.1166 39.1911 59.1166 39.1386 59.1166 39.0861C59.1166 38.6659 59.2479 38.2468 59.563 38.0368C59.9569 37.7742 60.481 37.7742 61.0062 37.8529L61.3213 37.8792L61.3476 37.6691C62.6858 36.332 64.4168 35.4917 66.2276 35.3352C66.5942 35.2827 66.9356 35.2827 67.3032 35.3089C68.7465 35.4654 70.1624 36.0169 71.343 36.8824M71.343 36.8824C71.343 36.8561 71.3167 36.8299 71.2905 36.8036L71.4218 36.9349C71.3955 36.9086 71.3692 36.8824 71.343 36.8824ZM71.343 36.8824C71.6056 37.2763 71.8419 37.7216 72.0257 38.168L72.157 38.771L72.1833 38.9548M72.1833 38.9548C72.1833 38.9023 72.157 38.8497 72.157 38.7972L72.2883 39.0598L72.1833 38.9548ZM71.2379 51.9931C70.425 52.1507 69.6645 52.1507 68.903 52.1759C68.0374 52.1759 67.1457 52.1507 66.2802 52.0456C65.4136 51.9669 64.5481 51.783 63.6826 51.573C62.9473 51.3891 62.2394 51.1791 61.5041 50.8388C61.6354 50.7862 61.7404 50.76 61.8717 50.7075L61.1113 50.6549C61.2426 50.7337 61.3739 50.8125 61.5041 50.865C59.6155 51.5992 57.7795 52.5698 56.1262 53.7767C54.3678 55.0623 52.7944 56.6095 51.4562 58.3416C50.0917 60.0464 49.0162 61.9875 48.2021 64.0336C47.4416 65.9222 46.9438 67.9158 46.6812 69.9105H46.76C47.8881 69.9367 49.0162 69.963 50.1443 70.0407C51.2724 70.0932 52.3742 70.1983 53.5023 70.3558L53.87 70.4083L53.8437 70.7234C53.8437 71.0638 53.8174 71.3789 53.7912 71.694L53.8174 73.3725C53.87 74.238 53.87 75.1308 53.9487 75.9963C54.1588 77.6223 54.3678 79.2231 54.6042 80.8491C54.6567 80.8491 54.6829 80.8491 54.7355 80.8491C58.2248 80.8753 61.6879 80.9016 65.1773 81.0066C68.6152 81.1379 72.052 81.2955 75.4888 81.5833L75.4626 81.7409L75.909 81.7671L76.0917 81.6096C75.909 81.5833 75.7252 81.557 75.5151 81.557L76.1705 76.7043C76.3018 75.7863 76.2756 74.8682 76.3543 73.9502L76.4594 72.0879C76.4331 71.7728 76.4331 71.4839 76.4069 71.1688L76.3806 70.9335L76.6432 70.9073C77.6663 70.8022 78.6893 70.6709 79.7124 70.5921C80.7365 70.4871 81.7596 70.4346 82.7826 70.3558L83.1503 70.3296C83.0452 68.5198 82.7039 66.71 82.1262 64.9779C81.497 63.0893 80.6315 61.3058 79.5296 59.6525C78.453 58.0265 77.1421 56.5307 75.6989 55.2199C74.3082 53.9867 72.8387 52.8849 71.2379 51.9931ZM71.2379 51.9931C71.1602 51.9406 71.0552 51.8881 70.9764 51.8356L71.6056 51.9143C71.4743 51.9406 71.3692 51.9669 71.2379 51.9931ZM54.0275 81.6621H53.9225M47.2578 71.0123L46.9952 73.5826C46.865 74.6056 46.76 75.6287 46.6549 76.6518C46.5761 77.6748 46.4974 78.6979 46.5236 79.6947C46.5236 80.534 46.5499 81.3743 46.6024 82.2135C47.5467 82.0034 48.5172 81.7934 49.4878 81.6096C50.5644 81.4005 51.6663 81.2167 52.7419 81.0066C52.8469 80.1411 53.0044 79.2756 53.1084 78.4091C53.161 77.9112 53.2922 77.4122 53.371 76.9406C53.3973 76.7831 53.4235 76.5993 53.4498 76.4417C53.4235 76.2852 53.4235 76.1539 53.3973 75.9963C53.3185 75.1308 53.3448 74.238 53.3185 73.3462L53.266 71.694C53.2397 71.4839 53.2135 71.2738 53.1872 71.0638M47.2578 71.0123C47.1003 71.0123 46.9175 70.986 46.76 70.986L46.9175 70.8547H47.2841L47.2578 71.0123ZM47.2578 71.0123C48.2284 71.0638 49.1737 71.09 50.118 71.1163C51.1411 71.1425 52.1641 71.1163 53.1872 71.0638M53.1872 71.0638C53.1872 71.0386 53.1872 71.0123 53.1872 70.9598H53.2397V71.0638C53.2135 71.0638 53.2135 71.0638 53.1872 71.0638ZM36.7373 89.9002C38.1805 89.7164 39.5974 89.4538 41.0133 89.2437C42.5091 89.0074 43.9786 88.8246 45.4743 88.667L47.1265 88.5095V88.4044L47.5992 88.3257C49.7766 88.1681 51.9803 87.9843 54.1588 87.853C53.9487 85.8331 53.7649 83.8132 53.5811 81.7934C53.5811 81.7671 53.5811 81.7409 53.5811 81.7146M36.7373 89.9002C36.7373 89.9517 36.7373 90.0304 36.7373 90.0829L36.5534 89.9264C36.606 89.9264 36.6847 89.9002 36.7373 89.9002ZM36.7373 89.9002C36.6847 89.1124 36.6322 88.2994 36.6322 87.4864C36.606 86.6997 36.5797 85.9119 36.5797 85.1252C36.5009 85.1252 36.4484 85.1514 36.3696 85.1514L36.5797 84.8888V85.0989C37.9967 84.8626 39.4136 84.6535 40.8306 84.391C42.299 84.1284 43.7685 83.8395 45.2642 83.5517C48.0719 83.0265 50.826 82.4236 53.5811 81.7146M53.5811 81.7146C53.5548 81.557 53.5548 81.3743 53.5286 81.2167M49.4615 138.93C52.1641 139.769 54.8668 140.608 57.5694 141.395C57.5694 141.5 57.5694 141.631 57.5694 141.763L57.7795 141.605H57.8057V141.447C57.7269 141.447 57.6744 141.421 57.5956 141.395C57.6219 139.192 57.6482 136.989 57.6219 134.785V134.496L57.4643 128.725C57.3856 126.809 57.3593 124.895 57.3331 122.953C57.3068 121.354 57.2805 119.727 57.2543 118.127C57.228 117.209 57.228 116.264 57.2018 115.346C57.123 110.86 57.0967 106.348 57.0967 101.836C57.0967 97.3495 57.1755 92.9169 57.228 88.457C56.31 88.4307 55.392 88.4307 54.4729 88.4044C54.4466 88.4044 54.4466 88.4044 54.4466 88.4044C52.3742 88.7458 50.3018 89.0336 48.2284 89.3487M49.4615 138.93V139.296L49.0949 138.825C49.2262 138.851 49.3313 138.903 49.4615 138.93ZM49.4615 138.93C49.4878 134.837 49.4878 130.745 49.4353 126.678L49.2525 114.061C49.1475 109.864 49.0162 105.666 48.8323 101.469C48.6748 97.4282 48.4647 93.3885 48.2284 89.3487M48.2284 89.3487C48.0719 89.375 47.8881 89.4013 47.7305 89.4275L47.8355 89.2962C47.9668 89.27 48.0981 89.27 48.2284 89.2437C48.2284 89.27 48.2284 89.3225 48.2284 89.3487ZM58.8813 89.1124C58.9076 93.2309 58.9601 97.3495 58.9076 101.469C58.8813 105.875 58.8025 110.283 58.6975 114.716C58.6712 115.582 58.6712 116.447 58.645 117.313C58.5925 118.677 58.5662 120.016 58.5399 121.38C58.5399 121.72 58.5137 122.062 58.5137 122.403C58.4874 124.292 58.4349 126.18 58.3561 128.095L58.1723 133.683V133.736C58.146 136.385 58.1198 139.035 58.146 141.71L67.487 141.16C70.3724 141.028 73.2589 140.845 76.118 140.74C76.0917 140.95 76.0655 141.133 76.0655 141.343L76.722 140.713C76.5119 140.713 76.3018 140.74 76.0917 140.74C76.3543 136.568 76.6694 132.397 77.0108 128.253C77.3511 123.898 77.8501 119.569 78.2965 115.214C78.7681 110.86 79.2408 106.532 79.5821 102.177C79.9225 97.9797 80.2113 93.7824 80.4739 89.5588C80.2113 89.5588 79.975 89.5588 79.7387 89.5326L69.4544 89.375C65.9388 89.2962 62.3969 89.2174 58.8813 89.1124ZM58.8813 89.1124C58.6187 89.1124 58.3824 89.0861 58.146 89.0861V88.9548L58.645 88.4832C58.7238 88.4832 58.8025 88.4832 58.8813 88.4832C58.8813 88.6933 58.8813 88.9023 58.8813 89.1124ZM54.7092 87.8793C55.5485 87.9318 56.3625 87.9843 57.2018 88.0368V87.4076L58.041 87.4339C61.8717 87.6177 65.6762 87.8015 69.4807 88.0106L79.8699 88.6408C81.2606 88.667 82.6513 88.7196 84.042 88.7983C87.2425 88.9286 90.4441 89.0861 93.6183 89.2962C93.6183 89.4013 93.6183 89.5063 93.6183 89.6113L93.9335 89.2962C93.8284 89.27 93.7496 89.27 93.6446 89.27C93.6709 87.2763 93.8022 85.2302 93.8809 83.1053L83.8845 82.974L76.6694 82.7377V82.8952H76.013C72.3671 82.8427 68.7465 82.7114 65.0995 82.4761C61.5566 82.266 58.0673 81.9509 54.5517 81.6621C54.4991 81.6621 54.4466 81.6621 54.3941 81.6621V81.7934L54.7092 87.8793ZM54.7092 87.8793C54.6304 87.8793 54.5517 87.8793 54.4991 87.853C54.5779 87.853 54.6567 87.853 54.7092 87.8793ZM93.9335 83.079L89.0009 82.6589L83.937 82.266L83.3593 82.2398C83.4906 80.5602 83.6482 78.6716 83.6744 76.7831C83.7532 75.7075 83.6219 74.7895 83.5694 73.7926C83.4906 72.8484 83.4118 71.9041 83.3068 70.986H83.3593V70.881C83.3068 68.8611 83.019 66.8412 82.5201 64.8728C82.0484 62.9055 81.3132 60.9906 80.3426 59.1808C79.3721 57.371 78.1914 55.6652 76.722 54.1705C75.2787 52.6748 73.6255 51.3629 71.8419 50.3136L71.5531 50.156L71.2117 50.2348C70.7401 50.3398 70.2149 50.3923 69.6645 50.3923C69.5857 50.1297 69.5594 49.8945 69.5332 49.6319C69.5069 49.1329 69.5857 48.6351 69.6907 48.1624L69.7695 47.9008C70.3462 47.4807 70.8976 46.9555 71.343 46.3788C71.8944 45.6709 72.3671 44.8831 72.7074 44.0439C73.4164 42.3391 73.5215 40.4243 73.2064 38.6134V38.5871L73.1801 38.4569L73.1538 38.4306L73.0225 37.8529V37.8267L72.9963 37.8004C72.97 37.7216 72.9438 37.6691 72.9175 37.5903L72.97 37.0137L73.1013 35.3089C73.5215 34.0495 73.678 32.58 73.1276 31.2681C72.5761 29.9572 71.2642 29.0392 69.9271 28.6453C68.5626 28.2252 67.0932 28.1989 65.7025 28.514C64.3643 28.8029 63.0261 29.4321 62.003 30.3763C60.6386 30.6915 59.3267 31.3469 58.3036 32.3962C57.2543 33.4718 56.7028 35.0201 56.7553 36.4622C56.7816 37.9317 57.2805 39.3224 58.041 40.5293C58.6975 41.6049 59.6155 42.4967 60.6123 43.2309C60.6386 43.2834 60.6386 43.3622 60.6648 43.4147L60.6911 43.5197V43.5722L60.7174 43.5985C61.0587 44.5428 61.5566 45.4346 62.1868 46.195C62.7372 46.904 63.42 47.507 64.2067 47.9786C64.2067 48.5563 64.1279 49.1592 63.9704 49.7632C63.2624 49.5793 62.5545 49.343 61.9505 49.0279L61.5566 48.8189L61.1638 48.9764C56.7553 50.6549 52.8994 53.6191 50.1705 57.4225C48.8323 59.3384 47.7305 61.4108 46.9952 63.6145C46.261 65.8171 45.8409 68.0996 45.7621 70.4083L45.7358 70.8285H46.1297L45.9984 73.5038C45.9722 74.5531 45.8934 75.5762 45.9459 76.5993L46.0772 79.6947C46.1035 80.5602 46.1297 81.4268 46.1297 82.2923C45.7358 82.3711 45.3693 82.4761 44.9754 82.5549C43.5059 82.8952 42.0375 83.2103 40.5942 83.578C39.1248 83.9183 37.6815 84.3122 36.2383 84.6798L36.0293 84.7313L36.0545 84.9414C36.1333 85.8069 36.2121 86.6734 36.2646 87.5389C36.3171 88.4044 36.3696 89.27 36.3959 90.1355V90.3193L36.5797 90.293C38.0754 90.1617 39.5712 90.0829 41.0659 90.0042C42.5616 89.9264 44.0573 89.7951 45.5531 89.6113L47.1003 89.4013C47.0478 93.441 47.074 97.4808 47.1265 101.547C47.1791 105.744 47.2316 109.968 47.3629 114.165L47.8093 126.757C47.9931 130.954 48.1759 135.151 48.4122 139.349L48.4385 139.743L48.7798 139.821C51.7713 140.556 54.7617 141.291 57.7269 142.078L58.0935 142.183V141.868C61.0325 141.92 64.0229 141.999 67.0932 142.025C70.2674 142.051 73.4952 142.104 76.722 142.078H77.3249L77.3774 141.474C77.7976 137.12 78.1914 132.791 78.5055 128.41C78.8469 124.055 79.057 119.7 79.2933 115.319C79.5296 110.938 79.7387 106.584 80.08 102.23C80.4477 98.0322 80.789 93.8086 81.2344 89.6113C82.1524 89.6376 83.0715 89.6901 83.9895 89.6901C87.2951 89.7951 90.5743 89.8739 93.8547 89.9002H94.1687V89.6113C94.1435 87.3814 94.0122 85.1777 93.9335 83.079ZM76.932 73.9765L76.8795 72.0879V72.0616C76.9058 71.8515 76.9058 71.6677 76.932 71.4577H76.8795V71.3526C76.9058 71.3526 76.932 71.3526 76.9583 71.3526C76.9583 71.3789 76.9583 71.4314 76.9583 71.4577C77.9026 71.4577 78.8731 71.4839 79.8174 71.4839C80.684 71.4839 81.5232 71.4577 82.3888 71.4314C82.3888 71.3001 82.3625 71.1425 82.3625 71.0123H82.415L82.8877 71.4051C82.7039 71.4051 82.5463 71.4051 82.3888 71.4051C82.4413 72.2181 82.4938 73.0322 82.5726 73.8452C82.6513 74.7895 82.8089 75.8125 82.8352 76.7043C82.9139 78.4353 83.124 80.2199 83.3068 82.2135L77.6925 81.8459C77.64 80.9279 77.5875 79.9836 77.4562 79.0655C77.3774 78.2788 77.1946 77.5173 77.0371 76.7306C77.0371 75.8388 76.932 74.8945 76.932 73.9765ZM69.008 48.2674V48.0836L69.1656 48.1886C69.113 48.2149 69.0605 48.2412 69.008 48.2674ZM53.5023 80.8753C53.4761 80.0886 53.4498 79.2756 53.4498 78.4616C53.4235 78.0425 53.4498 77.5961 53.4761 77.177C53.5811 78.3838 53.6861 79.5897 53.7912 80.8228H53.5023V80.8753Z" stroke="#0C2221" stroke-width="1.22591"/>
</g>
<mask id="mask2_579_5782" style="mask-type:luminance" maskUnits="userSpaceOnUse" x="81" y="7" width="41" height="32">
<path d="M81.7168 8H120.707V37.7666H81.7168V8Z" fill="white" stroke="white" stroke-width="1.22591"/>
</mask>
<g mask="url(#mask2_579_5782)">
<path d="M82.3937 23.8438C82.9977 25.7859 84.2046 27.4907 85.674 28.8289C88.6119 31.5305 92.3902 33.105 96.2471 33.7604C97.2177 33.9705 98.1882 34.023 99.1588 34.128C100.13 34.1543 101.127 34.2068 102.098 34.1543C103.934 34.0755 105.771 33.8129 107.554 33.314C109.339 34.4158 111.228 35.3087 113.17 35.9904C115.216 36.6983 117.341 37.2235 119.493 37.5376L120.516 37.6951L119.676 37.1185C118.626 36.4105 117.682 35.544 116.869 34.5734C116.029 33.6029 115.373 32.501 114.848 31.3466L114.298 29.7207C115.846 28.6451 117.262 27.3594 118.339 25.7597C119.388 24.1589 120.07 22.1653 119.912 20.1717C119.833 18.1518 119.047 16.2107 117.84 14.6362C116.607 13.0365 115.032 11.7771 113.327 10.8328C109.89 8.86541 105.955 8.05242 102.124 8.02616C100.183 7.9999 98.267 8.18267 96.4047 8.5503C94.5151 8.91793 92.679 9.41581 90.9207 10.2025C89.1634 10.9641 87.4838 11.9346 86.0144 13.194C84.5449 14.4524 83.2865 16.0269 82.5775 17.9155C82.3675 18.3619 82.2887 18.886 82.1574 19.3587C82.0534 19.8566 82.0534 20.3555 81.9746 20.8534C82.0009 21.3523 82.0009 21.8764 82.0534 22.3754C82.1836 22.847 82.2362 23.3722 82.3937 23.8438ZM83.4693 18.2306C83.9945 16.4985 85.0963 14.9513 86.4345 13.6919C87.7727 12.4062 89.3724 11.4094 91.1045 10.649C92.8103 9.86222 94.6464 9.38955 96.4835 9.07549C97.4015 8.91793 98.3458 8.86541 99.2901 8.78664C100.235 8.78664 101.153 8.76038 102.098 8.83915C105.823 9.10175 109.47 10.1773 112.645 11.9609C114.219 12.8789 115.689 14.007 116.843 15.3977C117.997 16.7611 118.81 18.4144 119.047 20.2242C119.335 22.0077 118.863 23.8963 117.971 25.5234C117.079 27.1493 115.715 28.5138 114.167 29.5894L114.114 29.6156L114.14 29.6681L114.718 31.3729C115.584 33.4716 116.974 35.3087 118.653 36.8296C118.968 36.9084 119.257 36.9872 119.572 37.0397L119.388 37.4598C119.125 37.2498 118.889 37.0397 118.653 36.8296C114.848 35.8328 111.254 34.128 108.053 31.9244L107.791 31.7405L107.45 31.8193C103.856 32.6586 100.104 32.7636 96.4835 32.1344C92.8628 31.5305 89.3209 30.1398 86.5921 27.7533C85.2539 26.5464 84.1258 25.1032 83.5218 23.4247C82.9714 21.7977 82.9189 19.9353 83.4693 18.2306Z" fill="#0C2221"/>
<path d="M118.653 36.8296C116.974 35.3087 115.584 33.4716 114.718 31.3729L114.14 29.6681L114.114 29.6156L114.167 29.5894C115.715 28.5138 117.079 27.1493 117.971 25.5234C118.863 23.8963 119.335 22.0077 119.047 20.2242C118.81 18.4144 117.997 16.7611 116.843 15.3977C115.689 14.007 114.219 12.8789 112.645 11.9609C109.47 10.1773 105.823 9.10175 102.098 8.83915C101.153 8.76038 100.235 8.78664 99.2901 8.78664C98.3458 8.86541 97.4015 8.91793 96.4835 9.07549C94.6464 9.38955 92.8103 9.86222 91.1045 10.649C89.3724 11.4094 87.7727 12.4062 86.4345 13.6919C85.0963 14.9513 83.9945 16.4985 83.4693 18.2306C82.9189 19.9353 82.9714 21.7977 83.5218 23.4247C84.1258 25.1032 85.2539 26.5464 86.5921 27.7533C89.3209 30.1398 92.8628 31.5305 96.4835 32.1344C100.104 32.7636 103.856 32.6586 107.45 31.8193L107.791 31.7405L108.053 31.9244C111.254 34.128 114.848 35.8328 118.653 36.8296ZM118.653 36.8296C118.968 36.9084 119.257 36.9872 119.572 37.0397L119.388 37.4598C119.125 37.2498 118.889 37.0397 118.653 36.8296ZM82.3937 23.8438C82.9977 25.7859 84.2046 27.4907 85.674 28.8289C88.6119 31.5305 92.3902 33.105 96.2471 33.7604C97.2177 33.9705 98.1882 34.023 99.1588 34.128C100.13 34.1543 101.127 34.2068 102.098 34.1543C103.934 34.0755 105.771 33.8129 107.554 33.314C109.339 34.4158 111.228 35.3087 113.17 35.9904C115.216 36.6983 117.341 37.2235 119.493 37.5376L120.516 37.6951L119.676 37.1185C118.626 36.4105 117.682 35.544 116.869 34.5734C116.029 33.6029 115.373 32.501 114.848 31.3466L114.298 29.7207C115.846 28.6451 117.262 27.3594 118.339 25.7597C119.388 24.1589 120.07 22.1653 119.912 20.1717C119.833 18.1518 119.047 16.2107 117.84 14.6362C116.607 13.0365 115.032 11.7771 113.327 10.8328C109.89 8.86541 105.955 8.05242 102.124 8.02616C100.183 7.9999 98.267 8.18267 96.4047 8.5503C94.5151 8.91793 92.679 9.41581 90.9207 10.2025C89.1634 10.9641 87.4838 11.9346 86.0144 13.194C84.5449 14.4524 83.2865 16.0269 82.5775 17.9155C82.3675 18.3619 82.2887 18.886 82.1574 19.3587C82.0534 19.8566 82.0534 20.3555 81.9746 20.8534C82.0009 21.3523 82.0009 21.8764 82.0534 22.3754C82.1836 22.847 82.2362 23.3722 82.3937 23.8438Z" stroke="#0C2221" stroke-width="1.22591"/>
</g>
<path d="M100.963 24.8678C101.095 25.2607 101.461 25.5233 101.829 25.497C102.223 25.4707 102.538 25.2081 102.59 24.8416C102.091 23.0044 101.855 21.0896 102.459 19.3586C102.747 18.4931 103.272 17.679 103.403 16.656C103.482 16.1581 103.377 15.5804 103.088 15.135C102.799 14.6886 102.406 14.3483 101.96 14.112L101.934 14.0857H101.907C101.907 14.0857 101.802 14.0857 101.724 14.0857L101.645 14.1382L101.514 14.2432C101.41 14.322 101.331 14.3998 101.252 14.5048C101.068 14.6886 100.911 14.8724 100.779 15.0562C100.491 15.4491 100.28 15.8955 100.176 16.3682C99.9401 17.3125 100.045 18.283 100.124 19.2273C100.254 21.1421 100.596 23.0044 100.963 24.8678ZM100.333 16.4207C100.464 15.9743 100.674 15.5541 100.963 15.2138C101.121 15.03 101.278 14.8724 101.436 14.7411C101.514 14.6624 101.619 14.5836 101.724 14.5311L101.829 14.4523L101.776 14.426H101.75C101.75 14.426 101.855 14.426 101.934 14.426L101.855 14.4785L101.829 14.5048C102.59 14.9775 103.088 15.7905 102.931 16.656C102.773 17.5225 102.275 18.3355 101.986 19.2798C101.383 21.1684 101.75 23.2145 102.538 24.9193C102.406 25.2081 102.118 25.392 101.829 25.3657C101.54 25.3394 101.305 25.1294 101.252 24.8678C101.042 22.9782 100.806 21.1159 100.385 19.2798C100.229 18.283 100.071 17.3387 100.333 16.4207Z" fill="#0C2221" stroke="#0C2221" stroke-width="1.22591"/>
<path d="M102.276 25.9175C101.883 25.969 101.62 26.2841 101.515 26.5992C101.385 26.9143 101.385 27.2547 101.437 27.5698C101.515 27.8849 101.646 28.1727 101.83 28.4353C102.014 28.6716 102.329 28.908 102.696 28.8817C103.063 28.8292 103.326 28.5403 103.431 28.2252C103.536 27.9111 103.536 27.596 103.483 27.2809C103.431 26.9669 103.352 26.6517 103.168 26.3892C102.984 26.1003 102.644 25.865 102.276 25.9175ZM102.696 28.6979C102.434 28.7504 102.119 28.6454 101.935 28.3828C101.725 28.1464 101.62 27.8586 101.594 27.5435C101.541 26.9669 101.804 26.2579 102.329 26.1528C102.853 26.1003 103.405 26.6517 103.483 27.2547C103.562 27.8849 103.221 28.5666 102.696 28.6979Z" fill="#0C2221" stroke="#0C2221" stroke-width="1.22591"/>
</svg>
