<svg width="201" height="151" viewBox="0 0 201 151" fill="none" xmlns="http://www.w3.org/2000/svg">
<path d="M89.1228 95.5788C83.2737 101.054 77.4105 106.516 71.5962 112.028C70.7647 112.819 69.9395 113.618 69.1042 114.403C68.8947 114.601 69.2095 114.915 69.419 114.72C75.2565 109.232 81.1158 103.766 86.9443 98.2675C87.7784 97.4797 88.6125 96.6918 89.4479 95.904C89.6638 95.6996 89.3387 95.3757 89.1228 95.5788Z" fill="#0C2221"/>
<path d="M158.756 30.2854C152.062 36.1807 145.681 42.4591 139.163 48.5471C138.217 49.4301 137.268 50.3105 136.325 51.1973C136.097 51.4119 136.44 51.7538 136.667 51.5404C143.172 45.4279 149.661 39.2974 156.131 33.1489C157.069 32.2582 158.01 31.3689 158.922 30.4538C159.031 30.3446 158.868 30.1852 158.756 30.2854Z" fill="#0C2221"/>
<path d="M77.9008 96.0105C71.3642 102.127 64.8571 108.273 58.3346 114.403C58.1251 114.601 58.44 114.915 58.6495 114.719C65.172 108.588 71.7099 102.473 78.2196 96.3279C78.4304 96.1287 78.1129 95.8125 77.9008 96.0105Z" fill="#0C2221"/>
<path d="M147.987 30.2855C141.476 35.9521 135.295 42.0492 129.003 47.9599C128.779 48.172 129.119 48.51 129.344 48.2992C135.631 42.3898 142.097 36.5986 148.155 30.4539C148.262 30.3434 148.101 30.1866 147.987 30.2855Z" fill="#0C2221"/>
<path d="M70.8039 92.5609C64.0076 98.924 57.1883 105.263 50.4318 111.67C49.4731 112.58 48.5246 113.498 47.5607 114.403C47.3525 114.601 47.666 114.915 47.8755 114.719C54.6589 108.343 61.4603 101.984 68.2322 95.5953C69.1922 94.6866 70.1536 93.7806 71.1162 92.8719C71.3218 92.6778 71.0108 92.3668 70.8039 92.5609Z" fill="#0C2221"/>
<path d="M137.213 30.2855C130.716 35.9405 124.547 42.0261 118.273 47.9226C118.049 48.1334 118.386 48.4689 118.608 48.2594C124.881 42.3628 131.337 36.5844 137.38 30.4539C137.489 30.3434 137.328 30.1866 137.213 30.2855Z" fill="#0C2221"/>
<path d="M177.167 124.05C177.051 124.675 176.902 125.297 176.599 125.86C176.286 126.438 175.839 126.858 175.387 127.321C175.267 127.441 175.42 127.648 175.568 127.556C176.694 126.882 177.411 125.36 177.322 124.071C177.318 123.987 177.185 123.956 177.167 124.05Z" fill="#0C2221"/>
<path d="M178.362 123.437C178.147 125.049 177.647 126.374 176.804 127.762C176.674 127.977 176.99 128.149 177.133 127.955C178.067 126.681 178.593 125.012 178.61 123.437C178.611 123.273 178.382 123.286 178.362 123.437Z" fill="#0C2221"/>
<path d="M179.562 122.153C179.671 123.697 179.298 124.976 178.532 126.307C178.443 126.464 178.666 126.583 178.767 126.445C179.661 125.228 179.945 123.608 179.675 122.138C179.662 122.076 179.558 122.09 179.562 122.153Z" fill="#0C2221"/>
<path d="M96.3078 121.608C94.8195 121.531 93.2399 121.571 91.7568 121.732C91.6064 121.748 91.5974 121.971 91.7568 121.973C93.2541 122.014 94.8413 121.919 96.3219 121.721C96.3887 121.711 96.3682 121.612 96.3078 121.608Z" fill="#0C2221"/>
<path d="M95.2975 122.4C94.5289 122.347 93.7076 122.327 92.9391 122.393C92.8016 122.405 92.8016 122.594 92.9391 122.606C93.7076 122.672 94.5276 122.652 95.2975 122.599C95.4247 122.59 95.426 122.409 95.2975 122.4Z" fill="#0C2221"/>
<path d="M105.749 121.692C106.95 121.82 108.289 121.778 109.489 121.606C109.626 121.585 109.59 121.365 109.456 121.367C108.223 121.38 106.984 121.516 105.749 121.548C105.655 121.552 105.659 121.683 105.749 121.692Z" fill="#0C2221"/>
<path d="M105.917 122.571C106.866 122.62 107.832 122.671 108.783 122.631C108.951 122.624 108.951 122.376 108.783 122.368C107.833 122.328 106.866 122.381 105.917 122.428C105.825 122.433 105.824 122.566 105.917 122.571Z" fill="#0C2221"/>
<path d="M112.743 71.1839C106.107 74.0101 99.5677 77.0548 92.9231 79.863C92.7008 79.9568 92.8601 80.3411 93.0889 80.2563C99.8594 77.7308 106.314 74.406 112.904 71.4577C113.091 71.3728 112.928 71.1055 112.743 71.1839Z" fill="#0C2221"/>
<path d="M110.347 74.3147C107.732 75.3994 105.14 76.5343 102.543 77.6575C99.8026 78.8438 96.8813 79.8861 94.2851 81.3564C94.118 81.4515 94.2286 81.7381 94.4175 81.6739C97.0753 80.7639 99.6419 79.4042 102.205 78.2565C104.954 77.0239 107.709 75.803 110.42 74.4869C110.514 74.4419 110.445 74.2748 110.347 74.3147Z" fill="#0C2221"/>
<path d="M73.717 72.5783C72.8533 74.1514 71.9717 75.7168 71.1363 77.304C71.0823 77.4081 71.2365 77.4994 71.2944 77.3966C72.1786 75.835 73.0178 74.2478 73.8738 72.6708C73.9303 72.5667 73.7736 72.4755 73.717 72.5783Z" fill="#0C2221"/>
<path d="M74.4532 74.7645C73.0369 77.2308 71.8044 79.8308 70.9549 82.5491C70.9124 82.6879 71.1219 82.7419 71.1695 82.6095C72.1308 79.9272 73.2168 77.3465 74.619 74.8622C74.682 74.7529 74.5162 74.6565 74.4532 74.7645Z" fill="#0C2221"/>
<path d="M75.0915 78.408C73.5904 81.391 72.2486 84.4177 71.2551 87.6115C71.2153 87.7426 71.4196 87.7978 71.4608 87.668C72.4787 84.5179 73.7009 81.4347 75.319 78.5404C75.4012 78.3913 75.1673 78.2576 75.0915 78.408Z" fill="#0C2221"/>
<path d="M74.917 84.2583C73.8682 86.4111 73.0161 88.6332 72.3568 90.9376C72.3131 91.0944 72.5547 91.16 72.601 91.0045C73.2616 88.7258 74.1111 86.5281 75.1547 84.3972C75.2344 84.2378 74.9941 84.0977 74.917 84.2583Z" fill="#0C2221"/>
<path d="M76.0968 89.1218C75.5994 90.2682 75.2832 91.4686 75.2035 92.7178C75.1907 92.917 75.4901 92.9093 75.5107 92.7178C75.6341 91.5264 75.913 90.3954 76.4001 89.3004C76.4913 89.0948 76.1867 88.9174 76.0968 89.1218Z" fill="#0C2221"/>
<path d="M129.315 51.0098C129.028 51.3182 128.791 51.6897 128.543 52.0315C128.449 52.1601 128.665 52.2847 128.756 52.1562C128.995 51.8195 129.264 51.4827 129.46 51.1203C129.508 51.0316 129.39 50.9301 129.315 51.0098Z" fill="#0C2221"/>
<path d="M131.067 51.4749C130.48 52.5944 129.791 53.6431 129.008 54.6353C128.901 54.769 129.092 54.9592 129.197 54.8242C129.985 53.8089 130.657 52.7203 131.224 51.5675C131.275 51.4621 131.121 51.3695 131.067 51.4749Z" fill="#0C2221"/>
<path d="M132.88 52.5352C131.679 54.3602 130.462 56.1775 129.32 58.0411C129.237 58.176 129.444 58.293 129.529 58.1632C130.728 56.3369 131.852 54.4617 132.992 52.6007C133.035 52.5288 132.926 52.4658 132.88 52.5352Z" fill="#0C2221"/>
<path d="M133.335 55.4629C131.831 57.6568 130.353 59.8211 128.663 61.8801C128.524 62.0484 128.762 62.29 128.903 62.1204C130.609 60.0859 132.226 57.892 133.467 55.5401C133.514 55.4514 133.39 55.3807 133.335 55.4629Z" fill="#0C2221"/>
<path d="M133.204 60.0448C131.698 62.1358 130.17 64.214 128.706 66.3359C128.614 66.4709 128.831 66.593 128.925 66.4632C130.441 64.3811 131.897 62.2541 133.37 60.1412C133.442 60.0383 133.275 59.9445 133.204 60.0448Z" fill="#0C2221"/>
<path d="M132.623 66.0275C131.601 67.4863 130.566 68.936 129.567 70.4101C129.484 70.5322 129.681 70.6428 129.765 70.5245C130.802 69.0786 131.804 67.6058 132.819 66.1432C132.902 66.0224 132.705 65.9093 132.623 66.0275Z" fill="#0C2221"/>
<path d="M133.549 70.2908C133.053 70.9655 132.549 71.6325 132.081 72.3265C132.006 72.4332 132.176 72.5245 132.252 72.4268C132.761 71.7623 133.234 71.0722 133.716 70.3884C133.788 70.2856 133.622 70.1918 133.549 70.2908Z" fill="#0C2221"/>
<path d="M164.75 99.6849C164.622 103.061 164.746 106.449 164.659 109.829C164.573 113.212 164.255 116.584 164.164 119.962C164.159 120.182 164.471 120.168 164.496 119.962C164.908 116.622 164.944 113.191 165.02 109.829C165.095 106.463 165.191 103.041 164.884 99.6849C164.876 99.5988 164.754 99.5963 164.75 99.6849Z" fill="#0C2221"/>
<path d="M37.1522 100.942C36.6432 103.582 36.908 106.522 36.9491 109.198C36.9967 112.152 37.1136 115.101 37.2897 118.049C37.3064 118.35 37.7794 118.351 37.7601 118.049C37.5686 115.102 37.4349 112.152 37.3745 109.198C37.318 106.494 37.6097 103.619 37.219 100.942C37.2152 100.907 37.1599 100.91 37.1522 100.942Z" fill="#0C2221"/>
<path d="M36.5932 45.8432C37.2165 39.5726 37.2448 33.1362 36.998 26.8437C36.989 26.6188 36.642 26.6162 36.6459 26.8437C36.759 33.1914 36.5842 39.498 36.4493 45.8432C36.4467 45.937 36.5842 45.9331 36.5932 45.8432Z" fill="#0C2221"/>
<path d="M165.271 45.5269C165.322 39.3129 165.149 33.0423 164.589 26.8501C164.569 26.6277 164.226 26.6226 164.239 26.8501C164.559 33.077 164.919 39.2949 165.152 45.5269C165.154 45.6028 165.269 45.6028 165.271 45.5269Z" fill="#0C2221"/>
<path d="M51.3871 25.926C48.6496 26.0301 45.8992 25.9324 43.1617 25.962C41.6618 25.9774 40.1594 25.989 38.6621 26.0712C37.6301 26.1291 36.5338 26.1766 35.6611 26.8012C34.4915 27.6392 34.2384 29.0889 34.16 30.4294C34.0353 32.5526 34.1163 34.6925 34.1638 36.817C34.2821 42.0838 34.2371 47.3481 34.2217 52.6162C34.1664 71.5565 34.2037 90.4956 34.1677 109.435C34.1625 111.529 34.1561 113.59 34.5211 115.667C34.8 117.253 35.6046 118.534 37.1378 119.157C38.6839 119.784 40.2982 119.481 41.897 119.725C42.726 119.854 43.082 118.583 42.2466 118.457C40.9858 118.265 39.6941 118.44 38.4397 118.181C36.4297 117.765 35.8757 116.302 35.6534 114.452C35.467 112.901 35.4555 111.393 35.4555 109.836C35.4568 103.753 35.4516 97.6697 35.4336 91.5867C35.4002 80.7022 35.3938 69.8189 35.3347 58.9344C35.3064 53.5017 35.2768 48.0704 35.2485 42.639C35.2267 38.6394 34.8334 34.6218 34.9941 30.6235C35.0828 28.4013 35.8847 27.0557 38.1891 26.8449C39.6594 26.71 41.1413 26.6663 42.6167 26.6136C45.5355 26.5069 48.4735 26.5134 51.3871 26.282C51.612 26.2627 51.6184 25.9157 51.3871 25.926Z" fill="#0C2221"/>
<path d="M150.254 26.5983C154.79 26.8245 159.337 26.8566 163.868 27.1458C164.232 27.1689 164.61 27.174 164.97 27.2344C166.256 27.4516 166.445 28.1032 166.497 29.2844C166.582 31.2251 166.614 33.1657 166.61 35.1077C166.6 39.9029 166.553 44.7006 166.535 49.4958C166.459 68.5646 166.403 87.6347 166.432 106.705C166.435 108.95 166.506 111.206 166.444 113.451C166.399 115.086 166.012 116.883 164.429 117.719C162.977 118.489 161.248 118.264 159.677 118.524C158.927 118.647 159.251 119.773 159.99 119.659C163.077 119.187 165.844 119.499 167.259 116.144C167.961 114.478 167.742 112.458 167.742 110.68C167.745 103.38 167.758 96.0786 167.763 88.7773C167.77 76.515 167.781 64.2514 167.761 51.9891C167.752 46.6066 167.79 41.2215 167.731 35.839C167.707 33.7145 167.65 31.5939 167.525 29.472C167.458 28.3192 167.418 27.1483 166.253 26.5854C165.254 26.1022 163.895 26.2127 162.818 26.1908C161.103 26.1549 159.388 26.1471 157.672 26.1407C155.198 26.1317 152.724 26.1613 150.254 26.2422C150.024 26.25 150.025 26.5867 150.254 26.5983Z" fill="#0C2221"/>
<path d="M39.7153 26.3464C43.7548 26.4993 47.7942 26.5212 51.8349 26.5546C61.5936 26.6317 71.3523 26.7037 81.1097 26.7756C92.8682 26.8618 104.625 27.0096 116.384 26.9196C126.595 26.8412 136.802 26.7821 147.013 26.7936C150.361 26.7975 153.708 26.8065 157.057 26.7911C158.508 26.7846 160.407 27.0995 161.828 26.7255C161.949 26.6947 161.937 26.7165 162.039 26.7165C162.383 26.7178 162.385 26.1832 162.039 26.1819C158.147 26.1754 153.918 26.0675 149.919 26.0585C140.161 26.0328 130.402 25.9711 120.644 25.8619C108.886 25.7295 97.1287 25.7205 85.3702 25.8104C75.1604 25.8901 64.9519 25.8863 54.7421 25.9313C51.3954 25.9467 48.0448 25.939 44.6981 25.9878C43.6622 26.0019 42.6263 26.0097 41.5904 26.0431C41.129 26.0585 40.3631 25.9351 39.9261 26.1009C39.8708 26.1228 39.777 26.106 39.7153 26.1086C39.5636 26.1138 39.5636 26.34 39.7153 26.3464Z" fill="#0C2221"/>
<path d="M54.2416 29.8729C51.8061 29.9565 49.3629 29.8459 46.9274 29.8948C44.8466 29.9359 42.1245 29.6724 40.2776 30.8433C37.5632 32.5629 38.3369 36.8106 38.3973 39.5237C38.5014 44.1697 38.4796 48.812 38.4642 53.4593C38.4038 70.6774 38.4398 87.8956 38.4025 105.114C38.3986 107.042 38.3716 108.921 38.6274 110.838C38.8099 112.221 39.1762 113.741 40.4216 114.568C41.6849 115.406 43.3262 115.097 44.7528 115.27C45.592 115.37 45.5856 114.051 44.7528 113.953C43.3159 113.782 41.5371 114.219 40.5758 112.875C39.7712 111.752 39.7764 109.917 39.7108 108.582C39.6491 107.327 39.6928 106.061 39.6928 104.803C39.6928 98.8148 39.6787 92.827 39.6607 86.8391C39.6312 77.3876 39.6222 67.9373 39.5656 58.4884C39.5386 53.7768 39.5322 49.0639 39.4846 44.3522C39.4666 42.6557 39.387 40.9618 39.3201 39.2666C39.2494 37.4275 38.9975 35.375 39.3484 33.5487C39.9627 30.3523 44.0922 30.6633 46.5611 30.5425C49.1174 30.4166 51.6891 30.4346 54.2416 30.2289C54.4665 30.2122 54.4729 29.8652 54.2416 29.8729Z" fill="#0C2221"/>
<path d="M147.09 30.5208C149.271 30.7457 151.477 30.7534 153.666 30.8511C155.721 30.9436 158.827 30.6468 160.611 31.8883C162.276 33.0475 162.007 35.1964 162.029 36.9983C162.057 39.1279 162.016 41.2588 162.001 43.3872C161.971 48.0011 161.96 52.6125 161.942 57.2264C161.875 73.0475 161.84 88.8712 161.867 104.694C161.871 106.574 162.038 108.54 161.817 110.413C161.652 111.806 160.94 113.08 159.549 113.572C158.319 114.006 156.984 113.882 155.715 114.09C154.964 114.212 155.289 115.336 156.027 115.226C158.577 114.842 161.214 115.163 162.524 112.438C163.206 111.021 163.174 109.531 163.174 107.991C163.177 102.3 163.188 96.6082 163.192 90.9172C163.201 80.3193 163.219 69.7201 163.199 59.1208C163.19 54.0404 163.173 48.9599 163.172 43.8768C163.17 41.6714 163.174 39.4659 163.115 37.2618C163.074 35.7298 163.228 33.8611 162.474 32.4615C161.174 30.0478 158.005 30.2136 155.668 30.1442C152.806 30.0594 149.949 30.1956 147.09 30.1635C146.856 30.1622 146.866 30.4964 147.09 30.5208Z" fill="#0C2221"/>
<path d="M44.8091 30.2843C48.5156 30.4372 52.2222 30.459 55.9288 30.4912C64.8341 30.567 73.7394 30.6364 82.6447 30.7071C93.4791 30.7919 104.311 30.9371 115.145 30.8459C124.47 30.7662 133.793 30.7058 143.116 30.7161C146.203 30.7187 149.291 30.7277 152.378 30.7122C153.707 30.7045 155.44 30.9898 156.742 30.6467C156.856 30.6171 156.853 30.6364 156.94 30.6364C157.284 30.6364 157.285 30.103 156.94 30.1018C153.385 30.0953 149.484 29.9899 145.821 29.9797C136.914 29.9578 128.009 29.8974 119.105 29.7894C108.271 29.6584 97.4389 29.6558 86.6045 29.7432C77.2815 29.8177 67.9559 29.8216 58.6329 29.8666C55.5471 29.8833 52.4587 29.8756 49.3716 29.9257C48.427 29.9398 47.4797 29.9475 46.5351 29.9809C46.1161 29.9964 45.4041 29.8871 45.0083 30.0388C44.9556 30.0593 44.8669 30.0439 44.8091 30.0465C44.6574 30.0529 44.6574 30.2778 44.8091 30.2843Z" fill="#0C2221"/>
<path d="M43.9172 115.246C56.8928 115.159 69.8735 115.253 82.8491 115.263C102.207 115.282 121.564 115.304 140.919 115.296C146.081 115.295 151.24 115.302 156.4 115.201C157.215 115.186 157.217 113.919 156.4 113.935C143.434 114.186 130.434 113.928 117.468 113.921C98.1111 113.914 78.7544 113.896 59.3977 113.885C54.2375 113.883 49.0773 113.854 43.9172 113.89C43.0445 113.897 43.0419 115.253 43.9172 115.246Z" fill="#0C2221"/>
<path d="M22.6524 122.504C22.7501 125.641 26.9553 125.454 29.2777 125.474C32.4535 125.505 35.628 125.522 38.8025 125.544C50.1446 125.626 61.4893 125.596 72.8301 125.603C87.1526 125.607 101.476 125.58 115.799 125.563C128.32 125.546 140.84 125.532 153.361 125.517C157.506 125.511 161.65 125.504 165.793 125.495C167.705 125.49 169.872 125.731 171.766 125.424C171.851 125.41 171.944 125.42 172.029 125.42C172.5 125.42 172.502 124.688 172.029 124.688C167.14 124.694 162.249 124.626 157.359 124.631C145.697 124.646 134.035 124.659 122.372 124.673C108.273 124.69 94.1712 124.693 80.0697 124.724C68.0323 124.749 55.9962 124.793 43.9601 124.853C38.3321 124.882 32.6733 125.132 27.0466 125.01C25.5365 124.977 23.0534 124.541 22.9095 122.504C22.8992 122.339 22.6473 122.336 22.6524 122.504Z" fill="#0C2221"/>
<path d="M100.709 27.9735C100.552 27.8835 100.366 28.0069 100.349 28.1791C100.33 28.4066 100.533 28.6097 100.756 28.6148C101.03 28.6199 101.261 28.3642 101.171 28.0904C101.101 27.8758 100.854 27.7229 100.634 27.8115C100.47 27.8758 100.412 28.1676 100.634 28.2048C100.699 28.2151 100.656 28.1945 100.668 28.219C100.655 28.1778 100.643 28.1354 100.633 28.0917C100.634 28.039 100.655 28.0673 100.624 28.0866C100.616 28.0981 100.61 28.1097 100.605 28.12C100.651 28.066 100.695 28.0596 100.732 28.1007C100.765 28.1316 100.773 28.1303 100.752 28.0969C100.749 28.0827 100.742 28.0712 100.734 28.0583C100.725 28.0262 100.711 28.0647 100.728 28.0172C100.733 28.0018 100.724 27.9812 100.709 27.9735Z" fill="#0C2221"/>
<path d="M86.4041 120.18C88.418 119.935 90.2854 120.445 91.7133 121.937C92.5808 122.845 93.0577 123.618 94.3789 123.827C97.0881 124.255 100.06 123.92 102.801 123.983C104.188 124.014 106.033 124.389 107.365 123.83C108.307 123.436 109.038 122.545 109.745 121.847C111.353 120.264 113.236 119.945 115.395 120.232C115.859 120.293 115.926 119.56 115.503 119.435C112.509 118.557 110.33 120.161 108.347 122.149C106.752 123.751 104.914 123.414 102.801 123.436C101.36 123.451 99.9182 123.431 98.4787 123.417C96.9339 123.401 94.5318 123.722 93.2774 122.751C92.1426 121.872 91.545 120.72 90.1531 120.128C88.9372 119.611 87.6327 119.538 86.3655 119.898C86.2164 119.94 86.2383 120.2 86.4041 120.18Z" fill="#0C2221"/>
<path d="M70.683 65.1499C70.7447 63.0228 70.7794 60.8932 70.9516 58.7713C71.129 56.5826 71.2408 53.3091 72.9848 51.7309C74.4847 50.3724 77.0976 50.2053 79.0023 50.0485C81.1794 49.8686 83.363 49.8917 85.5453 49.8339C85.9437 49.8249 85.9347 49.1861 85.5453 49.2208C82.8425 49.4663 80.1127 49.447 77.4176 49.7838C75.7931 49.9856 73.9269 50.2657 72.652 51.3967C71.1663 52.7141 70.9838 54.9696 70.764 56.8229C70.4388 59.5836 70.4452 62.3751 70.4645 65.1499C70.4658 65.29 70.6779 65.29 70.683 65.1499Z" fill="#0C2221"/>
<path d="M119.035 93.1187C121.811 93.1367 124.602 93.1419 127.363 92.818C129.212 92.6008 131.474 92.4157 132.79 90.9313C133.924 89.6525 134.202 87.7966 134.406 86.1657C134.743 83.4718 134.722 80.742 134.968 78.0418C135.002 77.6524 134.365 77.6421 134.355 78.0418C134.299 80.1316 134.321 82.2226 134.162 84.3085C134.008 86.3225 133.866 88.9957 132.458 90.5984C130.973 92.2846 127.774 92.426 125.697 92.6072C123.482 92.8013 121.256 92.8347 119.035 92.8989C118.895 92.9041 118.895 93.1174 119.035 93.1187Z" fill="#0C2221"/>
<path d="M21.4172 120.903C26.7367 120.903 32.0575 120.903 37.377 120.903C50.0429 120.903 62.7075 120.905 75.3733 120.905C90.7921 120.905 106.211 120.883 121.63 120.865C134.871 120.849 148.114 120.842 161.356 120.78C165.754 120.762 170.152 120.743 174.55 120.723C176.618 120.714 178.736 120.836 180.801 120.694C180.889 120.688 180.98 120.693 181.069 120.693C182.584 120.692 182.585 118.336 181.069 118.337C175.749 118.341 170.427 118.303 165.108 118.285C152.442 118.243 139.777 118.237 127.111 118.237C111.692 118.236 96.2749 118.227 80.8548 118.245C67.6145 118.261 54.3715 118.277 41.1286 118.294C36.7306 118.299 32.3325 118.303 27.9345 118.308C25.8679 118.31 23.7485 118.18 21.6845 118.317C21.5971 118.322 21.5058 118.313 21.4172 118.313C19.7477 118.314 19.7451 120.903 21.4172 120.903Z" fill="#0C2221"/>
<path d="M49.369 23.7476C46.5877 23.7952 43.8027 23.6243 41.0189 23.6602C38.5924 23.6911 35.4513 23.3826 33.4245 24.993C31.958 26.1587 31.5776 27.8861 31.453 29.6687C31.2756 32.1993 31.2306 34.7427 31.2011 37.2785C31.1368 42.8383 31.1599 48.4008 31.0687 53.9594C30.7679 72.721 30.6767 91.4724 30.6227 110.238C30.6163 112.463 30.6073 114.691 31.0674 116.885C31.4273 118.615 32.5094 119.967 34.202 120.539C35.8291 121.088 37.4344 120.639 39.0692 120.882C40.7297 121.129 41.4404 118.587 39.7696 118.344C38.5088 118.161 37.2506 118.377 35.9885 118.249C34.2612 118.071 33.6957 117.12 33.4605 115.516C33.2189 113.875 33.2021 112.266 33.2021 110.617C33.1983 104.705 33.188 98.793 33.1623 92.881C33.1135 81.9669 33.1186 71.0618 33.2266 60.149C33.3281 50.0034 32.742 39.8065 33.1456 29.6687C33.2253 27.6676 33.9334 25.8631 36.0656 25.4159C37.5051 25.1138 39.0139 25.0483 40.4791 24.9545C43.4377 24.7655 46.4168 24.7501 49.369 24.4597C49.8162 24.416 49.8368 23.7399 49.369 23.7476Z" fill="#0C2221"/>
<path d="M152.491 24.4468C155.047 24.8093 157.635 24.9404 160.21 25.0894C161.713 25.1768 163.215 25.2591 164.715 25.3786C165.929 25.475 167.486 25.5007 168.239 26.624C168.743 27.3771 168.634 28.458 168.666 29.3217C168.708 30.4193 168.744 31.5156 168.775 32.6118C168.834 34.7749 168.884 36.9392 168.889 39.1035C168.907 44.3652 168.824 49.6269 168.79 54.8886C168.673 72.7994 168.64 90.7142 168.686 108.626C168.69 110.694 168.806 112.793 168.655 114.857C168.563 116.124 168.092 117.501 166.725 118.002C165.287 118.529 163.67 118.232 162.179 118.478C160.673 118.726 161.331 120.957 162.805 120.749C164.221 120.549 165.645 120.808 167.062 120.459C168.772 120.04 169.894 118.983 170.601 117.403C171.348 115.731 171.297 113.984 171.298 112.189C171.306 105.963 171.324 99.7351 171.333 93.5082C171.349 81.5634 171.363 69.6185 171.313 57.6737C171.288 51.8529 171.27 46.0321 171.24 40.2114C171.228 37.9262 171.131 35.645 171.002 33.3624C170.887 31.3099 170.978 29.0492 170.522 27.0366C169.69 23.3621 165.685 23.6191 162.724 23.5973C159.341 23.5703 155.966 23.677 152.586 23.7477C152.202 23.7554 152.079 24.389 152.491 24.4468Z" fill="#0C2221"/>
<path d="M37.6274 24.47C41.821 24.7618 46.0173 24.7836 50.22 24.8325C60.2974 24.9443 70.3774 25.0445 80.4548 25.1448C92.6978 25.2682 104.934 25.5034 117.177 25.2707C127.692 25.0715 138.205 24.9096 148.721 24.8877C153.747 24.8774 158.918 25.182 163.925 24.686C164.512 24.6294 163.868 24.6692 164.116 24.6692C164.804 24.668 164.805 23.5987 164.116 23.5999C163.902 23.5999 164.412 23.6295 163.912 23.5807C163.702 23.5601 163.493 23.5382 163.285 23.5215C162.473 23.4573 161.656 23.4676 160.843 23.4573C157.802 23.4226 154.762 23.4072 151.723 23.4046C141.676 23.3994 131.634 23.321 121.59 23.1463C109.348 22.9316 97.1139 22.9573 84.8734 23.1964C74.3307 23.402 63.7842 23.438 53.239 23.5729C49.7624 23.6179 46.2808 23.6179 42.8055 23.7285C41.325 23.7773 39.2776 23.5125 37.8471 23.9791C37.7829 23.9984 37.6955 23.9894 37.6274 23.9945C37.3228 24.0151 37.3215 24.4469 37.6274 24.47Z" fill="#0C2221"/>
<path d="M20.1108 120.103C19.9309 122.65 19.643 125.515 22.2417 127.099C24.4356 128.438 27.3441 128.226 29.8143 128.421C31.237 128.535 32.6932 128.497 34.1185 128.519C42.705 128.651 51.2916 128.746 59.8782 128.804C72.242 128.884 84.6058 128.926 96.9697 128.969C108.316 129.006 119.663 129.021 131.01 129.023C134.871 129.024 138.732 129.006 142.594 128.975C144.42 128.96 146.294 129.064 148.116 128.93C148.197 128.924 148.282 128.927 148.364 128.927C149.881 128.931 149.884 126.574 148.364 126.572C143.833 126.564 139.304 126.441 134.772 126.426C124.196 126.389 113.62 126.348 103.044 126.344C90.762 126.339 78.4818 126.316 66.2002 126.351C56.7242 126.378 47.247 126.405 37.7698 126.515C35.4358 126.542 33.1019 126.564 30.7692 126.617C27.3685 126.694 21.8382 127.389 21.0632 123.068C20.8884 122.102 20.8935 121.082 20.8241 120.103C20.792 119.644 20.143 119.644 20.1108 120.103Z" fill="#0C2221"/>
<path d="M181.436 119.129C180.94 121.523 180.547 123.958 178.484 125.608C177.007 126.79 174.712 126.597 173.059 126.646C171.705 126.687 169.919 126.586 168.436 126.563C161.544 126.455 154.646 126.452 147.753 126.464C145.874 126.466 143.995 126.578 142.119 126.572C140.602 126.567 140.6 128.922 142.119 128.928C152.775 128.961 163.49 129.534 174.135 128.951C176.675 128.812 178.856 128.532 180.55 126.394C182.222 124.278 182.682 121.707 182.123 119.129C182.049 118.792 181.507 118.788 181.436 119.129Z" fill="#0C2221"/>
<path d="M93.7769 58.1338C93.0662 57.3113 90.5484 57.0941 89.83 57.9796C89.3506 58.5695 89.3467 59.7352 89.2735 60.4434C89.1424 61.7157 89.1154 62.9958 89.0858 64.272C89.0074 67.845 88.9393 71.4179 88.9457 74.9921C88.9496 77.1384 88.9624 79.2873 89.1218 81.4285C89.2028 82.5209 89.1437 84.0812 89.7837 85.0361C90.4636 86.0476 91.7668 85.6928 92.7448 85.4088C94.6727 84.8472 96.5298 84.0041 98.3651 83.1995C105.215 80.1947 112.021 77.0754 118.754 73.8161C119.97 73.2275 118.906 71.4179 117.695 72.0039C112.553 74.4934 107.418 76.9945 102.216 79.3567C98.7545 80.9272 95.2009 82.4811 91.5136 83.4463C91.4853 83.454 91.146 83.481 91.1383 83.4925C91.1666 83.4488 91.7745 83.9128 91.7244 83.9488C91.7552 83.9269 91.4879 82.7484 91.475 82.6404C91.2694 81.0827 91.2039 79.5019 91.0985 77.9352C90.8581 74.3276 90.7232 70.7123 90.614 67.0995C90.5715 65.7205 90.524 64.3376 90.5021 62.9585C90.4829 61.8275 90.461 60.6747 90.5972 59.5501C90.6911 58.7739 90.6371 58.6261 91.3992 58.4924C91.8233 58.4179 92.8759 58.4179 93.1883 58.7212C93.5764 59.1003 94.1226 58.5361 93.7769 58.1338Z" fill="#0C2221"/>
<path d="M90.9533 57.8985C93.205 59.5076 96.1315 60.4561 98.612 61.6822C100.943 62.8337 103.235 64.0701 105.528 65.2924C107.853 66.5326 110.157 67.8114 112.486 69.0426C113.686 69.6775 114.896 70.2945 116.105 70.9101C116.59 71.1556 117.516 71.4113 117.611 72.0334C117.645 72.2467 117.465 72.6863 117.465 72.9484C117.462 73.5062 118.054 74.0242 118.618 73.825C120.953 73.0037 119.697 70.2906 118.172 69.3948C115.257 67.6842 112.106 66.2768 109.11 64.705C106.219 63.1897 103.325 61.704 100.333 60.3982C97.4938 59.1593 94.2281 57.5155 91.0883 57.3998C90.803 57.3908 90.7528 57.7558 90.9533 57.8985Z" fill="#0C2221"/>
<path d="M70.4321 51.8041C73.2969 49.1296 76.2812 48.6566 79.9492 48.4356C83.8357 48.2017 87.7351 48.1258 91.628 48.0808C101.474 47.9703 111.338 47.9896 121.169 48.6104C123.408 48.753 125.648 48.9278 127.874 49.2028C129.992 49.465 133.761 49.9688 134.619 52.2925C135.075 53.5276 136.76 53.0315 136.566 51.7553C136.198 49.3301 133.007 48.0873 130.942 47.5475C129.014 47.045 126.932 46.9267 124.953 46.7519C119.871 46.2982 114.765 46.1402 109.664 46.0656C99.8072 45.9204 89.8943 46.0155 80.0623 46.8188C76.5022 47.1105 71.3601 47.6169 69.9361 51.515C69.8281 51.8093 70.2304 51.9931 70.4321 51.8041Z" fill="#0C2221"/>
<path d="M134.748 90.6549C131.884 93.3397 128.857 93.8037 125.185 94.0685C121.382 94.3422 117.57 94.4759 113.761 94.5761C103.884 94.8383 93.9877 94.9604 84.1159 94.4707C81.8037 94.3564 79.4891 94.2034 77.1872 93.9451C74.6219 93.6585 71.5451 92.9336 70.5619 90.1665C70.1172 88.916 68.4362 89.4365 68.6148 90.7037C68.9644 93.1932 71.9808 95.1403 74.2466 95.6866C76.1398 96.1428 78.2038 96.2174 80.1407 96.3664C85.2289 96.7584 90.3376 96.8497 95.4412 96.8535C105.314 96.8651 115.234 96.6081 125.069 95.6866C128.637 95.3511 133.812 94.846 135.245 90.9441C135.354 90.6498 134.95 90.4673 134.748 90.6549Z" fill="#0C2221"/>
<path d="M71.1778 49.5613C68.8219 51.5804 68.0123 54.9258 67.7346 57.8831C67.3388 62.0871 67.1859 66.3656 67.0997 70.5862C67.0098 75.0485 67.0406 79.5404 67.466 83.9872C67.7758 87.2234 67.9814 91.3541 70.4812 93.7819C71.0454 94.3307 72.1211 93.7871 71.8538 92.9838C71.4014 91.6253 70.5454 90.4789 70.183 89.0716C69.7075 87.226 69.6098 85.2686 69.4478 83.3755C69.0906 79.2216 68.9762 75.0601 69.007 70.8908C69.0379 67.0172 69.0546 63.1409 69.1587 59.2673C69.2011 57.707 69.2923 56.1365 69.6368 54.6109C70.0223 52.8977 70.8899 51.4801 71.6443 49.9224C71.7921 49.6153 71.4387 49.3389 71.1778 49.5613Z" fill="#0C2221"/>
<path d="M133.505 93.4118C136.02 91.2424 136.845 87.4921 137.21 84.351C137.697 80.1702 137.831 75.8968 137.99 71.6942C138.151 67.4504 138.219 63.1809 137.839 58.9473C137.548 55.7227 137.324 51.6074 134.836 49.1912C134.272 48.6437 133.195 49.1861 133.464 49.9906C133.916 51.3478 134.772 52.4942 135.134 53.9016C135.605 55.7304 135.704 57.6673 135.85 59.5424C136.16 63.4932 136.186 67.4452 136.08 71.405C135.979 75.2182 135.966 79.0405 135.795 82.8512C135.715 84.5875 135.544 86.3161 135.15 88.0101C134.724 89.8415 133.845 91.3799 133.038 93.052C132.892 93.3566 133.245 93.6355 133.505 93.4118Z" fill="#0C2221"/>
</svg>
